<svg xmlns="http://www.w3.org/2000/svg" shape-rendering="crispEdges" viewBox="0 -0.5 16 16" width="16" height="16"><metadata>Generated with pixel-perfect-svg https://github.com/kagof/pixel-perfect-svg</metadata><path stroke="#4ed2ff" opacity="0.21568627450980393" d="M5,0h1"/><path stroke="#51d4ff" opacity="0.7490196078431373" d="M6,0h1"/><path stroke="#53cbfc" d="M7,0h1"/><path stroke="#55b9f5" d="M8,0h1"/><path stroke="#56b0f1" opacity="0.7490196078431373" d="M9,0h1"/><path stroke="#58b2f1" opacity="0.21568627450980393" d="M10,0h1"/><path stroke="#7ffffd" opacity="0.047058823529411764" d="M3,1h1"/><path stroke="#79fefd" opacity="0.1607843137254902" d="M4,1h1"/><path stroke="#62dffd" opacity="0.42745098039215684" d="M5,1h1"/><path stroke="#56cefc" opacity="0.8196078431372549" d="M6,1h1"/><path stroke="#52c4f8" d="M7,1h1M3,7h1"/><path stroke="#51b8f1" d="M8,1h1"/><path stroke="#4fafed" opacity="0.8196078431372549" d="M9,1h1"/><path stroke="#49a5ec" opacity="0.42745098039215684" d="M10,1h1"/><path stroke="#3e93e9" opacity="0.1607843137254902" d="M11,1h1"/><path stroke="#3b8ee9" opacity="0.047058823529411764" d="M12,1h1"/><path stroke="#77fbfe" opacity="0.17647058823529413" d="M3,2h1"/><path stroke="#76f9fd" opacity="0.5607843137254902" d="M4,2h1"/><path stroke="#6be5fb" opacity="0.8274509803921568" d="M5,2h1"/><path stroke="#5bc6f7" opacity="0.9490196078431372" d="M6,2h1"/><path stroke="#51b7f1" d="M7,2h1M3,8h1"/><path stroke="#49b4ea" d="M8,2h1M4,8h1"/><path stroke="#44ade7" opacity="0.9490196078431372" d="M9,2h1"/><path stroke="#429fe9" opacity="0.8274509803921568" d="M10,2h1"/><path stroke="#4096ea" opacity="0.5607843137254902" d="M11,2h1"/><path stroke="#3f95ea" opacity="0.17647058823529413" d="M12,2h1"/><path stroke="#77f1ff" opacity="0.23529411764705882" d="M3,3h1"/><path stroke="#74eefe" opacity="0.7725490196078432" d="M4,3h1"/><path stroke="#6bdefa" d="M5,3h1"/><path stroke="#59c0f2" d="M6,3h1"/><path stroke="#4baeeb" d="M7,3h1"/><path stroke="#44ace6" d="M8,3h1"/><path stroke="#40a6e6" d="M9,3h1"/><path stroke="#409ce9" d="M10,3h1"/><path stroke="#4096ea" opacity="0.7725490196078432" d="M11,3h1"/><path stroke="#4096ea" opacity="0.23529411764705882" d="M12,3h1"/><path stroke="#74daff" opacity="0.22745098039215686" d="M3,4h1"/><path stroke="#71d8ff" opacity="0.7647058823529411" d="M4,4h1"/><path stroke="#66cef9" d="M5,4h1"/><path stroke="#50bbec" d="M6,4h1"/><path stroke="#43ace6" d="M7,4h1"/><path stroke="#41a2e7" d="M8,4h1"/><path stroke="#409be9" d="M9,4h1"/><path stroke="#4098ea" d="M10,4h1"/><path stroke="#4097ea" opacity="0.7647058823529411" d="M11,4h1"/><path stroke="#4097ea" opacity="0.22745098039215686" d="M12,4h1"/><path stroke="#4bd9ff" opacity="0.047058823529411764" d="M1,5h1"/><path stroke="#4fd6ff" opacity="0.16470588235294117" d="M2,5h1"/><path stroke="#5fccfe" opacity="0.43529411764705883" d="M3,5h1"/><path stroke="#67c6fd" opacity="0.8274509803921568" d="M4,5h1"/><path stroke="#60c1f7" opacity="0.9607843137254902" d="M5,5h1"/><path stroke="#4cb8ea" opacity="0.8274509803921568" d="M6,5h1"/><path stroke="#3fabe4" opacity="0.7490196078431373" d="M7,5h1"/><path stroke="#3f9ce8" opacity="0.7490196078431373" d="M8,5h1"/><path stroke="#4096ea" opacity="0.8274509803921568" d="M9,5h1"/><path stroke="#4197eb" opacity="0.9607843137254902" d="M10,5h1"/><path stroke="#4198eb" opacity="0.8274509803921568" d="M11,5h1"/><path stroke="#4198ed" opacity="0.43529411764705883" d="M12,5h1"/><path stroke="#419af1" opacity="0.16470588235294117" d="M13,5h1"/><path stroke="#419af2" opacity="0.047058823529411764" d="M14,5h1"/><path stroke="#51d5ff" opacity="0.17647058823529413" d="M1,6h1"/><path stroke="#52d4ff" opacity="0.5607843137254902" d="M2,6h1"/><path stroke="#55cbfc" opacity="0.8470588235294118" d="M3,6h1"/><path stroke="#59bdf7" opacity="0.9725490196078431" d="M4,6h1"/><path stroke="#59b6f3" opacity="0.8235294117647058" d="M5,6h1"/><path stroke="#50b4ec" opacity="0.42745098039215684" d="M6,6h1"/><path stroke="#3dabe2" opacity="0.21176470588235294" d="M7,6h1"/><path stroke="#3e9be7" opacity="0.21176470588235294" d="M8,6h1"/><path stroke="#4196eb" opacity="0.42745098039215684" d="M9,6h1"/><path stroke="#4197eb" opacity="0.8235294117647058" d="M10,6h1"/><path stroke="#4198eb" opacity="0.9725490196078431" d="M11,6h1"/><path stroke="#4198ec" opacity="0.8470588235294118" d="M12,6h1"/><path stroke="#4098ed" opacity="0.5607843137254902" d="M13,6h1"/><path stroke="#4098ed" opacity="0.17647058823529413" d="M14,6h1"/><path stroke="#53cdfd" opacity="0.23137254901960785" d="M1,7h1"/><path stroke="#53cbfc" opacity="0.7607843137254902" d="M2,7h1"/><path stroke="#50b7f1" d="M4,7h1"/><path stroke="#50b0ed" opacity="0.7490196078431373" d="M5,7h1"/><path stroke="#54b2ef" opacity="0.21176470588235294" d="M6,7h1"/><path stroke="#3391e5" opacity="0.21176470588235294" d="M9,7h1"/><path stroke="#348fe1" opacity="0.7490196078431373" d="M10,7h1"/><path stroke="#378fdd" d="M11,7h1"/><path stroke="#3c8dd6" d="M12,7h1"/><path stroke="#3f8dd3" opacity="0.7607843137254902" d="M13,7h1"/><path stroke="#418fd5" opacity="0.23137254901960785" d="M14,7h1"/><path stroke="#56baf6" opacity="0.2235294117647059" d="M1,8h1"/><path stroke="#55baf5" opacity="0.7529411764705882" d="M2,8h1"/><path stroke="#45b2e6" opacity="0.7490196078431373" d="M5,8h1"/><path stroke="#49b6e8" opacity="0.21176470588235294" d="M6,8h1"/><path stroke="#187fd2" opacity="0.21176470588235294" d="M9,8h1"/><path stroke="#1d7fcd" opacity="0.7490196078431373" d="M10,8h1"/><path stroke="#257cc1" d="M11,8h1"/><path stroke="#3378ac" d="M12,8h1"/><path stroke="#3b76a0" opacity="0.7529411764705882" d="M13,8h1"/><path stroke="#3f789f" opacity="0.2235294117647059" d="M14,8h1"/><path stroke="#57b1f3" opacity="0.2196078431372549" d="M0,9h1"/><path stroke="#53b1f0" opacity="0.4196078431372549" d="M1,9h1"/><path stroke="#51b1ee" opacity="0.807843137254902" d="M2,9h1"/><path stroke="#4db0eb" d="M3,9h1"/><path stroke="#45ade7" d="M4,9h1M3,10h1"/><path stroke="#3da8e3" opacity="0.8156862745098039" d="M5,9h1"/><path stroke="#2b95d7" opacity="0.4235294117647059" d="M6,9h1"/><path stroke="#176eb0" opacity="0.21176470588235294" d="M7,9h1"/><path stroke="#2e6990" opacity="0.21176470588235294" d="M8,9h1"/><path stroke="#2770a1" opacity="0.4235294117647059" d="M9,9h1"/><path stroke="#1d73b0" opacity="0.8156862745098039" d="M10,9h1"/><path stroke="#2070a9" d="M11,9h1"/><path stroke="#296a96" d="M12,9h1"/><path stroke="#2b668e" opacity="0.807843137254902" d="M13,9h1"/><path stroke="#216396" opacity="0.4196078431372549" d="M14,9h1"/><path stroke="#0d5da8" opacity="0.2196078431372549" d="M15,9h1"/><path stroke="#56b1f2" opacity="0.7529411764705882" d="M0,10h1"/><path stroke="#51b2ee" opacity="0.8156862745098039" d="M1,10h1"/><path stroke="#49b2e8" opacity="0.9372549019607843" d="M2,10h1"/><path stroke="#42a3e9" d="M4,10h1M2,12h1"/><path stroke="#3796e2" opacity="0.9411764705882353" d="M5,10h1"/><path stroke="#1f82cf" opacity="0.8156862745098039" d="M6,10h1"/><path stroke="#1a72b3" opacity="0.7490196078431373" d="M7,10h1"/><path stroke="#2d6d96" opacity="0.7490196078431373" d="M8,10h1"/><path stroke="#356c8c" opacity="0.8156862745098039" d="M9,10h1"/><path stroke="#316d93" opacity="0.9411764705882353" d="M10,10h1"/><path stroke="#296a97" d="M11,10h1"/><path stroke="#1e639a" d="M12,10h1"/><path stroke="#175f9d" opacity="0.9372549019607843" d="M13,10h1"/><path stroke="#125ea1" opacity="0.8156862745098039" d="M14,10h1"/><path stroke="#105ea4" opacity="0.7529411764705882" d="M15,10h1"/><path stroke="#51b2ee" d="M0,11h1"/><path stroke="#4db1ec" d="M1,11h1"/><path stroke="#45aee7" d="M2,11h1"/><path stroke="#40a6e4" d="M3,11h1"/><path stroke="#3e9ae0" d="M4,11h1"/><path stroke="#348cd3" d="M5,11h1"/><path stroke="#237bbe" d="M6,11h1"/><path stroke="#2271a8" d="M7,11h1"/><path stroke="#306d93" d="M8,11h1"/><path stroke="#356a8a" d="M9,11h1"/><path stroke="#30688d" d="M10,11h1"/><path stroke="#266594" d="M11,11h1"/><path stroke="#16609e" d="M12,11h1"/><path stroke="#0e5ba1" d="M13,11h1"/><path stroke="#0d599c" d="M14,11h1"/><path stroke="#0d5899" d="M15,11h1"/><path stroke="#46b3e6" d="M0,12h1"/><path stroke="#45aee8" d="M1,12h1"/><path stroke="#3d9ae1" d="M3,12h1"/><path stroke="#3794ce" d="M4,12h1"/><path stroke="#3287b8" d="M5,12h1"/><path stroke="#2f76a2" d="M6,12h1"/><path stroke="#306c93" d="M7,12h1"/><path stroke="#356b8c" d="M8,12h1"/><path stroke="#30688e" d="M9,12h1"/><path stroke="#216397" d="M10,12h1"/><path stroke="#175f9e" d="M11,12h1"/><path stroke="#125ea2" d="M12,12h1"/><path stroke="#0e599c" d="M13,12h1"/><path stroke="#0a518d" d="M14,12h1"/><path stroke="#084d85" d="M15,12h1"/><path stroke="#40ace5" d="M0,13h1"/><path stroke="#3fa6e3" d="M1,13h1"/><path stroke="#3d9ae0" d="M2,13h1"/><path stroke="#3a93d6" opacity="0.9372549019607843" d="M3,13h1"/><path stroke="#3490c3" opacity="0.807843137254902" d="M4,13h1"/><path stroke="#3285aa" opacity="0.7411764705882353" d="M5,13h1"/><path stroke="#357392" opacity="0.7450980392156863" d="M6,13h1"/><path stroke="#386a87" opacity="0.7490196078431373" d="M7,13h1"/><path stroke="#376b88" opacity="0.7490196078431373" d="M8,13h1"/><path stroke="#2d6890" opacity="0.7450980392156863" d="M9,13h1"/><path stroke="#18609d" opacity="0.7411764705882353" d="M10,13h1"/><path stroke="#0e5ba1" opacity="0.807843137254902" d="M11,13h1"/><path stroke="#0d599c" opacity="0.9372549019607843" d="M12,13h1"/><path stroke="#0e5390" d="M13,13h1"/><path stroke="#0e4b7f" d="M14,13h1M13,14h1"/><path stroke="#0e4676" d="M15,13h1"/><path stroke="#409ee9" d="M0,14h1"/><path stroke="#3d9adf" d="M1,14h1"/><path stroke="#3793cd" d="M2,14h1"/><path stroke="#348fc2" opacity="0.8156862745098039" d="M3,14h1"/><path stroke="#328fbd" opacity="0.4196078431372549" d="M4,14h1"/><path stroke="#3284a7" opacity="0.2196078431372549" d="M5,14h1"/><path stroke="#36718f" opacity="0.2235294117647059" d="M6,14h1"/><path stroke="#386a86" opacity="0.23529411764705882" d="M7,14h1"/><path stroke="#386b88" opacity="0.23529411764705882" d="M8,14h1"/><path stroke="#2e6991" opacity="0.2235294117647059" d="M9,14h1"/><path stroke="#1962a0" opacity="0.2196078431372549" d="M10,14h1"/><path stroke="#0a5393" opacity="0.4196078431372549" d="M11,14h1"/><path stroke="#094e88" opacity="0.8156862745098039" d="M12,14h1"/><path stroke="#194874" d="M14,14h1"/><path stroke="#1e466e" d="M15,14h1"/><path stroke="#4096ec" d="M0,15h1"/><path stroke="#3c94dd" d="M1,15h1"/><path stroke="#3490c3" d="M2,15h1"/><path stroke="#308db5" opacity="0.7529411764705882" d="M3,15h1"/><path stroke="#2f8db3" opacity="0.2196078431372549" d="M4,15h1"/><path stroke="#044578" opacity="0.2196078431372549" d="M11,15h1"/><path stroke="#06477b" opacity="0.7529411764705882" d="M12,15h1"/><path stroke="#0e4777" d="M13,15h1"/><path stroke="#1e466f" d="M14,15h1"/><path stroke="#27466a" d="M15,15h1"/></svg>
