<svg xmlns="http://www.w3.org/2000/svg" shape-rendering="crispEdges" viewBox="0 -0.5 16 16" width="16" height="16"><metadata>Generated with pixel-perfect-svg https://github.com/kagof/pixel-perfect-svg</metadata><path stroke="#52d2ff" d="M6,0h2M6,1h2M2,6h2M2,7h2"/><path stroke="#55b1f1" d="M8,0h2M8,1h2M6,2h2M6,3h2M4,6h2M4,7h2M2,8h2M2,9h2M0,10h2M0,11h2"/><path stroke="#74f5fd" d="M4,2h2M4,3h2"/><path stroke="#41b2e3" d="M8,2h2M8,3h2M6,4h2M6,5h2M4,8h2M4,9h2M2,10h2M2,11h2M0,12h2M0,13h2"/><path stroke="#4097ea" d="M10,2h2M10,3h2M8,4h4M8,5h4M10,6h4M10,7h4M4,10h2M4,11h2M2,12h2M2,13h2M0,14h2M0,15h2"/><path stroke="#6dccff" d="M4,4h2M4,5h2"/><path stroke="#1476c0" d="M10,8h2M10,9h2M6,10h2M6,11h2"/><path stroke="#366b8a" d="M12,8h2M12,9h2M8,10h4M8,11h4M6,12h4M6,13h4"/><path stroke="#105da2" d="M12,10h4M12,11h4M10,12h4M10,13h4"/><path stroke="#318eb8" d="M4,12h2M4,13h2M2,14h2M2,15h2"/><path stroke="#07487c" d="M14,12h2M14,13h2M12,14h2M12,15h2"/><path stroke="#25466b" d="M14,14h2M14,15h2"/></svg>
