<svg xmlns="http://www.w3.org/2000/svg" shape-rendering="crispEdges" viewBox="0 -0.5 16 16" width="16" height="16"><metadata>Generated with pixel-perfect-svg https://github.com/kagof/pixel-perfect-svg</metadata><path stroke="#8ad7ff" opacity="0.050980392156862744" d="M7,1h1M5,3h1"/><path stroke="#89d6ff" opacity="0.1843137254901961" d="M8,1h1"/><path stroke="#81d4ff" opacity="0.25882352941176473" d="M9,1h1"/><path stroke="#74ceff" opacity="0.25882352941176473" d="M10,1h1"/><path stroke="#6cccff" opacity="0.18823529411764706" d="M11,1h1"/><path stroke="#6bcbff" opacity="0.058823529411764705" d="M12,1h1"/><path stroke="#8ad7ff" opacity="0.16862745098039217" d="M7,2h1M6,3h1"/><path stroke="#89d6ff" opacity="0.5803921568627451" d="M8,2h1"/><path stroke="#81d4ff" opacity="0.8" d="M9,2h1"/><path stroke="#74ceff" opacity="0.8" d="M10,2h1"/><path stroke="#6cccff" opacity="0.5843137254901961" d="M11,2h1"/><path stroke="#6bcbff" opacity="0.1843137254901961" d="M12,2h1"/><path stroke="#8ad7ff" opacity="0.3764705882352941" d="M7,3h1"/><path stroke="#89d6ff" opacity="0.6549019607843137" d="M8,3h1M7,4h1"/><path stroke="#81d4ff" opacity="0.807843137254902" d="M9,3h1"/><path stroke="#74ceff" opacity="0.807843137254902" d="M10,3h1"/><path stroke="#6cccff" opacity="0.592156862745098" d="M11,3h1"/><path stroke="#6bcbff" opacity="0.18823529411764706" d="M12,3h1"/><path stroke="#89d6ff" opacity="0.19215686274509805" d="M5,4h1"/><path stroke="#89d6ff" opacity="0.5882352941176471" d="M6,4h1"/><path stroke="#89d6ff" opacity="0.38823529411764707" d="M8,4h1"/><path stroke="#81d3ff" opacity="0.24705882352941178" d="M9,4h1"/><path stroke="#73ceff" opacity="0.2549019607843137" d="M10,4h1"/><path stroke="#6cccff" opacity="0.19607843137254902" d="M11,4h1"/><path stroke="#6bcbff" opacity="0.06274509803921569" d="M12,4h1"/><path stroke="#82d4ff" opacity="0.2627450980392157" d="M5,5h1"/><path stroke="#82d4ff" opacity="0.8" d="M6,5h1"/><path stroke="#82d4ff" opacity="0.796078431372549" d="M7,5h1"/><path stroke="#81d4ff" opacity="0.24313725490196078" d="M8,5h1"/><path stroke="#74cfff" opacity="0.25882352941176473" d="M5,6h1"/><path stroke="#74cfff" opacity="0.792156862745098" d="M6,6h1"/><path stroke="#74cfff" opacity="0.788235294117647" d="M7,6h1"/><path stroke="#73cfff" opacity="0.24705882352941178" d="M8,6h1"/><path stroke="#68c6fd" opacity="0.2549019607843137" d="M5,7h1"/><path stroke="#68c6fd" opacity="0.7843137254901961" d="M6,7h1"/><path stroke="#68c7fd" opacity="0.7803921568627451" d="M7,7h1"/><path stroke="#68c7fd" opacity="0.24313725490196078" d="M8,7h1"/><path stroke="#5cb9f6" opacity="0.2549019607843137" d="M5,8h1"/><path stroke="#5cb9f6" opacity="0.7843137254901961" d="M6,8h1"/><path stroke="#5cb9f6" opacity="0.7764705882352941" d="M7,8h1"/><path stroke="#5cbaf7" opacity="0.23921568627450981" d="M8,8h1"/><path stroke="#439bdc" opacity="0.2549019607843137" d="M5,9h1"/><path stroke="#439bdd" opacity="0.788235294117647" d="M6,9h1"/><path stroke="#459dde" opacity="0.8509803921568627" d="M7,9h1"/><path stroke="#4ca7e7" opacity="0.44313725490196076" d="M8,9h1"/><path stroke="#55b1f6" opacity="0.22745098039215686" d="M9,9h1"/><path stroke="#49a2f1" opacity="0.23529411764705882" d="M10,9h1"/><path stroke="#429aee" opacity="0.1843137254901961" d="M11,9h1"/><path stroke="#4299ee" opacity="0.058823529411764705" d="M12,9h1"/><path stroke="#1d6db2" opacity="0.25098039215686274" d="M5,10h1"/><path stroke="#1f6fb3" opacity="0.7843137254901961" d="M6,10h1"/><path stroke="#2a7dc0" opacity="0.984313725490196" d="M7,10h1"/><path stroke="#469fe0" opacity="0.8392156862745098" d="M8,10h1"/><path stroke="#53aff4" opacity="0.7647058823529411" d="M9,10h1"/><path stroke="#48a0ef" opacity="0.7725490196078432" d="M10,10h1"/><path stroke="#4198ec" opacity="0.5764705882352941" d="M11,10h1"/><path stroke="#4097ec" opacity="0.1843137254901961" d="M12,10h1"/><path stroke="#09559a" opacity="0.1803921568627451" d="M5,11h1"/><path stroke="#0c589d" opacity="0.5686274509803921" d="M6,11h1"/><path stroke="#1e6eb2" opacity="0.8431372549019608" d="M7,11h1"/><path stroke="#3a90d1" opacity="0.9803921568627451" d="M8,11h1"/><path stroke="#4198dd" d="M9,11h1"/><path stroke="#398eda" d="M10,11h1"/><path stroke="#3488d8" opacity="0.788235294117647" d="M11,11h1"/><path stroke="#3387d8" opacity="0.25098039215686274" d="M12,11h1"/><path stroke="#054f95" opacity="0.047058823529411764" d="M5,12h1"/><path stroke="#09549a" opacity="0.16470588235294117" d="M6,12h1"/><path stroke="#1867ab" opacity="0.4392156862745098" d="M7,12h1"/><path stroke="#2070b4" opacity="0.8509803921568627" d="M8,12h1"/><path stroke="#2070b5" d="M9,12h1"/><path stroke="#1d6db4" d="M10,12h1"/><path stroke="#1c6bb4" opacity="0.788235294117647" d="M11,12h1"/><path stroke="#1c6bb4" opacity="0.25098039215686274" d="M12,12h1"/><path stroke="#0e5a9f" opacity="0.1607843137254902" d="M7,13h1"/><path stroke="#0e5aa0" opacity="0.5607843137254902" d="M8,13h1"/><path stroke="#0e5ba0" opacity="0.7764705882352941" d="M9,13h2"/><path stroke="#0f5ba0" opacity="0.5686274509803921" d="M11,13h1"/><path stroke="#0f5ba0" opacity="0.1803921568627451" d="M12,13h1"/><path stroke="#0b569c" opacity="0.047058823529411764" d="M7,14h1"/><path stroke="#0c589d" opacity="0.17647058823529413" d="M8,14h1"/><path stroke="#0c589d" opacity="0.24705882352941178" d="M9,14h1"/><path stroke="#0d599d" opacity="0.24313725490196078" d="M10,14h1"/><path stroke="#0d5a9e" opacity="0.1803921568627451" d="M11,14h1"/><path stroke="#0d5a9e" opacity="0.058823529411764705" d="M12,14h1"/></svg>
