<svg xmlns="http://www.w3.org/2000/svg" shape-rendering="crispEdges" viewBox="0 -0.5 16 16" width="16" height="16"><metadata>Generated with pixel-perfect-svg https://github.com/kagof/pixel-perfect-svg</metadata><path stroke="#f5f7fa" d="M2,0h2M2,1h2M4,10h10M4,11h10M4,12h2M4,13h2M4,14h4M4,15h4"/><path stroke="#ebf0f6" d="M4,0h4M4,1h4M2,2h4M2,3h4"/><path stroke="#bac7db" d="M8,0h4M8,1h4M6,2h4M6,3h4"/><path stroke="#3a4568" d="M12,0h2M12,1h2M12,2h4M12,3h4M10,4h6M10,5h6M6,6h10M6,7h10M4,8h12M4,9h12M2,10h2M2,11h2M2,12h2M2,13h2M2,14h2M2,15h2"/><path stroke="#abaebe" d="M10,2h2M10,3h2"/><path stroke="#7a7799" d="M2,4h4M2,5h4M2,6h2M2,7h2"/><path stroke="#615f84" d="M6,4h4M6,5h4M4,6h2M4,7h2M2,8h2M2,9h2"/><path stroke="#282b4a" d="M14,10h2M14,11h2M14,12h2M14,13h2M14,14h2M14,15h2"/><path stroke="#222323" d="M6,12h2M6,13h2"/><path stroke="#000000" d="M8,12h4M8,13h4"/><path stroke="#cdd2da" d="M12,12h2M12,13h2M8,14h6M8,15h6"/></svg>
