<svg xmlns="http://www.w3.org/2000/svg" shape-rendering="crispEdges" viewBox="0 -0.5 16 16" width="16" height="16"><metadata>Generated with pixel-perfect-svg https://github.com/kagof/pixel-perfect-svg</metadata><path stroke="#f6f8fa" opacity="0.23529411764705882" d="M1,0h1"/><path stroke="#f6f7fa" opacity="0.7490196078431373" d="M2,0h1"/><path stroke="#f3f5f9" d="M3,0h1"/><path stroke="#eef2f7" d="M4,0h1"/><path stroke="#ecf1f7" d="M5,0h1"/><path stroke="#edf2f7" d="M6,0h1"/><path stroke="#e0e7f0" d="M7,0h1"/><path stroke="#c6d1e2" d="M8,0h1"/><path stroke="#bbc8dc" d="M9,0h1M9,1h1"/><path stroke="#bdcade" d="M10,0h1"/><path stroke="#9aa7bf" d="M11,0h1"/><path stroke="#586483" d="M12,0h1"/><path stroke="#364164" opacity="0.7411764705882353" d="M13,0h1"/><path stroke="#313c60" opacity="0.21176470588235294" d="M14,0h1"/><path stroke="#f5f7fb" opacity="0.23529411764705882" d="M1,1h1"/><path stroke="#f5f7fa" opacity="0.7490196078431373" d="M2,1h1"/><path stroke="#f3f6fa" d="M3,1h1"/><path stroke="#eff3f8" d="M4,1h1"/><path stroke="#eaf0f6" d="M5,1h1"/><path stroke="#e4ebf3" d="M6,1h1"/><path stroke="#d7e0ec" d="M7,1h1"/><path stroke="#c4d0e1" d="M8,1h1"/><path stroke="#bbc7d9" d="M10,1h1"/><path stroke="#99a3ba" d="M11,1h1"/><path stroke="#586382" d="M12,1h1"/><path stroke="#364165" opacity="0.807843137254902" d="M13,1h1"/><path stroke="#364164" opacity="0.41568627450980394" d="M14,1h1"/><path stroke="#3a4568" opacity="0.21176470588235294" d="M15,1h1"/><path stroke="#f0f5f9" opacity="0.23529411764705882" d="M1,2h1"/><path stroke="#f0f5f9" opacity="0.7490196078431373" d="M2,2h1"/><path stroke="#f0f5f9" d="M3,2h1"/><path stroke="#eff4f9" d="M4,2h1"/><path stroke="#e5ebf3" d="M5,2h1"/><path stroke="#d2dbe9" d="M6,2h1"/><path stroke="#c5d1e2" d="M7,2h1"/><path stroke="#bfccdf" d="M8,2h1"/><path stroke="#bbc6d9" d="M9,2h1"/><path stroke="#b7becf" d="M10,2h1"/><path stroke="#949bb0" d="M11,2h1"/><path stroke="#56607f" d="M12,2h1"/><path stroke="#374266" opacity="0.9372549019607843" d="M13,2h1"/><path stroke="#384366" opacity="0.807843137254902" d="M14,2h1"/><path stroke="#3a4568" opacity="0.7411764705882353" d="M15,2h1"/><path stroke="#cfd3df" opacity="0.23529411764705882" d="M1,3h1"/><path stroke="#cfd3df" opacity="0.7490196078431373" d="M2,3h1"/><path stroke="#d0d3e0" d="M3,3h1"/><path stroke="#d1d4e0" d="M4,3h1"/><path stroke="#c5cada" d="M5,3h1"/><path stroke="#afb6cc" d="M6,3h1"/><path stroke="#a4adc6" d="M7,3h1"/><path stroke="#a5aec7" d="M8,3h1"/><path stroke="#a1a9c0" d="M9,3h1"/><path stroke="#979cb1" d="M10,3h1"/><path stroke="#7a8098" d="M11,3h1"/><path stroke="#4e5877" d="M12,3h1"/><path stroke="#384367" d="M13,3h1M13,7h1"/><path stroke="#394467" d="M14,3h1M12,5h1M11,6h1"/><path stroke="#3a4568" d="M15,3h1M14,4h2M13,5h3M13,6h3M14,7h1"/><path stroke="#9594af" opacity="0.23529411764705882" d="M1,4h1"/><path stroke="#9594af" opacity="0.7490196078431373" d="M2,4h1"/><path stroke="#9695b0" d="M3,4h2"/><path stroke="#8e8eaa" d="M5,4h1"/><path stroke="#7e7f9f" d="M6,4h1"/><path stroke="#777899" d="M7,4h1"/><path stroke="#78799a" d="M8,4h1"/><path stroke="#707393" d="M9,4h1"/><path stroke="#5e6584" d="M10,4h1"/><path stroke="#4e5777" d="M11,4h1"/><path stroke="#404b6c" d="M12,4h1"/><path stroke="#394468" d="M13,4h1M14,8h1"/><path stroke="#787597" opacity="0.23529411764705882" d="M1,5h1"/><path stroke="#787597" opacity="0.7490196078431373" d="M2,5h1"/><path stroke="#777496" d="M3,5h1"/><path stroke="#747194" d="M4,5h1"/><path stroke="#6b698d" d="M5,5h1"/><path stroke="#5c5c81" d="M6,5h1"/><path stroke="#55567b" d="M7,5h1"/><path stroke="#56567b" d="M8,5h1"/><path stroke="#4e5176" d="M9,5h1"/><path stroke="#3f476b" d="M10,5h1"/><path stroke="#374366" d="M11,5h1"/><path stroke="#7a7799" opacity="0.23529411764705882" d="M1,6h1"/><path stroke="#797699" opacity="0.7490196078431373" d="M2,6h1"/><path stroke="#757295" d="M3,6h1"/><path stroke="#6c698d" d="M4,6h1"/><path stroke="#5d5d81" d="M5,6h1"/><path stroke="#4b5074" d="M6,6h1"/><path stroke="#41496d" d="M7,6h1"/><path stroke="#424a6d" d="M8,6h1"/><path stroke="#40486c" d="M9,6h1"/><path stroke="#3b4568" d="M10,6h1"/><path stroke="#394568" d="M12,6h1"/><path stroke="#777396" opacity="0.23529411764705882" d="M1,7h1"/><path stroke="#767295" opacity="0.7490196078431373" d="M2,7h1"/><path stroke="#6d6b8f" d="M3,7h1"/><path stroke="#5d5d82" d="M4,7h1"/><path stroke="#4c5075" d="M5,7h1"/><path stroke="#3d466a" d="M6,7h1"/><path stroke="#364165" d="M7,7h2M11,8h1"/><path stroke="#374265" d="M9,7h1M6,8h1"/><path stroke="#374266" d="M10,7h3M13,8h1"/><path stroke="#3a4569" d="M15,7h1"/><path stroke="#6a678c" opacity="0.23529411764705882" d="M1,8h1"/><path stroke="#69668b" opacity="0.7490196078431373" d="M2,8h1"/><path stroke="#5e5e83" d="M3,8h1"/><path stroke="#494f73" d="M4,8h1"/><path stroke="#3b4569" d="M5,8h1"/><path stroke="#354064" d="M7,8h2"/><path stroke="#354164" d="M9,8h2"/><path stroke="#364164" d="M12,8h1"/><path stroke="#3b4669" d="M15,8h1"/><path stroke="#56577c" opacity="0.23529411764705882" d="M1,9h1"/><path stroke="#57577c" opacity="0.7490196078431373" d="M2,9h1"/><path stroke="#5b5e80" d="M3,9h1"/><path stroke="#626987" d="M4,9h1M3,10h1"/><path stroke="#68718c" d="M5,9h1"/><path stroke="#69738e" d="M6,9h1"/><path stroke="#6a738f" d="M7,9h1"/><path stroke="#6b748f" d="M8,9h4"/><path stroke="#6a728d" d="M12,9h1"/><path stroke="#5b6481" d="M13,9h1"/><path stroke="#414a6b" d="M14,9h1"/><path stroke="#343d5f" d="M15,9h1"/><path stroke="#3b4368" opacity="0.23529411764705882" d="M1,10h1"/><path stroke="#3f476b" opacity="0.7490196078431373" d="M2,10h1"/><path stroke="#a6abbc" d="M4,10h1"/><path stroke="#ccd0da" d="M5,10h1"/><path stroke="#cdd2dc" d="M6,10h1"/><path stroke="#cdd1dc" d="M7,10h1"/><path stroke="#ced2dd" d="M8,10h3"/><path stroke="#cfd3dd" d="M11,10h1"/><path stroke="#ced2dc" d="M12,10h1"/><path stroke="#a1a6b6" d="M13,10h1"/><path stroke="#515671" d="M14,10h1"/><path stroke="#282c4d" d="M15,10h1"/><path stroke="#2d395e" opacity="0.23529411764705882" d="M1,11h1"/><path stroke="#333f63" opacity="0.7490196078431373" d="M2,11h1"/><path stroke="#67708c" d="M3,11h1"/><path stroke="#caced9" d="M4,11h1M4,13h1"/><path stroke="#f1f2f4" d="M5,11h1"/><path stroke="#d3d5d6" d="M6,11h1"/><path stroke="#c0c2c3" d="M7,11h1"/><path stroke="#bcbebf" d="M8,11h1"/><path stroke="#babbbd" d="M9,11h1"/><path stroke="#babbbc" d="M10,11h1"/><path stroke="#cbccce" d="M11,11h1"/><path stroke="#e8eaec" d="M12,11h1"/><path stroke="#bec1cb" d="M13,11h1"/><path stroke="#585a73" d="M14,11h1"/><path stroke="#212444" d="M15,11h1"/><path stroke="#2e3a5f" opacity="0.23529411764705882" d="M1,12h1"/><path stroke="#343f63" opacity="0.7490196078431373" d="M2,12h1"/><path stroke="#69728d" d="M3,12h1"/><path stroke="#ccd0db" d="M4,12h1"/><path stroke="#d5d6d7" d="M5,12h1"/><path stroke="#7e7f7f" d="M6,12h1"/><path stroke="#494a4a" d="M7,12h1"/><path stroke="#3d3d3d" d="M8,12h1"/><path stroke="#363636" d="M9,12h1"/><path stroke="#353535" d="M10,12h1"/><path stroke="#626465" d="M11,12h1"/><path stroke="#b7babe" d="M12,12h1"/><path stroke="#b0b4c1" d="M13,12h1"/><path stroke="#545770" d="M14,12h1"/><path stroke="#222545" d="M15,12h1"/><path stroke="#2f3a5f" opacity="0.23529411764705882" d="M1,13h1M1,14h1M1,15h1"/><path stroke="#344063" opacity="0.7490196078431373" d="M2,13h1M2,14h1M2,15h1"/><path stroke="#68718d" d="M3,13h1"/><path stroke="#d3d4d6" d="M5,13h1"/><path stroke="#7d7f7f" d="M6,13h1"/><path stroke="#464748" d="M7,13h1"/><path stroke="#343637" d="M8,13h1"/><path stroke="#2b2c2e" d="M9,13h1"/><path stroke="#2a2b2d" d="M10,13h1"/><path stroke="#57595c" d="M11,13h1"/><path stroke="#aaaeb4" d="M12,13h1"/><path stroke="#a6abb9" d="M13,13h1"/><path stroke="#51556e" d="M14,13h1"/><path stroke="#232646" d="M15,13h1M15,14h1M15,15h1"/><path stroke="#67708b" d="M3,14h1"/><path stroke="#c7cbd6" d="M4,14h1"/><path stroke="#edeff1" d="M5,14h1"/><path stroke="#d1d2d4" d="M6,14h1"/><path stroke="#b6b8bb" d="M7,14h1"/><path stroke="#a2a5aa" d="M8,14h1"/><path stroke="#979ba1" d="M9,14h2"/><path stroke="#a8acb2" d="M11,14h1"/><path stroke="#c4c9d0" d="M12,14h1"/><path stroke="#a4a9b7" d="M13,14h1"/><path stroke="#50536d" d="M14,14h1"/><path stroke="#666f8a" d="M3,15h1"/><path stroke="#c6cad5" d="M4,15h1"/><path stroke="#fcfdff" d="M5,15h1"/><path stroke="#feffff" d="M6,15h1"/><path stroke="#f2f5f9" d="M7,15h1"/><path stroke="#dde2e9" d="M8,15h1"/><path stroke="#d2d8e0" d="M9,15h1"/><path stroke="#d3d8e0" d="M10,15h1"/><path stroke="#d4d9e1" d="M11,15h1"/><path stroke="#d2d7df" d="M12,15h1"/><path stroke="#a3a8b6" d="M13,15h1"/><path stroke="#4f526c" d="M14,15h1"/></svg>
