<svg xmlns="http://www.w3.org/2000/svg" shape-rendering="crispEdges" viewBox="0 -0.5 16 16" width="16" height="16"><metadata>Generated with pixel-perfect-svg https://github.com/kagof/pixel-perfect-svg</metadata><path stroke="#ff9ba8" d="M4,0h2M4,1h2M2,2h2M2,3h2"/><path stroke="#ff7676" d="M6,0h4M6,1h4M4,2h4M4,3h4M2,4h2M2,5h2M2,6h2M2,7h2"/><path stroke="#f85d80" d="M10,0h2M10,1h2M8,2h4M8,3h4M4,4h2M4,5h2"/><path stroke="#e45c5f" d="M12,2h2M12,3h2M10,4h4M10,5h4"/><path stroke="#ff7daf" d="M0,4h2M0,5h2"/><path stroke="#ffdbff" d="M6,4h2M6,5h2M4,6h2M4,7h2"/><path stroke="#ffcdff" d="M8,4h2M8,5h2"/><path stroke="#d94a69" d="M14,4h2M14,5h2"/><path stroke="#a9d1c1" d="M0,6h2M0,7h2M6,10h2M6,11h2"/><path stroke="#41b2e3" d="M6,6h2M6,7h2"/><path stroke="#4097ea" d="M8,6h2M8,7h2M6,8h2M6,9h2"/><path stroke="#fedfb1" d="M10,6h2M10,7h2"/><path stroke="#ffbc4e" d="M12,6h2M12,7h2M12,8h2M12,9h2M10,10h2M10,11h2"/><path stroke="#ffb108" d="M14,6h2M14,7h2M8,12h2M8,13h2"/><path stroke="#91daa1" d="M0,8h2M0,9h2"/><path stroke="#55b67d" d="M2,8h2M2,9h2M0,10h4M0,11h4"/><path stroke="#e0faeb" d="M4,8h2M4,9h2"/><path stroke="#318eb8" d="M8,8h2M8,9h2"/><path stroke="#ffd59b" d="M10,8h2M10,9h2"/><path stroke="#f99b4e" d="M14,8h2M14,9h2M12,10h2M12,11h2M10,12h2M10,13h2"/><path stroke="#00a087" d="M4,10h2M4,11h2M2,12h4M2,13h4"/><path stroke="#ffce7f" d="M8,10h2M8,11h2"/><path stroke="#e98627" d="M14,10h2M14,11h2M12,12h2M12,13h2M6,14h6M6,15h6"/><path stroke="#498960" d="M6,12h2M6,13h2"/><path stroke="#008279" d="M4,14h2M4,15h2"/></svg>
