<svg xmlns="http://www.w3.org/2000/svg" shape-rendering="crispEdges" viewBox="0 -0.5 16 16" width="16" height="16"><metadata>Generated with pixel-perfect-svg https://github.com/kagof/pixel-perfect-svg</metadata><path stroke="#ff9fad" opacity="0.21568627450980393" d="M3,0h1"/><path stroke="#ff9dab" opacity="0.7490196078431373" d="M4,0h1"/><path stroke="#ff939d" d="M5,0h1"/><path stroke="#ff8083" d="M6,0h1"/><path stroke="#ff7675" d="M7,0h1"/><path stroke="#ff7775" d="M8,0h1"/><path stroke="#fd7078" d="M9,0h1"/><path stroke="#fa637e" d="M10,0h1"/><path stroke="#f85c81" opacity="0.7490196078431373" d="M11,0h1"/><path stroke="#fa5b84" opacity="0.21568627450980393" d="M12,0h1"/><path stroke="#ffacb0" opacity="0.03529411764705882" d="M1,1h1"/><path stroke="#ffa0ad" opacity="0.1568627450980392" d="M2,1h1"/><path stroke="#ff98a4" opacity="0.42745098039215684" d="M3,1h1"/><path stroke="#ff949e" opacity="0.8196078431372549" d="M4,1h1"/><path stroke="#ff8c92" d="M5,1h1"/><path stroke="#ff7c7e" d="M6,1h1"/><path stroke="#ff7374" d="M7,1h1"/><path stroke="#fe7075" d="M8,1h1"/><path stroke="#fc6a79" d="M9,1h1"/><path stroke="#fa617e" d="M10,1h1"/><path stroke="#f75c7e" opacity="0.8196078431372549" d="M11,1h1"/><path stroke="#ef5c72" opacity="0.42745098039215684" d="M12,1h1"/><path stroke="#e15c5a" opacity="0.1568627450980392" d="M13,1h1"/><path stroke="#df614d" opacity="0.03529411764705882" d="M14,1h1"/><path stroke="#ffa2ad" opacity="0.1568627450980392" d="M1,2h1"/><path stroke="#ff9eab" opacity="0.5490196078431373" d="M2,2h1"/><path stroke="#ff949e" opacity="0.8274509803921568" d="M3,2h1"/><path stroke="#ff868b" opacity="0.9490196078431372" d="M4,2h1"/><path stroke="#ff7d7e" d="M5,2h1"/><path stroke="#ff7776" d="M6,2h1"/><path stroke="#fe6f74" d="M7,2h1"/><path stroke="#fb6578" d="M8,2h1"/><path stroke="#f95f7d" d="M9,2h1"/><path stroke="#f95e80" d="M10,2h1"/><path stroke="#f45d7a" opacity="0.9490196078431372" d="M11,2h1"/><path stroke="#ea5c69" opacity="0.8274509803921568" d="M12,2h1"/><path stroke="#e35c5d" opacity="0.5490196078431373" d="M13,2h1"/><path stroke="#e35e5b" opacity="0.1568627450980392" d="M14,2h1"/><path stroke="#ff74b0" opacity="0.21568627450980393" d="M0,3h1"/><path stroke="#ff88a5" opacity="0.42745098039215684" d="M1,3h1"/><path stroke="#ff919f" opacity="0.8274509803921568" d="M2,3h1"/><path stroke="#fe8993" d="M3,3h1"/><path stroke="#fe767e" d="M4,3h1M3,4h1"/><path stroke="#fe757d" d="M5,3h1"/><path stroke="#ff878e" d="M6,3h1"/><path stroke="#ff8b9b" d="M7,3h1"/><path stroke="#fe7f9f" d="M8,3h1"/><path stroke="#fa7196" d="M9,3h1"/><path stroke="#f56281" d="M10,3h1"/><path stroke="#ef5a70" d="M11,3h1"/><path stroke="#e75a64" d="M12,3h1"/><path stroke="#e25960" opacity="0.8274509803921568" d="M13,3h1"/><path stroke="#dd5165" opacity="0.42745098039215684" d="M14,3h1"/><path stroke="#d54071" opacity="0.21568627450980393" d="M15,3h1"/><path stroke="#ff7ab0" opacity="0.7490196078431373" d="M0,4h1"/><path stroke="#ff7ca2" opacity="0.8196078431372549" d="M1,4h1"/><path stroke="#ff7f8c" opacity="0.9490196078431372" d="M2,4h1"/><path stroke="#fb6579" d="M4,4h1"/><path stroke="#fc7792" d="M5,4h1"/><path stroke="#ffabc6" d="M6,4h1"/><path stroke="#ffc3e3" d="M7,4h1"/><path stroke="#ffbae5" d="M8,4h1"/><path stroke="#fc9dc3" d="M9,4h1"/><path stroke="#ee6f83" d="M10,4h1"/><path stroke="#e75761" d="M11,4h1"/><path stroke="#e4595f" d="M12,4h1"/><path stroke="#e15662" opacity="0.9490196078431372" d="M13,4h1"/><path stroke="#db4c68" opacity="0.8196078431372549" d="M14,4h1"/><path stroke="#d7466d" opacity="0.7490196078431373" d="M15,4h1"/><path stroke="#ea92b6" d="M0,5h1"/><path stroke="#f08aa5" d="M1,5h1"/><path stroke="#fc7b84" d="M2,5h1"/><path stroke="#ff747c" d="M3,5h1"/><path stroke="#fd7692" d="M4,5h1"/><path stroke="#f090b6" d="M5,5h1"/><path stroke="#dbbfe6" d="M6,5h1"/><path stroke="#d0d3ff" d="M7,5h1"/><path stroke="#d0caff" d="M8,5h1"/><path stroke="#d7b1dc" d="M9,5h1"/><path stroke="#e48d95" d="M10,5h1"/><path stroke="#eb786a" d="M11,5h1"/><path stroke="#eb755f" d="M12,5h1"/><path stroke="#e86f58" d="M13,5h1"/><path stroke="#e46653" d="M14,5h1"/><path stroke="#e26251" d="M15,5h1"/><path stroke="#bdbebf" d="M0,6h1"/><path stroke="#cfaaab" d="M1,6h1"/><path stroke="#f28585" d="M2,6h1"/><path stroke="#ff838d" d="M3,6h1"/><path stroke="#ffa9c6" d="M4,6h1"/><path stroke="#dbbee6" d="M5,6h1"/><path stroke="#91bfea" d="M6,6h1"/><path stroke="#69b8ef" d="M7,6h1"/><path stroke="#69abf3" d="M8,6h1"/><path stroke="#90acdf" d="M9,6h1"/><path stroke="#d6bab4" d="M10,6h1"/><path stroke="#fbba8a" d="M11,6h1"/><path stroke="#faac64" d="M12,6h1"/><path stroke="#f8a143" d="M13,6h1"/><path stroke="#f69a2a" d="M14,6h1"/><path stroke="#f5971d" d="M15,6h1"/><path stroke="#a0d8bc" d="M0,7h1"/><path stroke="#aec1a9" d="M1,7h1"/><path stroke="#c89785" d="M2,7h1"/><path stroke="#e39c97" d="M3,7h1"/><path stroke="#f7d0de" d="M4,7h1"/><path stroke="#cedbfc" d="M5,7h1"/><path stroke="#6abaed" d="M6,7h1"/><path stroke="#32a2e3" d="M7,7h1"/><path stroke="#2f95e1" d="M8,7h1"/><path stroke="#65a5d4" d="M9,7h1"/><path stroke="#cecebc" d="M10,7h1"/><path stroke="#ffda97" d="M11,7h1"/><path stroke="#ffc866" d="M12,7h1"/><path stroke="#ffba3e" d="M13,7h1"/><path stroke="#ffb223" d="M14,7h1"/><path stroke="#ffae16" d="M15,7h1"/><path stroke="#98dbab" d="M0,8h1"/><path stroke="#8fcd9d" d="M1,8h1"/><path stroke="#82b284" d="M2,8h1"/><path stroke="#9bba98" d="M3,8h1"/><path stroke="#d6e5d6" d="M4,8h1"/><path stroke="#c5e3f5" d="M5,8h1"/><path stroke="#68b3ee" d="M6,8h1"/><path stroke="#3095e0" d="M7,8h1"/><path stroke="#298ece" d="M8,8h1"/><path stroke="#5fa0bd" d="M9,8h1"/><path stroke="#ccc8ad" d="M10,8h1"/><path stroke="#ffd58e" d="M11,8h1"/><path stroke="#ffc762" d="M12,8h1"/><path stroke="#feb747" d="M13,8h1"/><path stroke="#fca83f" d="M14,8h1"/><path stroke="#fba13c" d="M15,8h1"/><path stroke="#83d298" d="M0,9h1"/><path stroke="#75cb90" d="M1,9h1"/><path stroke="#5cbd82" d="M2,9h1"/><path stroke="#67c391" d="M3,9h1"/><path stroke="#95dbbd" d="M4,9h1"/><path stroke="#98d7d9" d="M5,9h1"/><path stroke="#6fb6e1" d="M6,9h1"/><path stroke="#58a1d5" d="M7,9h1"/><path stroke="#5c9db9" d="M8,9h1"/><path stroke="#88aaa2" d="M9,9h1"/><path stroke="#d9c491" d="M10,9h1"/><path stroke="#ffca79" d="M11,9h1"/><path stroke="#ffbc5c" d="M12,9h1"/><path stroke="#fbac4b" d="M13,9h1"/><path stroke="#f79c47" d="M14,9h1M13,10h1M11,12h1"/><path stroke="#f59446" d="M15,9h1"/><path stroke="#63bf85" d="M0,10h1"/><path stroke="#60bd83" d="M1,10h1"/><path stroke="#59b97e" d="M2,10h1"/><path stroke="#4bb784" d="M3,10h1"/><path stroke="#3bb695" d="M4,10h1"/><path stroke="#4abaac" d="M5,10h1"/><path stroke="#7ac1c4" d="M6,10h1"/><path stroke="#a2c3c0" d="M7,10h1"/><path stroke="#bfc0a0" d="M8,10h1"/><path stroke="#dbc082" d="M9,10h1"/><path stroke="#f4c26b" d="M10,10h1"/><path stroke="#ffbc5b" d="M11,10h1"/><path stroke="#fdac53" d="M12,10h1"/><path stroke="#f09038" d="M14,10h1M12,12h1"/><path stroke="#ec8a30" d="M15,10h1"/><path stroke="#54b57c" opacity="0.7490196078431373" d="M0,11h1"/><path stroke="#4fb47d" opacity="0.8196078431372549" d="M1,11h1"/><path stroke="#45b27f" opacity="0.9490196078431372" d="M2,11h1"/><path stroke="#2dac80" d="M3,11h1"/><path stroke="#08a283" d="M4,11h1"/><path stroke="#1ca68f" d="M5,11h1"/><path stroke="#6ab8a2" d="M6,11h1"/><path stroke="#b1c499" d="M7,11h1"/><path stroke="#ebc873" d="M8,11h1"/><path stroke="#ffc55a" d="M9,11h1"/><path stroke="#ffba51" d="M10,11h1"/><path stroke="#fcac4b" d="M11,11h1"/><path stroke="#f79c46" d="M12,11h1"/><path stroke="#f2913e" opacity="0.9490196078431372" d="M13,11h1"/><path stroke="#ec892f" opacity="0.8196078431372549" d="M14,11h1"/><path stroke="#e88525" opacity="0.7490196078431373" d="M15,11h1"/><path stroke="#5ab679" opacity="0.21568627450980393" d="M0,12h1"/><path stroke="#2fac80" opacity="0.42745098039215684" d="M1,12h1"/><path stroke="#19a684" opacity="0.8274509803921568" d="M2,12h1"/><path stroke="#0da485" d="M3,12h1"/><path stroke="#00a186" d="M4,12h1"/><path stroke="#119e84" d="M5,12h1"/><path stroke="#429b7d" d="M6,12h1"/><path stroke="#88a363" d="M7,12h1"/><path stroke="#dcb336" d="M8,12h1"/><path stroke="#ffb62c" d="M9,12h1"/><path stroke="#ffaa43" d="M10,12h1"/><path stroke="#ec892f" opacity="0.8274509803921568" d="M13,12h1"/><path stroke="#ea872a" opacity="0.42745098039215684" d="M14,12h1"/><path stroke="#e78423" opacity="0.21568627450980393" d="M15,12h1"/><path stroke="#009d89" opacity="0.1568627450980392" d="M1,13h1"/><path stroke="#009f88" opacity="0.5490196078431373" d="M2,13h1"/><path stroke="#009e87" opacity="0.8274509803921568" d="M3,13h1"/><path stroke="#009a86" opacity="0.9490196078431372" d="M4,13h1"/><path stroke="#199478" d="M5,13h1"/><path stroke="#518a5e" d="M6,13h1"/><path stroke="#938e3d" d="M7,13h1"/><path stroke="#da9e1b" d="M8,13h1"/><path stroke="#fca219" d="M9,13h1"/><path stroke="#f89a36" d="M10,13h1"/><path stroke="#f2913f" opacity="0.9490196078431372" d="M11,13h1"/><path stroke="#ec8a30" opacity="0.8274509803921568" d="M12,13h1"/><path stroke="#e88525" opacity="0.5490196078431373" d="M13,13h1"/><path stroke="#e78423" opacity="0.1568627450980392" d="M14,13h1M13,14h1"/><path stroke="#00a090" opacity="0.03529411764705882" d="M1,14h1"/><path stroke="#00a18a" opacity="0.1568627450980392" d="M2,14h1"/><path stroke="#009384" opacity="0.42745098039215684" d="M3,14h1"/><path stroke="#008b7f" opacity="0.8196078431372549" d="M4,14h1"/><path stroke="#2d886b" d="M5,14h1"/><path stroke="#908646" d="M6,14h1"/><path stroke="#d1882c" d="M7,14h1"/><path stroke="#e68d22" d="M8,14h1"/><path stroke="#ef8f22" d="M9,14h1"/><path stroke="#ee8c2c" d="M10,14h1"/><path stroke="#ec8a30" opacity="0.8196078431372549" d="M11,14h1"/><path stroke="#eb882c" opacity="0.42745098039215684" d="M12,14h1"/><path stroke="#e6821f" opacity="0.03529411764705882" d="M14,14h1"/><path stroke="#007d7d" opacity="0.21568627450980393" d="M3,15h1"/><path stroke="#00817b" opacity="0.7490196078431373" d="M4,15h1"/><path stroke="#388265" d="M5,15h1"/><path stroke="#b2853a" d="M6,15h1"/><path stroke="#f28624" d="M7,15h1"/><path stroke="#ed8526" d="M8,15h1"/><path stroke="#e88527" d="M9,15h1"/><path stroke="#e88526" d="M10,15h1"/><path stroke="#e98526" opacity="0.7490196078431373" d="M11,15h1"/><path stroke="#e88526" opacity="0.21568627450980393" d="M12,15h1"/></svg>
