<svg xmlns="http://www.w3.org/2000/svg" shape-rendering="crispEdges" viewBox="0 -0.5 16 16" width="16" height="16"><metadata>Generated with pixel-perfect-svg https://github.com/kagof/pixel-perfect-svg</metadata><path stroke="#bf7e63" d="M4,0h6M4,1h6M2,2h2M2,3h2M0,4h2M0,5h2M0,6h2M0,7h2"/><path stroke="#a96d58" d="M10,0h2M10,1h2M12,2h2M12,3h2M14,4h2M14,5h2M14,6h2M14,7h2M0,8h2M0,9h2M0,10h2M0,11h2M2,12h2M2,13h2M4,14h2M4,15h2"/><path stroke="#ebf0f6" d="M4,2h8M4,3h8M2,4h2M12,4h2M2,5h2M12,5h2M12,8h2M12,9h2M10,10h4M10,11h4M6,12h6M6,13h6"/><path stroke="#f5f7fa" d="M4,4h2M8,4h4M4,5h2M8,5h4M2,6h4M8,6h6M2,7h4M8,7h6M2,8h4M10,8h2M2,9h4M10,9h2M2,10h8M2,11h8M4,12h2M4,13h2"/><path stroke="#5b5c69" d="M6,4h2M6,5h2M6,6h2M6,7h2M6,8h4M6,9h4"/><path stroke="#945d4f" d="M14,8h2M14,9h2M14,10h2M14,11h2M12,12h2M12,13h2M6,14h6M6,15h6"/></svg>
