<svg xmlns="http://www.w3.org/2000/svg" shape-rendering="crispEdges" viewBox="0 -0.5 16 16" width="16" height="16"><metadata>Generated with pixel-perfect-svg https://github.com/kagof/pixel-perfect-svg</metadata><path stroke="#bd7a5e" opacity="0.21568627450980393" d="M3,0h1"/><path stroke="#be7a5e" opacity="0.7490196078431373" d="M4,0h1M0,4h1"/><path stroke="#be7a5e" d="M5,0h2"/><path stroke="#be7b5f" d="M7,0h2M0,5h1M0,6h1"/><path stroke="#b8765c" d="M9,0h1M0,7h1"/><path stroke="#ac6d56" d="M10,0h1M0,8h1"/><path stroke="#a66853" opacity="0.7490196078431373" d="M11,0h1"/><path stroke="#a56752" opacity="0.21568627450980393" d="M12,0h1"/><path stroke="#b66644" opacity="0.03529411764705882" d="M1,1h1"/><path stroke="#ba7253" opacity="0.1568627450980392" d="M2,1h1M1,2h1"/><path stroke="#c48a73" opacity="0.42745098039215684" d="M3,1h1M1,3h1"/><path stroke="#c89682" opacity="0.8196078431372549" d="M4,1h1M1,4h1"/><path stroke="#ca9a86" d="M5,1h1M8,1h1M1,5h1"/><path stroke="#cb9b87" d="M6,1h2"/><path stroke="#c59684" d="M9,1h1"/><path stroke="#bc8f7f" d="M10,1h1"/><path stroke="#b68979" opacity="0.8196078431372549" d="M11,1h1"/><path stroke="#af7b69" opacity="0.42745098039215684" d="M12,1h1"/><path stroke="#a25f47" opacity="0.1568627450980392" d="M13,1h1M14,2h1"/><path stroke="#9b5237" opacity="0.03529411764705882" d="M14,1h1"/><path stroke="#bc775a" opacity="0.5490196078431373" d="M2,2h1"/><path stroke="#c89480" opacity="0.8274509803921568" d="M3,2h1"/><path stroke="#d9c1ba" opacity="0.9490196078431372" d="M4,2h1M2,4h1"/><path stroke="#e1d6d4" d="M5,2h1"/><path stroke="#e3d7d5" d="M6,2h1"/><path stroke="#e3d6d3" d="M7,2h1M2,10h1"/><path stroke="#e1d4d2" d="M8,2h1M13,6h1"/><path stroke="#dfd3d1" d="M9,2h1"/><path stroke="#dcd2d1" d="M10,2h1"/><path stroke="#d0bab5" opacity="0.9490196078431372" d="M11,2h1M13,4h1"/><path stroke="#b68777" opacity="0.8274509803921568" d="M12,2h1M13,3h1"/><path stroke="#a5654e" opacity="0.5490196078431373" d="M13,2h1"/><path stroke="#be7a5e" opacity="0.21568627450980393" d="M0,3h1"/><path stroke="#c79480" opacity="0.8274509803921568" d="M2,3h1"/><path stroke="#d2afa1" d="M3,3h1"/><path stroke="#e6dede" d="M4,3h1"/><path stroke="#e6edf4" d="M5,3h1"/><path stroke="#d2d8e1" d="M6,3h1"/><path stroke="#d1d7df" d="M7,3h1"/><path stroke="#e5ebf1" d="M8,3h1"/><path stroke="#f0f7fd" d="M9,3h1"/><path stroke="#f1f8fe" d="M10,3h1M12,9h1"/><path stroke="#e1dadb" d="M11,3h1M12,4h1"/><path stroke="#c5a49b" d="M12,3h1"/><path stroke="#b07b69" opacity="0.42745098039215684" d="M14,3h1"/><path stroke="#a76953" opacity="0.21568627450980393" d="M15,3h1"/><path stroke="#e7dfde" d="M3,4h1"/><path stroke="#f1f2f5" d="M4,4h1"/><path stroke="#d6dae0" d="M5,4h1"/><path stroke="#989ca6" d="M6,4h1"/><path stroke="#989ba5" d="M7,4h1"/><path stroke="#d5d9df" d="M8,4h1"/><path stroke="#f6faff" d="M9,4h1"/><path stroke="#f6fafe" d="M10,4h1M12,7h1"/><path stroke="#eeeef1" d="M11,4h1"/><path stroke="#b7897a" opacity="0.8196078431372549" d="M14,4h1"/><path stroke="#a76953" opacity="0.7490196078431373" d="M15,4h1M0,11h1M4,15h1"/><path stroke="#e2d6d4" d="M2,5h1"/><path stroke="#f4faff" d="M3,5h1M6,12h1"/><path stroke="#f8fcff" d="M4,5h1"/><path stroke="#cdcfd4" d="M5,5h1M5,6h1M8,10h1"/><path stroke="#7a7b86" d="M6,5h1"/><path stroke="#7b7c87" d="M7,5h1M6,6h1M7,9h1"/><path stroke="#cfd0d6" d="M8,5h1"/><path stroke="#fbfdff" d="M9,5h1"/><path stroke="#f8fafd" d="M10,5h1M10,6h1"/><path stroke="#f5f9fd" d="M11,5h1"/><path stroke="#f2f9fe" d="M12,5h1"/><path stroke="#ddd2d1" d="M13,5h1"/><path stroke="#b98d7e" d="M14,5h1"/><path stroke="#a76953" d="M15,5h1M15,6h1"/><path stroke="#cc9b87" d="M1,6h1"/><path stroke="#e6d8d4" d="M2,6h1"/><path stroke="#f7fcff" d="M3,6h1M5,12h1"/><path stroke="#f9fdff" d="M4,6h1M3,8h1M3,10h1"/><path stroke="#7c7d88" d="M7,6h1M6,7h1"/><path stroke="#d0d2d7" d="M8,6h1"/><path stroke="#fcfeff" d="M9,6h1"/><path stroke="#f6f9fd" d="M11,6h1"/><path stroke="#f6fbff" d="M12,6h1"/><path stroke="#bb8e7e" d="M14,6h1M1,10h1"/><path stroke="#c89785" d="M1,7h1"/><path stroke="#e6d8d3" d="M2,7h1"/><path stroke="#f9fcff" d="M3,7h1M4,9h1"/><path stroke="#fafdff" d="M4,7h1M4,8h1"/><path stroke="#cecfd5" d="M5,7h1"/><path stroke="#71727d" d="M7,7h1"/><path stroke="#aeb0b7" d="M8,7h1"/><path stroke="#dadce0" d="M9,7h1"/><path stroke="#edeff3" d="M10,7h1"/><path stroke="#f7fafd" d="M11,7h1"/><path stroke="#dfd2d0" d="M13,7h1"/><path stroke="#b78a7c" d="M14,7h1"/><path stroke="#a16551" d="M15,7h1"/><path stroke="#bf9180" d="M1,8h1"/><path stroke="#e3d5d2" d="M2,8h1"/><path stroke="#ced0d6" d="M5,8h1"/><path stroke="#7d7e89" d="M6,8h1"/><path stroke="#5b5c69" d="M7,8h1"/><path stroke="#6e707b" d="M8,8h1"/><path stroke="#9b9ca5" d="M9,8h1"/><path stroke="#d9dbdf" d="M10,8h1M5,9h1"/><path stroke="#f7fbfe" d="M11,8h1M4,10h1"/><path stroke="#f3f8fd" d="M12,8h1"/><path stroke="#d8cdcd" d="M13,8h1"/><path stroke="#ad8378" d="M14,8h1M6,14h1"/><path stroke="#965c4c" d="M15,8h1"/><path stroke="#a66853" d="M0,9h1M0,10h1"/><path stroke="#bb8d7e" d="M1,9h1"/><path stroke="#e2d5d2" d="M2,9h1"/><path stroke="#f9feff" d="M3,9h1"/><path stroke="#9d9ea7" d="M6,9h1"/><path stroke="#797a85" d="M8,9h1"/><path stroke="#999ba4" d="M9,9h1"/><path stroke="#d6d9de" d="M10,9h1"/><path stroke="#f5fafe" d="M11,9h1M9,11h1"/><path stroke="#d5cccd" d="M13,9h1"/><path stroke="#a87f76" d="M14,9h1M7,14h2"/><path stroke="#91584a" d="M15,9h1M15,10h1M7,15h4"/><path stroke="#eceef2" d="M5,10h1"/><path stroke="#d9dbe0" d="M6,10h1"/><path stroke="#ced0d5" d="M7,10h1"/><path stroke="#d5d8dd" d="M9,10h1"/><path stroke="#e6e9ef" d="M10,10h1"/><path stroke="#eff5fb" d="M11,10h1M10,11h1"/><path stroke="#f0f7fe" d="M12,10h1M10,12h1"/><path stroke="#d6cdce" d="M13,10h1M10,13h1"/><path stroke="#a88077" d="M14,10h1M9,14h1"/><path stroke="#b98b7b" opacity="0.8196078431372549" d="M1,11h1"/><path stroke="#d6beb8" opacity="0.9490196078431372" d="M2,11h1"/><path stroke="#e8dfdd" d="M3,11h1"/><path stroke="#f2f1f3" d="M4,11h1"/><path stroke="#f7fafe" d="M5,11h1"/><path stroke="#f7fbff" d="M6,11h1"/><path stroke="#f8fbff" d="M7,11h2"/><path stroke="#e7e9ef" d="M11,11h1"/><path stroke="#dbd6d9" d="M12,11h1M11,12h1"/><path stroke="#c7b4b2" opacity="0.9490196078431372" d="M13,11h1M11,13h1"/><path stroke="#a77c73" opacity="0.8196078431372549" d="M14,11h1M11,14h1"/><path stroke="#91584a" opacity="0.7490196078431373" d="M15,11h1M11,15h1"/><path stroke="#a66852" opacity="0.21568627450980393" d="M0,12h1"/><path stroke="#b17c69" opacity="0.42745098039215684" d="M1,12h1"/><path stroke="#b88878" opacity="0.8274509803921568" d="M2,12h1M3,13h1"/><path stroke="#c9a79c" d="M3,12h1"/><path stroke="#e8dfde" d="M4,12h1"/><path stroke="#f2f7fd" d="M7,12h2"/><path stroke="#f2f8fe" d="M9,12h1"/><path stroke="#b89b95" d="M12,12h1"/><path stroke="#a57a70" opacity="0.8274509803921568" d="M13,12h1M12,13h1"/><path stroke="#9d6d61" opacity="0.42745098039215684" d="M14,12h1M12,14h1"/><path stroke="#915849" opacity="0.21568627450980393" d="M15,12h1M12,15h1"/><path stroke="#a15e47" opacity="0.1568627450980392" d="M1,13h1M2,14h1"/><path stroke="#a4644e" opacity="0.5490196078431373" d="M2,13h1"/><path stroke="#d6bfb8" opacity="0.9490196078431372" d="M4,13h1"/><path stroke="#e0d4d2" d="M5,13h1"/><path stroke="#d9cece" d="M6,13h1"/><path stroke="#d5cbcc" d="M7,13h2"/><path stroke="#d6cccd" d="M9,13h1"/><path stroke="#8e5444" opacity="0.5490196078431373" d="M13,13h1"/><path stroke="#8b4d3d" opacity="0.1568627450980392" d="M14,13h1M13,14h1"/><path stroke="#995036" opacity="0.03529411764705882" d="M1,14h1"/><path stroke="#b27c6a" opacity="0.42745098039215684" d="M3,14h1"/><path stroke="#ba8b7b" opacity="0.8196078431372549" d="M4,14h1"/><path stroke="#b78a7d" d="M5,14h1"/><path stroke="#a98077" d="M10,14h1"/><path stroke="#823e2c" opacity="0.03529411764705882" d="M14,14h1"/><path stroke="#a86953" opacity="0.21568627450980393" d="M3,15h1"/><path stroke="#a26551" d="M5,15h1"/><path stroke="#975d4c" d="M6,15h1"/></svg>
