<svg xmlns="http://www.w3.org/2000/svg" shape-rendering="crispEdges" viewBox="0 -0.5 16 16" width="16" height="16"><metadata>Generated with pixel-perfect-svg https://github.com/kagof/pixel-perfect-svg</metadata><path stroke="#88d6ff" d="M2,2h2M2,3h2M0,4h2M0,5h2"/><path stroke="#6dccff" d="M4,2h2M4,3h2M6,4h2M6,5h2M0,6h2M4,6h2M0,7h2M4,7h2"/><path stroke="#4097ea" d="M12,4h2M12,5h2M10,6h6M10,7h6M6,8h2M6,9h2M4,10h2M4,11h2"/><path stroke="#55b1f1" d="M6,6h4M6,7h4M0,8h2M0,9h2M2,10h2M2,11h2"/><path stroke="#105da2" d="M12,8h2M12,9h2M0,10h2M0,11h2M2,12h4M2,13h4"/></svg>
