<svg xmlns="http://www.w3.org/2000/svg" shape-rendering="crispEdges" viewBox="0 -0.5 16 16" width="16" height="16"><metadata>Generated with pixel-perfect-svg https://github.com/kagof/pixel-perfect-svg</metadata><path stroke="#8ad7ff" opacity="0.047058823529411764" d="M1,1h1"/><path stroke="#89d6ff" opacity="0.1843137254901961" d="M2,1h1"/><path stroke="#81d4ff" opacity="0.25882352941176473" d="M3,1h1"/><path stroke="#74ceff" opacity="0.25882352941176473" d="M4,1h1"/><path stroke="#6cccff" opacity="0.1843137254901961" d="M5,1h1"/><path stroke="#6bcbff" opacity="0.050980392156862744" d="M6,1h1"/><path stroke="#8ad7ff" opacity="0.16470588235294117" d="M1,2h1"/><path stroke="#89d6ff" opacity="0.5686274509803921" d="M2,2h1"/><path stroke="#81d4ff" opacity="0.8" d="M3,2h1M3,3h1"/><path stroke="#74ceff" opacity="0.8" d="M4,2h1"/><path stroke="#6cccff" opacity="0.5803921568627451" d="M5,2h1"/><path stroke="#6bcbff" opacity="0.16862745098039217" d="M6,2h1"/><path stroke="#8ad7ff" opacity="0.2235294117647059" d="M0,3h1"/><path stroke="#8ad7ff" opacity="0.3686274509803922" d="M1,3h1"/><path stroke="#89d6ff" opacity="0.6470588235294118" d="M2,3h1"/><path stroke="#74ceff" opacity="0.792156862745098" d="M4,3h1"/><path stroke="#6cccff" opacity="0.6431372549019608" d="M5,3h1"/><path stroke="#6dccff" opacity="0.37254901960784315" d="M6,3h1"/><path stroke="#6fceff" opacity="0.16862745098039217" d="M7,3h1"/><path stroke="#76d6ff" opacity="0.0392156862745098" d="M8,3h1"/><path stroke="#4097ea" opacity="0.050980392156862744" d="M11,3h1M14,3h1"/><path stroke="#4097ea" opacity="0.1843137254901961" d="M12,3h2"/><path stroke="#89d6ff" opacity="0.7725490196078432" d="M0,4h1"/><path stroke="#89d6ff" opacity="0.6392156862745098" d="M1,4h1"/><path stroke="#89d6ff" opacity="0.3843137254901961" d="M2,4h1"/><path stroke="#82d4ff" opacity="0.23137254901960785" d="M3,4h1"/><path stroke="#74ceff" opacity="0.2196078431372549" d="M4,4h1"/><path stroke="#6dccff" opacity="0.3686274509803922" d="M5,4h1"/><path stroke="#6dcdff" opacity="0.6509803921568628" d="M6,4h1"/><path stroke="#6ecdff" opacity="0.5803921568627451" d="M7,4h1"/><path stroke="#70d0ff" opacity="0.17254901960784313" d="M8,4h1"/><path stroke="#4097ea" opacity="0.17647058823529413" d="M11,4h1"/><path stroke="#4097ea" opacity="0.5882352941176471" d="M12,4h1"/><path stroke="#4097ea" opacity="0.5803921568627451" d="M13,4h1"/><path stroke="#4097ea" opacity="0.17254901960784313" d="M14,4h1"/><path stroke="#82d4ff" d="M0,5h1"/><path stroke="#82d4ff" opacity="0.7725490196078432" d="M1,5h1"/><path stroke="#82d4ff" opacity="0.23529411764705882" d="M2,5h1"/><path stroke="#0047ff" opacity="0.00392156862745098" d="M3,5h1"/><path stroke="#6accff" opacity="0.13725490196078433" d="M4,5h1"/><path stroke="#6ac9fd" opacity="0.4392156862745098" d="M5,5h1"/><path stroke="#68c7fc" opacity="0.8549019607843137" d="M6,5h1"/><path stroke="#66c5fb" opacity="0.8549019607843137" d="M7,5h1"/><path stroke="#60bdf7" opacity="0.45098039215686275" d="M8,5h1"/><path stroke="#4ea9ee" opacity="0.22745098039215686" d="M9,5h1"/><path stroke="#439beb" opacity="0.22745098039215686" d="M10,5h1"/><path stroke="#4097eb" opacity="0.45098039215686275" d="M11,5h1"/><path stroke="#4198eb" opacity="0.8549019607843137" d="M12,5h1"/><path stroke="#4198eb" opacity="0.8470588235294118" d="M13,5h1"/><path stroke="#4097eb" opacity="0.4470588235294118" d="M14,5h1"/><path stroke="#4097ea" opacity="0.23137254901960785" d="M15,5h1"/><path stroke="#74cfff" d="M0,6h1"/><path stroke="#74cfff" opacity="0.7607843137254902" d="M1,6h1"/><path stroke="#74cfff" opacity="0.22745098039215686" d="M2,6h1"/><path stroke="#6bcdff" opacity="0.1450980392156863" d="M3,6h1"/><path stroke="#6dcdff" opacity="0.5568627450980392" d="M4,6h1"/><path stroke="#68c6fc" opacity="0.8470588235294118" d="M5,6h1"/><path stroke="#5fbdf7" opacity="0.9725490196078431" d="M6,6h1"/><path stroke="#5ab7f4" opacity="0.9647058823529412" d="M7,6h1"/><path stroke="#57b3f2" opacity="0.8431372549019608" d="M8,6h1"/><path stroke="#50abef" opacity="0.7725490196078432" d="M9,6h1"/><path stroke="#459dec" opacity="0.7725490196078432" d="M10,6h1"/><path stroke="#4097ea" opacity="0.8431372549019608" d="M11,6h1"/><path stroke="#4198eb" opacity="0.9647058823529412" d="M12,6h1"/><path stroke="#4198eb" opacity="0.9607843137254902" d="M13,6h1"/><path stroke="#4097eb" opacity="0.8392156862745098" d="M14,6h1"/><path stroke="#4097ea" opacity="0.7764705882352941" d="M15,6h1"/><path stroke="#68c6fd" d="M0,7h1"/><path stroke="#68c6fd" opacity="0.7490196078431373" d="M1,7h1"/><path stroke="#68c7fd" opacity="0.2235294117647059" d="M2,7h1"/><path stroke="#74d4ff" opacity="0.1450980392156863" d="M3,7h1"/><path stroke="#70cfff" opacity="0.5568627450980392" d="M4,7h1"/><path stroke="#65c3fb" opacity="0.8470588235294118" d="M5,7h1"/><path stroke="#55b1f2" opacity="0.9725490196078431" d="M6,7h1"/><path stroke="#50abef" opacity="0.9647058823529412" d="M7,7h1"/><path stroke="#53aff0" opacity="0.8431372549019608" d="M8,7h1"/><path stroke="#50abf0" opacity="0.7725490196078432" d="M9,7h1"/><path stroke="#469eec" opacity="0.7725490196078432" d="M10,7h1"/><path stroke="#3c92e4" opacity="0.8431372549019608" d="M11,7h1"/><path stroke="#368bdb" opacity="0.9647058823529412" d="M12,7h1"/><path stroke="#368bdb" opacity="0.9607843137254902" d="M13,7h1"/><path stroke="#3c93e5" opacity="0.8392156862745098" d="M14,7h1"/><path stroke="#4098eb" opacity="0.7764705882352941" d="M15,7h1"/><path stroke="#5cb9f6" d="M0,8h1"/><path stroke="#5cb9f6" opacity="0.7568627450980392" d="M1,8h1"/><path stroke="#5cb9f6" opacity="0.22745098039215686" d="M2,8h1"/><path stroke="#ffffff" opacity="0.00392156862745098" d="M3,8h1"/><path stroke="#7ddfff" opacity="0.13725490196078433" d="M4,8h1"/><path stroke="#57b2f4" opacity="0.4392156862745098" d="M5,8h1"/><path stroke="#48a0ed" opacity="0.8549019607843137" d="M6,8h1"/><path stroke="#469eec" opacity="0.8549019607843137" d="M7,8h1"/><path stroke="#4ca5ee" opacity="0.45098039215686275" d="M8,8h1"/><path stroke="#55b0f4" opacity="0.22745098039215686" d="M9,8h1"/><path stroke="#4aa3f2" opacity="0.22745098039215686" d="M10,8h1"/><path stroke="#2a7dca" opacity="0.45098039215686275" d="M11,8h1"/><path stroke="#1e6db7" opacity="0.8549019607843137" d="M12,8h1"/><path stroke="#1e6eb7" opacity="0.8470588235294118" d="M13,8h1"/><path stroke="#2b7ecb" opacity="0.4470588235294118" d="M14,8h1"/><path stroke="#459df1" opacity="0.23137254901960785" d="M15,8h1"/><path stroke="#439bdd" d="M0,9h1"/><path stroke="#459ddf" opacity="0.8313725490196079" d="M1,9h1"/><path stroke="#4da7e7" opacity="0.43529411764705883" d="M2,9h1"/><path stroke="#56b2f7" opacity="0.20784313725490197" d="M3,9h1"/><path stroke="#469ff1" opacity="0.2" d="M4,9h1"/><path stroke="#3f95eb" opacity="0.3607843137254902" d="M5,9h1"/><path stroke="#3f96ea" opacity="0.6470588235294118" d="M6,9h1"/><path stroke="#3f96ea" opacity="0.5843137254901961" d="M7,9h1"/><path stroke="#3d93e9" opacity="0.17254901960784313" d="M8,9h1"/><path stroke="#0a5598" opacity="0.17647058823529413" d="M11,9h1"/><path stroke="#0e5b9f" opacity="0.5882352941176471" d="M12,9h1"/><path stroke="#0e5b9f" opacity="0.5803921568627451" d="M13,9h1"/><path stroke="#095598" opacity="0.17254901960784313" d="M14,9h1"/><path stroke="#1f6fb3" d="M0,10h1"/><path stroke="#2a7dc0" opacity="0.9607843137254902" d="M1,10h1"/><path stroke="#469fe0" opacity="0.8274509803921568" d="M2,10h1"/><path stroke="#53aff4" opacity="0.7568627450980392" d="M3,10h1"/><path stroke="#47a0ef" opacity="0.7568627450980392" d="M4,10h1"/><path stroke="#4097eb" opacity="0.6274509803921569" d="M5,10h1"/><path stroke="#3f96ea" opacity="0.3686274509803922" d="M6,10h1"/><path stroke="#3e95e9" opacity="0.16862745098039217" d="M7,10h1"/><path stroke="#388de7" opacity="0.0392156862745098" d="M8,10h1"/><path stroke="#024c8d" opacity="0.050980392156862744" d="M11,10h1"/><path stroke="#0c589c" opacity="0.1843137254901961" d="M12,10h2"/><path stroke="#024c8c" opacity="0.050980392156862744" d="M14,10h1"/><path stroke="#0c589d" opacity="0.7490196078431373" d="M0,11h1"/><path stroke="#1e6eb2" opacity="0.8235294117647058" d="M1,11h1"/><path stroke="#3a90d1" opacity="0.9686274509803922" d="M2,11h1"/><path stroke="#4198dd" d="M3,11h1"/><path stroke="#398eda" d="M4,11h1"/><path stroke="#3488d8" opacity="0.7803921568627451" d="M5,11h1"/><path stroke="#3286d6" opacity="0.23137254901960785" d="M6,11h1"/><path stroke="#09549a" opacity="0.21568627450980393" d="M0,12h1"/><path stroke="#1867ab" opacity="0.42745098039215684" d="M1,12h1"/><path stroke="#2070b4" opacity="0.8352941176470589" d="M2,12h1"/><path stroke="#2070b5" d="M3,12h1"/><path stroke="#1d6db4" d="M4,12h1"/><path stroke="#1c6bb3" opacity="0.7843137254901961" d="M5,12h1"/><path stroke="#1a69b1" opacity="0.23921568627450981" d="M6,12h1"/><path stroke="#0e5a9f" opacity="0.1568627450980392" d="M1,13h1"/><path stroke="#0e5aa0" opacity="0.5529411764705883" d="M2,13h1"/><path stroke="#0e5ba0" opacity="0.7764705882352941" d="M3,13h2"/><path stroke="#0f5ba0" opacity="0.5686274509803921" d="M5,13h1"/><path stroke="#0f5ba0" opacity="0.1803921568627451" d="M6,13h1"/><path stroke="#0b569c" opacity="0.043137254901960784" d="M1,14h1"/><path stroke="#0c589d" opacity="0.17254901960784313" d="M2,14h1"/><path stroke="#0c589d" opacity="0.24705882352941178" d="M3,14h1"/><path stroke="#0d599d" opacity="0.24313725490196078" d="M4,14h1"/><path stroke="#0d5a9e" opacity="0.1803921568627451" d="M5,14h1"/><path stroke="#0d5a9e" opacity="0.058823529411764705" d="M6,14h1"/></svg>
