<svg xmlns="http://www.w3.org/2000/svg" shape-rendering="crispEdges" viewBox="0 -0.5 16 16" width="16" height="16"><metadata>Generated with pixel-perfect-svg https://github.com/kagof/pixel-perfect-svg</metadata><path stroke="#8ad7ff" opacity="0.047058823529411764" d="M1,1h1"/><path stroke="#89d6ff" opacity="0.1843137254901961" d="M2,1h1"/><path stroke="#81d4ff" opacity="0.25882352941176473" d="M3,1h1"/><path stroke="#74ceff" opacity="0.25882352941176473" d="M4,1h1"/><path stroke="#6cccff" opacity="0.1843137254901961" d="M5,1h1"/><path stroke="#6bcbff" opacity="0.043137254901960784" d="M6,1h1"/><path stroke="#6dccff" opacity="0.043137254901960784" d="M7,1h1"/><path stroke="#6dccff" opacity="0.17647058823529413" d="M8,1h1"/><path stroke="#6dcdff" opacity="0.17647058823529413" d="M9,1h1"/><path stroke="#70cfff" opacity="0.043137254901960784" d="M10,1h1"/><path stroke="#4ca7ec" opacity="0.043137254901960784" d="M11,1h1"/><path stroke="#54b0f0" opacity="0.17647058823529413" d="M12,1h1"/><path stroke="#55b1f1" opacity="0.17647058823529413" d="M13,1h1"/><path stroke="#55b1f1" opacity="0.047058823529411764" d="M14,1h1"/><path stroke="#8ad7ff" opacity="0.16470588235294117" d="M1,2h1"/><path stroke="#89d6ff" opacity="0.5686274509803921" d="M2,2h1"/><path stroke="#81d4ff" opacity="0.8" d="M3,2h1"/><path stroke="#74ceff" opacity="0.8" d="M4,2h1"/><path stroke="#6cccff" opacity="0.5686274509803921" d="M5,2h1"/><path stroke="#6bcbff" opacity="0.14901960784313725" d="M6,2h1"/><path stroke="#6dccff" opacity="0.1568627450980392" d="M7,2h1"/><path stroke="#6dccff" opacity="0.5686274509803921" d="M8,2h1"/><path stroke="#6dcdff" opacity="0.5686274509803921" d="M9,2h1"/><path stroke="#70cfff" opacity="0.1568627450980392" d="M10,2h1M6,6h1"/><path stroke="#50abee" opacity="0.1568627450980392" d="M11,2h1M6,7h1"/><path stroke="#54b0f1" opacity="0.5686274509803921" d="M12,2h1"/><path stroke="#55b1f1" opacity="0.5725490196078431" d="M13,2h1"/><path stroke="#55b1f1" opacity="0.16862745098039217" d="M14,2h1"/><path stroke="#8ad7ff" opacity="0.2235294117647059" d="M0,3h1"/><path stroke="#8ad7ff" opacity="0.3686274509803922" d="M1,3h1"/><path stroke="#89d6ff" opacity="0.6470588235294118" d="M2,3h1"/><path stroke="#81d4ff" opacity="0.803921568627451" d="M3,3h1"/><path stroke="#74ceff" opacity="0.803921568627451" d="M4,3h1"/><path stroke="#6cccff" opacity="0.6431372549019608" d="M5,3h1"/><path stroke="#6cccff" opacity="0.36470588235294116" d="M6,3h1"/><path stroke="#6dccff" opacity="0.4392156862745098" d="M7,3h1"/><path stroke="#6dccff" opacity="0.8470588235294118" d="M8,3h1M7,5h1"/><path stroke="#6dccff" opacity="0.8431372549019608" d="M9,3h1"/><path stroke="#6ecdff" opacity="0.43529411764705883" d="M10,3h1M7,6h1"/><path stroke="#5fbcf7" opacity="0.43529411764705883" d="M11,3h1M7,7h1"/><path stroke="#56b3f2" opacity="0.8431372549019608" d="M12,3h1"/><path stroke="#55b1f1" opacity="0.8470588235294118" d="M13,3h1"/><path stroke="#55b1f1" opacity="0.4470588235294118" d="M14,3h1"/><path stroke="#55b1f1" opacity="0.23137254901960785" d="M15,3h1"/><path stroke="#89d6ff" opacity="0.7725490196078432" d="M0,4h1"/><path stroke="#89d6ff" opacity="0.6392156862745098" d="M1,4h1"/><path stroke="#89d6ff" opacity="0.3843137254901961" d="M2,4h1"/><path stroke="#82d4ff" opacity="0.23529411764705882" d="M3,4h1"/><path stroke="#73ceff" opacity="0.23529411764705882" d="M4,4h1"/><path stroke="#6dccff" opacity="0.3803921568627451" d="M5,4h1"/><path stroke="#6dccff" opacity="0.6509803921568628" d="M6,4h1"/><path stroke="#6dccff" opacity="0.8549019607843137" d="M7,4h1"/><path stroke="#6dccff" opacity="0.9725490196078431" d="M8,4h1"/><path stroke="#6dccff" opacity="0.9607843137254902" d="M9,4h1M8,5h1"/><path stroke="#6ecdff" opacity="0.8352941176470589" d="M10,4h1M8,6h1"/><path stroke="#66c4fb" opacity="0.8352941176470589" d="M11,4h1"/><path stroke="#5ab6f4" opacity="0.9607843137254902" d="M12,4h1"/><path stroke="#55b0f1" opacity="0.9607843137254902" d="M13,4h1"/><path stroke="#55b1f1" opacity="0.8392156862745098" d="M14,4h1"/><path stroke="#55b1f1" opacity="0.7764705882352941" d="M15,4h1"/><path stroke="#82d4ff" d="M0,5h1"/><path stroke="#82d4ff" opacity="0.7764705882352941" d="M1,5h1"/><path stroke="#81d4ff" opacity="0.23921568627450981" d="M2,5h1"/><path stroke="#6ecdff" opacity="0.16470588235294117" d="M5,5h1"/><path stroke="#6dcdff" opacity="0.5725490196078431" d="M6,5h1"/><path stroke="#6ecdff" opacity="0.9450980392156862" d="M9,5h1"/><path stroke="#6eceff" opacity="0.8196078431372549" d="M10,5h1"/><path stroke="#67c5fb" opacity="0.8196078431372549" d="M11,5h1"/><path stroke="#5ab7f4" opacity="0.9450980392156862" d="M12,5h1"/><path stroke="#55b1f1" opacity="0.9450980392156862" d="M13,5h1"/><path stroke="#55b1f1" opacity="0.8274509803921568" d="M14,5h1"/><path stroke="#55b2f1" opacity="0.7607843137254902" d="M15,5h1"/><path stroke="#74cfff" d="M0,6h1"/><path stroke="#74cfff" opacity="0.7725490196078432" d="M1,6h1"/><path stroke="#73cfff" opacity="0.24313725490196078" d="M2,6h1"/><path stroke="#71d1ff" opacity="0.03529411764705882" d="M5,6h1"/><path stroke="#6ecdff" opacity="0.8196078431372549" d="M9,6h1"/><path stroke="#71d0ff" opacity="0.4117647058823529" d="M10,6h1"/><path stroke="#61bef7" opacity="0.4117647058823529" d="M11,6h1"/><path stroke="#57b3f2" opacity="0.8196078431372549" d="M12,6h1"/><path stroke="#55b2f1" opacity="0.8235294117647058" d="M13,6h1"/><path stroke="#56b2f1" opacity="0.4235294117647059" d="M14,6h1"/><path stroke="#57b4f2" opacity="0.20784313725490197" d="M15,6h1"/><path stroke="#68c6fd" d="M0,7h1"/><path stroke="#68c7fd" opacity="0.7607843137254902" d="M1,7h1"/><path stroke="#68c7fd" opacity="0.24313725490196078" d="M2,7h1"/><path stroke="#50acec" opacity="0.03529411764705882" d="M5,7h1"/><path stroke="#66c5fb" opacity="0.8352941176470589" d="M8,7h1"/><path stroke="#65c3fb" opacity="0.8196078431372549" d="M9,7h1"/><path stroke="#56b1f4" opacity="0.4117647058823529" d="M10,7h1"/><path stroke="#469eeb" opacity="0.4117647058823529" d="M11,7h1"/><path stroke="#4ea9ef" opacity="0.8196078431372549" d="M12,7h1"/><path stroke="#4fa9ef" opacity="0.8235294117647058" d="M13,7h1"/><path stroke="#49a2ed" opacity="0.4235294117647059" d="M14,7h1"/><path stroke="#3b91e8" opacity="0.20784313725490197" d="M15,7h1"/><path stroke="#5cb9f6" d="M0,8h1"/><path stroke="#5cb9f6" opacity="0.7568627450980392" d="M1,8h1"/><path stroke="#5cbaf7" opacity="0.23529411764705882" d="M2,8h1"/><path stroke="#56b3f1" opacity="0.16470588235294117" d="M5,8h1"/><path stroke="#54b0f1" opacity="0.5725490196078431" d="M6,8h1"/><path stroke="#57b3f2" opacity="0.8470588235294118" d="M7,8h1"/><path stroke="#5ab7f4" opacity="0.9607843137254902" d="M8,8h1"/><path stroke="#56b2f2" opacity="0.9450980392156862" d="M9,8h1"/><path stroke="#47a0ed" opacity="0.8196078431372549" d="M10,8h1"/><path stroke="#4097ea" opacity="0.8196078431372549" d="M11,8h1"/><path stroke="#449beb" opacity="0.9450980392156862" d="M12,8h1"/><path stroke="#449ceb" opacity="0.9450980392156862" d="M13,8h1"/><path stroke="#4199ea" opacity="0.8274509803921568" d="M14,8h1"/><path stroke="#3f96ea" opacity="0.7607843137254902" d="M15,8h1"/><path stroke="#439bdd" d="M0,9h1"/><path stroke="#459dde" opacity="0.8313725490196079" d="M1,9h1"/><path stroke="#4ca7e7" opacity="0.43529411764705883" d="M2,9h1"/><path stroke="#55b1f7" opacity="0.21568627450980393" d="M3,9h1"/><path stroke="#48a0f2" opacity="0.21568627450980393" d="M4,9h1"/><path stroke="#4ca6f0" opacity="0.3686274509803922" d="M5,9h1"/><path stroke="#53aff1" opacity="0.6470588235294118" d="M6,9h1"/><path stroke="#54b0f1" opacity="0.8509803921568627" d="M7,9h1"/><path stroke="#51adf0" opacity="0.9607843137254902" d="M8,9h1"/><path stroke="#4da7ef" opacity="0.9490196078431372" d="M9,9h1"/><path stroke="#459dec" opacity="0.8313725490196079" d="M10,9h1"/><path stroke="#4097ea" opacity="0.8313725490196079" d="M11,9h1"/><path stroke="#4097eb" opacity="0.9490196078431372" d="M12,9h2"/><path stroke="#4097ea" opacity="0.8352941176470589" d="M14,9h1"/><path stroke="#4097ea" opacity="0.7764705882352941" d="M15,9h1"/><path stroke="#1f6fb3" d="M0,10h1"/><path stroke="#2a7dc0" opacity="0.9607843137254902" d="M1,10h1"/><path stroke="#469fe0" opacity="0.8274509803921568" d="M2,10h1"/><path stroke="#53aff4" opacity="0.7607843137254902" d="M3,10h1"/><path stroke="#47a0ef" opacity="0.7647058823529411" d="M4,10h1"/><path stroke="#439aec" opacity="0.6274509803921569" d="M5,10h1"/><path stroke="#4ba5ef" opacity="0.3607843137254902" d="M6,10h1"/><path stroke="#4da7ef" opacity="0.43529411764705883" d="M7,10h1"/><path stroke="#47a0ee" opacity="0.8313725490196079" d="M8,10h1"/><path stroke="#459eed" opacity="0.8274509803921568" d="M9,10h1"/><path stroke="#439bec" opacity="0.42745098039215684" d="M10,10h1"/><path stroke="#4097eb" opacity="0.42745098039215684" d="M11,10h1"/><path stroke="#4198eb" opacity="0.8274509803921568" d="M12,10h1"/><path stroke="#4198eb" opacity="0.8313725490196079" d="M13,10h1"/><path stroke="#4098eb" opacity="0.44313725490196076" d="M14,10h1"/><path stroke="#4097ea" opacity="0.23137254901960785" d="M15,10h1"/><path stroke="#0c589d" opacity="0.7490196078431373" d="M0,11h1"/><path stroke="#1e6eb2" opacity="0.8235294117647058" d="M1,11h1"/><path stroke="#3a90d1" opacity="0.9686274509803922" d="M2,11h1"/><path stroke="#4198dd" d="M3,11h1"/><path stroke="#398eda" d="M4,11h1"/><path stroke="#3388d8" opacity="0.7686274509803922" d="M5,11h1"/><path stroke="#3084d6" opacity="0.20784313725490197" d="M6,11h1"/><path stroke="#3184d5" opacity="0.21568627450980393" d="M7,11h1"/><path stroke="#3387d7" opacity="0.7725490196078432" d="M8,11h1"/><path stroke="#3388d8" opacity="0.7725490196078432" d="M9,11h1"/><path stroke="#3286d6" opacity="0.2196078431372549" d="M10,11h1"/><path stroke="#3387d6" opacity="0.2196078431372549" d="M11,11h1"/><path stroke="#3488d8" opacity="0.7725490196078432" d="M12,11h1"/><path stroke="#3488d8" opacity="0.7764705882352941" d="M13,11h1"/><path stroke="#3387d6" opacity="0.23529411764705882" d="M14,11h1"/><path stroke="#09549a" opacity="0.21568627450980393" d="M0,12h1"/><path stroke="#1867ab" opacity="0.42745098039215684" d="M1,12h1"/><path stroke="#2070b4" opacity="0.8352941176470589" d="M2,12h1"/><path stroke="#2070b5" d="M3,12h1"/><path stroke="#1d6db4" d="M4,12h1"/><path stroke="#1b6bb3" opacity="0.7686274509803922" d="M5,12h1"/><path stroke="#1867b0" opacity="0.21568627450980393" d="M6,12h1"/><path stroke="#1867b0" opacity="0.22745098039215686" d="M7,12h1"/><path stroke="#1b6ab3" opacity="0.7803921568627451" d="M8,12h2M12,12h1"/><path stroke="#1968b0" opacity="0.22745098039215686" d="M10,12h1"/><path stroke="#1a69b0" opacity="0.22745098039215686" d="M11,12h1"/><path stroke="#1b6ab3" opacity="0.7843137254901961" d="M13,12h1"/><path stroke="#1a69b0" opacity="0.24313725490196078" d="M14,12h1"/><path stroke="#0e5a9f" opacity="0.1568627450980392" d="M1,13h1"/><path stroke="#0e5aa0" opacity="0.5529411764705883" d="M2,13h1"/><path stroke="#0e5ba0" opacity="0.7764705882352941" d="M3,13h2"/><path stroke="#0f5ba0" opacity="0.5568627450980392" d="M5,13h1"/><path stroke="#0f5ba0" opacity="0.16470588235294117" d="M6,13h1"/><path stroke="#0f5ba0" opacity="0.17254901960784313" d="M7,13h1M10,13h2"/><path stroke="#0f5ba0" opacity="0.5725490196078431" d="M8,13h2M12,13h1"/><path stroke="#0f5ba0" opacity="0.5764705882352941" d="M13,13h1"/><path stroke="#0f5ba0" opacity="0.18823529411764706" d="M14,13h1"/><path stroke="#0b569c" opacity="0.043137254901960784" d="M1,14h1"/><path stroke="#0c589d" opacity="0.17254901960784313" d="M2,14h1"/><path stroke="#0c589d" opacity="0.24705882352941178" d="M3,14h1"/><path stroke="#0d599d" opacity="0.24313725490196078" d="M4,14h1"/><path stroke="#0d5a9e" opacity="0.17647058823529413" d="M5,14h1"/><path stroke="#0d5a9e" opacity="0.050980392156862744" d="M6,14h1"/><path stroke="#0d599e" opacity="0.054901960784313725" d="M7,14h1M10,14h2"/><path stroke="#0d599e" opacity="0.1803921568627451" d="M8,14h2M12,14h2"/><path stroke="#0d599e" opacity="0.058823529411764705" d="M14,14h1"/></svg>
