<svg xmlns="http://www.w3.org/2000/svg" shape-rendering="crispEdges" viewBox="0 -0.5 16 16" width="16" height="16"><metadata>Generated with pixel-perfect-svg https://github.com/kagof/pixel-perfect-svg</metadata><path stroke="#88d6ff" d="M2,2h2M2,3h2M0,4h2M0,5h2"/><path stroke="#6dccff" d="M4,2h2M8,2h2M4,3h2M8,3h2M6,4h6M6,5h6M0,6h2M8,6h2M0,7h2M8,7h2"/><path stroke="#55b1f1" d="M12,2h2M12,3h2M12,4h4M12,5h4M12,6h2M12,7h2M0,8h2M6,8h4M0,9h2M6,9h4M2,10h2M2,11h2"/><path stroke="#4097ea" d="M10,8h6M10,9h6M4,10h2M8,10h2M12,10h2M4,11h2M8,11h2M12,11h2"/><path stroke="#105da2" d="M0,10h2M0,11h2M2,12h4M8,12h2M12,12h2M2,13h4M8,13h2M12,13h2"/></svg>
