<svg xmlns="http://www.w3.org/2000/svg" shape-rendering="crispEdges" viewBox="0 -0.5 16 16" width="16" height="16"><metadata>Generated with pixel-perfect-svg https://github.com/kagof/pixel-perfect-svg</metadata><path stroke="#4097ea" opacity="0.21176470588235294" d="M1,0h1"/><path stroke="#4097ea" opacity="0.7411764705882353" d="M2,0h1"/><path stroke="#3f97ea" d="M3,0h1"/><path stroke="#3d96ea" d="M4,0h1"/><path stroke="#3c95eb" d="M5,0h2"/><path stroke="#3b95ea" d="M7,0h1"/><path stroke="#3b94ea" d="M8,0h1"/><path stroke="#3a93e9" d="M9,0h1"/><path stroke="#3993e9" d="M10,0h1"/><path stroke="#47a2ef" d="M11,0h1"/><path stroke="#62bffa" d="M12,0h1"/><path stroke="#6eceff" opacity="0.7411764705882353" d="M13,0h1"/><path stroke="#67cdff" opacity="0.21176470588235294" d="M14,0h1"/><path stroke="#4399ed" opacity="0.21176470588235294" d="M0,1h1"/><path stroke="#4097eb" opacity="0.41568627450980394" d="M1,1h1"/><path stroke="#3f97ea" opacity="0.807843137254902" d="M2,1h1"/><path stroke="#489ae9" d="M3,1h1"/><path stroke="#5aa2e7" d="M4,1h1M3,2h1"/><path stroke="#64a6e6" d="M5,1h2M5,4h1M5,9h1"/><path stroke="#66a8e8" d="M7,1h1"/><path stroke="#6badec" d="M8,1h1"/><path stroke="#6daeee" d="M9,1h1"/><path stroke="#6badee" d="M10,1h1"/><path stroke="#69b3f1" d="M11,1h1"/><path stroke="#68c0f8" d="M12,1h1"/><path stroke="#6fc9fc" opacity="0.807843137254902" d="M13,1h1"/><path stroke="#93d8fe" opacity="0.41568627450980394" d="M14,1h1"/><path stroke="#daf4ff" opacity="0.21176470588235294" d="M15,1h1"/><path stroke="#4198eb" opacity="0.7411764705882353" d="M0,2h1"/><path stroke="#3f97eb" opacity="0.807843137254902" d="M1,2h1"/><path stroke="#3e96eb" opacity="0.9372549019607843" d="M2,2h1"/><path stroke="#92b9e1" d="M4,2h1"/><path stroke="#afc5dd" d="M5,2h1"/><path stroke="#aec4dd" d="M6,2h1"/><path stroke="#b4cbe4" d="M7,2h1"/><path stroke="#c4daf0" d="M8,2h1"/><path stroke="#cce1f7" d="M9,2h1"/><path stroke="#cbe0f6" d="M10,2h1"/><path stroke="#acd5f5" d="M11,2h1"/><path stroke="#73c0f5" d="M12,2h1"/><path stroke="#6ec2f7" opacity="0.9372549019607843" d="M13,2h1"/><path stroke="#a7ddfc" opacity="0.807843137254902" d="M14,2h1"/><path stroke="#cdefff" opacity="0.7411764705882353" d="M15,2h1"/><path stroke="#358fe0" d="M0,3h1M2,7h1M2,8h1"/><path stroke="#3690e3" d="M1,3h1"/><path stroke="#3b94e8" d="M2,3h1"/><path stroke="#5ba2e7" d="M3,3h1"/><path stroke="#94bae1" d="M4,3h1"/><path stroke="#b0c5dd" d="M5,3h1M5,10h1"/><path stroke="#adc4dd" d="M6,3h1M6,10h1"/><path stroke="#b4cce4" d="M7,3h1M7,10h1"/><path stroke="#c7def2" d="M8,3h1"/><path stroke="#ddeef9" d="M9,3h1"/><path stroke="#f4f7fa" d="M10,3h1"/><path stroke="#d1e7f8" d="M11,3h1M11,5h1"/><path stroke="#7bc1f3" d="M12,3h1"/><path stroke="#69bcf4" d="M13,3h1"/><path stroke="#9ad8fc" d="M14,3h1"/><path stroke="#b4e7ff" d="M15,3h1"/><path stroke="#1e7eca" d="M0,4h1M1,7h1M1,8h1"/><path stroke="#2684d2" d="M1,4h1M7,14h1"/><path stroke="#3790e2" d="M2,4h1"/><path stroke="#4a9bea" d="M3,4h1"/><path stroke="#5ca3e7" d="M4,4h1"/><path stroke="#62a5e6" d="M6,4h1M6,9h1"/><path stroke="#65abe9" d="M7,4h1M7,9h1"/><path stroke="#71b9f0" d="M8,4h1M8,9h1"/><path stroke="#9cd1f5" d="M9,4h1"/><path stroke="#deedf9" d="M10,4h1"/><path stroke="#d3e8f8" d="M11,4h1M11,10h1"/><path stroke="#7dc2f3" d="M12,4h1M12,5h1"/><path stroke="#5db8f4" d="M13,4h1"/><path stroke="#77ccfc" d="M14,4h1"/><path stroke="#86d6ff" d="M15,4h1"/><path stroke="#1274be" d="M0,5h1M0,6h1M5,15h2"/><path stroke="#1e7dc9" d="M1,5h1M1,6h1"/><path stroke="#358fdf" d="M2,5h1M2,6h1"/><path stroke="#4097eb" d="M3,5h1M3,8h1M9,15h1"/><path stroke="#3d96eb" d="M4,5h1M4,8h1"/><path stroke="#4599e9" d="M5,5h1M5,8h1"/><path stroke="#57a0e7" d="M6,5h1M6,8h1"/><path stroke="#66abe9" d="M7,5h1M7,8h1"/><path stroke="#72b9f0" d="M8,5h1M8,8h1"/><path stroke="#9bd0f5" d="M9,5h1M9,8h1M9,9h1"/><path stroke="#dbecf9" d="M10,5h1M10,8h1"/><path stroke="#54b3f3" d="M13,5h1"/><path stroke="#5bbaf8" d="M14,5h1"/><path stroke="#60bffa" d="M15,5h1"/><path stroke="#3f97eb" d="M3,6h1M3,7h1"/><path stroke="#3c96eb" d="M4,6h1M4,7h1"/><path stroke="#58a1e7" d="M5,6h1M5,7h1"/><path stroke="#91b8e0" d="M6,6h1M6,7h1"/><path stroke="#b7cde4" d="M7,6h1M7,7h1"/><path stroke="#c8dff1" d="M8,6h1M8,7h1"/><path stroke="#dcecf9" d="M9,6h1M9,7h1"/><path stroke="#f0f5fa" d="M10,6h1M10,7h1"/><path stroke="#cfe7f8" d="M11,6h1"/><path stroke="#7cc2f3" d="M12,6h1"/><path stroke="#4eacf0" d="M13,6h1"/><path stroke="#4aa6ef" d="M14,6h1"/><path stroke="#49a3ef" d="M15,6h1"/><path stroke="#1375bf" d="M0,7h1"/><path stroke="#d0e7f8" d="M11,7h1"/><path stroke="#7dc3f3" d="M12,7h1"/><path stroke="#4ca9ef" d="M13,7h1M13,8h1M13,9h1M13,10h1"/><path stroke="#429beb" d="M14,7h1"/><path stroke="#3e95e9" d="M15,7h1"/><path stroke="#1376bf" d="M0,8h1"/><path stroke="#d2e8f8" d="M11,8h1"/><path stroke="#7ec3f3" d="M12,8h1"/><path stroke="#429ceb" d="M14,8h1"/><path stroke="#3f95e9" d="M15,8h1"/><path stroke="#126eb7" d="M0,9h1"/><path stroke="#1d79c4" d="M1,9h1"/><path stroke="#348dde" d="M2,9h1"/><path stroke="#4a9ceb" d="M3,9h1"/><path stroke="#5ca3e8" d="M4,9h1"/><path stroke="#ddedf9" d="M10,9h1M9,10h1"/><path stroke="#d4e9f8" d="M11,9h1"/><path stroke="#7fc4f4" d="M12,9h1"/><path stroke="#439cec" d="M14,9h1M14,10h1"/><path stroke="#3f96ea" d="M15,9h1M15,10h1"/><path stroke="#0f61a7" d="M0,10h1"/><path stroke="#1b6fb9" d="M1,10h1"/><path stroke="#328adb" d="M2,10h1"/><path stroke="#5da4ea" d="M3,10h1"/><path stroke="#95bbe2" d="M4,10h1"/><path stroke="#c6def2" d="M8,10h1"/><path stroke="#f3f6fa" d="M10,10h1"/><path stroke="#7ec4f4" d="M12,10h1M10,12h1"/><path stroke="#0e5a9f" opacity="0.7490196078431373" d="M0,11h1"/><path stroke="#1868b1" opacity="0.8196078431372549" d="M1,11h1"/><path stroke="#2a7ecd" opacity="0.9490196078431372" d="M2,11h1"/><path stroke="#5298da" d="M3,11h1M4,12h1"/><path stroke="#91b7dd" d="M4,11h1"/><path stroke="#b1c7de" d="M5,11h1"/><path stroke="#b0c6de" d="M6,11h1"/><path stroke="#b8cee4" d="M7,11h1"/><path stroke="#cae0f2" d="M8,11h1"/><path stroke="#d4e9f9" d="M9,11h1"/><path stroke="#d3e9f9" d="M10,11h1"/><path stroke="#afd8f6" d="M11,11h1"/><path stroke="#6eb9f1" d="M12,11h1M11,12h1"/><path stroke="#49a5ee" opacity="0.9490196078431372" d="M13,11h1M11,13h1"/><path stroke="#429ceb" opacity="0.8196078431372549" d="M14,11h1M11,14h1"/><path stroke="#3f96ea" opacity="0.7490196078431373" d="M15,11h1M11,15h1"/><path stroke="#0e599d" opacity="0.21568627450980393" d="M0,12h1"/><path stroke="#1462a9" opacity="0.42745098039215684" d="M1,12h1"/><path stroke="#1868b0" opacity="0.8274509803921568" d="M2,12h1"/><path stroke="#2d79bf" d="M3,12h1"/><path stroke="#67a8e8" d="M5,12h1"/><path stroke="#66a7e7" d="M6,12h1"/><path stroke="#6baeea" d="M7,12h1"/><path stroke="#78bdf0" d="M8,12h1"/><path stroke="#7fc5f4" d="M9,12h1"/><path stroke="#52a6ed" d="M12,12h1"/><path stroke="#439ceb" opacity="0.8274509803921568" d="M13,12h1M12,13h1"/><path stroke="#4199eb" opacity="0.42745098039215684" d="M14,12h1M12,14h1"/><path stroke="#3f96ea" opacity="0.21568627450980393" d="M15,12h1M12,15h1"/><path stroke="#0b569a" opacity="0.1568627450980392" d="M1,13h1"/><path stroke="#0d599d" opacity="0.5490196078431373" d="M2,13h1"/><path stroke="#196ab2" opacity="0.8274509803921568" d="M3,13h1"/><path stroke="#2b83d3" opacity="0.9490196078431372" d="M4,13h1"/><path stroke="#328ee1" d="M5,13h1"/><path stroke="#318de0" d="M6,13h1"/><path stroke="#3894e3" d="M7,13h1"/><path stroke="#46a2eb" d="M8,13h1"/><path stroke="#4daaef" d="M9,13h2"/><path stroke="#3f95ea" opacity="0.5490196078431373" d="M13,13h1"/><path stroke="#3e94e9" opacity="0.1568627450980392" d="M14,13h1M13,14h1"/><path stroke="#064989" opacity="0.03529411764705882" d="M1,14h1"/><path stroke="#0b5497" opacity="0.1568627450980392" d="M2,14h1"/><path stroke="#166eb7" opacity="0.42745098039215684" d="M3,14h1"/><path stroke="#1b7ac7" opacity="0.8196078431372549" d="M4,14h1"/><path stroke="#1c7dca" d="M5,14h1"/><path stroke="#1c7cca" d="M6,14h1"/><path stroke="#3995e3" d="M8,14h1"/><path stroke="#449dec" d="M9,14h1"/><path stroke="#439dec" d="M10,14h1"/><path stroke="#3d92e9" opacity="0.03529411764705882" d="M14,14h1"/><path stroke="#1378c2" opacity="0.21568627450980393" d="M3,15h1"/><path stroke="#1375bf" opacity="0.7490196078431373" d="M4,15h1"/><path stroke="#1d7dc9" d="M7,15h1"/><path stroke="#358edf" d="M8,15h1"/><path stroke="#4097ea" d="M10,15h1"/></svg>
