<svg xmlns="http://www.w3.org/2000/svg" shape-rendering="crispEdges" viewBox="0 -0.5 16 16" width="16" height="16"><metadata>Generated with pixel-perfect-svg https://github.com/kagof/pixel-perfect-svg</metadata><path stroke="#e2fbec" d="M0,0h1"/><path stroke="#d3f0e1" d="M1,0h1"/><path stroke="#b7dbcc" d="M2,0h1"/><path stroke="#a8cfc1" opacity="0.7333333333333333" d="M3,0h1"/><path stroke="#aacbc5" opacity="0.19215686274509805" d="M4,0h1"/><path stroke="#95dfa1" opacity="0.19215686274509805" d="M5,0h1"/><path stroke="#94dda3" opacity="0.7333333333333333" d="M6,0h1"/><path stroke="#83d299" d="M7,0h1"/><path stroke="#64bf86" d="M8,0h1"/><path stroke="#53b57c" opacity="0.7686274509803922" d="M9,0h1"/><path stroke="#51b47b" opacity="0.2235294117647059" d="M10,0h1"/><path stroke="#55b67d" opacity="0.2235294117647059" d="M11,0h1"/><path stroke="#55b67d" opacity="0.7686274509803922" d="M12,0h1M13,1h1"/><path stroke="#55b67d" d="M13,0h3"/><path stroke="#e4fcee" opacity="0.7411764705882353" d="M0,1h1"/><path stroke="#d1eee0" opacity="0.8196078431372549" d="M1,1h1"/><path stroke="#b5dacb" opacity="0.9529411764705882" d="M2,1h1"/><path stroke="#a8d1bf" opacity="0.8156862745098039" d="M3,1h1"/><path stroke="#9fd4b4" opacity="0.41568627450980394" d="M4,1h1"/><path stroke="#88d69b" opacity="0.41568627450980394" d="M5,1h1"/><path stroke="#84d399" opacity="0.8156862745098039" d="M6,1h1"/><path stroke="#7acc93" opacity="0.9686274509803922" d="M7,1h1"/><path stroke="#63be85" opacity="0.8392156862745098" d="M8,1h1"/><path stroke="#53b57c" opacity="0.5529411764705883" d="M9,1h1"/><path stroke="#51b37a" opacity="0.1607843137254902" d="M10,1h1"/><path stroke="#55b67d" opacity="0.16470588235294117" d="M11,1h1M10,4h1"/><path stroke="#55b67d" opacity="0.5568627450980392" d="M12,1h1"/><path stroke="#55b77d" opacity="0.7607843137254902" d="M14,1h1"/><path stroke="#55b77e" opacity="0.7490196078431373" d="M15,1h1"/><path stroke="#f1fffa" opacity="0.20392156862745098" d="M0,2h1"/><path stroke="#c5e4d8" opacity="0.41568627450980394" d="M1,2h1"/><path stroke="#b0d5c7" opacity="0.8117647058823529" d="M2,2h1"/><path stroke="#a6d3bc" opacity="0.9607843137254902" d="M3,2h1"/><path stroke="#9ad8ac" opacity="0.8313725490196079" d="M4,2h1"/><path stroke="#83d298" opacity="0.8313725490196079" d="M5,2h1"/><path stroke="#6cc48b" opacity="0.9607843137254902" d="M6,2h1"/><path stroke="#62be85" opacity="0.8235294117647058" d="M7,2h1"/><path stroke="#5dbb82" opacity="0.4235294117647059" d="M8,2h1"/><path stroke="#53b57c" opacity="0.15294117647058825" d="M9,2h1"/><path stroke="#4fb37a" opacity="0.0392156862745098" d="M10,2h1"/><path stroke="#55b67d" opacity="0.050980392156862744" d="M11,2h1M4,7h1"/><path stroke="#55b67d" opacity="0.16862745098039217" d="M12,2h1M4,8h1"/><path stroke="#55b77e" opacity="0.23529411764705882" d="M13,2h1"/><path stroke="#56b97f" opacity="0.23137254901960785" d="M14,2h1"/><path stroke="#56bb80" opacity="0.22745098039215686" d="M15,2h1"/><path stroke="#87d996" opacity="0.20784313725490197" d="M0,3h1"/><path stroke="#8fcfa7" opacity="0.4196078431372549" d="M1,3h1"/><path stroke="#93cbaf" opacity="0.8235294117647058" d="M2,3h1"/><path stroke="#94ceae" opacity="0.9725490196078431" d="M3,3h1"/><path stroke="#94d6a7" opacity="0.8431372549019608" d="M4,3h1"/><path stroke="#7ecf95" opacity="0.8431372549019608" d="M5,3h1"/><path stroke="#5fbc83" opacity="0.9725490196078431" d="M6,3h1"/><path stroke="#52b47b" opacity="0.8352941176470589" d="M7,3h1"/><path stroke="#53b57c" opacity="0.43137254901960786" d="M8,3h1"/><path stroke="#55b67d" opacity="0.15294117647058825" d="M9,3h1"/><path stroke="#56b67d" opacity="0.0392156862745098" d="M10,3h1"/><path stroke="#56b97f" opacity="0.050980392156862744" d="M11,3h1M5,7h1"/><path stroke="#55b87e" opacity="0.17254901960784313" d="M12,3h1M6,7h1"/><path stroke="#52aa75" opacity="0.23921568627450981" d="M13,3h1"/><path stroke="#4b9165" opacity="0.23529411764705882" d="M14,3h1"/><path stroke="#47835c" opacity="0.23137254901960785" d="M15,3h1"/><path stroke="#91dba0" opacity="0.7607843137254902" d="M0,4h1"/><path stroke="#84d19a" opacity="0.8392156862745098" d="M1,4h1"/><path stroke="#70c291" opacity="0.9764705882352941" d="M2,4h1"/><path stroke="#6cbe8f" opacity="0.8313725490196079" d="M3,4h1"/><path stroke="#7cca97" opacity="0.42745098039215684" d="M4,4h1"/><path stroke="#6fc68d" opacity="0.42745098039215684" d="M5,4h1"/><path stroke="#59b87f" opacity="0.8313725490196079" d="M6,4h1"/><path stroke="#54b57c" opacity="0.9921568627450981" d="M7,4h1"/><path stroke="#54b67d" opacity="0.8588235294117647" d="M8,4h1"/><path stroke="#55b67d" opacity="0.5647058823529412" d="M9,4h1"/><path stroke="#56b97f" opacity="0.16862745098039217" d="M11,4h1M5,8h1"/><path stroke="#55b77e" opacity="0.5725490196078431" d="M12,4h1M9,5h1M6,8h1M3,9h1"/><path stroke="#52ab76" opacity="0.7843137254901961" d="M13,4h1"/><path stroke="#4c9367" opacity="0.7764705882352941" d="M14,4h1"/><path stroke="#48875f" opacity="0.7686274509803922" d="M15,4h1"/><path stroke="#94dca3" opacity="0.7686274509803922" d="M0,5h1"/><path stroke="#83d298" opacity="0.7725490196078432" d="M1,5h1"/><path stroke="#62bf85" opacity="0.7686274509803922" d="M2,5h1"/><path stroke="#50b379" opacity="0.5450980392156862" d="M3,5h1"/><path stroke="#45ad73" opacity="0.1450980392156863" d="M4,5h1"/><path stroke="#4eb179" opacity="0.1450980392156863" d="M5,5h1"/><path stroke="#54b67d" opacity="0.5450980392156862" d="M6,5h1"/><path stroke="#55b67d" opacity="0.7803921568627451" d="M7,5h1"/><path stroke="#55b77d" opacity="0.792156862745098" d="M8,5h1"/><path stroke="#55b77e" opacity="0.16862745098039217" d="M10,5h1M4,9h1"/><path stroke="#56ba80" opacity="0.16862745098039217" d="M11,5h1M5,9h1"/><path stroke="#56b97f" opacity="0.5725490196078431" d="M12,5h1M6,9h1"/><path stroke="#52ac77" opacity="0.7843137254901961" d="M13,5h1"/><path stroke="#4c9568" opacity="0.7764705882352941" d="M14,5h1"/><path stroke="#498860" opacity="0.7686274509803922" d="M15,5h1"/><path stroke="#99dfa6" opacity="0.23137254901960785" d="M0,6h1"/><path stroke="#86d49a" opacity="0.23137254901960785" d="M1,6h1"/><path stroke="#62bf84" opacity="0.22745098039215686" d="M2,6h1"/><path stroke="#4bb276" opacity="0.1568627450980392" d="M3,6h1"/><path stroke="#32a466" opacity="0.03529411764705882" d="M4,6h1"/><path stroke="#42aa72" opacity="0.03529411764705882" d="M5,6h1"/><path stroke="#54b57c" opacity="0.1568627450980392" d="M6,6h1"/><path stroke="#55b77e" opacity="0.23137254901960785" d="M7,6h1"/><path stroke="#56b97f" opacity="0.23921568627450981" d="M8,6h1"/><path stroke="#56bb80" opacity="0.17254901960784313" d="M9,6h1"/><path stroke="#56bb80" opacity="0.050980392156862744" d="M10,6h1"/><path stroke="#58c083" opacity="0.050980392156862744" d="M11,6h1M5,10h1"/><path stroke="#57be82" opacity="0.17254901960784313" d="M12,6h1M6,10h1"/><path stroke="#54b17a" opacity="0.23921568627450981" d="M13,6h1"/><path stroke="#4e996b" opacity="0.23529411764705882" d="M14,6h1"/><path stroke="#4b8c62" opacity="0.23137254901960785" d="M15,6h1"/><path stroke="#4fb279" opacity="0.23137254901960785" d="M0,7h1"/><path stroke="#50b37a" opacity="0.23529411764705882" d="M1,7h1"/><path stroke="#54b57c" opacity="0.23921568627450981" d="M2,7h1"/><path stroke="#55b67d" opacity="0.17254901960784313" d="M3,7h1"/><path stroke="#52aa75" opacity="0.24313725490196078" d="M7,7h1"/><path stroke="#4b9165" opacity="0.24313725490196078" d="M8,7h1"/><path stroke="#48835c" opacity="0.17254901960784313" d="M9,7h1"/><path stroke="#48845c" opacity="0.050980392156862744" d="M10,7h1"/><path stroke="#3f6c51" opacity="0.050980392156862744" d="M11,7h1"/><path stroke="#3f6e51" opacity="0.17254901960784313" d="M12,7h1"/><path stroke="#3b684c" opacity="0.23921568627450981" d="M13,7h1"/><path stroke="#335d42" opacity="0.23529411764705882" d="M14,7h1"/><path stroke="#2f573c" opacity="0.23137254901960785" d="M15,7h1"/><path stroke="#54b57c" opacity="0.7686274509803922" d="M0,8h1"/><path stroke="#54b57c" opacity="0.7764705882352941" d="M1,8h1"/><path stroke="#55b67d" opacity="0.7843137254901961" d="M2,8h1"/><path stroke="#55b67d" opacity="0.5725490196078431" d="M3,8h1"/><path stroke="#52ab76" opacity="0.796078431372549" d="M7,8h1"/><path stroke="#4c9367" opacity="0.796078431372549" d="M8,8h1"/><path stroke="#49875f" opacity="0.5725490196078431" d="M9,8h1"/><path stroke="#49875f" opacity="0.16862745098039217" d="M10,8h1"/><path stroke="#417254" opacity="0.16862745098039217" d="M11,8h1"/><path stroke="#417355" opacity="0.5725490196078431" d="M12,8h1M6,12h1M3,13h1"/><path stroke="#3d6d4f" opacity="0.7843137254901961" d="M13,8h1"/><path stroke="#356145" opacity="0.7764705882352941" d="M14,8h1"/><path stroke="#315a3f" opacity="0.7686274509803922" d="M15,8h1"/><path stroke="#55b77e" opacity="0.7686274509803922" d="M0,9h1"/><path stroke="#55b77e" opacity="0.7764705882352941" d="M1,9h1"/><path stroke="#55b77e" opacity="0.7843137254901961" d="M2,9h1"/><path stroke="#52ac77" opacity="0.796078431372549" d="M7,9h1"/><path stroke="#4c9568" opacity="0.796078431372549" d="M8,9h1"/><path stroke="#498960" opacity="0.5725490196078431" d="M9,9h1"/><path stroke="#4a8960" opacity="0.16862745098039217" d="M10,9h1"/><path stroke="#417355" opacity="0.16862745098039217" d="M11,9h1"/><path stroke="#417455" opacity="0.5725490196078431" d="M12,9h1"/><path stroke="#3d6e50" opacity="0.7843137254901961" d="M13,9h1"/><path stroke="#366245" opacity="0.7764705882352941" d="M14,9h1"/><path stroke="#325b3f" opacity="0.7686274509803922" d="M15,9h1"/><path stroke="#56ba80" opacity="0.23137254901960785" d="M0,10h1"/><path stroke="#56bb80" opacity="0.23529411764705882" d="M1,10h1"/><path stroke="#57bc81" opacity="0.23921568627450981" d="M2,10h1"/><path stroke="#57bd81" opacity="0.17254901960784313" d="M3,10h1"/><path stroke="#57bd81" opacity="0.050980392156862744" d="M4,10h1"/><path stroke="#54b17a" opacity="0.24313725490196078" d="M7,10h1"/><path stroke="#4e996b" opacity="0.24313725490196078" d="M8,10h1"/><path stroke="#4b8d63" opacity="0.17254901960784313" d="M9,10h1"/><path stroke="#4c8d63" opacity="0.050980392156862744" d="M10,10h1"/><path stroke="#407054" opacity="0.050980392156862744" d="M11,10h1"/><path stroke="#407254" opacity="0.17254901960784313" d="M12,10h1"/><path stroke="#3d6c4f" opacity="0.23921568627450981" d="M13,10h1"/><path stroke="#366145" opacity="0.23529411764705882" d="M14,10h1"/><path stroke="#325b3f" opacity="0.23137254901960785" d="M15,10h1"/><path stroke="#48855d" opacity="0.23137254901960785" d="M0,11h1"/><path stroke="#467f5a" opacity="0.23529411764705882" d="M1,11h1"/><path stroke="#417354" opacity="0.23921568627450981" d="M2,11h1"/><path stroke="#3f6d51" opacity="0.17254901960784313" d="M3,11h1"/><path stroke="#3e6c50" opacity="0.050980392156862744" d="M4,11h1"/><path stroke="#406f52" opacity="0.050980392156862744" d="M5,11h1"/><path stroke="#3f6e52" opacity="0.17254901960784313" d="M6,11h1"/><path stroke="#3b684c" opacity="0.24313725490196078" d="M7,11h1"/><path stroke="#335d42" opacity="0.24313725490196078" d="M8,11h1"/><path stroke="#2f563b" opacity="0.17254901960784313" d="M9,11h1"/><path stroke="#2c5038" opacity="0.050980392156862744" d="M10,11h1"/><path stroke="#4e9467" opacity="0.050980392156862744" d="M11,11h1"/><path stroke="#4b8e63" opacity="0.17254901960784313" d="M12,11h1"/><path stroke="#447f59" opacity="0.23921568627450981" d="M13,11h1"/><path stroke="#386848" opacity="0.23529411764705882" d="M14,11h1"/><path stroke="#315b3f" opacity="0.23137254901960785" d="M15,11h1"/><path stroke="#498960" opacity="0.7686274509803922" d="M0,12h1"/><path stroke="#47835d" opacity="0.7764705882352941" d="M1,12h1"/><path stroke="#437857" opacity="0.7843137254901961" d="M2,12h1"/><path stroke="#407254" opacity="0.5725490196078431" d="M3,12h1"/><path stroke="#407153" opacity="0.16862745098039217" d="M4,12h1"/><path stroke="#427456" opacity="0.16862745098039217" d="M5,12h1"/><path stroke="#3d6d4f" opacity="0.796078431372549" d="M7,12h1"/><path stroke="#356145" opacity="0.796078431372549" d="M8,12h1"/><path stroke="#31593e" opacity="0.5725490196078431" d="M9,12h1"/><path stroke="#2e553a" opacity="0.16862745098039217" d="M10,12h1"/><path stroke="#4d9166" opacity="0.16862745098039217" d="M11,12h1M11,13h1"/><path stroke="#4a8c62" opacity="0.5725490196078431" d="M12,12h1"/><path stroke="#437e58" opacity="0.7843137254901961" d="M13,12h1"/><path stroke="#386748" opacity="0.7764705882352941" d="M14,12h1"/><path stroke="#315b3f" opacity="0.7686274509803922" d="M15,12h1"/><path stroke="#498a60" opacity="0.7725490196078432" d="M0,13h1"/><path stroke="#47845d" opacity="0.7803921568627451" d="M1,13h1"/><path stroke="#437958" opacity="0.788235294117647" d="M2,13h1"/><path stroke="#407354" opacity="0.16862745098039217" d="M4,13h1"/><path stroke="#427656" opacity="0.16862745098039217" d="M5,13h1"/><path stroke="#417556" opacity="0.5725490196078431" d="M6,13h1"/><path stroke="#3d6e50" opacity="0.8" d="M7,13h1"/><path stroke="#366245" opacity="0.8" d="M8,13h1"/><path stroke="#315a3f" opacity="0.5725490196078431" d="M9,13h1"/><path stroke="#2f563b" opacity="0.16862745098039217" d="M10,13h1"/><path stroke="#4a8b62" opacity="0.5725490196078431" d="M12,13h1"/><path stroke="#437e58" opacity="0.788235294117647" d="M13,13h1"/><path stroke="#386748" opacity="0.7803921568627451" d="M14,13h1"/><path stroke="#315b3f" opacity="0.7725490196078432" d="M15,13h1"/><path stroke="#498a60" opacity="0.25098039215686274" d="M0,14h1"/><path stroke="#47845d" opacity="0.2549019607843137" d="M1,14h1"/><path stroke="#437958" opacity="0.2549019607843137" d="M2,14h1"/><path stroke="#417355" opacity="0.1843137254901961" d="M3,14h1"/><path stroke="#407354" opacity="0.054901960784313725" d="M4,14h1"/><path stroke="#427656" opacity="0.054901960784313725" d="M5,14h1"/><path stroke="#417556" opacity="0.1843137254901961" d="M6,14h1"/><path stroke="#3d6e50" opacity="0.25882352941176473" d="M7,14h1"/><path stroke="#366245" opacity="0.25882352941176473" d="M8,14h1"/><path stroke="#315a3f" opacity="0.1843137254901961" d="M9,14h1"/><path stroke="#2f563b" opacity="0.054901960784313725" d="M10,14h1"/><path stroke="#4d9166" opacity="0.054901960784313725" d="M11,14h1"/><path stroke="#4a8b62" opacity="0.1843137254901961" d="M12,14h1"/><path stroke="#437e58" opacity="0.2549019607843137" d="M13,14h1"/><path stroke="#386748" opacity="0.2549019607843137" d="M14,14h1"/><path stroke="#315b3f" opacity="0.25098039215686274" d="M15,14h1"/></svg>
