<svg xmlns="http://www.w3.org/2000/svg" shape-rendering="crispEdges" viewBox="0 -0.5 16 16" width="16" height="16"><metadata>Generated with pixel-perfect-svg https://github.com/kagof/pixel-perfect-svg</metadata><path stroke="#e0faeb" d="M0,0h2M0,1h2"/><path stroke="#a9d1c1" d="M2,0h2M2,1h2M2,2h2M2,3h2"/><path stroke="#91daa1" d="M6,0h2M6,1h2M4,2h2M4,3h2M0,4h2M0,5h2"/><path stroke="#55b67d" d="M8,0h2M12,0h4M8,1h2M12,1h4M6,2h2M6,3h2M2,4h2M6,4h4M12,4h2M2,5h2M6,5h4M12,5h2M0,8h4M6,8h2M0,9h4M6,9h2"/><path stroke="#498960" d="M14,4h2M14,5h2M8,8h2M8,9h2M0,12h2M12,12h2M0,13h2M12,13h2"/><path stroke="#417455" d="M12,8h2M12,9h2M2,12h2M6,12h2M2,13h2M6,13h2"/><path stroke="#325c40" d="M14,8h2M14,9h2M8,12h2M14,12h2M8,13h2M14,13h2"/></svg>
