<svg xmlns="http://www.w3.org/2000/svg" shape-rendering="crispEdges" viewBox="0 -0.5 16 16" width="16" height="16"><metadata>Generated with pixel-perfect-svg https://github.com/kagof/pixel-perfect-svg</metadata><path stroke="#d1bdfe" d="M4,0h2M4,1h2"/><path stroke="#9c9bef" d="M6,0h2M6,1h2M2,4h2M2,5h2M0,6h2M0,7h2"/><path stroke="#8393c3" d="M8,0h2M8,1h2M6,2h2M6,3h2M4,6h2M4,7h2"/><path stroke="#6c82c4" d="M10,0h2M10,1h2M8,2h2M8,3h2M0,8h2M0,9h2M0,10h2M0,11h2"/><path stroke="#dcd4ff" d="M2,2h2M2,3h2"/><path stroke="#f5f7fa" d="M4,2h2M10,2h2M4,3h2M10,3h2M4,4h6M4,5h6M2,6h2M2,7h2"/><path stroke="#5274c5" d="M12,2h2M12,3h2M12,4h4M12,5h4M10,6h2M10,7h2M2,10h2M6,10h2M2,11h2M6,11h2M2,12h4M2,13h4"/><path stroke="#baabf7" d="M0,4h2M0,5h2"/><path stroke="#ebf0f6" d="M10,4h2M10,5h2M6,6h4M12,6h2M6,7h4M12,7h2M4,8h8M4,9h8"/><path stroke="#5165ae" d="M14,6h2M14,7h2M8,10h2M12,10h2M8,11h2M12,11h2M6,12h4M6,13h4M4,14h2M4,15h2"/><path stroke="#cdd2da" d="M2,8h2M12,8h2M2,9h2M12,9h2M4,10h2M10,10h2M4,11h2M10,11h2"/><path stroke="#3d5083" d="M14,8h2M14,9h2M10,12h2M10,13h2M6,14h4M6,15h4"/><path stroke="#3c3151" d="M14,10h2M14,11h2M12,12h2M12,13h2M10,14h2M10,15h2"/></svg>
