<svg xmlns="http://www.w3.org/2000/svg" shape-rendering="crispEdges" viewBox="0 -0.5 16 16" width="16" height="16"><metadata>Generated with pixel-perfect-svg https://github.com/kagof/pixel-perfect-svg</metadata><path stroke="#d2bbff" opacity="0.21568627450980393" d="M3,0h1"/><path stroke="#d1bcff" opacity="0.7490196078431373" d="M4,0h1"/><path stroke="#c4b4fc" d="M5,0h1"/><path stroke="#aaa4f5" d="M6,0h1"/><path stroke="#9699e5" d="M7,0h1"/><path stroke="#8a95ce" d="M8,0h1"/><path stroke="#7c8ec2" d="M9,0h1"/><path stroke="#6e83c2" d="M10,0h1M14,6h1"/><path stroke="#677ec2" opacity="0.7490196078431373" d="M11,0h1"/><path stroke="#687ec2" opacity="0.21568627450980393" d="M12,0h1"/><path stroke="#efecff" opacity="0.03529411764705882" d="M1,1h1"/><path stroke="#e2daff" opacity="0.1568627450980392" d="M2,1h1"/><path stroke="#dfd2ff" opacity="0.42745098039215684" d="M3,1h1"/><path stroke="#dccdfe" opacity="0.8196078431372549" d="M4,1h1"/><path stroke="#c9bff8" d="M5,1h1"/><path stroke="#a6a5eb" d="M6,1h1"/><path stroke="#8d94db" d="M7,1h1"/><path stroke="#808fca" d="M8,1h1"/><path stroke="#7f91c5" d="M9,1h1"/><path stroke="#889acd" d="M10,1h1"/><path stroke="#899bd0" opacity="0.8196078431372549" d="M11,1h1"/><path stroke="#748ccc" opacity="0.42745098039215684" d="M12,1h1"/><path stroke="#496ec3" opacity="0.1568627450980392" d="M13,1h1"/><path stroke="#3962c0" opacity="0.03529411764705882" d="M14,1h1"/><path stroke="#e1d9ff" opacity="0.1568627450980392" d="M1,2h1"/><path stroke="#ded5ff" opacity="0.5490196078431373" d="M2,2h1"/><path stroke="#e4ddff" opacity="0.8274509803921568" d="M3,2h1"/><path stroke="#ece7fd" opacity="0.9490196078431372" d="M4,2h1"/><path stroke="#d4d4f0" d="M5,2h1"/><path stroke="#a0a8d8" d="M6,2h1"/><path stroke="#7d8cc9" d="M7,2h1"/><path stroke="#7184c3" d="M8,2h1"/><path stroke="#8899cd" d="M9,2h1"/><path stroke="#bdc7e3" d="M10,2h1"/><path stroke="#bbc7e6" opacity="0.9490196078431372" d="M11,2h1"/><path stroke="#7993d1" opacity="0.8274509803921568" d="M12,2h1"/><path stroke="#4d70c3" opacity="0.5490196078431373" d="M13,2h1"/><path stroke="#466bc1" opacity="0.1568627450980392" d="M14,2h1"/><path stroke="#baa8f7" opacity="0.21568627450980393" d="M0,3h1"/><path stroke="#c3b9fa" opacity="0.42745098039215684" d="M1,3h1"/><path stroke="#c9c2fb" opacity="0.8274509803921568" d="M2,3h1"/><path stroke="#d7d3fc" d="M3,3h1"/><path stroke="#eeeefc" d="M4,3h1"/><path stroke="#e3e8f0" d="M5,3h1"/><path stroke="#b5bfda" d="M6,3h1"/><path stroke="#96a5ce" d="M7,3h1"/><path stroke="#8d9ecf" d="M8,3h1"/><path stroke="#a9b6dc" d="M9,3h1"/><path stroke="#e2e7f2" d="M10,3h1"/><path stroke="#d0daee" d="M11,3h1M9,6h1"/><path stroke="#7993d2" d="M12,3h1"/><path stroke="#4b6fc3" opacity="0.8274509803921568" d="M13,3h1"/><path stroke="#4b6fc3" opacity="0.42745098039215684" d="M14,3h1"/><path stroke="#5275c7" opacity="0.21568627450980393" d="M15,3h1"/><path stroke="#bcacf7" opacity="0.7490196078431373" d="M0,4h1"/><path stroke="#b5a9f6" opacity="0.8196078431372549" d="M1,4h1"/><path stroke="#aca6f3" opacity="0.9490196078431372" d="M2,4h1"/><path stroke="#bdbbf5" d="M3,4h1"/><path stroke="#e5e6f9" d="M4,4h1"/><path stroke="#f3f6f8" d="M5,4h1"/><path stroke="#e2e7f0" d="M6,4h1"/><path stroke="#d7ddec" d="M7,4h1"/><path stroke="#d4dbec" d="M8,4h1"/><path stroke="#dee3f1" d="M9,4h1"/><path stroke="#eff3f7" d="M10,4h1"/><path stroke="#cbd6ec" d="M11,4h1"/><path stroke="#7691d1" d="M12,4h1"/><path stroke="#4b6fc3" opacity="0.9490196078431372" d="M13,4h1"/><path stroke="#4e71c4" opacity="0.8196078431372549" d="M14,4h1"/><path stroke="#5275c6" opacity="0.7490196078431373" d="M15,4h1"/><path stroke="#b4a7f6" d="M0,5h1"/><path stroke="#b2a9f5" d="M1,5h1"/><path stroke="#b0adf3" d="M2,5h1"/><path stroke="#babbf0" d="M3,5h1"/><path stroke="#ced2ed" d="M4,5h1"/><path stroke="#e0e5ef" d="M5,5h1"/><path stroke="#eff2f7" d="M6,5h1"/><path stroke="#f7f9fb" d="M7,5h2"/><path stroke="#ebeff7" d="M9,5h1"/><path stroke="#d1dbee" d="M10,5h1"/><path stroke="#b1c1e3" d="M11,5h1"/><path stroke="#8aa1d7" d="M12,5h1"/><path stroke="#6c88cc" d="M13,5h1"/><path stroke="#5a78c4" d="M14,5h1"/><path stroke="#5170c0" d="M15,5h1"/><path stroke="#a39ef2" d="M0,6h1"/><path stroke="#b3b0f4" d="M1,6h1"/><path stroke="#d2d1f7" d="M2,6h1"/><path stroke="#cfd4ee" d="M3,6h1"/><path stroke="#abb6d8" d="M4,6h1"/><path stroke="#afbad8" d="M5,6h1"/><path stroke="#dae0ed" d="M6,6h1"/><path stroke="#f3f6f9" d="M7,6h1"/><path stroke="#f3f7f9" d="M8,6h1"/><path stroke="#8fa6d9" d="M10,6h1"/><path stroke="#869fd6" d="M11,6h1"/><path stroke="#b4c3e5" d="M12,6h1"/><path stroke="#abb9de" d="M13,6h1"/><path stroke="#4e66b3" d="M15,6h1"/><path stroke="#8d92e4" d="M0,7h1"/><path stroke="#a7ace8" d="M1,7h1"/><path stroke="#d9dcf0" d="M2,7h1"/><path stroke="#dce1ea" d="M3,7h1"/><path stroke="#aeb9d6" d="M4,7h1"/><path stroke="#acb8d7" d="M5,7h1"/><path stroke="#d8dfec" d="M6,7h1"/><path stroke="#f1f5f8" d="M7,7h2"/><path stroke="#ced9ed" d="M9,7h1"/><path stroke="#8ea5d9" d="M10,7h1"/><path stroke="#90a6d8" d="M11,7h1"/><path stroke="#cfd8ea" d="M12,7h1"/><path stroke="#c4ccde" d="M13,7h1"/><path stroke="#7383b7" d="M14,7h1"/><path stroke="#475ca1" d="M15,7h1"/><path stroke="#7485ce" d="M0,8h1"/><path stroke="#8f9cd3" d="M1,8h1"/><path stroke="#c2c9dd" d="M2,8h1"/><path stroke="#dadfe4" d="M3,8h1"/><path stroke="#d4dbe8" d="M4,8h1"/><path stroke="#d8dfed" d="M5,8h1"/><path stroke="#e7ecf4" d="M6,8h1"/><path stroke="#f0f4f8" d="M7,8h2"/><path stroke="#e4ebf4" d="M9,8h1"/><path stroke="#ced9ee" d="M10,8h1"/><path stroke="#cbd5e9" d="M11,8h1"/><path stroke="#d7dde6" d="M12,8h1"/><path stroke="#b4bccd" d="M13,8h1"/><path stroke="#6676a2" d="M14,8h1"/><path stroke="#3d518c" d="M15,8h1"/><path stroke="#6980c2" d="M0,9h1"/><path stroke="#7a8ec7" d="M1,9h1"/><path stroke="#9cabcf" d="M2,9h1"/><path stroke="#bec8dc" d="M3,9h1"/><path stroke="#dce2ea" d="M4,9h1"/><path stroke="#e1e7f0" d="M5,9h1"/><path stroke="#cfd9ed" d="M6,9h1"/><path stroke="#c5d0e9" d="M7,9h1"/><path stroke="#c5cee6" d="M8,9h1"/><path stroke="#cfd7e8" d="M9,9h1"/><path stroke="#e2e7ef" d="M10,9h1"/><path stroke="#dee3eb" d="M11,9h1"/><path stroke="#c0c8db" d="M12,9h1"/><path stroke="#909ab8" d="M13,9h1"/><path stroke="#56618a" d="M14,9h1"/><path stroke="#394473" d="M15,9h1"/><path stroke="#6b81c3" d="M0,10h1"/><path stroke="#6b82c4" d="M1,10h1"/><path stroke="#6c86c7" d="M2,10h1"/><path stroke="#8a9fd0" d="M3,10h1"/><path stroke="#c2cbdd" d="M4,10h1"/><path stroke="#c4cddf" d="M5,10h1"/><path stroke="#90a6d6" d="M6,10h1"/><path stroke="#738ccc" d="M7,10h1"/><path stroke="#7386c3" d="M8,10h1"/><path stroke="#909dc8" d="M9,10h1"/><path stroke="#c4cbdb" d="M10,10h1"/><path stroke="#c3cbdc" d="M11,10h1"/><path stroke="#8b9ac7" d="M12,10h1"/><path stroke="#5f6ba1" d="M13,10h1"/><path stroke="#464771" d="M14,10h1"/><path stroke="#3a3659" d="M15,10h1"/><path stroke="#6d83c4" opacity="0.7490196078431373" d="M0,11h1"/><path stroke="#627cc4" opacity="0.8196078431372549" d="M1,11h1"/><path stroke="#5373c4" opacity="0.9490196078431372" d="M2,11h1"/><path stroke="#6784c9" d="M3,11h1"/><path stroke="#99aad1" d="M4,11h1"/><path stroke="#9aaad0" d="M5,11h1"/><path stroke="#6782c5" d="M6,11h1"/><path stroke="#4b68ba" d="M7,11h1"/><path stroke="#4a62b0" d="M8,11h1"/><path stroke="#6577b3" d="M9,11h1"/><path stroke="#96a1c0" d="M10,11h1"/><path stroke="#949ebb" d="M11,11h1"/><path stroke="#616da2" d="M12,11h1"/><path stroke="#444c86" opacity="0.9490196078431372" d="M13,11h1"/><path stroke="#3e3963" opacity="0.8196078431372549" d="M14,11h1"/><path stroke="#3b2e4d" opacity="0.7490196078431373" d="M15,11h1"/><path stroke="#7084c4" opacity="0.21568627450980393" d="M0,12h1"/><path stroke="#5b78c4" opacity="0.42745098039215684" d="M1,12h1"/><path stroke="#5173c4" opacity="0.8274509803921568" d="M2,12h1M3,13h1"/><path stroke="#5879c6" d="M3,12h1"/><path stroke="#6885c9" d="M4,12h1"/><path stroke="#6883c5" d="M5,12h1"/><path stroke="#5870b9" d="M6,12h1"/><path stroke="#4e65b2" d="M7,12h1"/><path stroke="#4e64b0" d="M8,12h1"/><path stroke="#5467a9" d="M9,12h1"/><path stroke="#5c6e9f" d="M10,12h1"/><path stroke="#58638c" d="M11,12h1"/><path stroke="#474872" d="M12,12h1"/><path stroke="#3e3963" opacity="0.8274509803921568" d="M13,12h1"/><path stroke="#3d345a" opacity="0.42745098039215684" d="M14,12h1"/><path stroke="#3b2d4a" opacity="0.21568627450980393" d="M15,12h1"/><path stroke="#4f73c6" opacity="0.1568627450980392" d="M1,13h1"/><path stroke="#5274c5" opacity="0.5490196078431373" d="M2,13h1"/><path stroke="#5070c1" opacity="0.9490196078431372" d="M4,13h1"/><path stroke="#4e6ab8" d="M5,13h1"/><path stroke="#4d63a9" d="M6,13h1"/><path stroke="#4c5fa3" d="M7,13h1"/><path stroke="#4c60a4" d="M8,13h1"/><path stroke="#475998" d="M9,13h1"/><path stroke="#3e4c80" d="M10,13h1"/><path stroke="#39406c" opacity="0.9490196078431372" d="M11,13h1"/><path stroke="#3a3558" opacity="0.8274509803921568" d="M12,13h1"/><path stroke="#3b2e4c" opacity="0.5490196078431373" d="M13,13h1"/><path stroke="#3b2d4a" opacity="0.1568627450980392" d="M14,13h1"/><path stroke="#4b75cd" opacity="0.03529411764705882" d="M1,14h1"/><path stroke="#5276c8" opacity="0.1568627450980392" d="M2,14h1"/><path stroke="#516dbc" opacity="0.42745098039215684" d="M3,14h1"/><path stroke="#5069b6" opacity="0.8196078431372549" d="M4,14h1"/><path stroke="#4c63aa" d="M5,14h1"/><path stroke="#455996" d="M6,14h1"/><path stroke="#41558d" d="M7,14h1"/><path stroke="#42558e" d="M8,14h1"/><path stroke="#404d81" d="M9,14h1"/><path stroke="#3c3e67" d="M10,14h1"/><path stroke="#3a3559" opacity="0.8196078431372549" d="M11,14h1"/><path stroke="#3a3253" opacity="0.42745098039215684" d="M12,14h1"/><path stroke="#3b2c49" opacity="0.1568627450980392" d="M13,14h1"/><path stroke="#3b2942" opacity="0.03529411764705882" d="M14,14h1"/><path stroke="#5264ae" opacity="0.21568627450980393" d="M3,15h1"/><path stroke="#5265ae" opacity="0.7490196078431373" d="M4,15h1"/><path stroke="#4c60a3" d="M5,15h1"/><path stroke="#42558d" d="M6,15h1"/><path stroke="#3c4f81" d="M7,15h1"/><path stroke="#3c5082" d="M8,15h1"/><path stroke="#3c4775" d="M9,15h1"/><path stroke="#3c375b" d="M10,15h1"/><path stroke="#3c2f4e" opacity="0.7490196078431373" d="M11,15h1"/><path stroke="#3c2e4c" opacity="0.21568627450980393" d="M12,15h1"/></svg>
