<svg xmlns="http://www.w3.org/2000/svg" shape-rendering="crispEdges" viewBox="0 -0.5 16 16" width="16" height="16"><metadata>Generated with pixel-perfect-svg https://github.com/kagof/pixel-perfect-svg</metadata><path stroke="#cacfd7" opacity="0.21568627450980393" d="M3,0h1"/><path stroke="#cbd0d8" opacity="0.7490196078431373" d="M4,0h1M0,4h1"/><path stroke="#d3d8e0" d="M5,0h1"/><path stroke="#e3e8ef" d="M6,0h1"/><path stroke="#eef2f8" d="M7,0h1M15,6h1M15,13h1"/><path stroke="#f3f6f9" d="M8,0h1M2,6h1"/><path stroke="#f5f7fa" d="M9,0h7M14,1h2M15,2h1M0,15h1"/><path stroke="#c7ccd4" opacity="0.03529411764705882" d="M1,1h1"/><path stroke="#cacfd7" opacity="0.1568627450980392" d="M2,1h1M1,2h1"/><path stroke="#cfd4dc" opacity="0.42745098039215684" d="M3,1h1M1,3h1"/><path stroke="#d3d8df" opacity="0.8196078431372549" d="M4,1h1"/><path stroke="#dadfe6" d="M5,1h1M3,3h1"/><path stroke="#e8edf3" d="M6,1h1"/><path stroke="#f2f5fa" d="M7,1h1"/><path stroke="#f5f8fb" d="M8,1h1M15,5h1"/><path stroke="#f7f9fb" d="M9,1h4"/><path stroke="#f6f8fb" d="M13,1h1M14,2h1M15,3h1M0,10h1M0,11h1M0,14h1M1,15h1"/><path stroke="#cbd0d8" opacity="0.5490196078431373" d="M2,2h1"/><path stroke="#d3d8df" opacity="0.8274509803921568" d="M3,2h1M2,3h1"/><path stroke="#dee3ea" opacity="0.9490196078431372" d="M4,2h1M2,4h1"/><path stroke="#e8edf2" d="M5,2h1"/><path stroke="#f1f5f9" d="M6,2h1"/><path stroke="#f6f9fc" d="M7,2h1M3,6h2M7,15h1"/><path stroke="#f7f9fc" d="M8,2h1M13,2h1M0,7h1"/><path stroke="#f8fafc" d="M9,2h4M15,4h1M0,9h1M0,12h1M0,13h1"/><path stroke="#c9ced7" opacity="0.21568627450980393" d="M0,3h1"/><path stroke="#e6ebf2" d="M4,3h1"/><path stroke="#e6ebf0" d="M5,3h1"/><path stroke="#dadce2" d="M6,3h1"/><path stroke="#d4d6db" d="M7,3h1"/><path stroke="#d6d9df" d="M8,3h1"/><path stroke="#d8dbe1" d="M9,3h2M3,14h1"/><path stroke="#d7dbe1" d="M11,3h1M4,7h1"/><path stroke="#d7dbe0" d="M12,3h1M3,7h1"/><path stroke="#dfe2e7" d="M13,3h1"/><path stroke="#eef1f4" d="M14,3h1M1,14h1"/><path stroke="#d2d8df" opacity="0.8196078431372549" d="M1,4h1"/><path stroke="#e7ecf2" d="M3,4h1M14,7h1"/><path stroke="#ecf1f7" d="M4,4h1M15,10h1M15,11h1M15,14h1M14,15h1"/><path stroke="#d5d9e0" d="M5,4h1"/><path stroke="#a5a7b0" d="M6,4h1"/><path stroke="#90929c" d="M7,4h1"/><path stroke="#979da7" d="M8,4h1"/><path stroke="#9ba3ae" d="M9,4h2M11,5h1M4,9h1M10,9h1M4,12h1M10,12h1"/><path stroke="#9aa1ac" d="M11,4h1M4,8h1"/><path stroke="#99a1ac" d="M12,4h1M3,8h1M12,12h1M11,13h1"/><path stroke="#b2b8c1" d="M13,4h1M2,8h1"/><path stroke="#e0e3e8" d="M14,4h1M1,9h1M1,12h1M1,13h1"/><path stroke="#d6dae1" d="M0,5h1"/><path stroke="#dce1e7" d="M1,5h1"/><path stroke="#e9eef3" d="M2,5h1"/><path stroke="#f2f6fb" d="M3,5h2"/><path stroke="#d8dbe2" d="M5,5h1"/><path stroke="#a7a9b1" d="M6,5h1"/><path stroke="#92949e" d="M7,5h1"/><path stroke="#999ea9" d="M8,5h1"/><path stroke="#9da5af" d="M9,5h1"/><path stroke="#9da4af" d="M10,5h1M6,8h5M5,9h4M5,12h4"/><path stroke="#9ba2ad" d="M12,5h1M3,9h1M3,12h1"/><path stroke="#b2b9c2" d="M13,5h1"/><path stroke="#dee2e8" d="M14,5h1"/><path stroke="#ebedf2" d="M0,6h1"/><path stroke="#edf0f4" d="M1,6h1"/><path stroke="#eef0f4" d="M5,6h1"/><path stroke="#dedfe4" d="M6,6h1"/><path stroke="#d7d8de" d="M7,6h1"/><path stroke="#d9dce1" d="M8,6h1"/><path stroke="#dadee3" d="M9,6h3M6,7h1M8,7h5M4,10h5M4,11h4"/><path stroke="#dadde3" d="M12,6h1M3,10h1M3,11h1"/><path stroke="#dfe3e8" d="M13,6h1M2,14h1"/><path stroke="#e9edf2" d="M14,6h1"/><path stroke="#eff1f5" d="M1,7h1M1,10h1M1,11h1"/><path stroke="#dfe3e7" d="M2,7h1"/><path stroke="#d8dce2" d="M5,7h1M5,14h2"/><path stroke="#dbdee4" d="M7,7h1"/><path stroke="#dfe2e8" d="M13,7h1"/><path stroke="#ebf0f6" d="M15,7h1M15,15h1"/><path stroke="#f8fafd" d="M0,8h1"/><path stroke="#e0e4e8" d="M1,8h1"/><path stroke="#9ca3ae" d="M5,8h1M11,8h1M7,13h1"/><path stroke="#9ba3ad" d="M12,8h1M4,13h1"/><path stroke="#b1b7c1" d="M13,8h1"/><path stroke="#d8dee5" d="M14,8h1M14,9h1M14,12h1M14,13h1"/><path stroke="#edf2f8" d="M15,8h1M15,9h1M15,12h1M13,15h1"/><path stroke="#b3b9c2" d="M2,9h1M2,12h1M2,13h1"/><path stroke="#9ca4af" d="M9,9h1M9,12h1"/><path stroke="#99a1ad" d="M11,9h1M11,12h1"/><path stroke="#98a0ac" d="M12,9h1M12,13h1"/><path stroke="#afb6c0" d="M13,9h1M13,12h1"/><path stroke="#e1e4e9" d="M2,10h1M2,11h1"/><path stroke="#d8dde2" d="M9,10h1"/><path stroke="#d4dae1" d="M10,10h1M10,11h1"/><path stroke="#d2d8e0" d="M11,10h2M11,11h2"/><path stroke="#d9dee6" d="M13,10h1M13,11h1"/><path stroke="#e5eaf1" d="M14,10h1M14,11h1"/><path stroke="#dbdee3" d="M8,11h1"/><path stroke="#d9dde3" d="M9,11h1"/><path stroke="#9aa2ad" d="M3,13h1M9,13h1"/><path stroke="#9ca4ae" d="M5,13h2"/><path stroke="#9aa2ae" d="M8,13h1M10,13h1"/><path stroke="#aeb6c0" d="M13,13h1"/><path stroke="#d8dce1" d="M4,14h1"/><path stroke="#d6dbe1" d="M7,14h1"/><path stroke="#d2d8df" d="M8,14h1"/><path stroke="#d0d7de" d="M9,14h1"/><path stroke="#d1d7de" d="M10,14h1"/><path stroke="#d0d6de" d="M11,14h2"/><path stroke="#d7dde4" d="M13,14h1"/><path stroke="#e5eaf0" d="M14,14h1"/><path stroke="#f8f9fc" d="M2,15h1"/><path stroke="#f9fafd" d="M3,15h3"/><path stroke="#f9fbfd" d="M6,15h1"/><path stroke="#f1f5fa" d="M8,15h1"/><path stroke="#eef3f9" d="M9,15h4"/></svg>
