<svg xmlns="http://www.w3.org/2000/svg" shape-rendering="crispEdges" viewBox="0 -0.5 16 16" width="16" height="16"><metadata>Generated with pixel-perfect-svg https://github.com/kagof/pixel-perfect-svg</metadata><path stroke="#cdd2da" d="M4,0h2M4,1h2M2,2h2M2,3h2M0,4h2M0,5h2"/><path stroke="#ebf0f6" d="M6,0h2M6,1h2M4,2h2M4,3h2M2,4h4M2,5h4M14,6h2M14,7h2M14,8h2M14,9h2M10,10h6M10,11h6M14,12h2M14,13h2M8,14h8M8,15h8"/><path stroke="#f5f7fa" d="M8,0h8M8,1h8M6,2h10M6,3h10M14,4h2M14,5h2M0,6h14M0,7h14M0,8h2M0,9h2M0,10h10M0,11h10M0,12h2M0,13h2M0,14h8M0,15h8"/><path stroke="#73737f" d="M6,4h2M6,5h2"/><path stroke="#828b98" d="M8,4h6M8,5h6M2,8h12M2,9h12M2,12h12M2,13h12"/></svg>
