<svg xmlns="http://www.w3.org/2000/svg" shape-rendering="crispEdges" viewBox="0 -0.5 16 16" width="16" height="16"><metadata>Generated with pixel-perfect-svg https://github.com/kagof/pixel-perfect-svg</metadata><path stroke="#fff02b" d="M8,0h2M8,1h2"/><path stroke="#ffe949" d="M10,0h2M10,1h2M10,2h2M10,3h2"/><path stroke="#ffce7f" d="M2,2h2M2,3h2M0,4h2M0,5h2"/><path stroke="#ffbc4e" d="M4,2h2M4,3h2M2,4h2M12,4h4M2,5h2M12,5h4M0,6h2M12,6h2M0,7h2M12,7h2"/><path stroke="#ffcf05" d="M12,2h2M12,3h2M10,4h2M10,5h2"/><path stroke="#dcd4ff" d="M4,4h2M4,5h2"/><path stroke="#d1bdfe" d="M6,4h2M6,5h2"/><path stroke="#a996ec" d="M8,4h2M8,5h2M10,6h2M10,7h2"/><path stroke="#f99b4e" d="M2,6h2M14,6h2M2,7h2M14,7h2M0,8h4M12,8h2M0,9h4M12,9h2M0,10h2M0,11h2"/><path stroke="#baabf7" d="M4,6h2M4,7h2"/><path stroke="#9c9bef" d="M6,6h2M6,7h2"/><path stroke="#9585f1" d="M8,6h2M8,7h2M6,8h2M6,9h2"/><path stroke="#5274c5" d="M4,8h2M4,9h2M6,10h2M6,11h2"/><path stroke="#7877c1" d="M8,8h2M8,9h2"/><path stroke="#5165ae" d="M10,8h2M10,9h2M8,10h2M8,11h2"/><path stroke="#cd5e46" d="M14,8h2M14,9h2M12,10h2M12,11h2M2,12h2M10,12h2M2,13h2M10,13h2M4,14h2M4,15h2"/><path stroke="#e37840" d="M2,10h2M2,11h2M4,12h2M4,13h2"/><path stroke="#e98627" d="M4,10h2M10,10h2M4,11h2M10,11h2M6,12h4M6,13h4"/><path stroke="#bf5a3e" d="M14,10h2M14,11h2M6,14h4M6,15h4"/><path stroke="#b64d46" d="M12,12h2M12,13h2M10,14h2M10,15h2"/></svg>
