<svg xmlns="http://www.w3.org/2000/svg" shape-rendering="crispEdges" viewBox="0 -0.5 16 16" width="16" height="16"><metadata>Generated with pixel-perfect-svg https://github.com/kagof/pixel-perfect-svg</metadata><path stroke="#fff029" opacity="0.25098039215686274" d="M7,0h1"/><path stroke="#fff02a" opacity="0.7843137254901961" d="M8,0h1"/><path stroke="#ffee32" d="M9,0h1"/><path stroke="#ffeb41" d="M10,0h1"/><path stroke="#ffe94b" opacity="0.7490196078431373" d="M11,0h1"/><path stroke="#ffeb53" opacity="0.21568627450980393" d="M12,0h1"/><path stroke="#ffd188" opacity="0.043137254901960784" d="M1,1h1"/><path stroke="#ffd084" opacity="0.17254901960784313" d="M2,1h1"/><path stroke="#ffca73" opacity="0.24705882352941178" d="M3,1h1"/><path stroke="#ffc053" opacity="0.24705882352941178" d="M4,1h1"/><path stroke="#ffb63f" opacity="0.16470588235294117" d="M5,1h1"/><path stroke="#ff9402" opacity="0.027450980392156862" d="M6,1h1"/><path stroke="#fff814" opacity="0.1607843137254902" d="M7,1h1"/><path stroke="#fff324" opacity="0.5568627450980392" d="M8,1h1"/><path stroke="#ffef32" opacity="0.8392156862745098" d="M9,1h1"/><path stroke="#ffeb44" opacity="0.9686274509803922" d="M10,1h1"/><path stroke="#ffe745" opacity="0.8235294117647058" d="M11,1h1"/><path stroke="#ffde2b" opacity="0.43137254901960786" d="M12,1h1"/><path stroke="#ffcd00" opacity="0.1568627450980392" d="M13,1h1"/><path stroke="#ffcc00" opacity="0.03529411764705882" d="M14,1h1"/><path stroke="#ffd084" opacity="0.1568627450980392" d="M1,2h1"/><path stroke="#ffcf82" opacity="0.5529411764705883" d="M2,2h1"/><path stroke="#ffca73" opacity="0.7764705882352941" d="M3,2h1"/><path stroke="#ffc056" opacity="0.7764705882352941" d="M4,2h1"/><path stroke="#ffba45" opacity="0.5568627450980392" d="M5,2h1"/><path stroke="#ffb831" opacity="0.1568627450980392" d="M6,2h1"/><path stroke="#ffff00" opacity="0.00784313725490196" d="M7,2h1"/><path stroke="#ffff01" opacity="0.13725490196078433" d="M8,2h1"/><path stroke="#fff137" opacity="0.4235294117647059" d="M9,2h1"/><path stroke="#ffeb49" opacity="0.8235294117647058" d="M10,2h1"/><path stroke="#ffe43d" opacity="0.9686274509803922" d="M11,2h1"/><path stroke="#ffd719" opacity="0.8392156862745098" d="M12,2h1"/><path stroke="#ffcf00" opacity="0.5490196078431373" d="M13,2h1"/><path stroke="#ffcf00" opacity="0.1568627450980392" d="M14,2h1"/><path stroke="#ffd084" opacity="0.21568627450980393" d="M0,3h1"/><path stroke="#ffcd7a" opacity="0.42745098039215684" d="M1,3h1"/><path stroke="#ffcb74" opacity="0.8274509803921568" d="M2,3h1"/><path stroke="#fdc874" d="M3,3h1"/><path stroke="#f9c476" d="M4,3h1"/><path stroke="#f5c281" opacity="0.8352941176470589" d="M5,3h1"/><path stroke="#e9c1b2" opacity="0.43137254901960786" d="M6,3h1"/><path stroke="#bfafff" opacity="0.20392156862745098" d="M7,3h1"/><path stroke="#9f8fff" opacity="0.19215686274509805" d="M8,3h1"/><path stroke="#d9c189" opacity="0.403921568627451" d="M9,3h1"/><path stroke="#fadf43" opacity="0.8117647058823529" d="M10,3h1"/><path stroke="#ffde2c" d="M11,3h1"/><path stroke="#ffd11d" d="M12,3h1"/><path stroke="#ffc919" opacity="0.8274509803921568" d="M13,3h1"/><path stroke="#ffc42d" opacity="0.42745098039215684" d="M14,3h1"/><path stroke="#ffbc56" opacity="0.21568627450980393" d="M15,3h1"/><path stroke="#ffcf82" opacity="0.7490196078431373" d="M0,4h1"/><path stroke="#ffca73" opacity="0.8196078431372549" d="M1,4h1"/><path stroke="#ffc45f" opacity="0.9490196078431372" d="M2,4h1"/><path stroke="#f9c576" d="M3,4h1"/><path stroke="#ecccb4" d="M4,4h1"/><path stroke="#e2ccde" opacity="0.9529411764705882" d="M5,4h1"/><path stroke="#d9c4f4" opacity="0.8196078431372549" d="M6,4h1"/><path stroke="#c6b2ff" opacity="0.7450980392156863" d="M7,4h1"/><path stroke="#af9cfb" opacity="0.7372549019607844" d="M8,4h1"/><path stroke="#c2a8ac" opacity="0.803921568627451" d="M9,4h1"/><path stroke="#f0ca39" opacity="0.9372549019607843" d="M10,4h1"/><path stroke="#ffd217" d="M11,4h1"/><path stroke="#ffc72e" d="M12,4h1"/><path stroke="#ffc040" opacity="0.9490196078431372" d="M13,4h1"/><path stroke="#ffbe49" opacity="0.8196078431372549" d="M14,4h1"/><path stroke="#ffbd4f" opacity="0.7490196078431373" d="M15,4h1"/><path stroke="#ffcb75" d="M0,5h1"/><path stroke="#ffc568" d="M1,5h1"/><path stroke="#ffb953" d="M2,5h1"/><path stroke="#f4b978" d="M3,5h1"/><path stroke="#dfc6d6" d="M4,5h1"/><path stroke="#d0c7ff" d="M5,5h1"/><path stroke="#c9bcff" d="M6,5h1"/><path stroke="#bcacfa" d="M7,5h1"/><path stroke="#ab99f5" d="M8,5h1"/><path stroke="#b49dc3" d="M9,5h1"/><path stroke="#d9b567" d="M10,5h1"/><path stroke="#f2c13d" d="M11,5h1"/><path stroke="#fbbe48" d="M12,5h1"/><path stroke="#ffba50" d="M13,5h1"/><path stroke="#ffb74f" d="M14,5h1"/><path stroke="#feb54e" d="M15,5h1"/><path stroke="#ffc25b" d="M0,6h1"/><path stroke="#ffba55" d="M1,6h1"/><path stroke="#fdaa4d" d="M2,6h1"/><path stroke="#eea777" d="M3,6h1"/><path stroke="#d2b2d2" d="M4,6h1"/><path stroke="#bdb3fe" d="M5,6h1"/><path stroke="#afa9f8" d="M6,6h1"/><path stroke="#a59df3" d="M7,6h1"/><path stroke="#9d8ff3" d="M8,6h1"/><path stroke="#a28fe4" d="M9,6h1"/><path stroke="#b59dc6" d="M10,6h1"/><path stroke="#d0ab9b" d="M11,6h1"/><path stroke="#f1b867" d="M12,6h1"/><path stroke="#ffb74d" d="M13,6h1"/><path stroke="#fdab4d" d="M14,6h1"/><path stroke="#fba44e" d="M15,6h1"/><path stroke="#feb44d" d="M0,7h1"/><path stroke="#feae4b" d="M1,7h1"/><path stroke="#fca14a" d="M2,7h1"/><path stroke="#e39b75" d="M3,7h1"/><path stroke="#b49cc7" d="M4,7h1"/><path stroke="#9b9bf2" d="M5,7h1"/><path stroke="#9a97f2" d="M6,7h1"/><path stroke="#9790ed" d="M7,7h1"/><path stroke="#9186e8" d="M8,7h1"/><path stroke="#8d82e7" d="M9,7h1"/><path stroke="#8c85e8" d="M10,7h1"/><path stroke="#aa94c0" d="M11,7h1"/><path stroke="#e4ab72" d="M12,7h1"/><path stroke="#fdac4a" d="M13,7h1"/><path stroke="#f4964a" d="M14,7h1"/><path stroke="#ee8a4c" d="M15,7h1"/><path stroke="#faa34d" d="M0,8h1"/><path stroke="#fca14c" d="M1,8h1"/><path stroke="#fd9e4b" d="M2,8h1"/><path stroke="#d5946e" d="M3,8h1"/><path stroke="#8986b4" d="M4,8h1"/><path stroke="#7082df" d="M5,8h1"/><path stroke="#8a88ed" d="M6,8h1"/><path stroke="#9387e9" d="M7,8h1"/><path stroke="#877fd6" d="M8,8h1"/><path stroke="#7577cc" d="M9,8h1"/><path stroke="#6570c8" d="M10,8h1"/><path stroke="#867da7" d="M11,8h1"/><path stroke="#d7996b" d="M12,8h1"/><path stroke="#f6974a" d="M13,8h1"/><path stroke="#e27a48" d="M14,8h1"/><path stroke="#d76b48" d="M15,8h1"/><path stroke="#f99a4e" d="M0,9h1"/><path stroke="#fa994c" d="M1,9h1"/><path stroke="#f8954a" d="M2,9h1"/><path stroke="#d58c5d" d="M3,9h1"/><path stroke="#937e88" d="M4,9h1"/><path stroke="#7579b2" d="M5,9h1"/><path stroke="#7e7ed9" d="M6,9h1"/><path stroke="#7d7de1" d="M7,9h1"/><path stroke="#7176ca" d="M8,9h1"/><path stroke="#6b70b1" d="M9,9h1"/><path stroke="#6f6d98" d="M10,9h1"/><path stroke="#92757b" d="M11,9h1"/><path stroke="#d2855b" d="M12,9h1"/><path stroke="#e88048" d="M13,9h1"/><path stroke="#d36745" d="M14,9h1"/><path stroke="#c75a44" d="M15,9h1"/><path stroke="#f99b4e" d="M0,10h1"/><path stroke="#f6954b" d="M1,10h1"/><path stroke="#ee8846" d="M2,10h1"/><path stroke="#e18143" d="M3,10h1"/><path stroke="#ce8146" d="M4,10h1"/><path stroke="#aa7f6d" d="M5,10h1"/><path stroke="#767ab3" d="M6,10h1"/><path stroke="#5973d1" d="M7,10h1"/><path stroke="#546bc1" d="M8,10h1"/><path stroke="#706e99" d="M9,10h1"/><path stroke="#a97960" d="M10,10h1"/><path stroke="#cb7b44" d="M11,10h1"/><path stroke="#d57246" d="M12,10h1"/><path stroke="#d36746" d="M13,10h1"/><path stroke="#c75e42" d="M14,10h1"/><path stroke="#c15a40" d="M15,10h1"/><path stroke="#fa9d4f" opacity="0.7490196078431373" d="M0,11h1"/><path stroke="#f18e4b" opacity="0.8196078431372549" d="M1,11h1"/><path stroke="#e27944" opacity="0.9490196078431372" d="M2,11h1"/><path stroke="#e2753a" d="M3,11h1"/><path stroke="#ea7f2c" d="M4,11h1"/><path stroke="#cf8145" d="M5,11h1"/><path stroke="#927c82" d="M6,11h1"/><path stroke="#71759e" d="M7,11h1"/><path stroke="#716f95" d="M8,11h1"/><path stroke="#917174" d="M9,11h1"/><path stroke="#cc7a42" d="M10,11h1"/><path stroke="#e17530" d="M11,11h1"/><path stroke="#d0613e" d="M12,11h1"/><path stroke="#c45845" opacity="0.9490196078431372" d="M13,11h1"/><path stroke="#c05941" opacity="0.8196078431372549" d="M14,11h1"/><path stroke="#be5a3d" opacity="0.7490196078431373" d="M15,11h1"/><path stroke="#ffa34f" opacity="0.21568627450980393" d="M0,12h1"/><path stroke="#e27b49" opacity="0.42745098039215684" d="M1,12h1"/><path stroke="#d46745" opacity="0.8274509803921568" d="M2,12h1"/><path stroke="#d76941" d="M3,12h1"/><path stroke="#e2763a" d="M4,12h1"/><path stroke="#df7e3c" d="M5,12h1"/><path stroke="#cd8147" d="M6,12h1"/><path stroke="#c4824b" d="M7,12h1"/><path stroke="#c48049" d="M8,12h1"/><path stroke="#c97a44" d="M9,12h1"/><path stroke="#d36e3f" d="M10,12h1"/><path stroke="#d0623f" d="M11,12h1"/><path stroke="#c15544" d="M12,12h1"/><path stroke="#ba5046" opacity="0.8274509803921568" d="M13,12h1"/><path stroke="#bb5343" opacity="0.42745098039215684" d="M14,12h1"/><path stroke="#bf5b3c" opacity="0.21568627450980393" d="M15,12h1"/><path stroke="#c65446" opacity="0.1568627450980392" d="M1,13h1"/><path stroke="#cb5c46" opacity="0.5490196078431373" d="M2,13h1"/><path stroke="#d16345" opacity="0.8274509803921568" d="M3,13h1"/><path stroke="#da6d44" opacity="0.9490196078431372" d="M4,13h1"/><path stroke="#df743c" d="M5,13h1"/><path stroke="#e1792f" d="M6,13h1"/><path stroke="#e27c28" d="M7,13h1"/><path stroke="#e37d29" d="M8,13h1"/><path stroke="#db7331" d="M9,13h1"/><path stroke="#cd6140" d="M10,13h1"/><path stroke="#c25547" opacity="0.9490196078431372" d="M11,13h1"/><path stroke="#ba4f47" opacity="0.8274509803921568" d="M12,13h1"/><path stroke="#b44c46" opacity="0.5490196078431373" d="M13,13h1"/><path stroke="#b34a47" opacity="0.1568627450980392" d="M14,13h1"/><path stroke="#ba4544" opacity="0.03529411764705882" d="M1,14h1"/><path stroke="#ca5a46" opacity="0.1568627450980392" d="M2,14h1"/><path stroke="#d06146" opacity="0.42745098039215684" d="M3,14h1"/><path stroke="#d26345" opacity="0.8196078431372549" d="M4,14h1"/><path stroke="#d06441" d="M5,14h1"/><path stroke="#cd643a" d="M6,14h1"/><path stroke="#cb6536" d="M7,14h2"/><path stroke="#c7603b" d="M9,14h1"/><path stroke="#bf5543" d="M10,14h1"/><path stroke="#ba5047" opacity="0.8196078431372549" d="M11,14h1"/><path stroke="#b84e47" opacity="0.42745098039215684" d="M12,14h1"/><path stroke="#b34b46" opacity="0.1568627450980392" d="M13,14h1"/><path stroke="#ae4548" opacity="0.03529411764705882" d="M14,14h1"/><path stroke="#cd5d47" opacity="0.21568627450980393" d="M3,15h1"/><path stroke="#cd5d46" opacity="0.7490196078431373" d="M4,15h1"/><path stroke="#c95c44" d="M5,15h1"/><path stroke="#c15a41" d="M6,15h1"/><path stroke="#bd593e" d="M7,15h1"/><path stroke="#be593e" d="M8,15h1"/><path stroke="#bc5641" d="M9,15h1"/><path stroke="#b74f44" d="M10,15h1"/><path stroke="#b54c46" opacity="0.7490196078431373" d="M11,15h1"/><path stroke="#b54c46" opacity="0.21568627450980393" d="M12,15h1"/></svg>
