<svg xmlns="http://www.w3.org/2000/svg" shape-rendering="crispEdges" viewBox="0 -0.5 16 16" width="16" height="16"><metadata>Generated with pixel-perfect-svg https://github.com/kagof/pixel-perfect-svg</metadata><path stroke="#fbeaa3" d="M2,0h2M2,1h2M0,2h2M0,3h2"/><path stroke="#e8cb82" d="M4,0h2M4,1h2M2,2h2M2,3h2M0,4h2M0,5h2"/><path stroke="#edb67c" d="M6,0h2M6,1h2M4,2h12M4,3h12M14,8h2M14,9h2M10,10h6M10,11h6M6,12h6M6,13h6M4,14h6M4,15h6"/><path stroke="#fff3d6" d="M2,4h10M2,5h10M2,6h2M2,7h2"/><path stroke="#eadbc9" d="M12,4h2M12,5h2M4,6h4M4,7h4"/><path stroke="#ffce7f" d="M14,4h2M14,5h2M8,6h8M8,7h8M4,8h10M4,9h10M2,10h8M2,11h8M0,12h6M0,13h6M0,14h4M0,15h4"/><path stroke="#ffd59b" d="M0,6h2M0,7h2M0,8h4M0,9h4M0,10h2M0,11h2"/><path stroke="#d89f75" d="M12,12h4M12,13h4M10,14h6M10,15h6"/></svg>
