<svg xmlns="http://www.w3.org/2000/svg" shape-rendering="crispEdges" viewBox="0 -0.5 16 16" width="16" height="16"><metadata>Generated with pixel-perfect-svg https://github.com/kagof/pixel-perfect-svg</metadata><path stroke="#fff3d6" opacity="0.21176470588235294" d="M1,0h1"/><path stroke="#fff3d6" opacity="0.7411764705882353" d="M2,0h1"/><path stroke="#fff3d7" d="M3,0h1"/><path stroke="#fff4d8" d="M4,0h1"/><path stroke="#ffeece" d="M5,0h1"/><path stroke="#fee4ba" d="M6,0h1M0,4h2"/><path stroke="#fedeb0" opacity="0.7529411764705882" d="M7,0h1"/><path stroke="#fedeae" opacity="0.2196078431372549" d="M8,0h1"/><path stroke="#fff4d9" opacity="0.21176470588235294" d="M0,1h1"/><path stroke="#fff4d8" opacity="0.41568627450980394" d="M1,1h1"/><path stroke="#fff4d7" opacity="0.807843137254902" d="M2,1h1"/><path stroke="#fff2d5" d="M3,1h1"/><path stroke="#fff0d0" d="M4,1h1M3,2h1"/><path stroke="#ffeac6" d="M5,1h1"/><path stroke="#fee3b8" d="M6,1h1M5,2h1M3,4h1"/><path stroke="#fedfb1" opacity="0.8156862745098039" d="M7,1h1"/><path stroke="#fedfb1" opacity="0.4196078431372549" d="M8,1h1"/><path stroke="#fee0b3" opacity="0.2196078431372549" d="M9,1h1"/><path stroke="#fee0b3" opacity="0.2235294117647059" d="M10,1h1"/><path stroke="#feddad" opacity="0.23529411764705882" d="M11,1h1"/><path stroke="#ffd8a1" opacity="0.23529411764705882" d="M12,1h1"/><path stroke="#ffd59b" opacity="0.23529411764705882" d="M13,1h1"/><path stroke="#ffd59c" opacity="0.23529411764705882" d="M14,1h1"/><path stroke="#ffd59d" opacity="0.23529411764705882" d="M15,1h1"/><path stroke="#fff4d7" opacity="0.7411764705882353" d="M0,2h1"/><path stroke="#fff4d8" opacity="0.807843137254902" d="M1,2h1"/><path stroke="#fff4d8" opacity="0.9372549019607843" d="M2,2h1"/><path stroke="#fee8c2" d="M4,2h1"/><path stroke="#fee0b3" d="M6,2h1"/><path stroke="#fedfb1" opacity="0.9372549019607843" d="M7,2h1"/><path stroke="#fedfb1" opacity="0.807843137254902" d="M8,2h1"/><path stroke="#fedfb2" opacity="0.7411764705882353" d="M9,2h1"/><path stroke="#fee0b2" opacity="0.7450980392156863" d="M10,2h1"/><path stroke="#feddac" opacity="0.7490196078431373" d="M11,2h1"/><path stroke="#ffd7a0" opacity="0.7490196078431373" d="M12,2h1"/><path stroke="#ffd59b" opacity="0.7490196078431373" d="M13,2h2"/><path stroke="#ffd59c" opacity="0.7490196078431373" d="M15,2h1"/><path stroke="#ffeecd" d="M0,3h1"/><path stroke="#ffefce" d="M1,3h2"/><path stroke="#ffebc6" d="M3,3h1"/><path stroke="#fee2b8" d="M4,3h1"/><path stroke="#fedeaf" d="M5,3h1M1,5h1"/><path stroke="#feddac" d="M6,3h4M2,5h1M4,5h1M0,7h1"/><path stroke="#feddad" d="M10,3h1M5,4h1M1,6h1"/><path stroke="#fedba8" d="M11,3h1M5,5h1M1,7h1"/><path stroke="#ffd7a0" d="M12,3h1M7,4h1M11,4h1M3,6h1M5,6h1M0,8h1"/><path stroke="#ffd499" d="M13,3h1M7,5h1M3,7h1"/><path stroke="#ffd496" d="M14,3h1M13,4h1M7,6h1M3,8h1M2,9h1M1,10h1"/><path stroke="#ffd394" d="M15,3h1M9,5h3M5,7h1"/><path stroke="#fee4bb" d="M2,4h1"/><path stroke="#fee0b4" d="M4,4h1"/><path stroke="#ffd9a4" d="M6,4h1M2,6h1"/><path stroke="#ffd8a1" d="M8,4h3"/><path stroke="#ffd69d" d="M12,4h1M6,6h1M2,8h1"/><path stroke="#ffd18b" d="M14,4h1M8,6h1M4,8h1M2,10h1"/><path stroke="#ffd085" d="M15,4h1"/><path stroke="#fedfb1" d="M0,5h1"/><path stroke="#fedcab" d="M3,5h1"/><path stroke="#ffd79f" d="M6,5h1M2,7h1M1,8h1"/><path stroke="#ffd395" d="M8,5h1M12,5h1M4,7h1M6,7h1M0,11h1"/><path stroke="#ffd28f" d="M13,5h1M7,7h1M3,9h1M1,11h1"/><path stroke="#ffcf84" d="M14,5h1M13,6h1M8,7h1M7,8h1M4,9h1M3,10h1M2,11h1M1,12h1"/><path stroke="#ffce7e" d="M15,5h1M15,6h1M9,7h4M9,8h1M5,9h2M5,10h1M3,11h1M0,13h1"/><path stroke="#fedfb2" d="M0,6h1"/><path stroke="#ffd7a1" d="M4,6h1"/><path stroke="#ffcf85" d="M9,6h2M5,8h1"/><path stroke="#ffd086" d="M11,6h2M6,8h1M0,12h1"/><path stroke="#ffcf80" d="M14,6h1"/><path stroke="#fecd7e" d="M13,7h1"/><path stroke="#fcca7e" d="M14,7h1M13,8h1M10,9h1M6,11h1M4,13h1M3,14h1"/><path stroke="#fbc87e" d="M15,7h1M11,9h1M7,11h1M3,15h1"/><path stroke="#ffce80" d="M8,8h1M4,10h1M2,12h1"/><path stroke="#ffce7f" d="M10,8h1M7,9h2M6,10h1M4,11h1M3,12h1M1,13h2M0,14h3M0,15h2"/><path stroke="#ffcf7f" d="M11,8h2M7,10h2M4,12h1M2,15h1"/><path stroke="#f5c07d" d="M14,8h1M10,10h1M6,12h1M4,14h1"/><path stroke="#f1bb7d" d="M15,8h1M13,10h1M7,12h1M9,12h1M4,15h1"/><path stroke="#ffd59b" d="M0,9h1"/><path stroke="#ffd59a" d="M1,9h1"/><path stroke="#fecd7f" d="M9,9h1M5,11h1M3,13h1"/><path stroke="#fbc97e" d="M12,9h1M8,11h1"/><path stroke="#f7c47e" d="M13,9h1M9,11h1"/><path stroke="#f0ba7d" d="M14,9h1M10,11h1"/><path stroke="#ecb57c" d="M15,9h1M7,13h2M5,15h1"/><path stroke="#ffd59c" d="M0,10h1"/><path stroke="#fcca7f" d="M9,10h1M5,12h1"/><path stroke="#f1bc7d" d="M11,10h1M8,12h1"/><path stroke="#f2bc7d" d="M12,10h1"/><path stroke="#eeb87c" d="M14,10h1"/><path stroke="#edb67c" d="M15,10h1M7,14h2M7,15h1"/><path stroke="#ebb47c" d="M11,11h1"/><path stroke="#e9b17b" d="M12,11h1"/><path stroke="#e7b07a" d="M13,11h1"/><path stroke="#e8b07a" d="M14,11h2M9,15h1"/><path stroke="#efb87c" d="M10,12h1"/><path stroke="#e9b27b" d="M11,12h1M10,13h1M9,14h1"/><path stroke="#e1a878" d="M12,12h1"/><path stroke="#dca477" d="M13,12h1"/><path stroke="#dda477" d="M14,12h1M10,15h1"/><path stroke="#dda577" d="M15,12h1"/><path stroke="#f7c37e" d="M5,13h1"/><path stroke="#f0ba7c" d="M6,13h1M5,14h1"/><path stroke="#ecb47c" d="M9,13h1"/><path stroke="#e4ac79" d="M11,13h1"/><path stroke="#dba376" d="M12,13h1M11,14h1"/><path stroke="#d79e75" d="M13,13h2M11,15h1"/><path stroke="#d89e75" d="M15,13h1M12,15h1"/><path stroke="#eeb77c" d="M6,14h1M8,15h1"/><path stroke="#e1a978" d="M10,14h1"/><path stroke="#d9a075" d="M12,14h1"/><path stroke="#d89f75" d="M13,14h3M13,15h3"/><path stroke="#edb57c" d="M6,15h1"/></svg>
