<svg xmlns="http://www.w3.org/2000/svg" shape-rendering="crispEdges" viewBox="0 -0.5 16 16" width="16" height="16"><metadata>Generated with pixel-perfect-svg https://github.com/kagof/pixel-perfect-svg</metadata><path stroke="#fdeda6" opacity="0.21176470588235294" d="M1,0h1"/><path stroke="#fceca5" opacity="0.7411764705882353" d="M2,0h1M0,2h1"/><path stroke="#f7e49c" d="M3,0h1"/><path stroke="#edd48b" d="M4,0h1"/><path stroke="#e9c580" d="M5,0h1"/><path stroke="#ecbb7d" d="M6,0h1"/><path stroke="#edb57c" opacity="0.7529411764705882" d="M7,0h1"/><path stroke="#edb57c" opacity="0.2196078431372549" d="M8,0h1"/><path stroke="#fdeda7" opacity="0.21176470588235294" d="M0,1h1"/><path stroke="#f9e7a0" opacity="0.41568627450980394" d="M1,1h1"/><path stroke="#f7e49c" opacity="0.807843137254902" d="M2,1h1M1,2h1"/><path stroke="#f3db94" d="M3,1h1"/><path stroke="#eccd86" d="M4,1h1"/><path stroke="#eac07e" d="M5,1h1"/><path stroke="#ecb97b" d="M6,1h1"/><path stroke="#edb47a" opacity="0.8156862745098039" d="M7,1h1"/><path stroke="#edb379" opacity="0.4196078431372549" d="M8,1h1"/><path stroke="#ecb276" opacity="0.2196078431372549" d="M9,1h1"/><path stroke="#ecb276" opacity="0.2235294117647059" d="M10,1h1"/><path stroke="#ecb377" opacity="0.23529411764705882" d="M11,1h1"/><path stroke="#edb377" opacity="0.23529411764705882" d="M12,1h1"/><path stroke="#edb478" opacity="0.23529411764705882" d="M13,1h1"/><path stroke="#ecb47b" opacity="0.23529411764705882" d="M14,1h1"/><path stroke="#ecb57c" opacity="0.23529411764705882" d="M15,1h1"/><path stroke="#efd88e" opacity="0.9372549019607843" d="M2,2h1"/><path stroke="#eccc85" d="M3,2h1"/><path stroke="#ebc07e" d="M4,2h1"/><path stroke="#ecb87b" d="M5,2h1"/><path stroke="#ecb67a" d="M6,2h1"/><path stroke="#edb47a" opacity="0.9372549019607843" d="M7,2h1"/><path stroke="#edb479" opacity="0.807843137254902" d="M8,2h1"/><path stroke="#ecb479" opacity="0.7411764705882353" d="M9,2h1"/><path stroke="#ecb479" opacity="0.7450980392156863" d="M10,2h1"/><path stroke="#edb479" opacity="0.7490196078431373" d="M11,2h1"/><path stroke="#edb579" opacity="0.7490196078431373" d="M12,2h1"/><path stroke="#edb57a" opacity="0.7490196078431373" d="M13,2h1"/><path stroke="#edb57b" opacity="0.7490196078431373" d="M14,2h1"/><path stroke="#ecb57c" opacity="0.7490196078431373" d="M15,2h1"/><path stroke="#f6e39b" d="M0,3h1"/><path stroke="#f4df9a" d="M1,3h1"/><path stroke="#efd897" d="M2,3h1M1,4h1"/><path stroke="#eed094" d="M3,3h1"/><path stroke="#f1c893" d="M4,3h1"/><path stroke="#f2c492" d="M5,3h1"/><path stroke="#f2c592" d="M6,3h2"/><path stroke="#f1c592" d="M8,3h1"/><path stroke="#f1c593" d="M9,3h2"/><path stroke="#f0c492" d="M11,3h1"/><path stroke="#edc090" d="M12,3h1"/><path stroke="#edbe8a" d="M13,3h1"/><path stroke="#f0bc81" d="M14,3h1"/><path stroke="#f1bc7c" d="M15,3h1"/><path stroke="#ecd288" d="M0,4h1"/><path stroke="#f6e3b3" d="M2,4h1"/><path stroke="#fae8c2" d="M3,4h1"/><path stroke="#fbe6c2" d="M4,4h1"/><path stroke="#fbe5c0" d="M5,4h1"/><path stroke="#fbe5c1" d="M6,4h4"/><path stroke="#fbe5c2" d="M10,4h1"/><path stroke="#f6e0c0" d="M11,4h1"/><path stroke="#eed7bb" d="M12,4h1"/><path stroke="#eecfa9" d="M13,4h1"/><path stroke="#f6ca8c" d="M14,4h1"/><path stroke="#fbc87c" d="M15,4h1"/><path stroke="#edcb85" d="M0,5h1"/><path stroke="#f2d69b" d="M1,5h1"/><path stroke="#fbeac4" d="M2,5h1"/><path stroke="#fff4da" d="M3,5h1"/><path stroke="#fcf1d8" d="M4,5h1M3,6h1"/><path stroke="#faefd6" d="M5,5h2"/><path stroke="#fbeed1" d="M7,5h1"/><path stroke="#feecc8" d="M8,5h1M2,6h1"/><path stroke="#ffecc3" d="M9,5h2"/><path stroke="#fbe7c2" d="M11,5h1"/><path stroke="#f3ddbd" d="M12,5h1"/><path stroke="#f3d6aa" d="M13,5h1"/><path stroke="#fcd18d" d="M14,5h1"/><path stroke="#ffcf7d" d="M15,5h1"/><path stroke="#f9d192" d="M0,6h1"/><path stroke="#fbdaa5" d="M1,6h1"/><path stroke="#f3e7d2" d="M4,6h1"/><path stroke="#eee2d0" d="M5,6h2"/><path stroke="#f3e0c1" d="M7,6h1"/><path stroke="#fbdaa3" d="M8,6h1"/><path stroke="#ffd894" d="M9,6h1"/><path stroke="#ffd895" d="M10,6h1"/><path stroke="#fed695" d="M11,6h1"/><path stroke="#fbd393" d="M12,6h1"/><path stroke="#fbd18d" d="M13,6h1"/><path stroke="#fecf84" d="M14,6h1"/><path stroke="#ffcf7f" d="M15,6h1M8,10h1M4,12h1M2,15h1"/><path stroke="#ffd59a" d="M0,7h1M1,9h1"/><path stroke="#ffdba6" d="M1,7h1"/><path stroke="#ffe7bd" d="M2,7h1"/><path stroke="#fbe7c5" d="M3,7h1"/><path stroke="#f3ddbc" d="M4,7h1"/><path stroke="#eed7b7" d="M5,7h1"/><path stroke="#eed7b8" d="M6,7h1"/><path stroke="#f3d5a9" d="M7,7h1"/><path stroke="#fbd08b" d="M8,7h1"/><path stroke="#ffcd7c" d="M9,7h2"/><path stroke="#ffce7d" d="M11,7h2M9,8h2M5,9h2"/><path stroke="#fecd7e" d="M13,7h1"/><path stroke="#fcca7e" d="M14,7h1M13,8h1M10,9h1M6,11h1M4,13h1M3,14h1"/><path stroke="#fac87e" d="M15,7h1"/><path stroke="#ffd59b" d="M0,8h1"/><path stroke="#ffd79f" d="M1,8h1"/><path stroke="#ffdba7" d="M2,8h1"/><path stroke="#fedaa4" d="M3,8h1"/><path stroke="#fbd497" d="M4,8h1"/><path stroke="#f9d190" d="M5,8h1"/><path stroke="#f9d191" d="M6,8h1"/><path stroke="#fbd08c" d="M7,8h1"/><path stroke="#fece82" d="M8,8h1"/><path stroke="#ffce7e" d="M11,8h1M7,9h1M5,10h2M3,11h1M0,13h1"/><path stroke="#ffcf7e" d="M12,8h1M7,10h1"/><path stroke="#f5c07d" d="M14,8h1M10,10h1M6,12h1M4,14h1"/><path stroke="#f1bb7d" d="M15,8h1M13,10h1M7,12h1M9,12h1M4,15h1"/><path stroke="#ffd59c" d="M0,9h1M0,10h1"/><path stroke="#ffd396" d="M2,9h1"/><path stroke="#ffd18d" d="M3,9h1"/><path stroke="#ffcf82" d="M4,9h1"/><path stroke="#ffce7f" d="M8,9h1M4,10h1M4,11h1M3,12h1M1,13h2M0,14h3M0,15h2"/><path stroke="#fecd7f" d="M9,9h1M5,11h1M3,13h1"/><path stroke="#fbc87e" d="M11,9h1M7,11h1M3,15h1"/><path stroke="#fbc97e" d="M12,9h1M8,11h1"/><path stroke="#f7c47e" d="M13,9h1M9,11h1"/><path stroke="#f0ba7d" d="M14,9h1M10,11h1"/><path stroke="#ecb57c" d="M15,9h1M7,13h2M5,15h1"/><path stroke="#ffd496" d="M1,10h1"/><path stroke="#ffd18b" d="M2,10h1"/><path stroke="#ffcf83" d="M3,10h1"/><path stroke="#fcca7f" d="M9,10h1M5,12h1"/><path stroke="#f1bc7d" d="M11,10h1M8,12h1"/><path stroke="#f2bc7d" d="M12,10h1"/><path stroke="#eeb87c" d="M14,10h1"/><path stroke="#edb67c" d="M15,10h1M7,14h2M7,15h1"/><path stroke="#ffd395" d="M0,11h1"/><path stroke="#ffd28f" d="M1,11h1"/><path stroke="#ffcf84" d="M2,11h1M1,12h1"/><path stroke="#ebb47c" d="M11,11h1"/><path stroke="#e9b17b" d="M12,11h1"/><path stroke="#e7b07a" d="M13,11h1"/><path stroke="#e8b07a" d="M14,11h2M9,15h1"/><path stroke="#ffd086" d="M0,12h1"/><path stroke="#ffce80" d="M2,12h1"/><path stroke="#efb87c" d="M10,12h1"/><path stroke="#e9b27b" d="M11,12h1M10,13h1M9,14h1"/><path stroke="#e1a878" d="M12,12h1"/><path stroke="#dca477" d="M13,12h1"/><path stroke="#dda477" d="M14,12h1M10,15h1"/><path stroke="#dda577" d="M15,12h1"/><path stroke="#f7c37e" d="M5,13h1"/><path stroke="#f0ba7c" d="M6,13h1M5,14h1"/><path stroke="#ecb47c" d="M9,13h1"/><path stroke="#e4ac79" d="M11,13h1"/><path stroke="#dba376" d="M12,13h1M11,14h1"/><path stroke="#d79e75" d="M13,13h2M11,15h1"/><path stroke="#d89e75" d="M15,13h1M12,15h1"/><path stroke="#eeb77c" d="M6,14h1M8,15h1"/><path stroke="#e1a978" d="M10,14h1"/><path stroke="#d9a075" d="M12,14h1"/><path stroke="#d89f75" d="M13,14h3M13,15h3"/><path stroke="#edb57c" d="M6,15h1"/></svg>
