<svg xmlns="http://www.w3.org/2000/svg" shape-rendering="crispEdges" viewBox="0 -0.5 16 16" width="16" height="16"><metadata>Generated with pixel-perfect-svg https://github.com/kagof/pixel-perfect-svg</metadata><path stroke="#fff3d6" d="M2,0h4M2,1h4M0,2h4M0,3h4"/><path stroke="#fedfb1" d="M6,0h2M6,1h2M4,2h8M4,3h8M0,4h6M0,5h6M0,6h2M0,7h2"/><path stroke="#ffd59b" d="M12,2h4M12,3h4M6,4h8M6,5h8M2,6h6M2,7h6M0,8h4M0,9h4M0,10h2M0,11h2"/><path stroke="#ffce7f" d="M14,4h2M14,5h2M8,6h8M8,7h8M4,8h10M4,9h10M2,10h2M6,10h2M2,11h2M6,11h2M0,12h2M4,12h2M0,13h2M4,13h2M0,14h4M0,15h4"/><path stroke="#edb67c" d="M14,8h2M14,9h2M10,10h2M14,10h2M10,11h2M14,11h2M8,12h2M8,13h2M4,14h6M4,15h6"/><path stroke="#626871" d="M4,10h2M4,11h2M2,12h2M2,13h2"/><path stroke="#434549" d="M8,10h2M12,10h2M8,11h2M12,11h2M6,12h2M6,13h2"/><path stroke="#222323" d="M10,12h2M10,13h2"/><path stroke="#d89f75" d="M12,12h4M12,13h4M10,14h6M10,15h6"/></svg>
