<svg xmlns="http://www.w3.org/2000/svg" shape-rendering="crispEdges" viewBox="0 -0.5 16 16" width="16" height="16"><metadata>Generated with pixel-perfect-svg https://github.com/kagof/pixel-perfect-svg</metadata><path stroke="#88d6ff" d="M2,0h6M2,1h6M0,2h2M0,3h2"/><path stroke="#6dccff" d="M8,0h6M8,1h6M6,2h4M6,3h4M0,4h2M0,5h2M0,6h2M0,7h2"/><path stroke="#ffe949" d="M2,2h2M2,3h2"/><path stroke="#ffbc4e" d="M4,2h2M4,3h2M2,4h2M2,5h2"/><path stroke="#55b1f1" d="M10,2h6M10,3h6M6,4h10M6,5h10M2,6h8M2,7h8M0,8h2M0,9h2"/><path stroke="#f99b4e" d="M4,4h2M4,5h2"/><path stroke="#4097ea" d="M10,6h2M14,6h2M10,7h2M14,7h2M2,8h2M6,8h4M2,9h2M6,9h4M0,10h2M0,11h2"/><path stroke="#55b67d" d="M12,6h2M12,7h2M10,8h6M10,9h6M8,10h4M8,11h4M6,12h4M6,13h4M2,14h6M2,15h6"/><path stroke="#91daa1" d="M4,8h2M4,9h2M2,10h6M2,11h6M0,12h6M0,13h6"/><path stroke="#00a087" d="M12,10h4M12,11h4M10,12h4M10,13h4M8,14h4M8,15h4"/><path stroke="#008279" d="M14,12h2M14,13h2M12,14h2M12,15h2"/></svg>
