<svg xmlns="http://www.w3.org/2000/svg" shape-rendering="crispEdges" viewBox="0 -0.5 16 16" width="16" height="16"><metadata>Generated with pixel-perfect-svg https://github.com/kagof/pixel-perfect-svg</metadata><path stroke="#84d5ff" opacity="0.21176470588235294" d="M1,0h1"/><path stroke="#84d5ff" opacity="0.7411764705882353" d="M2,0h1"/><path stroke="#84d6ff" d="M3,0h2"/><path stroke="#86d7ff" d="M5,0h1"/><path stroke="#88d7ff" d="M6,0h1"/><path stroke="#82d4ff" d="M7,0h1"/><path stroke="#74ceff" d="M8,0h1"/><path stroke="#6dccff" d="M9,0h2"/><path stroke="#6ecdff" d="M11,0h2"/><path stroke="#6ecdff" opacity="0.7411764705882353" d="M13,0h1"/><path stroke="#70d0ff" opacity="0.21176470588235294" d="M14,0h1"/><path stroke="#86d6ff" opacity="0.21176470588235294" d="M0,1h1"/><path stroke="#99dae7" opacity="0.41568627450980394" d="M1,1h1"/><path stroke="#a2dbd7" opacity="0.807843137254902" d="M2,1h1"/><path stroke="#a5d9d3" d="M3,1h1"/><path stroke="#a5d3d4" d="M4,1h1"/><path stroke="#9cd1df" d="M5,1h1"/><path stroke="#8bd3f5" d="M6,1h1"/><path stroke="#7cd2ff" d="M7,1h1"/><path stroke="#72ceff" d="M8,1h1"/><path stroke="#6bcbfe" d="M9,1h1"/><path stroke="#68c7fd" d="M10,1h1"/><path stroke="#67c6fc" d="M11,1h2"/><path stroke="#66c4fb" opacity="0.807843137254902" d="M13,1h1"/><path stroke="#5fbdf7" opacity="0.41568627450980394" d="M14,1h1"/><path stroke="#52aeef" opacity="0.21176470588235294" d="M15,1h1"/><path stroke="#85d6ff" opacity="0.7411764705882353" d="M0,2h1"/><path stroke="#a3dbd7" opacity="0.807843137254902" d="M1,2h1"/><path stroke="#cfe392" opacity="0.9372549019607843" d="M2,2h1"/><path stroke="#e4dd73" d="M3,2h1"/><path stroke="#e5cb75" d="M4,2h1"/><path stroke="#c7c59b" d="M5,2h1"/><path stroke="#8fccdf" d="M6,2h1"/><path stroke="#70cfff" d="M7,2h1"/><path stroke="#6eceff" d="M8,2h1"/><path stroke="#69c8fd" d="M9,2h1"/><path stroke="#5fbdf7" d="M10,2h1"/><path stroke="#5bb7f4" d="M11,2h1"/><path stroke="#5bb8f4" d="M12,2h1"/><path stroke="#5ab6f4" opacity="0.9372549019607843" d="M13,2h1"/><path stroke="#57b3f2" opacity="0.807843137254902" d="M14,2h1"/><path stroke="#55b1f1" opacity="0.7411764705882353" d="M15,2h1"/><path stroke="#7ed3ff" d="M0,3h1"/><path stroke="#a0d7d4" d="M1,3h1"/><path stroke="#e3dd74" d="M2,3h1"/><path stroke="#ffd43d" d="M3,3h1"/><path stroke="#ffbd3f" d="M4,3h1"/><path stroke="#ddb673" d="M5,3h1"/><path stroke="#8cc0d0" d="M6,3h1"/><path stroke="#63c6ff" d="M7,3h1"/><path stroke="#65c6ff" d="M8,3h1"/><path stroke="#63c0f9" d="M9,3h1"/><path stroke="#59b6f3" d="M10,3h1"/><path stroke="#54b0f1" d="M11,3h1"/><path stroke="#54b0f2" d="M12,3h1"/><path stroke="#55b1f2" d="M13,3h1M11,4h1M14,4h1"/><path stroke="#55b1f1" d="M14,3h2"/><path stroke="#6fcfff" d="M0,4h1"/><path stroke="#96cdd4" d="M1,4h1"/><path stroke="#e0ca75" d="M2,4h1"/><path stroke="#ffbe40" d="M3,4h1"/><path stroke="#ffaa40" d="M4,4h1"/><path stroke="#d8a671" d="M5,4h1"/><path stroke="#82b2cb" d="M6,4h1"/><path stroke="#57b8f8" d="M7,4h1"/><path stroke="#58b8f7" d="M8,4h1"/><path stroke="#59b6f4" d="M9,4h1"/><path stroke="#57b3f2" d="M10,4h1"/><path stroke="#55b1f3" d="M12,4h2"/><path stroke="#56b2f1" d="M15,4h1"/><path stroke="#69cdff" d="M0,5h1"/><path stroke="#86c8df" d="M1,5h1"/><path stroke="#bcbe98" d="M2,5h1"/><path stroke="#d9b271" d="M3,5h1"/><path stroke="#d6a471" d="M4,5h1"/><path stroke="#b2a394" d="M5,5h1"/><path stroke="#72acd3" d="M6,5h1"/><path stroke="#52b1f4" d="M7,5h1"/><path stroke="#53b1f3" d="M8,5h1"/><path stroke="#53aff1" d="M9,5h1"/><path stroke="#51acf2" d="M10,5h1M9,6h1"/><path stroke="#51acea" d="M11,5h1M14,5h1"/><path stroke="#54b0db" d="M12,5h2"/><path stroke="#4faaf2" d="M15,5h1M8,7h1"/><path stroke="#6dcdff" d="M0,6h1"/><path stroke="#71c7f3" d="M1,6h1"/><path stroke="#7abad7" d="M2,6h1"/><path stroke="#7fb1c8" d="M3,6h1"/><path stroke="#7dacc9" d="M4,6h1"/><path stroke="#72acd5" d="M5,6h1"/><path stroke="#5eafe8" d="M6,6h1"/><path stroke="#54b2f2" d="M7,6h1"/><path stroke="#55b2f2" d="M8,6h1"/><path stroke="#48a1f1" d="M10,6h1"/><path stroke="#48a2d8" d="M11,6h1"/><path stroke="#51afac" d="M12,6h1"/><path stroke="#51afad" d="M13,6h1"/><path stroke="#49a3d9" d="M14,6h1"/><path stroke="#449cf1" d="M15,6h1"/><path stroke="#68c7fc" d="M0,7h1"/><path stroke="#60bffa" d="M1,7h1"/><path stroke="#52b0f7" d="M2,7h1"/><path stroke="#4fadef" d="M3,7h1"/><path stroke="#5bb7e6" d="M4,7h1"/><path stroke="#5cb8e5" d="M5,7h1"/><path stroke="#53aeed" d="M6,7h1"/><path stroke="#4faaf1" d="M7,7h1"/><path stroke="#4da7ea" d="M9,7h1"/><path stroke="#47a0da" d="M10,7h1"/><path stroke="#49a4b9" d="M11,7h1"/><path stroke="#52b18c" d="M12,7h1"/><path stroke="#53b18e" d="M13,7h1"/><path stroke="#4aa4ba" d="M14,7h1"/><path stroke="#459dd2" d="M15,7h1"/><path stroke="#5cb9f5" d="M0,8h1"/><path stroke="#54b1f4" d="M1,8h1"/><path stroke="#46a2f2" d="M2,8h1"/><path stroke="#50a8e1" d="M3,8h1"/><path stroke="#72c4c3" d="M4,8h1"/><path stroke="#73c5c3" d="M5,8h1"/><path stroke="#53a9df" d="M6,8h1"/><path stroke="#429af0" d="M7,8h1"/><path stroke="#439bf1" d="M8,8h1"/><path stroke="#47a1da" d="M9,8h1"/><path stroke="#4daaad" d="M10,8h1"/><path stroke="#52b18e" d="M11,8h1"/><path stroke="#56b580" d="M12,8h1"/><path stroke="#56b581" d="M13,8h1M10,10h1"/><path stroke="#53b190" d="M14,8h1"/><path stroke="#51ae98" d="M15,8h1"/><path stroke="#4ea9f1" d="M0,9h1"/><path stroke="#4ea8eb" d="M1,9h1"/><path stroke="#50a6e0" d="M2,9h1M1,10h1"/><path stroke="#63b4c9" d="M3,9h1"/><path stroke="#85cfab" d="M4,9h1"/><path stroke="#85d0ac" d="M5,9h1"/><path stroke="#64b5ca" d="M6,9h1"/><path stroke="#4fa3d9" d="M7,9h1"/><path stroke="#479fd5" d="M8,9h1"/><path stroke="#49a4bb" d="M9,9h1"/><path stroke="#53b18f" d="M10,9h1"/><path stroke="#52b67a" d="M11,9h1"/><path stroke="#46b37d" d="M12,9h1"/><path stroke="#40b17f" d="M13,9h1"/><path stroke="#41b17e" d="M14,9h1"/><path stroke="#41b27d" d="M15,9h1"/><path stroke="#419aef" d="M0,10h1"/><path stroke="#6ebdc2" d="M2,10h1"/><path stroke="#84cfac" d="M3,10h1"/><path stroke="#8ed8a3" d="M4,10h1"/><path stroke="#8ed7a5" d="M5,10h1M2,12h1"/><path stroke="#85cfaf" d="M6,10h1"/><path stroke="#73c3ad" d="M7,10h1"/><path stroke="#5ab49f" d="M8,10h1"/><path stroke="#51b090" d="M9,10h1"/><path stroke="#47b37d" d="M11,10h1M9,12h1"/><path stroke="#25aa82" d="M12,10h1M10,12h1"/><path stroke="#13a584" d="M13,10h1"/><path stroke="#14a684" d="M14,10h1"/><path stroke="#15a783" d="M15,10h1"/><path stroke="#52a6d9" d="M0,11h1"/><path stroke="#63b4ca" d="M1,11h1"/><path stroke="#84cfae" d="M2,11h1"/><path stroke="#95dd9f" d="M3,11h1"/><path stroke="#94dca1" d="M4,11h1"/><path stroke="#8fd99f" d="M5,11h1"/><path stroke="#89d59a" d="M6,11h1"/><path stroke="#79cc8f" d="M7,11h1"/><path stroke="#62be81" d="M8,11h1"/><path stroke="#51b57b" d="M9,11h1"/><path stroke="#47b27e" d="M10,11h1"/><path stroke="#30ad82" d="M11,11h1"/><path stroke="#0ea486" d="M12,11h1M11,12h1M10,13h1"/><path stroke="#009d87" d="M13,11h1"/><path stroke="#009a85" d="M14,11h1M13,12h1M12,13h1M11,14h1"/><path stroke="#009884" d="M15,11h1"/><path stroke="#7dc9b3" d="M0,12h1"/><path stroke="#83ceae" d="M1,12h1"/><path stroke="#95dca1" d="M3,12h1"/><path stroke="#94dca2" d="M4,12h1"/><path stroke="#88d49b" d="M5,12h1"/><path stroke="#70c68c" d="M6,12h1"/><path stroke="#61bd82" d="M7,12h1"/><path stroke="#5bb97d" d="M8,12h1"/><path stroke="#03a287" d="M12,12h1"/><path stroke="#008e7f" d="M14,12h1M12,14h1"/><path stroke="#00887c" d="M15,12h1M12,15h1"/><path stroke="#94dd9f" opacity="0.7411764705882353" d="M0,13h1"/><path stroke="#8ed99d" opacity="0.807843137254902" d="M1,13h1"/><path stroke="#85d399" opacity="0.9372549019607843" d="M2,13h1"/><path stroke="#82d198" d="M3,13h1"/><path stroke="#83d198" d="M4,13h1"/><path stroke="#77ca91" d="M5,13h1"/><path stroke="#5fbc83" d="M6,13h1"/><path stroke="#4fb47c" d="M7,13h1"/><path stroke="#45b27e" d="M8,13h1"/><path stroke="#2fac82" d="M9,13h1"/><path stroke="#009e87" d="M11,13h1"/><path stroke="#009481" opacity="0.9372549019607843" d="M13,13h1"/><path stroke="#00887c" opacity="0.807843137254902" d="M14,13h1M13,14h1"/><path stroke="#008078" opacity="0.7411764705882353" d="M15,13h1M13,15h1"/><path stroke="#9de3a0" opacity="0.21176470588235294" d="M0,14h1"/><path stroke="#79cc8f" opacity="0.41568627450980394" d="M1,14h1"/><path stroke="#67c187" opacity="0.807843137254902" d="M2,14h1"/><path stroke="#63be85" d="M3,14h1"/><path stroke="#63bf86" d="M4,14h1"/><path stroke="#60bd83" d="M5,14h1"/><path stroke="#59b87e" d="M6,14h1"/><path stroke="#45b17e" d="M7,14h1"/><path stroke="#24a982" d="M8,14h1"/><path stroke="#0da486" d="M9,14h1"/><path stroke="#03a187" d="M10,14h1"/><path stroke="#00847a" opacity="0.41568627450980394" d="M14,14h1"/><path stroke="#007f78" opacity="0.21176470588235294" d="M15,14h1M14,15h1"/><path stroke="#4cb178" opacity="0.21176470588235294" d="M1,15h1"/><path stroke="#52b47b" opacity="0.7411764705882353" d="M2,15h1"/><path stroke="#53b57c" d="M3,15h2"/><path stroke="#55b57c" d="M5,15h1"/><path stroke="#57b67c" d="M6,15h1"/><path stroke="#40b180" d="M7,15h1"/><path stroke="#12a585" d="M8,15h1"/><path stroke="#009f88" d="M9,15h1"/><path stroke="#00a088" d="M10,15h1"/><path stroke="#009883" d="M11,15h1"/></svg>
