<svg xmlns="http://www.w3.org/2000/svg" shape-rendering="crispEdges" viewBox="0 -0.5 16 16" width="16" height="16"><metadata>Generated with pixel-perfect-svg https://github.com/kagof/pixel-perfect-svg</metadata><path stroke="#d58d6b" d="M4,0h4M4,1h4M2,2h4M2,3h4M4,4h2M4,5h2"/><path stroke="#bf7e63" d="M6,2h4M6,3h4M6,4h4M6,5h4M6,6h2M6,7h2M4,8h2M4,9h2M2,10h2M2,11h2"/><path stroke="#a96d58" d="M10,4h2M10,5h2M8,6h4M8,7h4M6,8h2M6,9h2M4,10h2M4,11h2M0,12h4M0,13h4M0,14h2M0,15h2"/><path stroke="#945d4f" d="M12,6h2M12,7h2M8,8h6M8,9h6M6,10h2M10,10h4M6,11h2M10,11h4"/><path stroke="#784c49" d="M14,8h2M14,9h2M14,10h2M14,11h2M4,12h2M12,12h2M4,13h2M12,13h2M2,14h2M2,15h2"/></svg>
