<svg xmlns="http://www.w3.org/2000/svg" shape-rendering="crispEdges" viewBox="0 -0.5 16 16" width="16" height="16"><metadata>Generated with pixel-perfect-svg https://github.com/kagof/pixel-perfect-svg</metadata><path stroke="#d58d6b" opacity="0.21568627450980393" d="M3,0h1"/><path stroke="#d58d6b" opacity="0.7490196078431373" d="M4,0h1"/><path stroke="#d58d6b" d="M5,0h2"/><path stroke="#d68e6b" opacity="0.7490196078431373" d="M7,0h1"/><path stroke="#d88f6c" opacity="0.21568627450980393" d="M8,0h1"/><path stroke="#d58d6b" opacity="0.047058823529411764" d="M1,1h1"/><path stroke="#d58d6b" opacity="0.16862745098039217" d="M2,1h1"/><path stroke="#d58d6b" opacity="0.43529411764705883" d="M3,1h1"/><path stroke="#d58d6b" opacity="0.8235294117647058" d="M4,1h1"/><path stroke="#d48c6b" d="M5,1h1"/><path stroke="#d18a6a" d="M6,1h1M5,2h1"/><path stroke="#ce8969" opacity="0.8196078431372549" d="M7,1h1"/><path stroke="#c88466" opacity="0.42745098039215684" d="M8,1h1"/><path stroke="#bd7d62" opacity="0.1568627450980392" d="M9,1h1"/><path stroke="#bf7f64" opacity="0.03529411764705882" d="M10,1h1"/><path stroke="#d58d6b" opacity="0.17647058823529413" d="M1,2h1"/><path stroke="#d58d6b" opacity="0.5725490196078431" d="M2,2h1"/><path stroke="#d58d6b" opacity="0.8431372549019608" d="M3,2h1"/><path stroke="#d58d6b" opacity="0.9568627450980393" d="M4,2h1"/><path stroke="#c98567" d="M6,2h1"/><path stroke="#c38164" opacity="0.9490196078431372" d="M7,2h1"/><path stroke="#c07f63" opacity="0.8274509803921568" d="M8,2h1"/><path stroke="#bf7e63" opacity="0.5568627450980392" d="M9,2h1"/><path stroke="#c18064" opacity="0.1568627450980392" d="M10,2h1"/><path stroke="#d58d6b" opacity="0.1803921568627451" d="M1,3h1"/><path stroke="#d58d6b" opacity="0.5803921568627451" d="M2,3h1"/><path stroke="#d58d6b" opacity="0.8549019607843137" d="M3,3h1"/><path stroke="#d68d6b" opacity="0.9686274509803922" d="M4,3h1"/><path stroke="#d08969" d="M5,3h1M5,4h1"/><path stroke="#c48165" d="M6,3h1"/><path stroke="#be7e63" d="M7,3h1"/><path stroke="#bf7e63" d="M8,3h1M7,4h2"/><path stroke="#be7d62" opacity="0.8392156862745098" d="M9,3h1"/><path stroke="#b6775e" opacity="0.43529411764705883" d="M10,3h1"/><path stroke="#a66b57" opacity="0.1607843137254902" d="M11,3h1"/><path stroke="#a66b56" opacity="0.03529411764705882" d="M12,3h1"/><path stroke="#d58d6b" opacity="0.050980392156862744" d="M1,4h1"/><path stroke="#d58d6b" opacity="0.17254901960784313" d="M2,4h1"/><path stroke="#d68e6b" opacity="0.4470588235294118" d="M3,4h1"/><path stroke="#d68d6b" opacity="0.8431372549019608" d="M4,4h1"/><path stroke="#c48265" d="M6,4h1"/><path stroke="#bb7b61" opacity="0.9647058823529412" d="M9,4h1"/><path stroke="#b0725b" opacity="0.8392156862745098" d="M10,4h1"/><path stroke="#a86c58" opacity="0.5647058823529412" d="M11,4h1"/><path stroke="#a96d58" opacity="0.1607843137254902" d="M12,4h1"/><path stroke="#d88f6c" opacity="0.1568627450980392" d="M3,5h1"/><path stroke="#d68e6b" opacity="0.5529411764705883" d="M4,5h1"/><path stroke="#cf8969" opacity="0.8235294117647058" d="M5,5h1"/><path stroke="#c48165" opacity="0.9490196078431372" d="M6,5h1"/><path stroke="#be7d63" d="M7,5h1"/><path stroke="#bb7b61" d="M8,5h1"/><path stroke="#b6775e" d="M9,5h1"/><path stroke="#ad705a" d="M10,5h1M9,6h1"/><path stroke="#a76c57" opacity="0.8392156862745098" d="M11,5h1"/><path stroke="#9f6654" opacity="0.43529411764705883" d="M12,5h1"/><path stroke="#915b4e" opacity="0.1568627450980392" d="M13,5h1"/><path stroke="#945c4d" opacity="0.03529411764705882" d="M14,5h1"/><path stroke="#e49771" opacity="0.03137254901960784" d="M3,6h1"/><path stroke="#db916d" opacity="0.1450980392156863" d="M4,6h1"/><path stroke="#ca8667" opacity="0.4117647058823529" d="M5,6h1"/><path stroke="#c28064" opacity="0.8156862745098039" d="M6,6h1"/><path stroke="#bc7b61" d="M7,6h1"/><path stroke="#b3755d" d="M8,6h1"/><path stroke="#ab6e59" d="M10,6h1"/><path stroke="#a56a56" opacity="0.9647058823529412" d="M11,6h1"/><path stroke="#9a6252" opacity="0.8392156862745098" d="M12,6h1"/><path stroke="#935c4f" opacity="0.5568627450980392" d="M13,6h1"/><path stroke="#955d4f" opacity="0.1568627450980392" d="M14,6h1M7,12h1"/><path stroke="#c07f64" opacity="0.03137254901960784" d="M3,7h1"/><path stroke="#bf7e63" opacity="0.1450980392156863" d="M4,7h1"/><path stroke="#bd7c62" opacity="0.4117647058823529" d="M5,7h1"/><path stroke="#bb7b61" opacity="0.8156862745098039" d="M6,7h1"/><path stroke="#b5765e" d="M7,7h1M5,9h1"/><path stroke="#a96d58" d="M8,7h1M7,8h1M6,9h1M0,13h1"/><path stroke="#a36855" d="M9,7h1"/><path stroke="#a46956" d="M10,7h1"/><path stroke="#a06654" d="M11,7h1"/><path stroke="#986051" d="M12,7h1M9,8h1M11,8h1"/><path stroke="#915b4e" opacity="0.8274509803921568" d="M13,7h1"/><path stroke="#87554c" opacity="0.42745098039215684" d="M14,7h1"/><path stroke="#744a48" opacity="0.21568627450980393" d="M15,7h1"/><path stroke="#c17f64" opacity="0.1568627450980392" d="M3,8h1"/><path stroke="#c07f64" opacity="0.5529411764705883" d="M4,8h1"/><path stroke="#bb7b61" opacity="0.8235294117647058" d="M5,8h1"/><path stroke="#b3745d" opacity="0.9490196078431372" d="M6,8h1"/><path stroke="#9e6453" d="M8,8h1"/><path stroke="#996151" d="M10,8h1"/><path stroke="#965e50" d="M12,8h1"/><path stroke="#8e594e" opacity="0.9490196078431372" d="M13,8h1"/><path stroke="#80514b" opacity="0.8196078431372549" d="M14,8h1"/><path stroke="#774b49" opacity="0.7490196078431373" d="M15,8h1M15,11h1"/><path stroke="#cb8769" opacity="0.03529411764705882" d="M1,9h1"/><path stroke="#c28064" opacity="0.1568627450980392" d="M2,9h1"/><path stroke="#be7d62" opacity="0.43529411764705883" d="M3,9h1"/><path stroke="#bc7b61" opacity="0.8392156862745098" d="M4,9h1"/><path stroke="#a06654" opacity="0.9490196078431372" d="M7,9h1"/><path stroke="#986051" opacity="0.8156862745098039" d="M8,9h1"/><path stroke="#935c4f" opacity="0.8156862745098039" d="M9,9h1"/><path stroke="#935c4f" opacity="0.9490196078431372" d="M10,9h1"/><path stroke="#945d4f" d="M11,9h1M11,10h1"/><path stroke="#955e4f" d="M12,9h1M12,10h1"/><path stroke="#8d594e" d="M13,9h1M13,10h1"/><path stroke="#7f504a" d="M14,9h1M14,10h1"/><path stroke="#774b49" d="M15,9h1M15,10h1"/><path stroke="#c48265" opacity="0.1568627450980392" d="M1,10h1"/><path stroke="#c17f64" opacity="0.5568627450980392" d="M2,10h1"/><path stroke="#bb7b61" opacity="0.8392156862745098" d="M3,10h1"/><path stroke="#b3755d" opacity="0.9647058823529412" d="M4,10h1"/><path stroke="#aa6d58" d="M5,10h1"/><path stroke="#9e6553" d="M6,10h1"/><path stroke="#986051" opacity="0.8235294117647058" d="M7,10h1"/><path stroke="#955e50" opacity="0.4117647058823529" d="M8,10h1"/><path stroke="#935c4f" opacity="0.4117647058823529" d="M9,10h1"/><path stroke="#945d4f" opacity="0.8235294117647058" d="M10,10h1"/><path stroke="#a66b57" opacity="0.21568627450980393" d="M0,11h1"/><path stroke="#b4755d" opacity="0.42745098039215684" d="M1,11h1"/><path stroke="#ba7a60" opacity="0.8274509803921568" d="M2,11h1"/><path stroke="#b3755e" d="M3,11h1"/><path stroke="#a46a57" d="M4,11h1"/><path stroke="#9a6253" opacity="0.9647058823529412" d="M5,11h1"/><path stroke="#955e50" opacity="0.8392156862745098" d="M6,11h1"/><path stroke="#935c4e" opacity="0.5529411764705883" d="M7,11h1"/><path stroke="#925c4e" opacity="0.1450980392156863" d="M8,11h1"/><path stroke="#955e4f" opacity="0.1450980392156863" d="M9,11h1"/><path stroke="#945d4f" opacity="0.5529411764705883" d="M10,11h1"/><path stroke="#925c4f" opacity="0.8431372549019608" d="M11,11h1"/><path stroke="#8f5a4e" opacity="0.9686274509803922" d="M12,11h1"/><path stroke="#89564d" opacity="0.9568627450980393" d="M13,11h1"/><path stroke="#7e504a" opacity="0.8235294117647058" d="M14,11h1"/><path stroke="#a96d58" opacity="0.7490196078431373" d="M0,12h1"/><path stroke="#ac6f59" opacity="0.8196078431372549" d="M1,12h1"/><path stroke="#af725b" opacity="0.9490196078431372" d="M2,12h1"/><path stroke="#a56a57" d="M3,12h1"/><path stroke="#8e5b50" d="M4,12h1"/><path stroke="#83534c" opacity="0.8392156862745098" d="M5,12h1"/><path stroke="#88564d" opacity="0.43529411764705883" d="M6,12h1"/><path stroke="#9a604f" opacity="0.03137254901960784" d="M8,12h1"/><path stroke="#9f6451" opacity="0.03137254901960784" d="M9,12h1"/><path stroke="#975f50" opacity="0.1568627450980392" d="M10,12h1"/><path stroke="#88564c" opacity="0.4470588235294118" d="M11,12h1"/><path stroke="#80514b" opacity="0.8549019607843137" d="M12,12h1"/><path stroke="#7e504a" opacity="0.8431372549019608" d="M13,12h1"/><path stroke="#7c4e4a" opacity="0.43529411764705883" d="M14,12h1"/><path stroke="#774b49" opacity="0.21568627450980393" d="M15,12h1"/><path stroke="#a66b57" d="M1,13h1"/><path stroke="#a06755" d="M2,13h1M1,14h1"/><path stroke="#945f52" opacity="0.9490196078431372" d="M3,13h1"/><path stroke="#81524c" opacity="0.8274509803921568" d="M4,13h1"/><path stroke="#754a48" opacity="0.5568627450980392" d="M5,13h1"/><path stroke="#704747" opacity="0.1568627450980392" d="M6,13h1"/><path stroke="#744a48" opacity="0.17254901960784313" d="M11,13h1"/><path stroke="#774b49" opacity="0.5803921568627451" d="M12,13h1"/><path stroke="#774b49" opacity="0.5725490196078431" d="M13,13h1"/><path stroke="#774b49" opacity="0.16862745098039217" d="M14,13h1"/><path stroke="#aa6e58" d="M0,14h1"/><path stroke="#8d5a4f" d="M2,14h1"/><path stroke="#81524c" opacity="0.8196078431372549" d="M3,14h1"/><path stroke="#7c4f4a" opacity="0.42745098039215684" d="M4,14h1"/><path stroke="#724847" opacity="0.1568627450980392" d="M5,14h1"/><path stroke="#654044" opacity="0.03529411764705882" d="M6,14h1"/><path stroke="#704747" opacity="0.050980392156862744" d="M11,14h1"/><path stroke="#764b49" opacity="0.1803921568627451" d="M12,14h1"/><path stroke="#764b49" opacity="0.17647058823529413" d="M13,14h1"/><path stroke="#764b49" opacity="0.047058823529411764" d="M14,14h1"/><path stroke="#ab6e58" d="M0,15h1"/><path stroke="#9d6554" d="M1,15h1"/><path stroke="#83534c" d="M2,15h1"/><path stroke="#754a48" opacity="0.7490196078431373" d="M3,15h1"/><path stroke="#734947" opacity="0.21568627450980393" d="M4,15h1"/></svg>
