<svg xmlns="http://www.w3.org/2000/svg" shape-rendering="crispEdges" viewBox="0 -0.5 16 16" width="16" height="16"><metadata>Generated with pixel-perfect-svg https://github.com/kagof/pixel-perfect-svg</metadata><path stroke="#45474b" opacity="0.21176470588235294" d="M1,0h1"/><path stroke="#44464a" opacity="0.7411764705882353" d="M2,0h1"/><path stroke="#434549" d="M3,0h1"/><path stroke="#404246" d="M4,0h1"/><path stroke="#37383c" d="M5,0h1"/><path stroke="#292a2b" d="M6,0h1"/><path stroke="#222323" d="M7,0h1M0,5h1"/><path stroke="#232424" d="M8,0h1M0,6h1"/><path stroke="#191919" d="M9,0h1"/><path stroke="#030303" d="M10,0h1"/><path stroke="#000000" d="M11,0h2M13,3h3M13,4h3M13,5h3M13,6h3M13,7h3M13,8h3M0,9h1M13,9h3M0,10h1M13,10h3M0,11h1M11,11h5M0,12h1M11,12h5M11,13h2M11,14h2M3,15h2M11,15h2"/><path stroke="#000000" opacity="0.7411764705882353" d="M13,0h1M15,2h1M0,13h1M15,13h1M2,15h1M13,15h1"/><path stroke="#010101" opacity="0.21176470588235294" d="M14,0h1"/><path stroke="#46494d" opacity="0.21176470588235294" d="M0,1h1"/><path stroke="#3e4043" opacity="0.41568627450980394" d="M1,1h1"/><path stroke="#3b3c3f" opacity="0.807843137254902" d="M2,1h1"/><path stroke="#484a4d" d="M3,1h1"/><path stroke="#626468" d="M4,1h1"/><path stroke="#5b5d60" d="M5,1h1"/><path stroke="#333435" d="M6,1h1"/><path stroke="#1b1b1b" d="M7,1h1"/><path stroke="#171717" d="M8,1h1"/><path stroke="#202020" d="M9,1h1"/><path stroke="#323334" d="M10,1h1"/><path stroke="#2c2d2d" d="M11,1h1"/><path stroke="#0e0e0e" d="M12,1h1"/><path stroke="#000000" opacity="0.807843137254902" d="M13,1h1M14,2h1M1,13h1M14,13h1M2,14h1M13,14h1"/><path stroke="#000000" opacity="0.41568627450980394" d="M14,1h1M1,14h1M14,14h1"/><path stroke="#000000" opacity="0.21176470588235294" d="M15,1h1M0,14h1M15,14h1M1,15h1M14,15h1"/><path stroke="#45474b" opacity="0.7411764705882353" d="M0,2h1"/><path stroke="#3a3b3f" opacity="0.807843137254902" d="M1,2h1"/><path stroke="#2c2d2f" opacity="0.9372549019607843" d="M2,2h1"/><path stroke="#525455" d="M3,2h1"/><path stroke="#a5a7aa" d="M4,2h1"/><path stroke="#a3a5a7" d="M5,2h1"/><path stroke="#494b4b" d="M6,2h1"/><path stroke="#101111" d="M7,2h1"/><path stroke="#020303" d="M8,2h1"/><path stroke="#313132" d="M9,2h1"/><path stroke="#909193" d="M10,2h1"/><path stroke="#8f9092" d="M11,2h1"/><path stroke="#2f2f30" d="M12,2h1"/><path stroke="#000000" opacity="0.9372549019607843" d="M13,2h1M2,13h1M13,13h1"/><path stroke="#3c3e41" d="M0,3h1"/><path stroke="#323436" d="M1,3h1"/><path stroke="#232425" d="M2,3h1"/><path stroke="#585959" d="M3,3h1"/><path stroke="#c9cacd" d="M4,3h1"/><path stroke="#d7d9db" d="M5,3h1"/><path stroke="#808283" d="M6,3h1"/><path stroke="#484949" d="M7,3h1"/><path stroke="#3a3a3b" d="M8,3h1"/><path stroke="#6c6d6e" d="M9,3h1"/><path stroke="#d2d4d6" d="M10,3h1"/><path stroke="#c3c4c7" d="M11,3h1"/><path stroke="#3f4041" d="M12,3h1"/><path stroke="#2b2c2d" d="M0,4h1"/><path stroke="#252727" d="M1,4h1"/><path stroke="#1f2021" d="M2,4h1"/><path stroke="#565858" d="M3,4h1"/><path stroke="#c5c7c9" d="M4,4h1M5,9h1"/><path stroke="#f0f2f5" d="M5,4h1"/><path stroke="#d2d4d7" d="M6,4h1"/><path stroke="#bebfc2" d="M7,4h1"/><path stroke="#b9bbbd" d="M8,4h1M6,15h1"/><path stroke="#ccced0" d="M9,4h1"/><path stroke="#eff1f4" d="M10,4h1"/><path stroke="#bec0c2" d="M11,4h1"/><path stroke="#3d3d3e" d="M12,4h1M3,6h1"/><path stroke="#1c1d1d" d="M1,5h1"/><path stroke="#141515" d="M2,5h1"/><path stroke="#4c4d4e" d="M3,5h1"/><path stroke="#bfc1c3" d="M4,5h1"/><path stroke="#fbfdff" d="M5,5h1M8,5h1M5,6h2"/><path stroke="#fcfeff" d="M6,5h1M5,7h1M5,8h1"/><path stroke="#fafcff" d="M7,5h1M9,6h1"/><path stroke="#fcffff" d="M9,5h1"/><path stroke="#fafdff" d="M10,5h1M7,10h1"/><path stroke="#b8babd" d="M11,5h1"/><path stroke="#3a3b3c" d="M12,5h1"/><path stroke="#181818" d="M1,6h1"/><path stroke="#060606" d="M2,6h1"/><path stroke="#babcbe" d="M4,6h1"/><path stroke="#f9fbfd" d="M7,6h1"/><path stroke="#f9fbfe" d="M8,6h1M6,7h1"/><path stroke="#f6fafe" d="M10,6h1"/><path stroke="#b4b7bb" d="M11,6h1"/><path stroke="#393a3b" d="M12,6h1"/><path stroke="#191a1a" d="M0,7h1"/><path stroke="#1c1d1e" d="M1,7h1"/><path stroke="#262729" d="M2,7h1"/><path stroke="#626365" d="M3,7h1"/><path stroke="#c9cbcd" d="M4,7h1"/><path stroke="#f4f7fa" d="M7,7h1"/><path stroke="#f3f6f9" d="M8,7h1M7,8h1"/><path stroke="#f5f8fd" d="M9,7h1"/><path stroke="#f5faff" d="M10,7h1M10,8h1"/><path stroke="#b5b9bd" d="M11,7h1"/><path stroke="#393b3c" d="M12,7h1"/><path stroke="#040404" d="M0,8h1"/><path stroke="#292b2c" d="M1,8h1"/><path stroke="#74777b" d="M2,8h1"/><path stroke="#b6b9bf" d="M3,8h1"/><path stroke="#e6e8ec" d="M4,8h1"/><path stroke="#f8fafd" d="M6,8h1"/><path stroke="#eff3f8" d="M8,8h1"/><path stroke="#f1f6fc" d="M9,8h1"/><path stroke="#b6babf" d="M11,8h1"/><path stroke="#3a3b3d" d="M12,8h1"/><path stroke="#323335" d="M1,9h1"/><path stroke="#a0a4aa" d="M2,9h1"/><path stroke="#d2d6dd" d="M3,9h1"/><path stroke="#c0c2c6" d="M4,9h1"/><path stroke="#e6e8ea" d="M6,9h1"/><path stroke="#f5f8fb" d="M7,9h1"/><path stroke="#f0f4fa" d="M8,9h1"/><path stroke="#e0e5eb" d="M9,9h1"/><path stroke="#c4c8cd" d="M10,9h1"/><path stroke="#86898c" d="M11,9h1"/><path stroke="#2a2b2c" d="M12,9h1"/><path stroke="#343537" d="M1,10h1"/><path stroke="#a3a7ad" d="M2,10h1"/><path stroke="#b1b5bb" d="M3,10h1"/><path stroke="#5b5d5f" d="M4,10h1"/><path stroke="#616162" d="M5,10h1"/><path stroke="#c5c6c9" d="M6,10h1"/><path stroke="#f5f9ff" d="M8,10h1"/><path stroke="#c1c5ca" d="M9,10h1"/><path stroke="#65676a" d="M10,10h1"/><path stroke="#272829" d="M11,10h1"/><path stroke="#0b0b0c" d="M12,10h1"/><path stroke="#262728" d="M1,11h1"/><path stroke="#76797e" d="M2,11h1"/><path stroke="#82858b" d="M3,11h1"/><path stroke="#47494c" d="M4,11h1"/><path stroke="#5c5e60" d="M5,11h1"/><path stroke="#c4c6c8" d="M6,11h1"/><path stroke="#f9fcff" d="M7,11h1"/><path stroke="#f0f5fb" d="M8,11h1"/><path stroke="#abafb4" d="M9,11h1"/><path stroke="#323435" d="M10,11h1"/><path stroke="#0a0a0b" d="M1,12h1"/><path stroke="#222324" d="M2,12h1"/><path stroke="#4b4d50" d="M3,12h1"/><path stroke="#82858a" d="M4,12h1"/><path stroke="#b5b8be" d="M5,12h1"/><path stroke="#e2e4e8" d="M6,12h1"/><path stroke="#f2f5f9" d="M7,12h1"/><path stroke="#e3e7ed" d="M8,12h1"/><path stroke="#9fa3a9" d="M9,12h1"/><path stroke="#303133" d="M10,12h1"/><path stroke="#212223" d="M3,13h1"/><path stroke="#74777c" d="M4,13h1"/><path stroke="#b7bbc0" d="M5,13h1"/><path stroke="#e3e6ea" d="M6,13h1"/><path stroke="#f0f3f7" d="M7,13h1"/><path stroke="#dce1e8" d="M8,13h1"/><path stroke="#9a9ea4" d="M9,13h1M9,14h1"/><path stroke="#313234" d="M10,13h1M10,14h1M10,15h1"/><path stroke="#070708" d="M3,14h1"/><path stroke="#212224" d="M4,14h1"/><path stroke="#646568" d="M5,14h1"/><path stroke="#c8cacc" d="M6,14h1"/><path stroke="#f3f6fa" d="M7,14h1"/><path stroke="#dee2e9" d="M8,14h1"/><path stroke="#373738" d="M5,15h1"/><path stroke="#f4f7fc" d="M7,15h1"/><path stroke="#dfe4eb" d="M8,15h1"/><path stroke="#9b9ea5" d="M9,15h1"/></svg>
