<svg xmlns="http://www.w3.org/2000/svg" shape-rendering="crispEdges" viewBox="0 -0.5 16 16" width="16" height="16"><metadata>Generated with pixel-perfect-svg https://github.com/kagof/pixel-perfect-svg</metadata><path stroke="#8bb091" d="M0,0h1"/><path stroke="#79a684" d="M1,0h1M0,1h1"/><path stroke="#59926c" d="M2,0h1M0,2h1"/><path stroke="#44865c" opacity="0.7450980392156863" d="M3,0h1M0,3h1"/><path stroke="#347a4e" opacity="0.2196078431372549" d="M4,0h1M0,4h1"/><path stroke="#f8ffff" opacity="0.2196078431372549" d="M5,0h1M0,5h1"/><path stroke="#e8fef2" opacity="0.7450980392156863" d="M6,0h1M0,6h1"/><path stroke="#cef3da" d="M7,0h1M0,7h1"/><path stroke="#a5e2b4" d="M8,0h1M0,8h1"/><path stroke="#8fd99f" opacity="0.7450980392156863" d="M9,0h1"/><path stroke="#8cda9d" opacity="0.2196078431372549" d="M10,0h1"/><path stroke="#8fbf97" opacity="0.2196078431372549" d="M11,0h1"/><path stroke="#8dc197" opacity="0.7450980392156863" d="M12,0h1"/><path stroke="#7ebf90" d="M13,0h1"/><path stroke="#62ba83" d="M14,0h1"/><path stroke="#52b77c" d="M15,0h1"/><path stroke="#6c9e7a" d="M1,1h1"/><path stroke="#559069" d="M2,1h1M1,2h1"/><path stroke="#45865d" opacity="0.7529411764705882" d="M3,1h1M1,3h1"/><path stroke="#387c51" opacity="0.2196078431372549" d="M4,1h1M1,4h1"/><path stroke="#dfffea" opacity="0.2196078431372549" d="M5,1h1M1,5h1"/><path stroke="#d1f5dd" opacity="0.7529411764705882" d="M6,1h1M1,6h1"/><path stroke="#beeccb" d="M7,1h1M1,7h1"/><path stroke="#a0e0af" d="M8,1h1M7,2h1M2,7h1M1,8h1"/><path stroke="#90daa0" opacity="0.7529411764705882" d="M9,1h1"/><path stroke="#8fdb9f" opacity="0.2196078431372549" d="M10,1h1"/><path stroke="#7dbc8f" opacity="0.2196078431372549" d="M11,1h1"/><path stroke="#7ebe90" opacity="0.7529411764705882" d="M12,1h1"/><path stroke="#75ba8b" d="M13,1h1M7,7h1"/><path stroke="#64b282" d="M14,1h1M13,2h1M8,7h1M7,8h1"/><path stroke="#5bad7c" d="M15,1h1"/><path stroke="#4d8b63" d="M2,2h1"/><path stroke="#47875e" opacity="0.7607843137254902" d="M3,2h1M2,3h1"/><path stroke="#3e7f56" opacity="0.2235294117647059" d="M4,2h1M2,4h1"/><path stroke="#b0ecbd" opacity="0.2235294117647059" d="M5,2h1M2,5h1"/><path stroke="#a7e4b5" opacity="0.7607843137254902" d="M6,2h1M2,6h1"/><path stroke="#96dca6" d="M8,2h1M2,8h1"/><path stroke="#91daa1" opacity="0.7607843137254902" d="M9,2h1"/><path stroke="#95dda3" opacity="0.2235294117647059" d="M10,2h1"/><path stroke="#5cb780" opacity="0.2235294117647059" d="M11,2h1"/><path stroke="#61b983" opacity="0.7607843137254902" d="M12,2h1"/><path stroke="#68a47f" d="M14,2h1M8,8h1"/><path stroke="#6a9c7d" d="M15,2h1"/><path stroke="#46865e" opacity="0.5529411764705883" d="M3,3h1"/><path stroke="#407f58" opacity="0.1607843137254902" d="M4,3h1M3,4h1"/><path stroke="#96e2a6" opacity="0.1607843137254902" d="M5,3h1M3,5h1"/><path stroke="#90dba0" opacity="0.5529411764705883" d="M6,3h1M3,6h1"/><path stroke="#90daa0" opacity="0.7725490196078432" d="M7,3h1M3,7h1"/><path stroke="#91daa1" opacity="0.7725490196078432" d="M8,3h1M3,8h1"/><path stroke="#94dba3" opacity="0.5529411764705883" d="M9,3h1"/><path stroke="#99dfa6" opacity="0.1607843137254902" d="M10,3h1M9,4h1"/><path stroke="#4bb679" opacity="0.1607843137254902" d="M11,3h1M9,5h1"/><path stroke="#52b87d" opacity="0.5529411764705883" d="M12,3h1M9,6h1"/><path stroke="#5caf7e" opacity="0.7607843137254902" d="M13,3h1"/><path stroke="#6b9e7e" opacity="0.7529411764705882" d="M14,3h1"/><path stroke="#74947e" opacity="0.7450980392156863" d="M15,3h1"/><path stroke="#3a7752" opacity="0.047058823529411764" d="M4,4h1"/><path stroke="#94e4a4" opacity="0.047058823529411764" d="M5,4h1M4,5h1"/><path stroke="#8edc9e" opacity="0.1607843137254902" d="M6,4h1M4,6h1"/><path stroke="#8fdb9f" opacity="0.22745098039215686" d="M7,4h1M4,7h1"/><path stroke="#95dda3" opacity="0.22745098039215686" d="M8,4h1M4,8h1"/><path stroke="#9fe1a9" opacity="0.047058823529411764" d="M10,4h1"/><path stroke="#4cbe7e" opacity="0.047058823529411764" d="M11,4h1M10,5h1"/><path stroke="#53c081" opacity="0.1607843137254902" d="M12,4h1M10,6h1"/><path stroke="#5eb682" opacity="0.2235294117647059" d="M13,4h1"/><path stroke="#71a283" opacity="0.2196078431372549" d="M14,4h1"/><path stroke="#7b9884" opacity="0.2196078431372549" d="M15,4h1"/><path stroke="#90bc97" opacity="0.047058823529411764" d="M5,5h1"/><path stroke="#8fbf97" opacity="0.1607843137254902" d="M6,5h1M5,6h1"/><path stroke="#7dbc8f" opacity="0.22745098039215686" d="M7,5h1M5,7h1"/><path stroke="#5cb780" opacity="0.22745098039215686" d="M8,5h1M5,8h1"/><path stroke="#2b4733" opacity="0.047058823529411764" d="M11,5h1"/><path stroke="#2e5038" opacity="0.1607843137254902" d="M12,5h1M11,6h1"/><path stroke="#2e5339" opacity="0.2235294117647059" d="M13,5h1"/><path stroke="#2c5639" opacity="0.2196078431372549" d="M14,5h1"/><path stroke="#2b5739" opacity="0.2196078431372549" d="M15,5h1"/><path stroke="#8dc197" opacity="0.5529411764705883" d="M6,6h1"/><path stroke="#7ebe90" opacity="0.7725490196078432" d="M7,6h1M6,7h1"/><path stroke="#61b983" opacity="0.7725490196078432" d="M8,6h1M6,8h1"/><path stroke="#31583e" opacity="0.5529411764705883" d="M12,6h1"/><path stroke="#315b3f" opacity="0.7607843137254902" d="M13,6h1"/><path stroke="#315b3f" opacity="0.7529411764705882" d="M14,6h1"/><path stroke="#315b3f" opacity="0.7450980392156863" d="M15,6h1"/><path stroke="#5caf7e" opacity="0.7725490196078432" d="M9,7h1"/><path stroke="#5eb682" opacity="0.22745098039215686" d="M10,7h1"/><path stroke="#2e5339" opacity="0.22745098039215686" d="M11,7h1"/><path stroke="#315b3f" opacity="0.7725490196078432" d="M12,7h1M12,8h1"/><path stroke="#325b40" d="M13,7h1"/><path stroke="#315941" d="M14,7h1M13,8h1"/><path stroke="#315842" d="M15,7h1"/><path stroke="#6b9e7e" opacity="0.7725490196078432" d="M9,8h1"/><path stroke="#71a283" opacity="0.22745098039215686" d="M10,8h1"/><path stroke="#2c5639" opacity="0.22745098039215686" d="M11,8h1"/><path stroke="#2f5244" d="M14,8h1"/><path stroke="#2e4f45" d="M15,8h1M2,15h1"/><path stroke="#8fdba0" opacity="0.7450980392156863" d="M0,9h1"/><path stroke="#90dba1" opacity="0.7529411764705882" d="M1,9h1"/><path stroke="#92dca2" opacity="0.7607843137254902" d="M2,9h1M12,13h1"/><path stroke="#94dda4" opacity="0.5529411764705883" d="M3,9h1"/><path stroke="#9ae1a7" opacity="0.1607843137254902" d="M4,9h1"/><path stroke="#4bb579" opacity="0.1607843137254902" d="M5,9h1"/><path stroke="#51b77c" opacity="0.5529411764705883" d="M6,9h1"/><path stroke="#5bae7d" opacity="0.7725490196078432" d="M7,9h1"/><path stroke="#6b9d7d" opacity="0.7725490196078432" d="M8,9h1"/><path stroke="#75947f" opacity="0.5529411764705883" d="M9,9h1"/><path stroke="#7c9884" opacity="0.1607843137254902" d="M10,9h1"/><path stroke="#295437" opacity="0.1607843137254902" d="M11,9h1"/><path stroke="#2f593d" opacity="0.5529411764705883" d="M12,9h1"/><path stroke="#2f5540" opacity="0.7607843137254902" d="M13,9h1"/><path stroke="#2c4c44" opacity="0.7529411764705882" d="M14,9h1"/><path stroke="#2b4746" opacity="0.7450980392156863" d="M15,9h1"/><path stroke="#91e2a2" opacity="0.2196078431372549" d="M0,10h1"/><path stroke="#94e3a4" opacity="0.2196078431372549" d="M1,10h1"/><path stroke="#99e6a9" opacity="0.2235294117647059" d="M2,10h1"/><path stroke="#9de9ad" opacity="0.1607843137254902" d="M3,10h1M12,11h1"/><path stroke="#a4edb1" opacity="0.047058823529411764" d="M4,10h1"/><path stroke="#48b879" opacity="0.047058823529411764" d="M5,10h1"/><path stroke="#50ba7d" opacity="0.1607843137254902" d="M6,10h1"/><path stroke="#5cb17f" opacity="0.22745098039215686" d="M7,10h1"/><path stroke="#6e9d80" opacity="0.22745098039215686" d="M8,10h1"/><path stroke="#7a9482" opacity="0.1607843137254902" d="M9,10h1"/><path stroke="#829988" opacity="0.047058823529411764" d="M10,10h1"/><path stroke="#20482d" opacity="0.047058823529411764" d="M11,10h1"/><path stroke="#264e34" opacity="0.1607843137254902" d="M12,10h1"/><path stroke="#264a38" opacity="0.2235294117647059" d="M13,10h1"/><path stroke="#233f3c" opacity="0.2196078431372549" d="M14,10h1"/><path stroke="#223a3e" opacity="0.2196078431372549" d="M15,10h1"/><path stroke="#597467" opacity="0.2196078431372549" d="M0,11h1"/><path stroke="#4c6a5a" opacity="0.2196078431372549" d="M1,11h1"/><path stroke="#345841" opacity="0.2235294117647059" d="M2,11h1"/><path stroke="#264d33" opacity="0.1607843137254902" d="M3,11h1"/><path stroke="#21482e" opacity="0.047058823529411764" d="M4,11h1"/><path stroke="#4b8961" opacity="0.047058823529411764" d="M5,11h1"/><path stroke="#48855e" opacity="0.1607843137254902" d="M6,11h1"/><path stroke="#47865d" opacity="0.22745098039215686" d="M7,11h1"/><path stroke="#46895d" opacity="0.22745098039215686" d="M8,11h1"/><path stroke="#43885c" opacity="0.1607843137254902" d="M9,11h1"/><path stroke="#3b8155" opacity="0.047058823529411764" d="M10,11h1"/><path stroke="#a4f1b4" opacity="0.047058823529411764" d="M11,11h1"/><path stroke="#9be8ab" opacity="0.2235294117647059" d="M13,11h1"/><path stroke="#9ceaab" opacity="0.2196078431372549" d="M14,11h1"/><path stroke="#9cebab" opacity="0.2196078431372549" d="M15,11h1"/><path stroke="#5d7b6b" opacity="0.7450980392156863" d="M0,12h1"/><path stroke="#51725e" opacity="0.7529411764705882" d="M1,12h1"/><path stroke="#3b6249" opacity="0.7607843137254902" d="M2,12h1"/><path stroke="#2e583c" opacity="0.5529411764705883" d="M3,12h1"/><path stroke="#2b5337" opacity="0.1607843137254902" d="M4,12h1"/><path stroke="#4b8d63" opacity="0.1607843137254902" d="M5,12h1"/><path stroke="#498960" opacity="0.5529411764705883" d="M6,12h1"/><path stroke="#49895f" opacity="0.7725490196078432" d="M7,12h1"/><path stroke="#488960" opacity="0.7725490196078432" d="M8,12h1"/><path stroke="#47885e" opacity="0.5529411764705883" d="M9,12h1"/><path stroke="#408158" opacity="0.1607843137254902" d="M10,12h1"/><path stroke="#9be5aa" opacity="0.1607843137254902" d="M11,12h1"/><path stroke="#94dea4" opacity="0.5529411764705883" d="M12,12h1"/><path stroke="#93dda3" opacity="0.7607843137254902" d="M13,12h1"/><path stroke="#93dda3" opacity="0.7529411764705882" d="M14,12h1M12,14h1"/><path stroke="#93dea3" opacity="0.7450980392156863" d="M15,12h1"/><path stroke="#527460" d="M0,13h1"/><path stroke="#496d58" d="M1,13h1"/><path stroke="#395f49" d="M2,13h1M1,14h1"/><path stroke="#2f5640" opacity="0.7607843137254902" d="M3,13h1"/><path stroke="#2c513c" opacity="0.2235294117647059" d="M4,13h1"/><path stroke="#4c8f63" opacity="0.2235294117647059" d="M5,13h1"/><path stroke="#498a61" opacity="0.7607843137254902" d="M6,13h1"/><path stroke="#498760" d="M7,13h1"/><path stroke="#49825f" d="M8,13h1M7,14h1"/><path stroke="#477e5d" opacity="0.7607843137254902" d="M9,13h1"/><path stroke="#417657" opacity="0.2235294117647059" d="M10,13h1"/><path stroke="#99e4a8" opacity="0.2235294117647059" d="M11,13h1"/><path stroke="#91d8a0" d="M13,13h1"/><path stroke="#90d59f" d="M14,13h1M13,14h1"/><path stroke="#8fd49e" d="M15,13h1M13,15h1"/><path stroke="#3d644a" d="M0,14h1"/><path stroke="#325446" d="M2,14h1"/><path stroke="#2d4d45" opacity="0.7529411764705882" d="M3,14h1"/><path stroke="#2a4842" opacity="0.2196078431372549" d="M4,14h1"/><path stroke="#4c9163" opacity="0.2196078431372549" d="M5,14h1"/><path stroke="#4a8b61" opacity="0.7529411764705882" d="M6,14h1"/><path stroke="#48755d" d="M8,14h1"/><path stroke="#466b5a" opacity="0.7529411764705882" d="M9,14h1"/><path stroke="#3f6054" opacity="0.2196078431372549" d="M10,14h1"/><path stroke="#99e7a9" opacity="0.2196078431372549" d="M11,14h1"/><path stroke="#8dcc9b" d="M14,14h1"/><path stroke="#8cc798" d="M15,14h1M14,15h1"/><path stroke="#315c3e" d="M0,15h1"/><path stroke="#305741" d="M1,15h1"/><path stroke="#2c4947" opacity="0.7450980392156863" d="M3,15h1"/><path stroke="#2a4345" opacity="0.2196078431372549" d="M4,15h1"/><path stroke="#4c9263" opacity="0.2196078431372549" d="M5,15h1"/><path stroke="#4a8b61" opacity="0.7450980392156863" d="M6,15h1"/><path stroke="#48805e" d="M7,15h1"/><path stroke="#476d5b" d="M8,15h1"/><path stroke="#456058" opacity="0.7450980392156863" d="M9,15h1"/><path stroke="#3f5552" opacity="0.2196078431372549" d="M10,15h1"/><path stroke="#99e8a9" opacity="0.2196078431372549" d="M11,15h1"/><path stroke="#93dda3" opacity="0.7450980392156863" d="M12,15h1"/><path stroke="#8abf95" d="M15,15h1"/></svg>
