<svg xmlns="http://www.w3.org/2000/svg" shape-rendering="crispEdges" viewBox="0 -0.5 16 16" width="16" height="16"><metadata>Generated with pixel-perfect-svg https://github.com/kagof/pixel-perfect-svg</metadata><path stroke="#87ae8e" d="M0,0h2M0,1h2"/><path stroke="#498960" d="M2,0h2M2,1h2M0,2h4M0,3h4M6,12h4M6,13h4M6,14h2M6,15h2"/><path stroke="#e0faeb" d="M6,0h2M6,1h2M0,6h2M0,7h2"/><path stroke="#91daa1" d="M8,0h2M8,1h2M6,2h4M6,3h4M2,6h2M2,7h2M0,8h4M0,9h4M12,12h4M12,13h4M12,14h2M12,15h2"/><path stroke="#8ac196" d="M12,0h2M12,1h2M6,6h2M6,7h2M14,14h2M14,15h2"/><path stroke="#55b67d" d="M14,0h2M14,1h2M12,2h2M12,3h2M8,6h2M8,7h2M6,8h2M6,9h2"/><path stroke="#71957d" d="M14,2h2M14,3h2M8,8h2M8,9h2"/><path stroke="#325c40" d="M12,6h4M12,7h4M12,8h2M12,9h2M2,12h2M2,13h2M0,14h2M0,15h2"/><path stroke="#2d4b47" d="M14,8h2M14,9h2M2,14h2M2,15h2"/><path stroke="#5b7b69" d="M0,12h2M0,13h2"/><path stroke="#47655a" d="M8,14h2M8,15h2"/></svg>
