<svg xmlns="http://www.w3.org/2000/svg" shape-rendering="crispEdges" viewBox="0 -0.5 16 16" width="16" height="16"><metadata>Generated with pixel-perfect-svg https://github.com/kagof/pixel-perfect-svg</metadata><path stroke="#434549" d="M2,0h4M2,1h4M0,2h2M0,3h2"/><path stroke="#222323" d="M6,0h4M6,1h4M2,2h2M6,2h2M2,3h2M6,3h2M0,4h4M0,5h4M0,6h2M0,7h2"/><path stroke="#000000" d="M10,0h4M10,1h4M8,2h2M12,2h4M8,3h2M12,3h4M12,4h4M12,5h4M2,6h2M12,6h4M2,7h2M12,7h4M0,8h2M12,8h4M0,9h2M12,9h4M0,10h2M4,10h2M10,10h6M0,11h2M4,11h2M10,11h6M0,12h4M10,12h6M0,13h4M10,13h6M2,14h4M10,14h4M2,15h4M10,15h4"/><path stroke="#f5f7fa" d="M4,2h2M10,2h2M4,3h2M10,3h2M4,4h8M4,5h8M4,6h6M4,7h6M4,8h4M4,9h4M6,10h2M6,11h2M6,12h2M6,13h2M6,14h2M6,15h2"/><path stroke="#ebf0f6" d="M10,6h2M10,7h2M8,8h4M8,9h4M8,10h2M8,11h2"/><path stroke="#cdd2da" d="M2,8h2M2,9h2M2,10h2M2,11h2M4,12h2M8,12h2M4,13h2M8,13h2M8,14h2M8,15h2"/></svg>
