<svg xmlns="http://www.w3.org/2000/svg" shape-rendering="crispEdges" viewBox="0 -0.5 16 16" width="16" height="16"><metadata>Generated with pixel-perfect-svg https://github.com/kagof/pixel-perfect-svg</metadata><path stroke="#45474b" opacity="0.21176470588235294" d="M1,0h1"/><path stroke="#44464a" opacity="0.7411764705882353" d="M2,0h1"/><path stroke="#434549" d="M3,0h1"/><path stroke="#404246" d="M4,0h1"/><path stroke="#37383c" d="M5,0h1"/><path stroke="#292a2b" d="M6,0h1"/><path stroke="#222323" d="M7,0h1"/><path stroke="#232424" d="M8,0h1"/><path stroke="#191919" d="M9,0h1"/><path stroke="#030303" d="M10,0h1"/><path stroke="#000000" d="M11,0h2M13,3h3M13,4h3M15,5h1M15,6h1M2,7h1M15,7h1M1,8h2M15,8h1M0,9h1M15,9h1M0,10h1M15,10h1M0,11h1M13,11h3M0,12h1M13,12h3M7,13h2M7,14h2M3,15h10"/><path stroke="#000000" opacity="0.7411764705882353" d="M13,0h1M15,2h1M0,13h1M15,13h1M2,15h1M13,15h1"/><path stroke="#010101" opacity="0.21176470588235294" d="M14,0h1M0,14h1"/><path stroke="#47494d" opacity="0.21176470588235294" d="M0,1h1"/><path stroke="#3c3e41" opacity="0.41568627450980394" d="M1,1h1"/><path stroke="#38393c" opacity="0.807843137254902" d="M2,1h1"/><path stroke="#47484c" d="M3,1h1"/><path stroke="#64666a" d="M4,1h1"/><path stroke="#5f6164" d="M5,1h1"/><path stroke="#363839" d="M6,1h1"/><path stroke="#1d1e1e" d="M7,1h1M0,5h1"/><path stroke="#171818" d="M8,1h1"/><path stroke="#202121" d="M9,1h1"/><path stroke="#353636" d="M10,1h1"/><path stroke="#2f2f30" d="M11,1h1"/><path stroke="#0f0f0f" d="M12,1h1"/><path stroke="#000000" opacity="0.807843137254902" d="M13,1h1M14,2h1M1,13h1M14,13h1M2,14h1M13,14h1"/><path stroke="#000000" opacity="0.41568627450980394" d="M14,1h1M1,14h1M14,14h1"/><path stroke="#000000" opacity="0.21176470588235294" d="M15,1h1M15,14h1M1,15h1M14,15h1"/><path stroke="#45474c" opacity="0.7411764705882353" d="M0,2h1"/><path stroke="#383a3d" opacity="0.807843137254902" d="M1,2h1"/><path stroke="#27292a" opacity="0.9372549019607843" d="M2,2h1"/><path stroke="#505153" d="M3,2h1"/><path stroke="#a8aaad" d="M4,2h1"/><path stroke="#a9abad" d="M5,2h1M3,4h1"/><path stroke="#4f5151" d="M6,2h1"/><path stroke="#141515" d="M7,2h1"/><path stroke="#040404" d="M8,2h1"/><path stroke="#323233" d="M9,2h1"/><path stroke="#949597" d="M10,2h1M11,3h1"/><path stroke="#939496" d="M11,2h1"/><path stroke="#303031" d="M12,2h1"/><path stroke="#000000" opacity="0.9372549019607843" d="M13,2h1M2,13h1M13,13h1"/><path stroke="#3a3c3f" d="M0,3h1"/><path stroke="#404245" d="M1,3h1"/><path stroke="#4e5051" d="M2,3h1"/><path stroke="#737475" d="M3,3h1"/><path stroke="#a7a8aa" d="M4,3h1"/><path stroke="#959698" d="M5,3h1"/><path stroke="#3e3f40" d="M6,3h1"/><path stroke="#191a1a" d="M7,3h1"/><path stroke="#2c2d2d" d="M8,3h1"/><path stroke="#5e5f60" d="M9,3h1M4,4h1"/><path stroke="#a5a6a8" d="M10,3h1"/><path stroke="#2e2e2e" d="M12,3h1"/><path stroke="#262728" d="M0,4h1M5,14h1"/><path stroke="#515254" d="M1,4h1"/><path stroke="#a3a4a6" d="M2,4h1"/><path stroke="#252526" d="M5,4h1"/><path stroke="#090909" d="M6,4h1M12,4h1M0,8h1"/><path stroke="#2f3030" d="M7,4h1"/><path stroke="#909192" d="M8,4h1"/><path stroke="#a1a3a4" d="M9,4h1"/><path stroke="#616163" d="M10,4h1"/><path stroke="#2b2c2c" d="M11,4h1"/><path stroke="#494a4a" d="M1,5h1"/><path stroke="#9a9c9e" d="M2,5h1"/><path stroke="#a1a3a5" d="M3,5h1"/><path stroke="#59595b" d="M4,5h1"/><path stroke="#313132" d="M5,5h1"/><path stroke="#333334" d="M6,5h1"/><path stroke="#6c6d6f" d="M7,5h1"/><path stroke="#d1d3d6" d="M8,5h1"/><path stroke="#bec0c3" d="M9,5h1"/><path stroke="#373738" d="M10,5h1"/><path stroke="#020202" d="M11,5h1"/><path stroke="#272829" d="M12,5h1"/><path stroke="#2c2d2e" d="M13,5h1"/><path stroke="#0e0f0f" d="M14,5h1"/><path stroke="#212222" d="M0,6h1"/><path stroke="#272828" d="M1,6h1"/><path stroke="#343536" d="M2,6h1"/><path stroke="#5c5d5e" d="M3,6h1"/><path stroke="#9a9b9d" d="M4,6h1"/><path stroke="#b9bbbd" d="M5,6h2"/><path stroke="#cbcdd0" d="M7,6h1"/><path stroke="#eaedf2" d="M8,6h1"/><path stroke="#b3b7bb" d="M9,6h1"/><path stroke="#303132" d="M10,6h1"/><path stroke="#222223" d="M11,6h1"/><path stroke="#86898d" d="M12,6h1"/><path stroke="#8a8d91" d="M13,6h1"/><path stroke="#2d2e2f" d="M14,6h1"/><path stroke="#1b1c1c" d="M0,7h1"/><path stroke="#0e0e0e" d="M1,7h1"/><path stroke="#353536" d="M3,7h1M3,8h1"/><path stroke="#bcbdbf" d="M4,7h1"/><path stroke="#ffffff" d="M5,7h2M5,8h1"/><path stroke="#fbfeff" d="M7,7h1"/><path stroke="#f4f8fe" d="M8,7h1"/><path stroke="#bcc0c5" d="M9,7h1"/><path stroke="#5c5e61" d="M10,7h1"/><path stroke="#606265" d="M11,7h1"/><path stroke="#c3c7cd" d="M12,7h1"/><path stroke="#b5b9be" d="M13,7h1"/><path stroke="#3a3c3d" d="M14,7h1"/><path stroke="#babcbe" d="M4,8h1"/><path stroke="#fbffff" d="M6,8h1"/><path stroke="#f5faff" d="M7,8h1"/><path stroke="#f0f5fb" d="M8,8h1"/><path stroke="#d8dde3" d="M9,8h1"/><path stroke="#b1b5bb" d="M10,8h1"/><path stroke="#b0b5bb" d="M11,8h1"/><path stroke="#d2d7df" d="M12,8h1"/><path stroke="#a6aab0" d="M13,8h1"/><path stroke="#353638" d="M14,8h1"/><path stroke="#0c0c0c" d="M1,9h1M14,10h1M1,12h1"/><path stroke="#2b2b2b" d="M2,9h1"/><path stroke="#6d6e6f" d="M3,9h1"/><path stroke="#cacccf" d="M4,9h1"/><path stroke="#e7eaee" d="M5,9h1"/><path stroke="#c3c7cb" d="M6,9h1"/><path stroke="#bec3c8" d="M7,9h1"/><path stroke="#dbe0e6" d="M8,9h1"/><path stroke="#d6dbe2" d="M9,9h1"/><path stroke="#b0b4ba" d="M10,9h1"/><path stroke="#9da1a7" d="M11,9h1"/><path stroke="#9ea2a8" d="M12,9h1"/><path stroke="#74777b" d="M13,9h1"/><path stroke="#242527" d="M14,9h1M4,14h1"/><path stroke="#2c2c2d" d="M1,10h1M1,11h1"/><path stroke="#8e8f91" d="M2,10h1M2,11h1"/><path stroke="#d2d4d7" d="M3,10h1"/><path stroke="#eaeef2" d="M4,10h1"/><path stroke="#c1c5c9" d="M5,10h1"/><path stroke="#616366" d="M6,10h1"/><path stroke="#5e6063" d="M7,10h1"/><path stroke="#b4b8be" d="M8,10h1"/><path stroke="#b4b8bf" d="M9,10h1"/><path stroke="#5b5d60" d="M10,10h1"/><path stroke="#2d2e30" d="M11,10h1"/><path stroke="#2f3132" d="M12,10h1"/><path stroke="#252627" d="M13,10h1M9,13h1"/><path stroke="#d1d4d7" d="M3,11h1"/><path stroke="#e6eaf0" d="M4,11h1"/><path stroke="#acb0b5" d="M5,11h1"/><path stroke="#303133" d="M6,11h1"/><path stroke="#1d1e1f" d="M7,11h1"/><path stroke="#73767b" d="M8,11h1"/><path stroke="#86898e" d="M9,11h1"/><path stroke="#4d4f52" d="M10,11h1"/><path stroke="#202123" d="M11,11h1"/><path stroke="#060607" d="M12,11h1"/><path stroke="#2b2b2c" d="M2,12h1"/><path stroke="#696a6d" d="M3,12h1"/><path stroke="#babec4" d="M4,12h1"/><path stroke="#a7abb1" d="M5,12h1"/><path stroke="#333436" d="M6,12h1"/><path stroke="#020303" d="M7,12h1"/><path stroke="#1f1f21" d="M8,12h1"/><path stroke="#4f5154" d="M9,12h1"/><path stroke="#888b90" d="M10,12h1"/><path stroke="#797c81" d="M11,12h1"/><path stroke="#252628" d="M12,12h1"/><path stroke="#222325" d="M3,13h1"/><path stroke="#75787d" d="M4,13h1"/><path stroke="#787a7f" d="M5,13h1"/><path stroke="#27282a" d="M6,13h1M10,14h1"/><path stroke="#7a7d82" d="M10,13h1"/><path stroke="#7b7e83" d="M11,13h1"/><path stroke="#28292b" d="M12,13h1"/><path stroke="#090a0a" d="M3,14h1"/><path stroke="#0c0d0d" d="M6,14h1"/><path stroke="#0b0b0c" d="M9,14h1"/><path stroke="#28292a" d="M11,14h1"/><path stroke="#0d0d0e" d="M12,14h1"/></svg>
