<svg xmlns="http://www.w3.org/2000/svg" shape-rendering="crispEdges" viewBox="0 -0.5 16 16" width="16" height="16"><metadata>Generated with pixel-perfect-svg https://github.com/kagof/pixel-perfect-svg</metadata><path stroke="#e8f8ff" opacity="0.043137254901960784" d="M1,1h1"/><path stroke="#d0efff" opacity="0.17254901960784313" d="M2,1h1"/><path stroke="#bbe8ff" opacity="0.24705882352941178" d="M3,1h1"/><path stroke="#99dcff" opacity="0.25098039215686274" d="M4,1h1"/><path stroke="#80d3ff" opacity="0.2549019607843137" d="M5,1h1"/><path stroke="#72ceff" opacity="0.2549019607843137" d="M6,1h1"/><path stroke="#6ccbff" opacity="0.18823529411764706" d="M7,1h1"/><path stroke="#68caff" opacity="0.054901960784313725" d="M8,1h1"/><path stroke="#8fd9ff" opacity="0.050980392156862744" d="M9,1h1"/><path stroke="#8bd7ff" opacity="0.17647058823529413" d="M10,1h1"/><path stroke="#83d4ff" opacity="0.24313725490196078" d="M11,1h1"/><path stroke="#74cfff" opacity="0.25098039215686274" d="M12,1h1"/><path stroke="#6dccff" opacity="0.24705882352941178" d="M13,1h1"/><path stroke="#6fcdff" opacity="0.23921568627450981" d="M14,1h1"/><path stroke="#70ceff" opacity="0.23529411764705882" d="M15,1h1"/><path stroke="#d8f2ff" opacity="0.1568627450980392" d="M1,2h1"/><path stroke="#cceeff" opacity="0.5529411764705883" d="M2,2h1"/><path stroke="#b9e8ff" opacity="0.7725490196078432" d="M3,2h1"/><path stroke="#99dcff" opacity="0.7764705882352941" d="M4,2h1"/><path stroke="#80d3ff" opacity="0.7843137254901961" d="M5,2h1M5,3h1"/><path stroke="#72ceff" opacity="0.788235294117647" d="M6,2h1"/><path stroke="#6ccbff" opacity="0.5725490196078431" d="M7,2h1"/><path stroke="#68caff" opacity="0.16862745098039217" d="M8,2h1"/><path stroke="#8ed8ff" opacity="0.1607843137254902" d="M9,2h1"/><path stroke="#8ad7ff" opacity="0.5568627450980392" d="M10,2h1"/><path stroke="#82d4ff" opacity="0.7725490196078432" d="M11,2h1"/><path stroke="#74cfff" opacity="0.7764705882352941" d="M12,2h1"/><path stroke="#6dccff" opacity="0.7647058823529411" d="M13,2h1"/><path stroke="#6eccff" opacity="0.7529411764705882" d="M14,2h1"/><path stroke="#6ecdff" opacity="0.7450980392156863" d="M15,2h1"/><path stroke="#64c9ff" opacity="0.23137254901960785" d="M0,3h1"/><path stroke="#94daff" opacity="0.4392156862745098" d="M1,3h1"/><path stroke="#ade3ff" opacity="0.8352941176470589" d="M2,3h1"/><path stroke="#aae2ff" opacity="0.984313725490196" d="M3,3h1"/><path stroke="#95dbff" opacity="0.8509803921568627" d="M4,3h1"/><path stroke="#73ceff" opacity="0.7843137254901961" d="M6,3h1"/><path stroke="#6cccff" opacity="0.5686274509803921" d="M7,3h1"/><path stroke="#69cbff" opacity="0.1607843137254902" d="M8,3h1"/><path stroke="#85d5ff" opacity="0.23137254901960785" d="M9,3h1"/><path stroke="#83d4ff" opacity="0.7725490196078432" d="M10,3h1"/><path stroke="#7ed3ff" opacity="0.984313725490196" d="M11,3h1"/><path stroke="#74cfff" opacity="0.8509803921568627" d="M12,3h1"/><path stroke="#69cafd" opacity="0.8392156862745098" d="M13,3h1"/><path stroke="#65c7fa" opacity="0.9647058823529412" d="M14,3h1"/><path stroke="#63c6f8" d="M15,3h1"/><path stroke="#6cccff" opacity="0.7764705882352941" d="M0,4h1"/><path stroke="#74cfff" opacity="0.8470588235294118" d="M1,4h1"/><path stroke="#80d3ff" opacity="0.9725490196078431" d="M2,4h1"/><path stroke="#85d5ff" opacity="0.8392156862745098" d="M3,4h1"/><path stroke="#87d6ff" opacity="0.44313725490196076" d="M4,4h1"/><path stroke="#83d4ff" opacity="0.23529411764705882" d="M5,4h1"/><path stroke="#77d0ff" opacity="0.23137254901960785" d="M6,4h1"/><path stroke="#70ceff" opacity="0.1607843137254902" d="M7,4h1"/><path stroke="#6ccdff" opacity="0.03137254901960784" d="M8,4h1"/><path stroke="#75cfff" opacity="0.25098039215686274" d="M9,4h1"/><path stroke="#75cfff" opacity="0.7843137254901961" d="M10,4h1"/><path stroke="#75cfff" opacity="0.8431372549019608" d="M11,4h1"/><path stroke="#73cfff" opacity="0.43529411764705883" d="M12,4h1"/><path stroke="#59c0f3" opacity="0.43137254901960786" d="M13,4h1"/><path stroke="#4fbaec" opacity="0.8235294117647058" d="M14,4h1"/><path stroke="#4db9ea" d="M15,4h1"/><path stroke="#6ecdff" opacity="0.7607843137254902" d="M0,5h1"/><path stroke="#6acafd" opacity="0.8352941176470589" d="M1,5h1"/><path stroke="#63c6fa" opacity="0.9647058823529412" d="M2,5h1"/><path stroke="#60c5f8" opacity="0.7568627450980392" d="M3,5h1"/><path stroke="#5dc4f8" opacity="0.2196078431372549" d="M4,5h1"/><path stroke="#005992" opacity="0.01568627450980392" d="M5,5h1"/><path stroke="#38acdd" opacity="0.14901960784313725" d="M6,5h1"/><path stroke="#3baedf" opacity="0.1568627450980392" d="M7,5h1"/><path stroke="#25a0d0" opacity="0.03137254901960784" d="M8,5h1"/><path stroke="#63c6f9" opacity="0.25098039215686274" d="M9,5h1"/><path stroke="#62c6f9" opacity="0.7803921568627451" d="M10,5h1"/><path stroke="#63c6f9" opacity="0.7607843137254902" d="M11,5h1"/><path stroke="#66c7fb" opacity="0.21568627450980393" d="M12,5h1"/><path stroke="#30acda" opacity="0.21176470588235294" d="M13,5h1"/><path stroke="#38b0df" opacity="0.7450980392156863" d="M14,5h1"/><path stroke="#39b1e0" d="M15,5h1"/><path stroke="#77d2ff" opacity="0.20784313725490197" d="M0,6h1"/><path stroke="#5bc1f4" opacity="0.42745098039215684" d="M1,6h1"/><path stroke="#4db9eb" opacity="0.8313725490196079" d="M2,6h1"/><path stroke="#4ab8ea" opacity="0.7607843137254902" d="M3,6h1"/><path stroke="#47b6e9" opacity="0.2235294117647059" d="M4,6h1"/><path stroke="#3aaee0" opacity="0.1568627450980392" d="M5,6h1"/><path stroke="#40b1e2" opacity="0.5647058823529412" d="M6,6h1"/><path stroke="#41b1e3" opacity="0.5686274509803921" d="M7,6h1"/><path stroke="#40b1e2" opacity="0.16862745098039217" d="M8,6h1"/><path stroke="#4db9eb" opacity="0.23921568627450981" d="M9,6h1"/><path stroke="#4cb8ea" opacity="0.7725490196078432" d="M10,6h1"/><path stroke="#4cb8ea" opacity="0.7647058823529411" d="M11,6h1"/><path stroke="#4eb8eb" opacity="0.2196078431372549" d="M12,6h1"/><path stroke="#23add6" opacity="0.2196078431372549" d="M13,6h1"/><path stroke="#29afd9" opacity="0.7450980392156863" d="M14,6h1"/><path stroke="#2aafd9" d="M15,6h1"/><path stroke="#3cafe0" opacity="0.20784313725490197" d="M0,7h1"/><path stroke="#3fb1e2" opacity="0.42745098039215684" d="M1,7h1"/><path stroke="#40b1e2" opacity="0.8313725490196079" d="M2,7h1"/><path stroke="#41b1e3" opacity="0.7568627450980392" d="M3,7h1"/><path stroke="#43b2e3" opacity="0.21568627450980393" d="M4,7h1"/><path stroke="#3ab2e1" opacity="0.22745098039215686" d="M5,7h1"/><path stroke="#3ab2e0" opacity="0.7803921568627451" d="M6,7h1"/><path stroke="#3ab2e0" opacity="0.7843137254901961" d="M7,7h1"/><path stroke="#3ab2e0" opacity="0.23921568627450981" d="M8,7h1"/><path stroke="#39b0df" opacity="0.23137254901960785" d="M9,7h1"/><path stroke="#39b0df" opacity="0.7686274509803922" d="M10,7h1"/><path stroke="#39b1e0" opacity="0.7647058823529411" d="M11,7h1"/><path stroke="#3bb3e3" opacity="0.2196078431372549" d="M12,7h1"/><path stroke="#24a6ce" opacity="0.2196078431372549" d="M13,7h1"/><path stroke="#26a6ce" opacity="0.7450980392156863" d="M14,7h1"/><path stroke="#26a6ce" d="M15,7h1"/><path stroke="#40b1e2" opacity="0.7607843137254902" d="M0,8h1"/><path stroke="#40b2e3" opacity="0.8352941176470589" d="M1,8h1"/><path stroke="#41b2e3" opacity="0.9647058823529412" d="M2,8h1"/><path stroke="#42b2e3" opacity="0.7450980392156863" d="M3,8h1"/><path stroke="#46b2e5" opacity="0.20392156862745098" d="M4,8h1"/><path stroke="#29b0d9" opacity="0.2196078431372549" d="M5,8h1"/><path stroke="#2bb0da" opacity="0.7725490196078432" d="M6,8h1"/><path stroke="#2bb0da" opacity="0.7803921568627451" d="M7,8h1"/><path stroke="#2bb0da" opacity="0.23529411764705882" d="M8,8h1"/><path stroke="#2aaed9" opacity="0.23137254901960785" d="M9,8h1"/><path stroke="#2aafd9" opacity="0.7686274509803922" d="M10,8h1"/><path stroke="#2aafd9" opacity="0.7607843137254902" d="M11,8h1"/><path stroke="#29b4de" opacity="0.21568627450980393" d="M12,8h1"/><path stroke="#2d94bd" opacity="0.21176470588235294" d="M13,8h1"/><path stroke="#2d95bf" opacity="0.7450980392156863" d="M14,8h1"/><path stroke="#2d96bf" d="M15,8h1"/><path stroke="#41b2e3" opacity="0.7764705882352941" d="M0,9h1"/><path stroke="#3fb2e2" opacity="0.8431372549019608" d="M1,9h1"/><path stroke="#3bb2e1" opacity="0.9607843137254902" d="M2,9h1"/><path stroke="#38b2e1" opacity="0.8117647058823529" d="M3,9h1"/><path stroke="#30b3df" opacity="0.4117647058823529" d="M4,9h1"/><path stroke="#24abd3" opacity="0.4196078431372549" d="M5,9h1"/><path stroke="#26a7d0" opacity="0.8274509803921568" d="M6,9h1"/><path stroke="#26a6cf" opacity="0.7607843137254902" d="M7,9h1"/><path stroke="#27a6ce" opacity="0.22745098039215686" d="M8,9h1"/><path stroke="#23b0d8" opacity="0.22745098039215686" d="M9,9h1"/><path stroke="#23afd7" opacity="0.7607843137254902" d="M10,9h1"/><path stroke="#24add5" opacity="0.8274509803921568" d="M11,9h1"/><path stroke="#28a3cc" opacity="0.4196078431372549" d="M12,9h1"/><path stroke="#328db8" opacity="0.41568627450980394" d="M13,9h1"/><path stroke="#318db8" opacity="0.8117647058823529" d="M14,9h1"/><path stroke="#318eb8" d="M15,9h1"/><path stroke="#44b2e4" opacity="0.23137254901960785" d="M0,10h1"/><path stroke="#35b1df" opacity="0.43529411764705883" d="M1,10h1"/><path stroke="#2db1dc" opacity="0.8196078431372549" d="M2,10h1"/><path stroke="#29b1db" opacity="0.9568627450980393" d="M3,10h1"/><path stroke="#25b1da" opacity="0.8235294117647058" d="M4,10h1"/><path stroke="#26a8d1" opacity="0.8274509803921568" d="M5,10h1"/><path stroke="#2b9bc5" opacity="0.9607843137254902" d="M6,10h1"/><path stroke="#2e95bf" opacity="0.7490196078431373" d="M7,10h1"/><path stroke="#2f93bc" opacity="0.2196078431372549" d="M8,10h1"/><path stroke="#21b4dc" opacity="0.2196078431372549" d="M9,10h1"/><path stroke="#23b1d9" opacity="0.7490196078431373" d="M10,10h1"/><path stroke="#26a9d2" opacity="0.9607843137254902" d="M11,10h1"/><path stroke="#2d99c3" opacity="0.8274509803921568" d="M12,10h1"/><path stroke="#318eb8" opacity="0.8156862745098039" d="M13,10h1"/><path stroke="#318eb8" opacity="0.9411764705882353" d="M14,10h1"/><path stroke="#318eb9" d="M15,10h1"/><path stroke="#269bc0" opacity="0.2196078431372549" d="M1,11h1"/><path stroke="#289dc2" opacity="0.7529411764705882" d="M2,11h1"/><path stroke="#289dc3" d="M3,11h1"/><path stroke="#289ec4" d="M4,11h1"/><path stroke="#2b97bd" d="M5,11h1"/><path stroke="#308ab1" d="M6,11h1"/><path stroke="#3383aa" opacity="0.7529411764705882" d="M7,11h1"/><path stroke="#3480a8" opacity="0.2196078431372549" d="M8,11h1"/><path stroke="#27a1c7" opacity="0.2196078431372549" d="M9,11h1"/><path stroke="#289ec4" opacity="0.7529411764705882" d="M10,11h1"/><path stroke="#2b97be" d="M11,11h1"/><path stroke="#308bb2" d="M12,11h1"/><path stroke="#3285ac" d="M13,11h3"/><path stroke="#317898" opacity="0.23137254901960785" d="M1,12h1"/><path stroke="#317a9b" opacity="0.7607843137254902" d="M2,12h1"/><path stroke="#317b9c" d="M3,12h1"/><path stroke="#317c9d" d="M4,12h1"/><path stroke="#32799b" d="M5,12h1"/><path stroke="#347596" d="M6,12h1"/><path stroke="#357294" opacity="0.7607843137254902" d="M7,12h1"/><path stroke="#367193" opacity="0.2235294117647059" d="M8,12h1"/><path stroke="#317c9d" opacity="0.2235294117647059" d="M9,12h1"/><path stroke="#327b9c" opacity="0.7607843137254902" d="M10,12h1"/><path stroke="#32799a" d="M11,12h1"/><path stroke="#347597" d="M12,12h1"/><path stroke="#357395" d="M13,12h3"/><path stroke="#376988" opacity="0.17647058823529413" d="M1,13h1"/><path stroke="#376988" opacity="0.5607843137254902" d="M2,13h1"/><path stroke="#376988" opacity="0.7647058823529411" d="M3,13h1"/><path stroke="#376988" opacity="0.7568627450980392" d="M4,13h1"/><path stroke="#366988" opacity="0.7568627450980392" d="M5,13h1"/><path stroke="#366a88" opacity="0.7647058823529411" d="M6,13h1"/><path stroke="#366a89" opacity="0.5568627450980392" d="M7,13h1"/><path stroke="#366a89" opacity="0.16470588235294117" d="M8,13h1"/><path stroke="#376987" opacity="0.16470588235294117" d="M9,13h1"/><path stroke="#376988" opacity="0.5568627450980392" d="M10,13h1"/><path stroke="#366988" opacity="0.7647058823529411" d="M11,13h1"/><path stroke="#366a88" opacity="0.7568627450980392" d="M12,13h1"/><path stroke="#366a89" opacity="0.7490196078431373" d="M13,13h3"/><path stroke="#376785" opacity="0.054901960784313725" d="M1,14h1"/><path stroke="#376785" opacity="0.17647058823529413" d="M2,14h1M10,14h1"/><path stroke="#376785" opacity="0.24313725490196078" d="M3,14h1"/><path stroke="#376785" opacity="0.23921568627450981" d="M4,14h1"/><path stroke="#376786" opacity="0.23921568627450981" d="M5,14h1"/><path stroke="#366887" opacity="0.24313725490196078" d="M6,14h1"/><path stroke="#366987" opacity="0.17647058823529413" d="M7,14h1"/><path stroke="#366988" opacity="0.050980392156862744" d="M8,14h1"/><path stroke="#376785" opacity="0.050980392156862744" d="M9,14h1"/><path stroke="#376786" opacity="0.24313725490196078" d="M11,14h1"/><path stroke="#376887" opacity="0.23921568627450981" d="M12,14h1"/><path stroke="#366987" opacity="0.23529411764705882" d="M13,14h3"/></svg>
