<svg xmlns="http://www.w3.org/2000/svg" shape-rendering="crispEdges" viewBox="0 -0.5 16 16" width="16" height="16"><metadata>Generated with pixel-perfect-svg https://github.com/kagof/pixel-perfect-svg</metadata><path stroke="#c6ecff" d="M2,2h2M2,3h2"/><path stroke="#88d6ff" d="M4,2h2M10,2h2M4,3h2M10,3h2"/><path stroke="#6dccff" d="M6,2h2M12,2h4M6,3h2M12,3h4M0,4h4M10,4h2M0,5h4M10,5h2"/><path stroke="#41b2e3" d="M14,4h2M14,5h2M2,6h2M6,6h2M10,6h2M2,7h2M6,7h2M10,7h2M0,8h4M0,9h4"/><path stroke="#24aed6" d="M14,6h2M14,7h2M6,8h2M10,8h2M6,9h2M10,9h2M2,10h4M10,10h2M2,11h4M10,11h2"/><path stroke="#318eb8" d="M14,8h2M14,9h2M6,10h2M12,10h4M6,11h2M12,11h4"/><path stroke="#366b8a" d="M2,12h6M10,12h6M2,13h6M10,13h6"/></svg>
