<svg xmlns="http://www.w3.org/2000/svg" shape-rendering="crispEdges" viewBox="0 -0.5 16 16" width="16" height="16"><metadata>Generated with pixel-perfect-svg https://github.com/kagof/pixel-perfect-svg</metadata><path stroke="#55b1f1" d="M2,0h2M2,1h2M0,2h2M0,3h2"/><path stroke="#4097ea" d="M6,0h2M6,1h2M2,2h6M2,3h6M0,4h4M0,5h4M0,6h2M0,7h2"/><path stroke="#1476c0" d="M10,0h2M14,0h2M10,1h2M14,1h2M8,2h8M8,3h8M6,4h4M12,4h4M6,5h4M12,5h4M2,6h2M6,6h4M12,6h4M2,7h2M6,7h4M12,7h4M0,8h14M0,9h14M0,10h2M4,10h2M8,10h2M0,11h2M4,11h2M8,11h2M0,12h4M6,12h2M0,13h4M6,13h2M2,14h6M2,15h6"/><path stroke="#bac7db" d="M4,4h2M10,4h2M4,5h2M10,5h2M4,12h2M8,12h2M12,12h2M4,13h2M8,13h2M12,13h2"/><path stroke="#ebf0f6" d="M4,6h2M10,6h2M4,7h2M10,7h2M2,10h2M6,10h2M10,10h2M2,11h2M6,11h2M10,11h2"/><path stroke="#105da2" d="M14,8h2M14,9h2M12,10h4M12,11h4M10,12h2M10,13h2M8,14h4M8,15h4"/><path stroke="#07487c" d="M14,12h2M14,13h2M12,14h2M12,15h2"/></svg>
