<svg xmlns="http://www.w3.org/2000/svg" shape-rendering="crispEdges" viewBox="0 -0.5 16 16" width="16" height="16"><metadata>Generated with pixel-perfect-svg https://github.com/kagof/pixel-perfect-svg</metadata><path stroke="#56b2f1" opacity="0.22745098039215686" d="M1,0h1"/><path stroke="#56b2f1" opacity="0.7647058823529411" d="M2,0h1"/><path stroke="#56b3f1" opacity="0.7607843137254902" d="M3,0h1"/><path stroke="#5bb8f3" opacity="0.20784313725490197" d="M4,0h1"/><path stroke="#3d94e9" opacity="0.20784313725490197" d="M5,0h1"/><path stroke="#4096ea" opacity="0.7607843137254902" d="M6,0h1"/><path stroke="#4198eb" opacity="0.7607843137254902" d="M7,0h1"/><path stroke="#4a9ff4" opacity="0.20784313725490197" d="M8,0h1"/><path stroke="#0f72bb" opacity="0.20784313725490197" d="M9,0h1"/><path stroke="#1375bf" opacity="0.7607843137254902" d="M10,0h1"/><path stroke="#1476c0" opacity="0.7607843137254902" d="M11,0h1"/><path stroke="#1476c0" opacity="0.20784313725490197" d="M12,0h1"/><path stroke="#1476c0" opacity="0.20392156862745098" d="M13,0h1"/><path stroke="#1476c0" opacity="0.7411764705882353" d="M14,0h1M0,13h1M2,15h1"/><path stroke="#1476c0" d="M15,0h1M15,1h1M15,2h1M15,3h1M15,4h1M15,5h1"/><path stroke="#57b4f2" opacity="0.21176470588235294" d="M0,1h1"/><path stroke="#53aef0" opacity="0.42745098039215684" d="M1,1h1"/><path stroke="#51acf0" opacity="0.8235294117647058" d="M2,1h1"/><path stroke="#4fa9ef" opacity="0.8235294117647058" d="M3,1h1"/><path stroke="#46a2ee" opacity="0.4117647058823529" d="M4,1h1"/><path stroke="#3d95eb" opacity="0.4117647058823529" d="M5,1h1"/><path stroke="#4097eb" opacity="0.8235294117647058" d="M6,1h1"/><path stroke="#3e96e8" opacity="0.8235294117647058" d="M7,1h1"/><path stroke="#2f8bda" opacity="0.4117647058823529" d="M8,1h1"/><path stroke="#1073bd" opacity="0.4117647058823529" d="M9,1h1"/><path stroke="#1174bf" opacity="0.8235294117647058" d="M10,1h1"/><path stroke="#1275c0" opacity="0.8235294117647058" d="M11,1h1"/><path stroke="#1375c0" opacity="0.4117647058823529" d="M12,1h1"/><path stroke="#1476c0" opacity="0.4117647058823529" d="M13,1h1"/><path stroke="#1476c0" opacity="0.807843137254902" d="M14,1h1"/><path stroke="#56b3f1" opacity="0.7411764705882353" d="M0,2h1"/><path stroke="#51acf0" opacity="0.8117647058823529" d="M1,2h1"/><path stroke="#49a2ed" opacity="0.9411764705882353" d="M2,2h1"/><path stroke="#439ceb" opacity="0.9411764705882353" d="M3,2h1"/><path stroke="#3f98eb" opacity="0.807843137254902" d="M4,2h1"/><path stroke="#3e96eb" opacity="0.807843137254902" d="M5,2h1"/><path stroke="#4198ec" opacity="0.9411764705882353" d="M6,2h1"/><path stroke="#3991e3" opacity="0.9411764705882353" d="M7,2h1"/><path stroke="#2280cd" opacity="0.807843137254902" d="M8,2h1"/><path stroke="#1174bf" opacity="0.807843137254902" d="M9,2h1"/><path stroke="#1074bf" opacity="0.9411764705882353" d="M10,2h1"/><path stroke="#1174bf" opacity="0.9411764705882353" d="M11,2h1"/><path stroke="#1375c0" opacity="0.807843137254902" d="M12,2h1"/><path stroke="#1476c0" opacity="0.803921568627451" d="M13,2h1"/><path stroke="#1476c0" opacity="0.9372549019607843" d="M14,2h1"/><path stroke="#51abef" d="M0,3h1"/><path stroke="#4ca6ee" d="M1,3h1"/><path stroke="#449cec" d="M2,3h1"/><path stroke="#4799e9" d="M3,3h1"/><path stroke="#569fe7" d="M4,3h1"/><path stroke="#549ee5" d="M5,3h1"/><path stroke="#4094e2" d="M6,3h1"/><path stroke="#2c88d8" d="M7,3h1"/><path stroke="#1a7bc7" d="M8,3h1M1,8h1"/><path stroke="#1d7ac1" d="M9,3h1"/><path stroke="#3284c4" d="M10,3h1"/><path stroke="#3385c5" d="M11,3h1M9,4h1M4,14h2"/><path stroke="#1e7bc2" d="M12,3h1"/><path stroke="#1376c0" d="M13,3h2"/><path stroke="#459eec" d="M0,4h1"/><path stroke="#439cec" d="M1,4h1"/><path stroke="#4098eb" d="M2,4h1"/><path stroke="#58a1e8" d="M3,4h1"/><path stroke="#88b3e2" d="M4,4h1"/><path stroke="#7fadd9" d="M5,4h1"/><path stroke="#3e8dcf" d="M6,4h1"/><path stroke="#177ac7" d="M7,4h1"/><path stroke="#1276c2" d="M8,4h1"/><path stroke="#75a5cf" d="M10,4h2"/><path stroke="#3485c5" d="M12,4h1"/><path stroke="#1175c0" d="M13,4h1M14,5h1M14,6h1"/><path stroke="#1275c0" d="M14,4h1M0,12h1"/><path stroke="#4097eb" d="M0,5h1"/><path stroke="#3b94e8" d="M1,5h1"/><path stroke="#358fe2" d="M2,5h1"/><path stroke="#5ca1e1" d="M3,5h1"/><path stroke="#acc5e2" d="M4,5h1"/><path stroke="#a3bfda" d="M5,5h1"/><path stroke="#428dc7" d="M6,5h1"/><path stroke="#0c72be" d="M7,5h1"/><path stroke="#0d72be" d="M8,5h1M8,7h1"/><path stroke="#438ec9" d="M9,5h1M12,5h1"/><path stroke="#a5c0db" d="M10,5h2"/><path stroke="#1074bf" d="M13,5h1M4,15h1"/><path stroke="#4298ec" d="M0,6h1"/><path stroke="#3690e3" d="M1,6h1"/><path stroke="#2382d2" d="M2,6h1"/><path stroke="#5199d3" d="M3,6h1"/><path stroke="#bad2e8" d="M4,6h1"/><path stroke="#b8d0e6" d="M5,6h1"/><path stroke="#4993cc" d="M6,6h1"/><path stroke="#0b71be" d="M7,6h1M7,7h1"/><path stroke="#0c71be" d="M8,6h1"/><path stroke="#4a94cd" d="M9,6h1M12,6h1"/><path stroke="#b9d1e6" d="M10,6h2"/><path stroke="#0f73bf" d="M13,6h1M0,11h1"/><path stroke="#1477c1" d="M15,6h1"/><path stroke="#3790e1" d="M0,7h1"/><path stroke="#2a87d7" d="M1,7h1"/><path stroke="#1578c6" d="M2,7h1"/><path stroke="#3a8bc9" d="M3,7h1M11,9h1"/><path stroke="#93bee0" d="M4,7h1M3,10h1M6,10h1"/><path stroke="#94bfe0" d="M5,7h1M7,10h1M2,11h1"/><path stroke="#3c8dca" d="M6,7h1M4,8h2M3,9h1M6,9h1"/><path stroke="#3d8eca" d="M9,7h1"/><path stroke="#92bee0" d="M10,7h2"/><path stroke="#3d8ecb" d="M12,7h1"/><path stroke="#1073be" d="M13,7h1"/><path stroke="#1170ba" d="M14,7h1"/><path stroke="#1370b9" d="M15,7h1"/><path stroke="#1f7ecb" d="M0,8h1"/><path stroke="#1175c1" d="M2,8h1"/><path stroke="#1d7bc2" d="M3,8h1"/><path stroke="#1e7cc2" d="M6,8h1"/><path stroke="#0e73bf" d="M7,8h1"/><path stroke="#1174bf" d="M8,8h1M0,9h1"/><path stroke="#207dc3" d="M9,8h1M1,12h1"/><path stroke="#398bca" d="M10,8h1"/><path stroke="#398cca" d="M11,8h1"/><path stroke="#207ec4" d="M12,8h1"/><path stroke="#1271bb" d="M13,8h1"/><path stroke="#1167af" d="M14,8h1"/><path stroke="#1162a9" d="M15,8h1"/><path stroke="#217dc3" d="M1,9h1"/><path stroke="#3e8eca" d="M2,9h1M1,10h1"/><path stroke="#1b7ac2" d="M4,9h2M6,14h1"/><path stroke="#3e8ecb" d="M7,9h1"/><path stroke="#1f7cc3" d="M8,9h1"/><path stroke="#1e7cc3" d="M9,9h1"/><path stroke="#3a8cca" d="M10,9h1"/><path stroke="#1e78be" d="M12,9h1"/><path stroke="#0f69b2" d="M13,9h1"/><path stroke="#0f60a7" d="M14,9h1"/><path stroke="#105ca1" d="M15,9h1"/><path stroke="#0e73be" d="M0,10h1"/><path stroke="#96c0e0" d="M2,10h1"/><path stroke="#3689c9" d="M4,10h2"/><path stroke="#388bc9" d="M8,10h1"/><path stroke="#378bca" d="M9,10h1"/><path stroke="#92bee1" d="M10,10h1"/><path stroke="#93bbdb" d="M11,10h1"/><path stroke="#397eb9" d="M12,10h1"/><path stroke="#0a5da5" d="M13,10h1"/><path stroke="#0d5ca3" d="M14,10h1"/><path stroke="#105da2" d="M15,10h1"/><path stroke="#3d8dca" d="M1,11h1"/><path stroke="#a0c5e2" d="M3,11h1"/><path stroke="#5c9ccf" d="M4,11h2"/><path stroke="#9fc4e2" d="M6,11h2"/><path stroke="#5c9dd0" d="M8,11h1M6,12h1"/><path stroke="#5c9bce" d="M9,11h1"/><path stroke="#9ec0dd" d="M10,11h1"/><path stroke="#a0bcd8" d="M11,11h1"/><path stroke="#5d8fbe" d="M12,11h1"/><path stroke="#2d6ea9" d="M13,11h1"/><path stroke="#175e9d" d="M14,11h1"/><path stroke="#0c5798" d="M15,11h1M11,15h1"/><path stroke="#3b8cca" d="M2,12h1"/><path stroke="#609ed0" d="M3,12h1"/><path stroke="#86afd4" d="M4,12h1"/><path stroke="#84aed3" d="M5,12h1"/><path stroke="#5d9dd0" d="M7,12h1"/><path stroke="#85afd5" d="M8,12h1"/><path stroke="#84aace" d="M9,12h1"/><path stroke="#5a8ebe" d="M10,12h1"/><path stroke="#5b8ebd" d="M11,12h1"/><path stroke="#85a7cb" d="M12,12h1"/><path stroke="#7398bd" d="M13,12h1"/><path stroke="#2b6596" d="M14,12h1"/><path stroke="#054a83" d="M15,12h1M12,15h1"/><path stroke="#1074bf" opacity="0.807843137254902" d="M1,13h1M2,14h1"/><path stroke="#0d72be" opacity="0.9372549019607843" d="M2,13h1"/><path stroke="#3184c4" d="M3,13h1"/><path stroke="#77a6d0" d="M4,13h1"/><path stroke="#75a5d0" d="M5,13h1"/><path stroke="#2e83c4" d="M6,13h1"/><path stroke="#2e81c2" d="M7,13h1"/><path stroke="#74a1ca" d="M8,13h1"/><path stroke="#739ac2" d="M9,13h1"/><path stroke="#2b6daa" d="M10,13h1"/><path stroke="#2a6ca9" d="M11,13h1"/><path stroke="#7197bc" d="M12,13h1"/><path stroke="#7898b6" opacity="0.9372549019607843" d="M13,13h1"/><path stroke="#316591" opacity="0.807843137254902" d="M14,13h1M13,14h1"/><path stroke="#014378" opacity="0.7411764705882353" d="M15,13h1M13,15h1"/><path stroke="#1476c0" opacity="0.21176470588235294" d="M0,14h1M1,15h1"/><path stroke="#1174bf" opacity="0.41568627450980394" d="M1,14h1"/><path stroke="#1c7ac1" d="M3,14h1"/><path stroke="#1b75bc" d="M7,14h1"/><path stroke="#3177b4" d="M8,14h1"/><path stroke="#3070ac" d="M9,14h1"/><path stroke="#1861a5" d="M10,14h1"/><path stroke="#165d9d" d="M11,14h1"/><path stroke="#2a6496" d="M12,14h1"/><path stroke="#215a88" opacity="0.41568627450980394" d="M14,14h1"/><path stroke="#004276" opacity="0.21176470588235294" d="M15,14h1M14,15h1"/><path stroke="#1375c0" d="M3,15h1"/><path stroke="#1074c0" d="M5,15h1"/><path stroke="#1376c1" d="M6,15h1"/><path stroke="#126fb8" d="M7,15h1"/><path stroke="#0d61a8" d="M8,15h1"/><path stroke="#0c5aa1" d="M9,15h1"/><path stroke="#0f5ca2" d="M10,15h1"/></svg>
