<svg xmlns="http://www.w3.org/2000/svg" shape-rendering="crispEdges" viewBox="0 -0.5 16 16" width="16" height="16"><metadata>Generated with pixel-perfect-svg https://github.com/kagof/pixel-perfect-svg</metadata><path stroke="#ff9fad" opacity="0.21568627450980393" d="M3,0h1"/><path stroke="#ff9dab" opacity="0.7490196078431373" d="M4,0h1"/><path stroke="#ff949d" d="M5,0h1"/><path stroke="#ff8183" d="M6,0h1"/><path stroke="#fe7078" d="M7,0h1"/><path stroke="#fb637e" d="M8,0h1"/><path stroke="#f45d79" d="M9,0h1"/><path stroke="#ea5d68" d="M10,0h1"/><path stroke="#e55d60" opacity="0.7490196078431373" d="M11,0h1"/><path stroke="#e96163" opacity="0.21568627450980393" d="M12,0h1"/><path stroke="#ff8aec" opacity="0.03529411764705882" d="M1,1h1"/><path stroke="#ff99b4" opacity="0.1568627450980392" d="M2,1h1"/><path stroke="#ff96a6" opacity="0.42745098039215684" d="M3,1h1"/><path stroke="#ff949f" opacity="0.8196078431372549" d="M4,1h1"/><path stroke="#fe8a92" d="M5,1h1"/><path stroke="#fa797b" d="M6,1h1"/><path stroke="#f76972" d="M7,1h1"/><path stroke="#f35e78" d="M8,1h1"/><path stroke="#ea5771" d="M9,1h1"/><path stroke="#de555e" d="M10,1h1"/><path stroke="#d55251" opacity="0.8352941176470589" d="M11,1h1"/><path stroke="#c84945" opacity="0.4392156862745098" d="M12,1h1"/><path stroke="#b13931" opacity="0.16862745098039217" d="M13,1h1"/><path stroke="#ab352b" opacity="0.047058823529411764" d="M14,1h1"/><path stroke="#ff96c1" opacity="0.1568627450980392" d="M1,2h1"/><path stroke="#ff9bae" opacity="0.5490196078431373" d="M2,2h1"/><path stroke="#ff93a0" opacity="0.8274509803921568" d="M3,2h1"/><path stroke="#ff858c" opacity="0.9490196078431372" d="M4,2h1"/><path stroke="#fb787b" d="M5,2h1"/><path stroke="#f06a6c" d="M6,2h1"/><path stroke="#e85d67" d="M7,2h1"/><path stroke="#e3536d" d="M8,2h1"/><path stroke="#d94c63" d="M9,2h1"/><path stroke="#c9464b" d="M10,2h1"/><path stroke="#be423c" opacity="0.9725490196078431" d="M11,2h1"/><path stroke="#b93e37" opacity="0.8509803921568627" d="M12,2h1"/><path stroke="#b63c35" opacity="0.5686274509803921" d="M13,2h1"/><path stroke="#b53b34" opacity="0.17647058823529413" d="M14,2h1"/><path stroke="#ffd700" opacity="0.21568627450980393" d="M0,3h1"/><path stroke="#ffb856" opacity="0.42745098039215684" d="M1,3h1"/><path stroke="#ffa88a" opacity="0.8274509803921568" d="M2,3h1"/><path stroke="#fe988a" d="M3,3h1"/><path stroke="#fa8173" d="M4,3h1"/><path stroke="#f47064" opacity="0.9529411764705882" d="M5,3h1"/><path stroke="#e96360" opacity="0.8196078431372549" d="M6,3h1"/><path stroke="#e15661" opacity="0.7490196078431373" d="M7,3h1"/><path stroke="#dd4c65" opacity="0.7450980392156863" d="M8,3h1"/><path stroke="#d24359" opacity="0.7450980392156863" d="M9,3h1"/><path stroke="#bf3c3d" opacity="0.7450980392156863" d="M10,3h1"/><path stroke="#b6392f" opacity="0.7607843137254902" d="M11,3h1"/><path stroke="#b73a30" opacity="0.7803921568627451" d="M12,3h1"/><path stroke="#b83a32" opacity="0.5725490196078431" d="M13,3h1"/><path stroke="#b83a32" opacity="0.1803921568627451" d="M14,3h1"/><path stroke="#ffd100" opacity="0.7490196078431373" d="M0,4h1"/><path stroke="#ffc920" opacity="0.8196078431372549" d="M1,4h1"/><path stroke="#ffbb53" opacity="0.9490196078431372" d="M2,4h1"/><path stroke="#faa461" d="M3,4h1"/><path stroke="#ef8553" d="M4,4h1"/><path stroke="#e8734d" opacity="0.8352941176470589" d="M5,4h1"/><path stroke="#e66953" opacity="0.43137254901960786" d="M6,4h1"/><path stroke="#e35160" opacity="0.21568627450980393" d="M7,4h1"/><path stroke="#e7425e" opacity="0.21176470588235294" d="M8,4h1"/><path stroke="#de394c" opacity="0.21568627450980393" d="M9,4h1"/><path stroke="#c9302d" opacity="0.21568627450980393" d="M10,4h1"/><path stroke="#bf2e1f" opacity="0.2235294117647059" d="M11,4h1"/><path stroke="#c13121" opacity="0.23529411764705882" d="M12,4h1"/><path stroke="#c23323" opacity="0.17254901960784313" d="M13,4h1"/><path stroke="#c23323" opacity="0.054901960784313725" d="M14,4h1"/><path stroke="#ffcb16" d="M0,5h1"/><path stroke="#ffc81f" d="M1,5h1"/><path stroke="#ffc031" d="M2,5h1"/><path stroke="#f9ac3c" opacity="0.9529411764705882" d="M3,5h1"/><path stroke="#ea8b3e" opacity="0.8352941176470589" d="M4,5h1"/><path stroke="#e2753d" opacity="0.5607843137254902" d="M5,5h1"/><path stroke="#e57335" opacity="0.1568627450980392" d="M6,5h1"/><path stroke="#00ffff" opacity="0.01568627450980392" d="M7,5h1"/><path stroke="#1dc9ff" opacity="0.14901960784313725" d="M8,5h1"/><path stroke="#34c1f4" opacity="0.2235294117647059" d="M9,5h1"/><path stroke="#36c3f6" opacity="0.2196078431372549" d="M10,5h1"/><path stroke="#37bbfa" opacity="0.2196078431372549" d="M11,5h1"/><path stroke="#37abfe" opacity="0.2235294117647059" d="M12,5h1"/><path stroke="#36a3ff" opacity="0.1607843137254902" d="M13,5h1"/><path stroke="#38a6ff" opacity="0.0392156862745098" d="M14,5h1"/><path stroke="#ffc13e" d="M0,6h1"/><path stroke="#ffbe34" d="M1,6h1"/><path stroke="#ffb820" d="M2,6h1"/><path stroke="#fdb018" opacity="0.8196078431372549" d="M3,6h1"/><path stroke="#f29a26" opacity="0.43137254901960786" d="M4,6h1"/><path stroke="#e86b35" opacity="0.14901960784313725" d="M5,6h1"/><path stroke="#ff1e00" opacity="0.0196078431372549" d="M6,6h1"/><path stroke="#2dbef6" opacity="0.1607843137254902" d="M7,6h1"/><path stroke="#3cb6e9" opacity="0.5568627450980392" d="M8,6h1"/><path stroke="#3fb6e7" opacity="0.7607843137254902" d="M9,6h1"/><path stroke="#40b7e7" opacity="0.7568627450980392" d="M10,6h1"/><path stroke="#40afe9" opacity="0.7568627450980392" d="M11,6h1"/><path stroke="#3fa1ed" opacity="0.7607843137254902" d="M12,6h1"/><path stroke="#3f99f0" opacity="0.5490196078431373" d="M13,6h1"/><path stroke="#4199f6" opacity="0.1568627450980392" d="M14,6h1"/><path stroke="#ffba3f" d="M0,7h1"/><path stroke="#ffb634" d="M1,7h1"/><path stroke="#feaf21" d="M2,7h1M1,8h1"/><path stroke="#feac16" opacity="0.7490196078431373" d="M3,7h1"/><path stroke="#ffb011" opacity="0.21176470588235294" d="M4,7h1"/><path stroke="#3ea9d8" opacity="0.25098039215686274" d="M7,7h1"/><path stroke="#3da9d8" opacity="0.788235294117647" d="M8,7h1"/><path stroke="#3ba8d9" d="M9,7h1"/><path stroke="#38a5db" d="M10,7h1"/><path stroke="#359ede" d="M11,7h1"/><path stroke="#3594e0" d="M12,7h1"/><path stroke="#358fde" opacity="0.8274509803921568" d="M13,7h1"/><path stroke="#338ecf" opacity="0.42745098039215684" d="M14,7h1"/><path stroke="#308eb2" opacity="0.21568627450980393" d="M15,7h1"/><path stroke="#ffb417" d="M0,8h1"/><path stroke="#fca534" d="M2,8h1"/><path stroke="#fca03e" opacity="0.7490196078431373" d="M3,8h1"/><path stroke="#ffa241" opacity="0.21176470588235294" d="M4,8h1"/><path stroke="#3798c2" opacity="0.25098039215686274" d="M7,8h1"/><path stroke="#3697c2" opacity="0.788235294117647" d="M8,8h1"/><path stroke="#3093c5" d="M9,8h1"/><path stroke="#248ac9" d="M10,8h1"/><path stroke="#1d83cc" d="M11,8h1"/><path stroke="#1e80cc" d="M12,8h1"/><path stroke="#2282c8" opacity="0.9490196078431372" d="M13,8h1"/><path stroke="#2c89be" opacity="0.8196078431372549" d="M14,8h1"/><path stroke="#328fb7" opacity="0.7490196078431373" d="M15,8h1"/><path stroke="#feac17" d="M0,9h1"/><path stroke="#fca623" d="M1,9h1"/><path stroke="#f99a3a" d="M2,9h1"/><path stroke="#ef9443" opacity="0.8196078431372549" d="M3,9h1"/><path stroke="#cc9536" opacity="0.43137254901960786" d="M4,9h1"/><path stroke="#90980b" opacity="0.14901960784313725" d="M5,9h1"/><path stroke="#b69600" opacity="0.0196078431372549" d="M6,9h1"/><path stroke="#288cc2" opacity="0.1568627450980392" d="M7,9h1"/><path stroke="#2f8dba" opacity="0.5529411764705883" d="M8,9h1"/><path stroke="#2b87b3" opacity="0.8235294117647058" d="M9,9h1"/><path stroke="#237eab" opacity="0.9490196078431372" d="M10,9h1"/><path stroke="#1e77aa" d="M11,9h1"/><path stroke="#1c73b0" d="M12,9h1"/><path stroke="#217ab4" d="M13,9h1"/><path stroke="#2c88b7" d="M14,9h1"/><path stroke="#328fb8" d="M15,9h1"/><path stroke="#fba13d" d="M0,10h1"/><path stroke="#f99a39" d="M1,10h1"/><path stroke="#f38e32" d="M2,10h1"/><path stroke="#dc8b2c" opacity="0.9529411764705882" d="M3,10h1"/><path stroke="#b09426" opacity="0.8352941176470589" d="M4,10h1"/><path stroke="#939920" opacity="0.5607843137254902" d="M5,10h1"/><path stroke="#939810" opacity="0.1568627450980392" d="M6,10h1"/><path stroke="#0000ff" opacity="0.00392156862745098" d="M7,10h1"/><path stroke="#1e8bdb" opacity="0.12941176470588237" d="M8,10h1"/><path stroke="#368893" opacity="0.4117647058823529" d="M9,10h1"/><path stroke="#3b857b" opacity="0.8156862745098039" d="M10,10h1"/><path stroke="#397e7e" d="M11,10h1"/><path stroke="#32728e" d="M12,10h1"/><path stroke="#2f75a0" d="M13,10h1"/><path stroke="#3086b1" d="M14,10h1"/><path stroke="#318fb9" d="M15,10h1"/><path stroke="#fa9a51" opacity="0.7490196078431373" d="M0,11h1"/><path stroke="#ef9a4d" opacity="0.8196078431372549" d="M1,11h1"/><path stroke="#dc9a47" opacity="0.9490196078431372" d="M2,11h1"/><path stroke="#c29d43" d="M3,11h1"/><path stroke="#a2a141" d="M4,11h1"/><path stroke="#91a446" opacity="0.8352941176470589" d="M5,11h1"/><path stroke="#8ea862" opacity="0.43137254901960786" d="M6,11h1"/><path stroke="#7ea88c" opacity="0.20392156862745098" d="M7,11h1"/><path stroke="#5f9368" opacity="0.19215686274509805" d="M8,11h1"/><path stroke="#4d8756" opacity="0.403921568627451" d="M9,11h1"/><path stroke="#4a8559" opacity="0.8117647058823529" d="M10,11h1"/><path stroke="#417e64" d="M11,11h1"/><path stroke="#317077" d="M12,11h1"/><path stroke="#2a718d" opacity="0.9490196078431372" d="M13,11h1"/><path stroke="#2e83a9" opacity="0.8196078431372549" d="M14,11h1"/><path stroke="#318fba" opacity="0.7490196078431373" d="M15,11h1"/><path stroke="#ff934b" opacity="0.21568627450980393" d="M0,12h1"/><path stroke="#cab36f" opacity="0.42745098039215684" d="M1,12h1"/><path stroke="#acc380" opacity="0.8274509803921568" d="M2,12h1"/><path stroke="#9fc381" d="M3,12h1"/><path stroke="#93bb7c" d="M4,12h1"/><path stroke="#8cb57e" opacity="0.9529411764705882" d="M5,12h1"/><path stroke="#8bb189" opacity="0.8196078431372549" d="M6,12h1"/><path stroke="#7aa584" opacity="0.7450980392156863" d="M7,12h1"/><path stroke="#5b926a" opacity="0.7372549019607844" d="M8,12h1"/><path stroke="#4a8459" opacity="0.803921568627451" d="M9,12h1"/><path stroke="#477c56" opacity="0.9372549019607843" d="M10,12h1"/><path stroke="#37755d" d="M11,12h1"/><path stroke="#1a6e6c" d="M12,12h1"/><path stroke="#0e6d79" opacity="0.8274509803921568" d="M13,12h1"/><path stroke="#1b7a92" opacity="0.42745098039215684" d="M14,12h1"/><path stroke="#3693c2" opacity="0.21568627450980393" d="M15,12h1"/><path stroke="#83e7b0" opacity="0.1568627450980392" d="M1,13h1"/><path stroke="#8ddea6" opacity="0.5490196078431373" d="M2,13h1"/><path stroke="#8dd5a1" opacity="0.8274509803921568" d="M3,13h1"/><path stroke="#8bc89b" opacity="0.9490196078431372" d="M4,13h1"/><path stroke="#87be95" d="M5,13h1"/><path stroke="#80b58e" d="M6,13h1"/><path stroke="#6aa681" d="M7,13h1"/><path stroke="#47916f" d="M8,13h1"/><path stroke="#348162" d="M9,13h1"/><path stroke="#32765d" d="M10,13h1"/><path stroke="#266f5e" opacity="0.9490196078431372" d="M11,13h1"/><path stroke="#0d6c67" opacity="0.8274509803921568" d="M12,13h1"/><path stroke="#006a6c" opacity="0.5490196078431373" d="M13,13h1"/><path stroke="#006665" opacity="0.1568627450980392" d="M14,13h1"/><path stroke="#68ffcd" opacity="0.03529411764705882" d="M1,14h1"/><path stroke="#89e5ad" opacity="0.1568627450980392" d="M2,14h1"/><path stroke="#8ccfa0" opacity="0.42745098039215684" d="M3,14h1"/><path stroke="#8bc499" opacity="0.8196078431372549" d="M4,14h1"/><path stroke="#81bf92" d="M5,14h1"/><path stroke="#6db887" d="M6,14h1"/><path stroke="#4da87d" d="M7,14h1"/><path stroke="#259076" d="M8,14h1"/><path stroke="#107d70" d="M9,14h1"/><path stroke="#0f726a" d="M10,14h1"/><path stroke="#0e6c67" opacity="0.8196078431372549" d="M11,14h1"/><path stroke="#076b69" opacity="0.42745098039215684" d="M12,14h1"/><path stroke="#006a6a" opacity="0.1568627450980392" d="M13,14h1"/><path stroke="#005f54" opacity="0.03529411764705882" d="M14,14h1"/><path stroke="#8dbf97" opacity="0.21568627450980393" d="M3,15h1"/><path stroke="#8cc197" opacity="0.7490196078431373" d="M4,15h1"/><path stroke="#7ebf90" d="M5,15h1"/><path stroke="#63ba83" d="M6,15h1"/><path stroke="#3daa7b" d="M7,15h1"/><path stroke="#128f7a" d="M8,15h1"/><path stroke="#007b77" d="M9,15h1"/><path stroke="#006f71" d="M10,15h1"/><path stroke="#006a6d" opacity="0.7490196078431373" d="M11,15h1"/><path stroke="#00696d" opacity="0.21568627450980393" d="M12,15h1"/></svg>
