<svg xmlns="http://www.w3.org/2000/svg" shape-rendering="crispEdges" viewBox="0 -0.5 16 16" width="16" height="16"><metadata>Generated with pixel-perfect-svg https://github.com/kagof/pixel-perfect-svg</metadata><path stroke="#ff9ba8" d="M4,0h2M4,1h2M2,2h2M2,3h2"/><path stroke="#ff7676" d="M6,0h2M6,1h2M4,2h2M4,3h2"/><path stroke="#f85d80" d="M8,0h2M8,1h2"/><path stroke="#e45c5f" d="M10,0h2M10,1h2M6,2h2M6,3h2"/><path stroke="#d94a69" d="M8,2h2M8,3h2"/><path stroke="#b63c35" d="M10,2h4M10,3h4"/><path stroke="#ffcf05" d="M0,4h2M0,5h2"/><path stroke="#ffbc4e" d="M2,4h2M2,5h2M0,6h2M0,7h2"/><path stroke="#e37840" d="M4,4h2M4,5h2"/><path stroke="#ffb108" d="M2,6h2M2,7h2M0,8h2M0,9h2"/><path stroke="#41b2e3" d="M8,6h4M8,7h4"/><path stroke="#4097ea" d="M12,6h2M12,7h2"/><path stroke="#f99b4e" d="M2,8h2M2,9h2M0,10h2M0,11h2"/><path stroke="#318eb8" d="M8,8h2M14,8h2M8,9h2M14,9h2M14,10h2M14,11h2"/><path stroke="#1476c0" d="M10,8h4M10,9h4"/><path stroke="#e98627" d="M2,10h2M2,11h2"/><path stroke="#969a26" d="M4,10h2M4,11h2"/><path stroke="#498960" d="M10,10h2M10,11h2M8,12h2M8,13h2"/><path stroke="#366b8a" d="M12,10h2M12,11h2"/><path stroke="#91daa1" d="M2,12h2M2,13h2"/><path stroke="#8ac196" d="M4,12h2M4,13h2M4,14h2M4,15h2"/><path stroke="#87ae8e" d="M6,12h2M6,13h2"/><path stroke="#417455" d="M10,12h2M10,13h2"/><path stroke="#006b6d" d="M12,12h2M12,13h2M10,14h2M10,15h2"/><path stroke="#55b67d" d="M6,14h2M6,15h2"/><path stroke="#008279" d="M8,14h2M8,15h2"/></svg>
