<svg xmlns="http://www.w3.org/2000/svg" shape-rendering="crispEdges" viewBox="0 -0.5 16 16" width="16" height="16"><metadata>Generated with pixel-perfect-svg https://github.com/kagof/pixel-perfect-svg</metadata><path stroke="#cd5e46" d="M2,0h10M2,1h10M0,2h4M0,3h4M2,4h2M6,4h2M2,5h2M6,5h2M2,6h2M14,6h2M2,7h2M14,7h2M2,8h6M14,8h2M2,9h6M14,9h2M2,10h2M14,10h2M2,11h2M14,11h2M4,12h4M12,12h2M4,13h4M12,13h2M8,14h4M8,15h4"/><path stroke="#f99b4e" d="M12,0h2M12,1h2M14,4h2M14,5h2"/><path stroke="#cdd2da" d="M4,2h4M4,3h4M4,4h2M4,5h2M4,6h4M4,7h4M4,10h4M4,11h4"/><path stroke="#f5f7fa" d="M8,2h4M8,3h4M8,6h4M8,7h4M10,8h2M10,9h2M8,10h4M8,11h4"/><path stroke="#e37840" d="M12,2h2M12,3h2M8,4h6M8,5h6M12,6h2M12,7h2M8,8h2M12,8h2M8,9h2M12,9h2M12,10h2M12,11h2M8,12h4M8,13h4"/><path stroke="#ffce7f" d="M14,2h2M14,3h2"/><path stroke="#b64d46" d="M0,4h2M0,5h2M0,6h2M0,7h2M0,8h2M0,9h2M4,14h4M4,15h4"/><path stroke="#94363a" d="M0,10h2M0,11h2M2,12h2M2,13h2"/></svg>
