<svg xmlns="http://www.w3.org/2000/svg" shape-rendering="crispEdges" viewBox="0 -0.5 16 16" width="16" height="16"><metadata>Generated with pixel-perfect-svg https://github.com/kagof/pixel-perfect-svg</metadata><path stroke="#cd5e46" opacity="0.21176470588235294" d="M1,0h1"/><path stroke="#cd5e46" opacity="0.7411764705882353" d="M2,0h1"/><path stroke="#cd5d45" d="M3,0h1"/><path stroke="#cd5b43" d="M4,0h1"/><path stroke="#cd5a41" d="M5,0h3"/><path stroke="#cc5a41" d="M8,0h1"/><path stroke="#cb5840" d="M9,0h2"/><path stroke="#d76a44" d="M11,0h1"/><path stroke="#ef8c4b" d="M12,0h1M15,5h1"/><path stroke="#fb9e4e" opacity="0.7411764705882353" d="M13,0h1"/><path stroke="#fc9b4a" opacity="0.21176470588235294" d="M14,0h1"/><path stroke="#cf5f46" opacity="0.21176470588235294" d="M0,1h1"/><path stroke="#ce5e45" opacity="0.41568627450980394" d="M1,1h1"/><path stroke="#cd5d45" opacity="0.807843137254902" d="M2,1h1"/><path stroke="#cd644e" d="M3,1h1"/><path stroke="#cd7260" d="M4,1h1"/><path stroke="#cd7a6a" d="M5,1h1"/><path stroke="#cd7b6b" d="M6,1h1M3,3h1"/><path stroke="#cf7d6d" d="M7,1h1"/><path stroke="#d48271" d="M8,1h1"/><path stroke="#d68474" d="M9,1h2"/><path stroke="#de8769" d="M11,1h1"/><path stroke="#ed8f54" d="M12,1h1"/><path stroke="#f5984e" opacity="0.807843137254902" d="M13,1h1"/><path stroke="#faae61" opacity="0.41568627450980394" d="M14,1h1"/><path stroke="#ffda8a" opacity="0.21176470588235294" d="M15,1h1"/><path stroke="#ce5f46" opacity="0.7411764705882353" d="M0,2h1"/><path stroke="#ce5d44" opacity="0.807843137254902" d="M1,2h1"/><path stroke="#cd5c43" opacity="0.9372549019607843" d="M2,2h1"/><path stroke="#cd7360" d="M3,2h1"/><path stroke="#cd9f9a" d="M4,2h1"/><path stroke="#cdb7b8" d="M5,2h1"/><path stroke="#ccb7b8" d="M6,2h1M6,7h1"/><path stroke="#d4bebe" d="M7,2h1"/><path stroke="#e4cdcb" d="M8,2h1"/><path stroke="#ecd5d4" d="M9,2h1"/><path stroke="#ecd6d5" d="M10,2h1"/><path stroke="#eabeae" d="M11,2h1"/><path stroke="#e99364" d="M12,2h1"/><path stroke="#ed8f4c" opacity="0.9372549019607843" d="M13,2h1"/><path stroke="#f9b76c" opacity="0.807843137254902" d="M14,2h1"/><path stroke="#ffd383" opacity="0.7411764705882353" d="M15,2h1"/><path stroke="#c75a46" d="M0,3h1"/><path stroke="#c95944" d="M1,3h1"/><path stroke="#cc5a43" d="M2,3h1"/><path stroke="#cdb9ba" d="M4,3h1M4,6h1"/><path stroke="#ccd0d8" d="M5,3h1M5,6h1"/><path stroke="#ccbfc2" d="M6,3h1M6,6h1"/><path stroke="#d6bfbc" d="M7,3h1M7,6h1M7,10h1"/><path stroke="#e9d1c8" d="M8,3h1"/><path stroke="#f2dcd1" d="M9,3h1M11,10h1"/><path stroke="#f2ddd2" d="M10,3h1"/><path stroke="#edc1ab" d="M11,3h1"/><path stroke="#e58d61" d="M12,3h1"/><path stroke="#e9884a" d="M13,3h1"/><path stroke="#f8b066" d="M14,3h1"/><path stroke="#ffc575" d="M15,3h1"/><path stroke="#bb5146" d="M0,4h1M7,15h1"/><path stroke="#c05344" d="M1,4h1"/><path stroke="#c95843" d="M2,4h1"/><path stroke="#cd7c6c" d="M3,4h1"/><path stroke="#cdbabb" d="M4,4h1M4,5h1M6,11h1"/><path stroke="#cdc0c4" d="M5,4h1M5,5h1"/><path stroke="#cc9087" d="M6,4h1M6,5h1"/><path stroke="#d37e66" d="M7,4h1M7,5h1"/><path stroke="#e18e69" d="M8,4h1"/><path stroke="#e8976c" d="M9,4h2"/><path stroke="#e68e60" d="M11,4h1"/><path stroke="#e37e4a" d="M12,4h1"/><path stroke="#e98346" d="M13,4h1"/><path stroke="#f69d54" d="M14,4h1"/><path stroke="#fcab5b" d="M15,4h1"/><path stroke="#b54c46" d="M0,5h1M0,6h1M5,15h2"/><path stroke="#bb4f44" d="M1,5h1M1,6h1M5,14h2"/><path stroke="#c75743" d="M2,5h1M2,6h1M6,13h1"/><path stroke="#ce7c6c" d="M3,5h1"/><path stroke="#e18d69" d="M8,5h1"/><path stroke="#e8966b" d="M9,5h1"/><path stroke="#e7956a" d="M10,5h1"/><path stroke="#e68d5f" d="M11,5h1"/><path stroke="#e47e49" d="M12,5h1"/><path stroke="#e67c42" d="M13,5h1"/><path stroke="#ec8648" d="M14,5h1"/><path stroke="#ce7b6b" d="M3,6h1"/><path stroke="#e8d1c9" d="M8,6h1"/><path stroke="#f2dbd0" d="M9,6h1"/><path stroke="#f1dacf" d="M10,6h1"/><path stroke="#edc0a9" d="M11,6h1"/><path stroke="#e68f61" d="M12,6h1"/><path stroke="#e0733f" d="M13,6h1"/><path stroke="#da6d44" d="M14,6h1"/><path stroke="#d76c47" d="M15,6h1"/><path stroke="#b64d46" d="M0,7h1M0,8h1"/><path stroke="#bc5045" d="M1,7h1"/><path stroke="#c75844" d="M2,7h1"/><path stroke="#ce7361" d="M3,7h1"/><path stroke="#cda099" d="M4,7h1"/><path stroke="#ccb6b7" d="M5,7h1"/><path stroke="#d6bfbd" d="M7,7h1"/><path stroke="#e8d0c8" d="M8,7h1M8,10h1"/><path stroke="#f3e4de" d="M9,7h1M10,8h1M10,9h1M9,10h1"/><path stroke="#f5f6f8" d="M10,7h1M10,10h1"/><path stroke="#f1dcd1" d="M11,7h1"/><path stroke="#e8986f" d="M12,7h1"/><path stroke="#dd6e3d" d="M13,7h1M13,8h1"/><path stroke="#d16142" d="M14,7h1"/><path stroke="#cb5c46" d="M15,7h1"/><path stroke="#bc5146" d="M1,8h1"/><path stroke="#c75945" d="M2,8h1"/><path stroke="#ce644e" d="M3,8h1"/><path stroke="#cd715e" d="M4,8h1"/><path stroke="#cd7867" d="M5,8h1"/><path stroke="#cc7868" d="M6,8h1"/><path stroke="#d37e67" d="M7,8h1M7,9h1"/><path stroke="#e18c67" d="M8,8h1M8,9h1"/><path stroke="#ebb091" d="M9,8h1M9,9h1"/><path stroke="#f2dcd3" d="M11,8h1"/><path stroke="#e89970" d="M12,8h1"/><path stroke="#d16242" d="M14,8h1"/><path stroke="#cc5c46" d="M15,8h1"/><path stroke="#ac4643" d="M0,9h1"/><path stroke="#b54c43" d="M1,9h1"/><path stroke="#c65845" d="M2,9h1"/><path stroke="#ce664f" d="M3,9h1"/><path stroke="#ce7360" d="M4,9h1"/><path stroke="#cd7969" d="M5,9h1"/><path stroke="#cc7969" d="M6,9h1"/><path stroke="#f2ddd3" d="M11,9h1M9,11h1"/><path stroke="#e8996f" d="M12,9h1"/><path stroke="#dd6f3d" d="M13,9h1M13,10h1"/><path stroke="#d26242" d="M14,9h1M14,10h1"/><path stroke="#cc5d46" d="M15,9h1M15,10h1"/><path stroke="#9a3a3d" d="M0,10h1"/><path stroke="#a8423d" d="M1,10h1"/><path stroke="#c15441" d="M2,10h1"/><path stroke="#cf7562" d="M3,10h1"/><path stroke="#cea29c" d="M4,10h1"/><path stroke="#ccb9ba" d="M5,10h1"/><path stroke="#ccb8b9" d="M6,10h1"/><path stroke="#e8996e" d="M12,10h1"/><path stroke="#913439" opacity="0.7490196078431373" d="M0,11h1"/><path stroke="#9f3c3a" opacity="0.8196078431372549" d="M1,11h1"/><path stroke="#b54b3e" opacity="0.9490196078431372" d="M2,11h1"/><path stroke="#c36c5f" d="M3,11h1"/><path stroke="#caa09d" d="M4,11h1"/><path stroke="#cdbbbc" d="M5,11h1"/><path stroke="#d6c1c0" d="M7,11h1"/><path stroke="#e9d3cc" d="M8,11h1"/><path stroke="#f2dcd2" d="M10,11h1"/><path stroke="#ecbfaa" d="M11,11h1"/><path stroke="#e28a62" d="M12,11h1M11,12h1"/><path stroke="#da6b3f" opacity="0.9490196078431372" d="M13,11h1M11,13h1"/><path stroke="#d16242" opacity="0.8196078431372549" d="M14,11h1M11,14h1"/><path stroke="#cc5d46" opacity="0.7490196078431373" d="M15,11h1M11,15h1"/><path stroke="#903339" opacity="0.21568627450980393" d="M0,12h1"/><path stroke="#99393a" opacity="0.42745098039215684" d="M1,12h1"/><path stroke="#9f3d3b" opacity="0.8274509803921568" d="M2,12h1"/><path stroke="#ac4e48" d="M3,12h1"/><path stroke="#c26d60" d="M4,12h1"/><path stroke="#ce7d6d" d="M5,12h1"/><path stroke="#ce7c6d" d="M6,12h1"/><path stroke="#d4836d" d="M7,12h1"/><path stroke="#e2926f" d="M8,12h1"/><path stroke="#e99a70" d="M9,12h1"/><path stroke="#e9996e" d="M10,12h1"/><path stroke="#d7704e" d="M12,12h1"/><path stroke="#d16244" opacity="0.8274509803921568" d="M13,12h1M12,13h1"/><path stroke="#cf6044" opacity="0.42745098039215684" d="M14,12h1M12,14h1"/><path stroke="#cc5d46" opacity="0.21568627450980393" d="M15,12h1M12,15h1"/><path stroke="#8d3139" opacity="0.1568627450980392" d="M1,13h1"/><path stroke="#903339" opacity="0.5490196078431373" d="M2,13h1"/><path stroke="#a23f3c" opacity="0.8274509803921568" d="M3,13h1"/><path stroke="#bd5041" opacity="0.9490196078431372" d="M4,13h1"/><path stroke="#c85743" d="M5,13h1"/><path stroke="#cc5d41" d="M7,13h1"/><path stroke="#d8693f" d="M8,13h1"/><path stroke="#de6f3d" d="M9,13h2"/><path stroke="#cc5c47" opacity="0.5490196078431373" d="M13,13h1"/><path stroke="#cb5b47" opacity="0.1568627450980392" d="M14,13h1M13,14h1"/><path stroke="#7d2734" opacity="0.03529411764705882" d="M1,14h1"/><path stroke="#8a2f38" opacity="0.1568627450980392" d="M2,14h1"/><path stroke="#a9433f" opacity="0.42745098039215684" d="M3,14h1"/><path stroke="#b84d43" opacity="0.8196078431372549" d="M4,14h1"/><path stroke="#c15443" d="M7,14h1"/><path stroke="#cc5e42" d="M8,14h1"/><path stroke="#d26342" d="M9,14h2"/><path stroke="#c95948" opacity="0.03529411764705882" d="M14,14h1"/><path stroke="#b94f47" opacity="0.21568627450980393" d="M3,15h1"/><path stroke="#b64d46" opacity="0.7490196078431373" d="M4,15h1"/><path stroke="#c75946" d="M8,15h1"/><path stroke="#cd5e46" d="M9,15h1"/><path stroke="#cd5d46" d="M10,15h1"/></svg>
