<svg xmlns="http://www.w3.org/2000/svg" shape-rendering="crispEdges" viewBox="0 -0.5 16 16" width="16" height="16"><metadata>Generated with pixel-perfect-svg https://github.com/kagof/pixel-perfect-svg</metadata><path stroke="#ff9ba8" d="M0,0h3M7,0h2M13,0h3"/><path stroke="#ff9ca9" d="M3,0h1M6,0h1M9,0h1M12,0h1"/><path stroke="#ff9dab" d="M4,0h2M10,0h2M7,1h2M0,2h1M15,2h1"/><path stroke="#ff9caa" d="M0,1h1M15,1h1"/><path stroke="#ff9daa" d="M1,1h2M13,1h2"/><path stroke="#fb96a2" d="M3,1h1M6,1h1M9,1h1M12,1h1"/><path stroke="#f18993" d="M4,1h2M10,1h2"/><path stroke="#ff9eac" d="M1,2h1M14,2h1"/><path stroke="#ff9fad" d="M2,2h1M13,2h1"/><path stroke="#f28a94" d="M3,2h1M6,2h1M9,2h1M12,2h1"/><path stroke="#d46365" d="M4,2h2M10,2h2"/><path stroke="#ffa0ae" d="M7,2h2"/><path stroke="#ed848c" d="M0,3h1M15,3h1"/><path stroke="#ed858d" d="M1,3h1M14,3h1"/><path stroke="#ee858e" d="M2,3h1M13,3h1"/><path stroke="#e17277" d="M3,3h1M6,3h1M9,3h1M12,3h1"/><path stroke="#c94e4c" d="M4,3h2M10,3h2"/><path stroke="#ee868f" d="M7,3h2"/><path stroke="#c75250" d="M0,4h1M15,4h1"/><path stroke="#c65250" d="M1,4h2M7,4h2M13,4h2"/><path stroke="#cb5150" d="M3,4h1M6,4h1M9,4h1M12,4h1"/><path stroke="#d45050" d="M4,4h2M10,4h2"/><path stroke="#bf423d" d="M0,5h1M15,5h1"/><path stroke="#bf403b" d="M1,5h1M14,5h1"/><path stroke="#be3e39" d="M2,5h1M13,5h1"/><path stroke="#c9504d" d="M3,5h1M6,5h1M9,5h1M12,5h1"/><path stroke="#de7274" d="M4,5h2M10,5h2"/><path stroke="#be3d37" d="M7,5h2"/><path stroke="#d85353" d="M0,6h1M15,6h1"/><path stroke="#d85050" d="M1,6h1M14,6h1"/><path stroke="#d74d4e" d="M2,6h1M13,6h1"/><path stroke="#dc6f71" d="M3,6h1M12,6h1"/><path stroke="#e6b1b6" d="M4,6h2M10,6h2"/><path stroke="#dc7071" d="M6,6h1M9,6h1"/><path stroke="#d74b4b" d="M7,6h2"/><path stroke="#e55c5f" d="M0,7h1M15,7h1M15,10h1M6,15h1"/><path stroke="#e56467" d="M1,7h1M14,7h1M14,10h1M6,14h1"/><path stroke="#e6767a" d="M2,7h1M13,7h1"/><path stroke="#e8a0a5" d="M3,7h1M12,7h1"/><path stroke="#eadbe1" d="M4,7h1M11,7h1M5,12h1"/><path stroke="#eadae0" d="M5,7h1M10,7h1M3,9h1M12,9h1"/><path stroke="#e89ea2" d="M6,7h1M9,7h1"/><path stroke="#e77c80" d="M7,7h2"/><path stroke="#e5595c" d="M0,8h1M15,8h1M15,9h1M5,15h1"/><path stroke="#e6777b" d="M1,8h1M14,8h1M14,9h1M5,14h1"/><path stroke="#e9b2b7" d="M2,8h1M13,8h1"/><path stroke="#ebdce1" d="M3,8h1M12,8h1"/><path stroke="#ebedf3" d="M4,8h1M11,8h1M5,11h1"/><path stroke="#ebeaf0" d="M5,8h1M10,8h1M4,9h1M11,9h1"/><path stroke="#ead6dc" d="M6,8h1M9,8h1"/><path stroke="#eacbd1" d="M7,8h2M8,11h1"/><path stroke="#e4585b" d="M0,9h1M4,15h1"/><path stroke="#e5777a" d="M1,9h1"/><path stroke="#e8b2b7" d="M2,9h1M13,9h1M4,13h2"/><path stroke="#ebf2f8" d="M5,9h1"/><path stroke="#ebf5fb" d="M6,9h1M9,9h1"/><path stroke="#ebf6fc" d="M7,9h2M6,10h3"/><path stroke="#ecf3f8" d="M10,9h1"/><path stroke="#e45b5e" d="M0,10h1M3,15h1"/><path stroke="#e46366" d="M1,10h1"/><path stroke="#e57679" d="M2,10h1"/><path stroke="#e79da2" d="M3,10h1"/><path stroke="#ead6db" d="M4,10h1"/><path stroke="#ebf4fa" d="M5,10h1"/><path stroke="#ecf6fc" d="M9,10h1"/><path stroke="#ecf5fb" d="M10,10h1"/><path stroke="#ebd7dc" d="M11,10h1"/><path stroke="#e79ea2" d="M12,10h1M6,12h1"/><path stroke="#e5767a" d="M13,10h1M6,13h1"/><path stroke="#e45c5f" d="M0,11h1M0,12h1"/><path stroke="#e4595c" d="M1,11h1M1,12h1"/><path stroke="#e45659" d="M2,11h1"/><path stroke="#e67e82" d="M3,11h1"/><path stroke="#e9ced3" d="M4,11h1"/><path stroke="#ead8dd" d="M6,11h1"/><path stroke="#eacbd0" d="M7,11h1"/><path stroke="#e7d5dc" d="M9,11h1"/><path stroke="#e2e5ee" d="M10,11h1"/><path stroke="#e0c6cf" d="M11,11h1"/><path stroke="#e37c81" d="M12,11h1"/><path stroke="#e25457" d="M13,11h1"/><path stroke="#db5354" d="M14,11h1"/><path stroke="#d85454" d="M15,11h1"/><path stroke="#e4575a" d="M2,12h1"/><path stroke="#e68184" d="M3,12h1"/><path stroke="#ead1d6" d="M4,12h1"/><path stroke="#e67c7f" d="M7,12h1"/><path stroke="#e77d80" d="M8,12h1"/><path stroke="#de969e" d="M9,12h1"/><path stroke="#cdc3d1" d="M10,12h1"/><path stroke="#cdb9c7" d="M11,12h1"/><path stroke="#de7a81" d="M12,12h1"/><path stroke="#dc5253" d="M13,12h1"/><path stroke="#ca4744" d="M14,12h1"/><path stroke="#c0433e" d="M15,12h1M8,15h1"/><path stroke="#e45c5f" opacity="0.7411764705882353" d="M0,13h1M2,15h1"/><path stroke="#e45a5d" opacity="0.807843137254902" d="M1,13h1"/><path stroke="#e4595c" opacity="0.9372549019607843" d="M2,13h1"/><path stroke="#e5787c" d="M3,13h1"/><path stroke="#e15355" d="M7,13h1"/><path stroke="#dc4f50" d="M8,13h1"/><path stroke="#d06569" d="M9,13h1"/><path stroke="#bf919b" d="M10,13h1"/><path stroke="#bf929d" d="M11,13h1"/><path stroke="#d1696c" d="M12,13h1"/><path stroke="#d24d4c" opacity="0.9372549019607843" d="M13,13h1"/><path stroke="#c0413c" opacity="0.807843137254902" d="M14,13h1"/><path stroke="#b33a32" opacity="0.7411764705882353" d="M15,13h1"/><path stroke="#e45c5f" opacity="0.21176470588235294" d="M0,14h1M1,15h1"/><path stroke="#e45b5e" opacity="0.41568627450980394" d="M1,14h1"/><path stroke="#e45b5e" opacity="0.807843137254902" d="M2,14h1"/><path stroke="#e46568" d="M3,14h1"/><path stroke="#e5777b" d="M4,14h1"/><path stroke="#dc5354" d="M7,14h1"/><path stroke="#c94643" d="M8,14h1"/><path stroke="#bd4844" d="M9,14h1"/><path stroke="#b85654" d="M10,14h1"/><path stroke="#b95755" d="M11,14h1"/><path stroke="#be4a46" d="M12,14h1"/><path stroke="#c0423d" opacity="0.807843137254902" d="M13,14h1"/><path stroke="#bb3f39" opacity="0.41568627450980394" d="M14,14h1"/><path stroke="#b13931" opacity="0.21176470588235294" d="M15,14h1"/><path stroke="#d95455" d="M7,15h1"/><path stroke="#b43932" d="M9,15h1"/><path stroke="#b53830" d="M10,15h1"/><path stroke="#b63831" d="M11,15h1"/><path stroke="#b53a33" d="M12,15h1"/><path stroke="#b53b34" opacity="0.7411764705882353" d="M13,15h1"/><path stroke="#b43b34" opacity="0.21176470588235294" d="M14,15h1"/></svg>
