<svg xmlns="http://www.w3.org/2000/svg" shape-rendering="crispEdges" viewBox="0 -0.5 16 16" width="16" height="16"><metadata>Generated with pixel-perfect-svg https://github.com/kagof/pixel-perfect-svg</metadata><path stroke="#ff9ba8" d="M0,0h16M0,1h16M0,2h4M6,2h4M12,2h4M0,3h4M6,3h4M12,3h4"/><path stroke="#b63c35" d="M4,2h2M10,2h2M4,3h2M10,3h2M0,4h4M6,4h4M12,4h4M0,5h4M6,5h4M12,5h4M14,12h2M14,13h2M8,14h6M8,15h6"/><path stroke="#e45c5f" d="M4,4h2M10,4h2M4,5h2M10,5h2M0,6h4M6,6h4M12,6h4M0,7h4M6,7h4M12,7h4M0,8h2M14,8h2M0,9h2M14,9h2M0,10h4M12,10h4M0,11h4M12,11h4M0,12h4M6,12h4M12,12h2M0,13h4M6,13h4M12,13h2M2,14h6M2,15h6"/><path stroke="#ebf0f6" d="M4,6h2M10,6h2M4,7h2M10,7h2M2,8h12M2,9h12M4,10h8M4,11h8M4,12h2M4,13h2"/><path stroke="#bac7db" d="M10,12h2M10,13h2"/></svg>
