<svg xmlns="http://www.w3.org/2000/svg" shape-rendering="crispEdges" viewBox="0 -0.5 16 16" width="16" height="16"><metadata>Generated with pixel-perfect-svg https://github.com/kagof/pixel-perfect-svg</metadata><path stroke="#ffbc4e" d="M4,0h2M4,1h2M2,2h2M2,3h2"/><path stroke="#e37840" d="M8,0h2M8,1h2M4,4h2M8,4h2M4,5h2M8,5h2"/><path stroke="#f99b4e" d="M6,2h2M6,3h2"/><path stroke="#cdd2da" d="M2,4h2M2,5h2M4,6h2M4,7h2M2,8h2M2,9h2"/><path stroke="#bac7db" d="M10,4h2M10,5h2M6,6h4M14,6h2M6,7h4M14,7h2M10,8h6M10,9h6M4,10h6M4,11h6M2,12h2M2,13h2"/><path stroke="#abaebe" d="M12,10h2M12,11h2M4,14h4M4,15h4"/><path stroke="#828b98" d="M10,12h2M10,13h2M8,14h2M8,15h2"/></svg>
