<svg xmlns="http://www.w3.org/2000/svg" shape-rendering="crispEdges" viewBox="0 -0.5 16 16" width="16" height="16"><metadata>Generated with pixel-perfect-svg https://github.com/kagof/pixel-perfect-svg</metadata><path stroke="#ffbc4e" opacity="0.23921568627450981" d="M3,0h1"/><path stroke="#ffbc4e" opacity="0.8" d="M4,0h1"/><path stroke="#ffbe4e" opacity="0.7843137254901961" d="M5,0h1"/><path stroke="#ffc750" opacity="0.21568627450980393" d="M6,0h1"/><path stroke="#dd6c3d" opacity="0.21568627450980393" d="M7,0h1"/><path stroke="#e27640" opacity="0.7843137254901961" d="M8,0h1"/><path stroke="#e37840" opacity="0.807843137254902" d="M9,0h1"/><path stroke="#e37840" opacity="0.2627450980392157" d="M10,0h1"/><path stroke="#ffba43" opacity="0.047058823529411764" d="M1,1h1"/><path stroke="#ffba45" opacity="0.16470588235294117" d="M2,1h1"/><path stroke="#ffbc4a" opacity="0.37254901960784315" d="M3,1h1"/><path stroke="#ffbd4d" opacity="0.6392156862745098" d="M4,1h1"/><path stroke="#ffbb4f" opacity="0.6352941176470588" d="M5,1h1"/><path stroke="#fdae4f" opacity="0.36470588235294116" d="M6,1h1"/><path stroke="#ed8747" opacity="0.3686274509803922" d="M7,1h1"/><path stroke="#e57a41" opacity="0.6392156862745098" d="M8,1h1"/><path stroke="#e3773f" opacity="0.5764705882352941" d="M9,1h1"/><path stroke="#e57236" opacity="0.17647058823529413" d="M10,1h1"/><path stroke="#ffbb4a" opacity="0.1843137254901961" d="M1,2h1"/><path stroke="#ffbb4a" opacity="0.5725490196078431" d="M2,2h1"/><path stroke="#ffbd4a" opacity="0.6313725490196078" d="M3,2h1"/><path stroke="#ffc14c" opacity="0.35294117647058826" d="M4,2h1"/><path stroke="#fdae4f" opacity="0.3568627450980392" d="M5,2h1"/><path stroke="#fa9e4e" opacity="0.6470588235294118" d="M6,2h1"/><path stroke="#f7984d" opacity="0.6549019607843137" d="M7,2h1"/><path stroke="#ee8a47" opacity="0.37254901960784315" d="M8,2h1"/><path stroke="#e27138" opacity="0.1568627450980392" d="M9,2h1"/><path stroke="#f43a00" opacity="0.027450980392156862" d="M10,2h1"/><path stroke="#f3c271" opacity="0.2549019607843137" d="M1,3h1"/><path stroke="#f3c271" opacity="0.796078431372549" d="M2,3h1"/><path stroke="#f1bc6d" opacity="0.8549019607843137" d="M3,3h1"/><path stroke="#eba059" opacity="0.4196078431372549" d="M4,3h1"/><path stroke="#ef803d" opacity="0.3411764705882353" d="M5,3h1"/><path stroke="#f89549" opacity="0.6352941176470588" d="M6,3h1"/><path stroke="#f99749" opacity="0.6470588235294118" d="M7,3h1"/><path stroke="#f2873f" opacity="0.3568627450980392" d="M8,3h1"/><path stroke="#d78965" opacity="0.2196078431372549" d="M9,3h1"/><path stroke="#c1b6bc" opacity="0.24313725490196078" d="M10,3h1"/><path stroke="#b9c9df" opacity="0.19607843137254902" d="M11,3h1"/><path stroke="#b8cbe3" opacity="0.06274509803921569" d="M12,3h1"/><path stroke="#d9d0bd" opacity="0.25098039215686274" d="M1,4h1"/><path stroke="#d9cfba" opacity="0.7843137254901961" d="M2,4h1"/><path stroke="#dbbca0" d="M3,4h1"/><path stroke="#e09062" opacity="0.8431372549019608" d="M4,4h1"/><path stroke="#e67436" opacity="0.6078431372549019" d="M5,4h1"/><path stroke="#f38238" opacity="0.3411764705882353" d="M6,4h1"/><path stroke="#f48438" opacity="0.34509803921568627" d="M7,4h1"/><path stroke="#e87637" opacity="0.611764705882353" d="M8,4h1"/><path stroke="#d98a64" opacity="0.7764705882352941" d="M9,4h1"/><path stroke="#c4b4b6" opacity="0.8" d="M10,4h1"/><path stroke="#b9c9e0" opacity="0.596078431372549" d="M11,4h1"/><path stroke="#b8cce4" opacity="0.18823529411764706" d="M12,4h1"/><path stroke="#cad9e9" opacity="0.17254901960784313" d="M1,5h1"/><path stroke="#cbd6e4" opacity="0.5490196078431373" d="M2,5h1"/><path stroke="#d1bdb8" opacity="0.8431372549019608" d="M3,5h1"/><path stroke="#da9b7c" opacity="0.996078431372549" d="M4,5h1"/><path stroke="#db916d" opacity="0.8392156862745098" d="M5,5h1"/><path stroke="#cca89d" opacity="0.4117647058823529" d="M6,5h1"/><path stroke="#c9a69d" opacity="0.4117647058823529" d="M7,5h1"/><path stroke="#d78f6d" opacity="0.8392156862745098" d="M8,5h1"/><path stroke="#d3977c" d="M9,5h1"/><path stroke="#c4b5b7" opacity="0.8627450980392157" d="M10,5h1"/><path stroke="#b9cae0" opacity="0.5686274509803921" d="M11,5h1"/><path stroke="#b7cde6" opacity="0.16470588235294117" d="M12,5h1"/><path stroke="#bac7db" opacity="0.03137254901960784" d="M13,5h1"/><path stroke="#bac7db" opacity="0.16862745098039217" d="M14,5h1M13,6h1"/><path stroke="#bac7db" opacity="0.25098039215686274" d="M15,5h1"/><path stroke="#c6dcf5" opacity="0.0392156862745098" d="M1,6h1"/><path stroke="#c8d7eb" opacity="0.1450980392156863" d="M2,6h1"/><path stroke="#d0c5c6" opacity="0.4235294117647059" d="M3,6h1"/><path stroke="#d2bdb6" opacity="0.8509803921568627" d="M4,6h1"/><path stroke="#cebebc" opacity="0.9882352941176471" d="M5,6h1"/><path stroke="#c1c5d2" opacity="0.8392156862745098" d="M6,6h1"/><path stroke="#bcc2d2" opacity="0.8392156862745098" d="M7,6h1"/><path stroke="#c2b7bd" opacity="0.9882352941176471" d="M8,6h1"/><path stroke="#c4b4b7" opacity="0.8549019607843137" d="M9,6h1"/><path stroke="#c0bbc4" opacity="0.43529411764705883" d="M10,6h1"/><path stroke="#b8cae2" opacity="0.1411764705882353" d="M11,6h1"/><path stroke="#a7ecff" opacity="0.00784313725490196" d="M12,6h1"/><path stroke="#bac7db" opacity="0.5686274509803921" d="M14,6h1"/><path stroke="#bac7db" opacity="0.7843137254901961" d="M15,6h1"/><path stroke="#cdd1d9" opacity="0.047058823529411764" d="M1,7h1"/><path stroke="#cdd2d9" opacity="0.1607843137254902" d="M2,7h1"/><path stroke="#cdd4dd" opacity="0.3607843137254902" d="M3,7h1"/><path stroke="#cdd5de" opacity="0.6235294117647059" d="M4,7h1"/><path stroke="#c8d2de" opacity="0.7607843137254902" d="M5,7h1"/><path stroke="#bfcadc" opacity="0.7686274509803922" d="M6,7h1"/><path stroke="#b9c7dc" opacity="0.7686274509803922" d="M7,7h1"/><path stroke="#b9c9df" opacity="0.7607843137254902" d="M8,7h1"/><path stroke="#b9c9e0" opacity="0.6196078431372549" d="M9,7h1"/><path stroke="#b9c8de" opacity="0.3568627450980392" d="M10,7h1"/><path stroke="#bac7db" opacity="0.21176470588235294" d="M11,7h1"/><path stroke="#bbc8dc" opacity="0.21176470588235294" d="M12,7h1"/><path stroke="#bac8dc" opacity="0.44313725490196076" d="M13,7h1"/><path stroke="#bac7db" opacity="0.8509803921568627" d="M14,7h1"/><path stroke="#bac7db" d="M15,7h1M15,8h1"/><path stroke="#cdd2da" opacity="0.18823529411764706" d="M1,8h1"/><path stroke="#cdd2da" opacity="0.5882352941176471" d="M2,8h1"/><path stroke="#cdd3db" opacity="0.6509803921568628" d="M3,8h1"/><path stroke="#ced6df" opacity="0.3607843137254902" d="M4,8h1"/><path stroke="#c8d5e3" opacity="0.20784313725490197" d="M5,8h1"/><path stroke="#becbdd" opacity="0.2196078431372549" d="M6,8h1"/><path stroke="#b9c8dd" opacity="0.2196078431372549" d="M7,8h1"/><path stroke="#b7cbe3" opacity="0.20784313725490197" d="M8,8h1"/><path stroke="#b9cae0" opacity="0.34901960784313724" d="M9,8h1"/><path stroke="#bac7dc" opacity="0.6352941176470588" d="M10,8h1"/><path stroke="#bac7db" opacity="0.7725490196078432" d="M11,8h1"/><path stroke="#bac8dc" opacity="0.7607843137254902" d="M12,8h1"/><path stroke="#bac8dc" opacity="0.8274509803921568" d="M13,8h1"/><path stroke="#bac7db" opacity="0.9725490196078431" d="M14,8h1"/><path stroke="#ced2da" opacity="0.18823529411764706" d="M1,9h1"/><path stroke="#ced2da" opacity="0.5843137254901961" d="M2,9h1"/><path stroke="#ccd1da" opacity="0.6549019607843137" d="M3,9h1"/><path stroke="#c3ccdb" opacity="0.37254901960784315" d="M4,9h1"/><path stroke="#b7c5db" opacity="0.2196078431372549" d="M5,9h1"/><path stroke="#b9c6db" opacity="0.2235294117647059" d="M6,9h1"/><path stroke="#bac7db" opacity="0.2235294117647059" d="M7,9h1"/><path stroke="#bac7db" opacity="0.2196078431372549" d="M8,9h1"/><path stroke="#bbc8dc" opacity="0.3568627450980392" d="M9,9h1"/><path stroke="#bbc8dc" opacity="0.6313725490196078" d="M10,9h1"/><path stroke="#bac6da" opacity="0.8509803921568627" d="M11,9h1"/><path stroke="#b7c2d5" opacity="0.9882352941176471" d="M12,9h1"/><path stroke="#b7c2d5" opacity="0.9725490196078431" d="M13,9h1"/><path stroke="#b9c5d9" opacity="0.8274509803921568" d="M14,9h1"/><path stroke="#bac7db" opacity="0.7490196078431373" d="M15,9h1"/><path stroke="#d4d6da" opacity="0.047058823529411764" d="M1,10h1"/><path stroke="#d1d4da" opacity="0.1607843137254902" d="M2,10h1"/><path stroke="#c4cdda" opacity="0.3686274509803922" d="M3,10h1"/><path stroke="#bcc8db" opacity="0.6431372549019608" d="M4,10h1"/><path stroke="#bac7db" opacity="0.7803921568627451" d="M5,10h1M8,10h1"/><path stroke="#bac7db" opacity="0.7764705882352941" d="M6,10h2"/><path stroke="#bbc8dc" opacity="0.6274509803921569" d="M9,10h1"/><path stroke="#becce0" opacity="0.3411764705882353" d="M10,10h1"/><path stroke="#b5bed0" opacity="0.42745098039215684" d="M11,10h1"/><path stroke="#b0b6c7" opacity="0.8549019607843137" d="M12,10h1"/><path stroke="#afb5c7" opacity="0.8549019607843137" d="M13,10h1"/><path stroke="#b3bcce" opacity="0.4392156862745098" d="M14,10h1"/><path stroke="#bccade" opacity="0.21568627450980393" d="M15,10h1"/><path stroke="#b8c6db" opacity="0.047058823529411764" d="M1,11h1"/><path stroke="#b8c6db" opacity="0.1607843137254902" d="M2,11h1"/><path stroke="#b9c7db" opacity="0.3686274509803922" d="M3,11h1"/><path stroke="#bac7dc" opacity="0.6431372549019608" d="M4,11h1"/><path stroke="#bac7dc" opacity="0.7803921568627451" d="M5,11h1"/><path stroke="#bac7dc" opacity="0.7764705882352941" d="M6,11h1"/><path stroke="#bbc8dc" opacity="0.7764705882352941" d="M7,11h1"/><path stroke="#bbc8dd" opacity="0.7803921568627451" d="M8,11h1"/><path stroke="#b5c2d6" opacity="0.6313725490196078" d="M9,11h1"/><path stroke="#9ba7b7" opacity="0.34901960784313724" d="M10,11h1"/><path stroke="#9297a5" opacity="0.3568627450980392" d="M11,11h1"/><path stroke="#a6a9b9" opacity="0.6431372549019608" d="M12,11h1"/><path stroke="#abadbd" opacity="0.5725490196078431" d="M13,11h1"/><path stroke="#aaabbb" opacity="0.16862745098039217" d="M14,11h1"/><path stroke="#bac7db" opacity="0.18823529411764706" d="M1,12h1"/><path stroke="#bac7db" opacity="0.5843137254901961" d="M2,12h1"/><path stroke="#bac7db" opacity="0.6549019607843137" d="M3,12h1"/><path stroke="#bbc8dc" opacity="0.37254901960784315" d="M4,12h1"/><path stroke="#bccade" opacity="0.2196078431372549" d="M5,12h1"/><path stroke="#bccade" opacity="0.2235294117647059" d="M6,12h1"/><path stroke="#c0cee3" opacity="0.2235294117647059" d="M7,12h1"/><path stroke="#c4d2e7" opacity="0.2196078431372549" d="M8,12h1"/><path stroke="#9faaba" opacity="0.3686274509803922" d="M9,12h1"/><path stroke="#868f9d" opacity="0.6509803921568628" d="M10,12h1"/><path stroke="#848d9a" opacity="0.6549019607843137" d="M11,12h1"/><path stroke="#959aa9" opacity="0.3803921568627451" d="M12,12h1"/><path stroke="#aeb0c0" opacity="0.16470588235294117" d="M13,12h1"/><path stroke="#b1afbe" opacity="0.0392156862745098" d="M14,12h1"/><path stroke="#bac7dc" opacity="0.18823529411764706" d="M1,13h1"/><path stroke="#bac7db" opacity="0.5882352941176471" d="M2,13h1"/><path stroke="#b9c5d8" opacity="0.6588235294117647" d="M3,13h1"/><path stroke="#b2bacc" opacity="0.37254901960784315" d="M4,13h1"/><path stroke="#a9aab9" opacity="0.21568627450980393" d="M5,13h1"/><path stroke="#aaabba" opacity="0.2196078431372549" d="M6,13h1"/><path stroke="#a0a3b2" opacity="0.2196078431372549" d="M7,13h1"/><path stroke="#878e9b" opacity="0.21568627450980393" d="M8,13h1"/><path stroke="#7f8894" opacity="0.37254901960784315" d="M9,13h1"/><path stroke="#818a97" opacity="0.6588235294117647" d="M10,13h1"/><path stroke="#828b98" opacity="0.592156862745098" d="M11,13h1"/><path stroke="#7e8894" opacity="0.17647058823529413" d="M12,13h1"/><path stroke="#bdcce1" opacity="0.050980392156862744" d="M1,14h1"/><path stroke="#bccade" opacity="0.17647058823529413" d="M2,14h1"/><path stroke="#b3bbcd" opacity="0.3764705882352941" d="M3,14h1"/><path stroke="#acb0c0" opacity="0.6313725490196078" d="M4,14h1"/><path stroke="#abaebe" opacity="0.7607843137254902" d="M5,14h1"/><path stroke="#acaebe" opacity="0.7568627450980392" d="M6,14h1"/><path stroke="#a0a5b4" opacity="0.7568627450980392" d="M7,14h1"/><path stroke="#8b92a0" opacity="0.7607843137254902" d="M8,14h1"/><path stroke="#808996" opacity="0.6313725490196078" d="M9,14h1"/><path stroke="#808996" opacity="0.3764705882352941" d="M10,14h1"/><path stroke="#818a97" opacity="0.17254901960784313" d="M11,14h1"/><path stroke="#77828e" opacity="0.043137254901960784" d="M12,14h1"/><path stroke="#a9abbb" opacity="0.2235294117647059" d="M3,15h1"/><path stroke="#abaebe" opacity="0.7725490196078432" d="M4,15h1"/><path stroke="#acafbf" d="M5,15h2"/><path stroke="#a1a5b4" d="M7,15h1"/><path stroke="#8c93a1" d="M8,15h1"/><path stroke="#818a97" opacity="0.7725490196078432" d="M9,15h1"/><path stroke="#7f8995" opacity="0.2235294117647059" d="M10,15h1"/></svg>
