<svg xmlns="http://www.w3.org/2000/svg" shape-rendering="crispEdges" viewBox="0 -0.5 16 16" width="16" height="16"><metadata>Generated with pixel-perfect-svg https://github.com/kagof/pixel-perfect-svg</metadata><path stroke="#fffaab" d="M2,0h2M2,1h2M0,2h2M0,3h2"/><path stroke="#fdf786" d="M4,0h8M4,1h8M2,2h4M2,3h4M0,4h4M0,5h4M0,6h2M0,7h2"/><path stroke="#fff02b" d="M12,0h2M12,1h2M6,2h10M6,3h10M4,4h12M4,5h12M2,6h12M2,7h12M0,8h2M8,8h2M0,9h2M8,9h2M0,10h4M6,10h2M0,11h4M6,11h2M0,12h2M0,13h2"/><path stroke="#ffcf05" d="M14,6h2M14,7h2M14,8h2M14,9h2M8,10h2M12,10h2M8,11h2M12,11h2M6,12h2M6,13h2M2,14h4M2,15h4"/><path stroke="#614a3c" d="M2,8h4M10,8h2M2,9h4M10,9h2"/><path stroke="#453125" d="M6,8h2M12,8h2M6,9h2M12,9h2M4,10h2M10,10h2M4,11h2M10,11h2M2,12h4M8,12h2M2,13h4M8,13h2"/><path stroke="#ffb108" d="M14,10h2M14,11h2M12,12h4M12,13h4M6,14h8M6,15h8"/><path stroke="#31222a" d="M10,12h2M10,13h2"/></svg>
