<svg xmlns="http://www.w3.org/2000/svg" shape-rendering="crispEdges" viewBox="0 -0.5 16 16" width="16" height="16"><metadata>Generated with pixel-perfect-svg https://github.com/kagof/pixel-perfect-svg</metadata><path stroke="#fffaaf" opacity="0.21176470588235294" d="M1,0h1M0,1h1"/><path stroke="#fffaad" opacity="0.7411764705882353" d="M2,0h1M0,2h1"/><path stroke="#fff9a3" d="M3,0h1M0,3h1"/><path stroke="#fef890" d="M4,0h1M0,4h1"/><path stroke="#fdf786" d="M5,0h1"/><path stroke="#fdf788" d="M6,0h1"/><path stroke="#fdf789" d="M7,0h2"/><path stroke="#fdf78a" d="M9,0h1M0,6h1"/><path stroke="#fdf78b" d="M10,0h1M4,2h1M2,4h1"/><path stroke="#fdf571" d="M11,0h1"/><path stroke="#fff241" d="M12,0h1M8,2h1"/><path stroke="#fff028" opacity="0.7411764705882353" d="M13,0h1"/><path stroke="#fff025" opacity="0.21176470588235294" d="M14,0h1"/><path stroke="#fffaa8" opacity="0.41568627450980394" d="M1,1h1"/><path stroke="#fff9a4" opacity="0.807843137254902" d="M2,1h1M1,2h1"/><path stroke="#fef99c" d="M3,1h1M1,3h1"/><path stroke="#fdf88f" d="M4,1h1M1,4h1"/><path stroke="#fdf781" d="M5,1h1M3,3h1"/><path stroke="#fdf676" d="M6,1h1"/><path stroke="#fdf570" d="M7,1h2"/><path stroke="#fdf572" d="M9,1h2"/><path stroke="#fef45f" d="M11,1h1"/><path stroke="#fff13b" d="M12,1h1"/><path stroke="#fff029" opacity="0.807843137254902" d="M13,1h1"/><path stroke="#fff029" opacity="0.41568627450980394" d="M14,1h1"/><path stroke="#fff02b" opacity="0.21176470588235294" d="M15,1h1"/><path stroke="#fef895" opacity="0.9372549019607843" d="M2,2h1"/><path stroke="#fdf88e" d="M3,2h1M2,3h1"/><path stroke="#fdf677" d="M5,2h1M4,3h1M3,4h1"/><path stroke="#fef353" d="M6,2h1"/><path stroke="#fff240" d="M7,2h1"/><path stroke="#fef242" d="M9,2h1"/><path stroke="#fef243" d="M10,2h1"/><path stroke="#fff13c" d="M11,2h1"/><path stroke="#fff031" d="M12,2h1"/><path stroke="#fff02a" opacity="0.9372549019607843" d="M13,2h1"/><path stroke="#fff02b" opacity="0.807843137254902" d="M14,2h1"/><path stroke="#fff02b" opacity="0.7411764705882353" d="M15,2h1"/><path stroke="#fef45e" d="M5,3h1"/><path stroke="#fff13a" d="M6,3h1M5,4h1"/><path stroke="#fff027" d="M7,3h1"/><path stroke="#fff028" d="M8,3h1"/><path stroke="#fff029" d="M9,3h3M7,4h2M13,5h1"/><path stroke="#fff02a" d="M12,3h1M9,4h3"/><path stroke="#fff02b" d="M13,3h2M12,4h2"/><path stroke="#fff02c" d="M15,3h1"/><path stroke="#fef352" d="M4,4h1"/><path stroke="#fff02e" d="M6,4h1"/><path stroke="#fff12c" d="M14,4h2"/><path stroke="#fdf787" d="M0,5h1"/><path stroke="#fef782" d="M1,5h1"/><path stroke="#fff877" d="M2,5h1"/><path stroke="#fff65e" d="M3,5h1"/><path stroke="#fff439" d="M4,5h1"/><path stroke="#fff228" d="M5,5h1"/><path stroke="#fff329" d="M6,5h1"/><path stroke="#fff22b" d="M7,5h1M10,5h1"/><path stroke="#fff12b" d="M8,5h2M8,6h2M0,11h1"/><path stroke="#fff32b" d="M11,5h2M7,6h1M10,6h1"/><path stroke="#ffeb24" d="M14,5h1"/><path stroke="#ffe822" d="M15,5h1"/><path stroke="#fef777" d="M1,6h1"/><path stroke="#fff653" d="M2,6h1"/><path stroke="#fff539" d="M3,6h1"/><path stroke="#fff42e" d="M4,6h1"/><path stroke="#fff429" d="M5,6h1"/><path stroke="#fff42a" d="M6,6h1"/><path stroke="#fff52b" d="M11,6h1"/><path stroke="#fff52c" d="M12,6h1"/><path stroke="#ffed24" d="M13,6h1"/><path stroke="#ffde15" d="M14,6h1"/><path stroke="#ffd60d" d="M15,6h1"/><path stroke="#fff772" d="M0,7h1"/><path stroke="#f4ea60" d="M1,7h1"/><path stroke="#e0d13e" d="M2,7h1"/><path stroke="#d6c52c" d="M3,7h1"/><path stroke="#d8c72e" d="M4,7h1"/><path stroke="#d6c52e" d="M5,7h1"/><path stroke="#d1c02b" d="M6,7h1"/><path stroke="#dbcb2a" d="M7,7h1"/><path stroke="#f4e52b" d="M8,7h1"/><path stroke="#f7e82d" d="M9,7h1"/><path stroke="#e3d32f" d="M10,7h1"/><path stroke="#d5c52f" d="M11,7h1"/><path stroke="#d0c12c" d="M12,7h1"/><path stroke="#dbc320" d="M13,7h1"/><path stroke="#f4cb0d" d="M14,7h1"/><path stroke="#ffcf03" d="M15,7h1"/><path stroke="#fff641" d="M0,8h1"/><path stroke="#e1d33f" d="M1,8h1"/><path stroke="#a28f39" d="M2,8h1"/><path stroke="#826c37" d="M3,8h1"/><path stroke="#867038" d="M4,8h1"/><path stroke="#7f6b34" d="M5,8h1"/><path stroke="#715d2b" d="M6,8h1"/><path stroke="#928027" d="M7,8h1"/><path stroke="#decf2a" d="M8,8h1"/><path stroke="#e6d62f" d="M9,8h1"/><path stroke="#a79436" d="M10,8h1"/><path stroke="#7d6835" d="M11,8h1"/><path stroke="#6f5c2c" d="M12,8h1"/><path stroke="#92781e" d="M13,8h1"/><path stroke="#dcb40c" d="M14,8h1"/><path stroke="#ffd303" d="M15,8h1"/><path stroke="#fff428" d="M0,9h1"/><path stroke="#e3d32d" d="M1,9h1"/><path stroke="#a69235" d="M2,9h1"/><path stroke="#786239" d="M3,9h1"/><path stroke="#604938" d="M4,9h1"/><path stroke="#594333" d="M5,9h1"/><path stroke="#64512b" d="M6,9h1"/><path stroke="#948125" d="M7,9h1"/><path stroke="#e2cc22" d="M8,9h1"/><path stroke="#dcc427" d="M9,9h1"/><path stroke="#826b32" d="M10,9h1"/><path stroke="#563f31" d="M11,9h1"/><path stroke="#624924" d="M12,9h1"/><path stroke="#937117" d="M13,9h1"/><path stroke="#ddad0b" d="M14,9h1"/><path stroke="#ffcb05" d="M15,9h1M5,15h1"/><path stroke="#fff129" d="M0,10h1"/><path stroke="#f9e92b" d="M1,10h1"/><path stroke="#e7d72e" d="M2,10h1"/><path stroke="#b5a32f" d="M3,10h1"/><path stroke="#69552c" d="M4,10h1"/><path stroke="#66522b" d="M5,10h1"/><path stroke="#ac9b2b" d="M6,10h1"/><path stroke="#e2cc23" d="M7,10h1"/><path stroke="#fdda14" d="M8,10h1"/><path stroke="#d6b214" d="M9,10h1"/><path stroke="#745b24" d="M10,10h1"/><path stroke="#654c24" d="M11,10h1"/><path stroke="#ab8814" d="M12,10h1"/><path stroke="#deae0b" d="M13,10h1M5,14h1"/><path stroke="#f6b608" d="M14,10h1"/><path stroke="#ffb907" d="M15,10h1M14,11h1M6,15h1"/><path stroke="#f7e82b" d="M1,11h1"/><path stroke="#e2d22a" d="M2,11h1"/><path stroke="#ac9c29" d="M3,11h1"/><path stroke="#5f4d26" d="M4,11h1"/><path stroke="#6e5a24" d="M5,11h1"/><path stroke="#d4be23" d="M6,11h1"/><path stroke="#fee21c" d="M7,11h1"/><path stroke="#e2bd11" d="M8,11h1"/><path stroke="#a88412" d="M9,11h1"/><path stroke="#5a4420" d="M10,11h1"/><path stroke="#694f1f" d="M11,11h1"/><path stroke="#d1a30d" d="M12,11h1"/><path stroke="#ffc805" d="M13,11h1"/><path stroke="#ffaf08" d="M15,11h1"/><path stroke="#fff42b" d="M0,12h1"/><path stroke="#dfcf2a" d="M1,12h1"/><path stroke="#968428" d="M2,12h1"/><path stroke="#5e4c27" d="M3,12h1"/><path stroke="#453226" d="M4,12h1"/><path stroke="#705820" d="M5,12h1"/><path stroke="#d6b313" d="M6,12h1"/><path stroke="#e3bf11" d="M7,12h1"/><path stroke="#967819" d="M8,12h1"/><path stroke="#584221" d="M9,12h1"/><path stroke="#382827" d="M10,12h1"/><path stroke="#624621" d="M11,12h1"/><path stroke="#ce950f" d="M12,12h1"/><path stroke="#ffbc06" d="M13,12h1"/><path stroke="#ffb507" d="M14,12h1M9,15h2"/><path stroke="#ffb008" d="M15,12h1M7,15h1"/><path stroke="#fff62c" opacity="0.7411764705882353" d="M0,13h1"/><path stroke="#d5c227" opacity="0.807843137254902" d="M1,13h1"/><path stroke="#8c7420" opacity="0.9372549019607843" d="M2,13h1"/><path stroke="#6c511d" d="M3,13h1"/><path stroke="#6e541d" d="M4,13h1"/><path stroke="#987517" d="M5,13h1"/><path stroke="#e1af0a" d="M6,13h1"/><path stroke="#e0ac0a" d="M7,13h1"/><path stroke="#956d18" d="M8,13h1"/><path stroke="#674720" d="M9,13h1"/><path stroke="#614322" d="M10,13h1"/><path stroke="#8a601b" d="M11,13h1"/><path stroke="#da970e" d="M12,13h1M11,14h1"/><path stroke="#ffb307" opacity="0.9372549019607843" d="M13,13h1"/><path stroke="#ffb308" opacity="0.807843137254902" d="M14,13h1"/><path stroke="#ffb108" opacity="0.7411764705882353" d="M15,13h1M13,15h1"/><path stroke="#fffb2f" opacity="0.21176470588235294" d="M0,14h1"/><path stroke="#e5c71a" opacity="0.41568627450980394" d="M1,14h1"/><path stroke="#d4ac0f" opacity="0.807843137254902" d="M2,14h1"/><path stroke="#d0a70c" d="M3,14h1"/><path stroke="#d1a80d" d="M4,14h1"/><path stroke="#f6b508" d="M6,14h1"/><path stroke="#f5af09" d="M7,14h1"/><path stroke="#dc9a0d" d="M8,14h1"/><path stroke="#ce8f10" d="M9,14h1"/><path stroke="#cd8e10" d="M10,14h1"/><path stroke="#f3a90a" d="M12,14h1"/><path stroke="#ffb208" opacity="0.807843137254902" d="M13,14h1"/><path stroke="#ffb208" opacity="0.41568627450980394" d="M14,14h1"/><path stroke="#ffb108" opacity="0.21176470588235294" d="M15,14h1M14,15h1"/><path stroke="#ffd100" opacity="0.21176470588235294" d="M1,15h1"/><path stroke="#ffd404" opacity="0.7411764705882353" d="M2,15h1"/><path stroke="#ffd404" d="M3,15h1"/><path stroke="#ffd504" d="M4,15h1"/><path stroke="#ffb307" d="M8,15h1"/><path stroke="#ffb407" d="M11,15h1"/><path stroke="#ffb208" d="M12,15h1"/></svg>
