<svg xmlns="http://www.w3.org/2000/svg" shape-rendering="crispEdges" viewBox="0 -0.5 16 16" width="16" height="16"><metadata>Generated with pixel-perfect-svg https://github.com/kagof/pixel-perfect-svg</metadata><path stroke="#fffbb7" opacity="0.054901960784313725" d="M3,1h1"/><path stroke="#fffab4" opacity="0.1803921568627451" d="M4,1h1M3,2h1"/><path stroke="#fff997" opacity="0.24705882352941178" d="M5,1h1"/><path stroke="#fff766" opacity="0.2549019607843137" d="M6,1h1"/><path stroke="#fff64c" opacity="0.18823529411764706" d="M7,1h1"/><path stroke="#fff649" opacity="0.054901960784313725" d="M8,1h1"/><path stroke="#fff64f" opacity="0.054901960784313725" d="M9,1h1M1,5h1"/><path stroke="#fff64f" opacity="0.18823529411764706" d="M10,1h1"/><path stroke="#fff650" opacity="0.2549019607843137" d="M11,1h1"/><path stroke="#fff651" opacity="0.24705882352941178" d="M12,1h1"/><path stroke="#fff651" opacity="0.17647058823529413" d="M13,1h1"/><path stroke="#fff651" opacity="0.054901960784313725" d="M14,1h1"/><path stroke="#fffab1" opacity="0.5686274509803921" d="M4,2h1"/><path stroke="#fff996" opacity="0.7803921568627451" d="M5,2h1"/><path stroke="#fff766" opacity="0.796078431372549" d="M6,2h1"/><path stroke="#fff64c" opacity="0.5725490196078431" d="M7,2h1"/><path stroke="#fff649" opacity="0.16862745098039217" d="M8,2h1"/><path stroke="#fff64f" opacity="0.16862745098039217" d="M9,2h1"/><path stroke="#fff64f" opacity="0.5725490196078431" d="M10,2h1"/><path stroke="#fff64f" opacity="0.796078431372549" d="M11,2h1"/><path stroke="#fff650" opacity="0.7803921568627451" d="M12,2h1"/><path stroke="#fff650" opacity="0.5568627450980392" d="M13,2h1"/><path stroke="#fff650" opacity="0.17647058823529413" d="M14,2h1"/><path stroke="#fff99b" opacity="0.24313725490196078" d="M3,3h1"/><path stroke="#fff996" opacity="0.788235294117647" d="M4,3h1"/><path stroke="#fff887" d="M5,3h1"/><path stroke="#fff764" opacity="0.8784313725490196" d="M6,3h1M5,4h1"/><path stroke="#fff64c" opacity="0.5764705882352941" d="M7,3h1"/><path stroke="#fff649" opacity="0.16470588235294117" d="M8,3h1"/><path stroke="#fff650" opacity="0.16470588235294117" d="M9,3h1"/><path stroke="#fff64f" opacity="0.5764705882352941" d="M10,3h1"/><path stroke="#fff64c" opacity="0.8784313725490196" d="M11,3h1"/><path stroke="#fff548" d="M12,3h1"/><path stroke="#fff546" opacity="0.7764705882352941" d="M13,3h1"/><path stroke="#fff546" opacity="0.23529411764705882" d="M14,3h1"/><path stroke="#fff768" opacity="0.24313725490196078" d="M3,4h1"/><path stroke="#fff766" opacity="0.8" d="M4,4h1"/><path stroke="#fff75c" opacity="0.4666666666666667" d="M6,4h1"/><path stroke="#fff64c" opacity="0.17254901960784313" d="M7,4h1"/><path stroke="#fff647" opacity="0.043137254901960784" d="M8,4h1"/><path stroke="#fff858" opacity="0.043137254901960784" d="M9,4h1"/><path stroke="#fff753" opacity="0.17254901960784313" d="M10,4h1"/><path stroke="#fff340" opacity="0.4666666666666667" d="M11,4h1"/><path stroke="#fff236" opacity="0.8784313725490196" d="M12,4h1"/><path stroke="#fff234" opacity="0.788235294117647" d="M13,4h1"/><path stroke="#fff232" opacity="0.23921568627450981" d="M14,4h1"/><path stroke="#fff64f" opacity="0.1803921568627451" d="M2,5h1"/><path stroke="#fff64e" opacity="0.39215686274509803" d="M3,5h1"/><path stroke="#fff64d" opacity="0.6470588235294118" d="M4,5h1"/><path stroke="#fff64d" opacity="0.5686274509803921" d="M5,5h1"/><path stroke="#fff64d" opacity="0.16862745098039217" d="M6,5h1"/><path stroke="#fff024" opacity="0.16862745098039217" d="M11,5h1"/><path stroke="#fff028" opacity="0.5686274509803921" d="M12,5h1"/><path stroke="#fff02c" opacity="0.6392156862745098" d="M13,5h1"/><path stroke="#ffed3a" opacity="0.3803921568627451" d="M14,5h1"/><path stroke="#ffe84c" opacity="0.23921568627450981" d="M15,5h1"/><path stroke="#fff64f" opacity="0.19215686274509805" d="M1,6h1"/><path stroke="#fff64f" opacity="0.596078431372549" d="M2,6h1M2,7h1"/><path stroke="#fff64f" opacity="0.6666666666666666" d="M3,6h1"/><path stroke="#fff64e" opacity="0.37254901960784315" d="M4,6h1"/><path stroke="#fff64c" opacity="0.14901960784313725" d="M5,6h1"/><path stroke="#fff74b" opacity="0.03137254901960784" d="M6,6h1"/><path stroke="#fff50a" opacity="0.03137254901960784" d="M11,6h1"/><path stroke="#fff420" opacity="0.14901960784313725" d="M12,6h1"/><path stroke="#ffee39" opacity="0.36470588235294116" d="M13,6h1"/><path stroke="#ffea46" opacity="0.6509803921568628" d="M14,6h1"/><path stroke="#ffe949" opacity="0.8" d="M15,6h1M15,7h1"/><path stroke="#fff650" opacity="0.19215686274509805" d="M1,7h1"/><path stroke="#fff54b" opacity="0.6666666666666666" d="M3,7h1"/><path stroke="#fff33c" opacity="0.37254901960784315" d="M4,7h1"/><path stroke="#fff01f" opacity="0.14901960784313725" d="M5,7h1"/><path stroke="#fff809" opacity="0.03137254901960784" d="M6,7h1"/><path stroke="#dec954" opacity="0.03137254901960784" d="M11,7h1"/><path stroke="#e4cf51" opacity="0.14901960784313725" d="M12,7h1"/><path stroke="#f4de4c" opacity="0.36470588235294116" d="M13,7h1"/><path stroke="#fde74a" opacity="0.6509803921568628" d="M14,7h1"/><path stroke="#fff757" opacity="0.054901960784313725" d="M1,8h1"/><path stroke="#fff753" opacity="0.1803921568627451" d="M2,8h1"/><path stroke="#fff33d" opacity="0.39215686274509803" d="M3,8h1"/><path stroke="#fff12d" opacity="0.6470588235294118" d="M4,8h1"/><path stroke="#fff029" opacity="0.5686274509803921" d="M5,8h1"/><path stroke="#fff325" opacity="0.16862745098039217" d="M6,8h1"/><path stroke="#e8d24c" opacity="0.16862745098039217" d="M11,8h1"/><path stroke="#e8d24c" opacity="0.5686274509803921" d="M12,8h1"/><path stroke="#ebd54c" opacity="0.6392156862745098" d="M13,8h1"/><path stroke="#f4de4b" opacity="0.3803921568627451" d="M14,8h1"/><path stroke="#ffeb49" opacity="0.23921568627450981" d="M15,8h1"/><path stroke="#fff030" opacity="0.23921568627450981" d="M3,9h1"/><path stroke="#fff032" opacity="0.788235294117647" d="M4,9h1"/><path stroke="#feee34" opacity="0.8627450980392157" d="M5,9h1"/><path stroke="#f7e53d" opacity="0.45098039215686275" d="M6,9h1"/><path stroke="#e8d351" opacity="0.1607843137254902" d="M7,9h1"/><path stroke="#e3cd56" opacity="0.0392156862745098" d="M8,9h1"/><path stroke="#eedb4f" opacity="0.0392156862745098" d="M9,9h1"/><path stroke="#ecd94e" opacity="0.1607843137254902" d="M10,9h1"/><path stroke="#e6cf49" opacity="0.45098039215686275" d="M11,9h1"/><path stroke="#e3ca47" opacity="0.8627450980392157" d="M12,9h1"/><path stroke="#e3c947" opacity="0.7764705882352941" d="M13,9h1"/><path stroke="#e1c647" opacity="0.23529411764705882" d="M14,9h1"/><path stroke="#ffee41" opacity="0.23529411764705882" d="M3,10h1"/><path stroke="#ffee42" opacity="0.7725490196078432" d="M4,10h1"/><path stroke="#fce844" opacity="0.9882352941176471" d="M5,10h1"/><path stroke="#f0dc49" opacity="0.8549019607843137" d="M6,10h1"/><path stroke="#e8d34c" opacity="0.5568627450980392" d="M7,10h1"/><path stroke="#e7d24d" opacity="0.1607843137254902" d="M8,10h1"/><path stroke="#ebd74d" opacity="0.1607843137254902" d="M9,10h1"/><path stroke="#ead64c" opacity="0.5568627450980392" d="M10,10h1"/><path stroke="#e4cb48" opacity="0.8549019607843137" d="M11,10h1"/><path stroke="#dbbb41" opacity="0.9882352941176471" d="M12,10h1"/><path stroke="#d7b43d" opacity="0.7607843137254902" d="M13,10h1"/><path stroke="#d5b13d" opacity="0.23137254901960785" d="M14,10h1"/><path stroke="#efd143" opacity="0.24313725490196078" d="M3,11h1"/><path stroke="#eed143" opacity="0.7686274509803922" d="M4,11h1"/><path stroke="#e9cc43" d="M5,11h1"/><path stroke="#e1c444" d="M6,11h1"/><path stroke="#dcbf44" opacity="0.7725490196078432" d="M7,11h1"/><path stroke="#dcbf44" opacity="0.22745098039215686" d="M8,11h1"/><path stroke="#dec245" opacity="0.22745098039215686" d="M9,11h1"/><path stroke="#ddc144" opacity="0.7725490196078432" d="M10,11h1"/><path stroke="#d8b840" d="M11,11h1"/><path stroke="#cfa839" d="M12,11h1"/><path stroke="#caa035" opacity="0.7568627450980392" d="M13,11h1"/><path stroke="#ca9f35" opacity="0.23921568627450981" d="M14,11h1"/><path stroke="#cb9f35" opacity="0.24705882352941178" d="M3,12h1"/><path stroke="#ca9f35" opacity="0.7764705882352941" d="M4,12h1"/><path stroke="#c99e35" d="M5,12h1"/><path stroke="#c79b35" d="M6,12h1"/><path stroke="#c59a35" opacity="0.7725490196078432" d="M7,12h1"/><path stroke="#c59a35" opacity="0.22745098039215686" d="M8,12h1"/><path stroke="#c69b35" opacity="0.22745098039215686" d="M9,12h1"/><path stroke="#c69b35" opacity="0.7725490196078432" d="M10,12h1"/><path stroke="#c49834" d="M11,12h1"/><path stroke="#c19232" d="M12,12h1"/><path stroke="#bf8f30" opacity="0.7647058823529411" d="M13,12h1"/><path stroke="#bf8f30" opacity="0.23921568627450981" d="M14,12h1"/><path stroke="#b8852d" opacity="0.1803921568627451" d="M3,13h1"/><path stroke="#b8852d" opacity="0.5686274509803921" d="M4,13h1"/><path stroke="#b8852d" opacity="0.7764705882352941" d="M5,13h1"/><path stroke="#b8862d" opacity="0.7764705882352941" d="M6,13h1"/><path stroke="#b9862d" opacity="0.5568627450980392" d="M7,13h1M10,13h1"/><path stroke="#b9862d" opacity="0.16470588235294117" d="M8,13h2"/><path stroke="#b9862d" opacity="0.7764705882352941" d="M11,13h1"/><path stroke="#b9872e" opacity="0.7764705882352941" d="M12,13h1"/><path stroke="#b9872e" opacity="0.5607843137254902" d="M13,13h1"/><path stroke="#b9872e" opacity="0.17647058823529413" d="M14,13h1"/><path stroke="#b6822c" opacity="0.058823529411764705" d="M3,14h1"/><path stroke="#b6822c" opacity="0.1803921568627451" d="M4,14h1"/><path stroke="#b6822c" opacity="0.24313725490196078" d="M5,14h1"/><path stroke="#b7832c" opacity="0.24313725490196078" d="M6,14h1"/><path stroke="#b7842c" opacity="0.17647058823529413" d="M7,14h1"/><path stroke="#b7842c" opacity="0.050980392156862744" d="M8,14h1"/><path stroke="#b7832c" opacity="0.050980392156862744" d="M9,14h1"/><path stroke="#b7832c" opacity="0.17647058823529413" d="M10,14h1"/><path stroke="#b8842c" opacity="0.24313725490196078" d="M11,14h1"/><path stroke="#b8852d" opacity="0.24313725490196078" d="M12,14h1"/><path stroke="#b9862d" opacity="0.17647058823529413" d="M13,14h1"/><path stroke="#b9862d" opacity="0.054901960784313725" d="M14,14h1"/></svg>
