<svg xmlns="http://www.w3.org/2000/svg" shape-rendering="crispEdges" viewBox="0 -0.5 16 16" width="16" height="16"><metadata>Generated with pixel-perfect-svg https://github.com/kagof/pixel-perfect-svg</metadata><path stroke="#fffaab" d="M4,2h2M4,3h2"/><path stroke="#fff64f" d="M6,2h2M10,2h4M6,3h2M10,3h4M4,4h2M4,5h2M2,6h2M2,7h2"/><path stroke="#fff02b" d="M12,4h2M12,5h2M4,8h2M4,9h2"/><path stroke="#ffe949" d="M14,6h2M14,7h2M4,10h2M4,11h2"/><path stroke="#e8d24b" d="M12,8h2M12,9h2M6,10h2M10,10h2M6,11h2M10,11h2"/><path stroke="#d1aa39" d="M12,10h2M12,11h2"/><path stroke="#ba882e" d="M4,12h4M10,12h4M4,13h4M10,13h4"/></svg>
