<svg xmlns="http://www.w3.org/2000/svg" shape-rendering="crispEdges" viewBox="0 -0.5 16 16" width="16" height="16"><metadata>Generated with pixel-perfect-svg https://github.com/kagof/pixel-perfect-svg</metadata><path stroke="#91daa1" d="M6,0h4M6,1h4M6,2h2M6,3h2"/><path stroke="#55b67d" d="M10,0h2M10,1h2M8,2h2M8,3h2M6,4h2M6,5h2"/><path stroke="#498960" d="M10,2h2M10,3h2M8,4h4M8,5h4"/><path stroke="#e45c5f" d="M2,8h4M2,9h4M2,10h2M2,11h2"/><path stroke="#b63c35" d="M6,8h2M6,9h2M4,10h2M4,11h2M2,12h2M2,13h2"/><path stroke="#7964ba" d="M10,8h4M10,9h4M10,10h2M10,11h2"/><path stroke="#584a7f" d="M14,8h2M14,9h2M12,10h2M12,11h2M10,12h2M10,13h2"/><path stroke="#82211d" d="M6,10h2M6,11h2M4,12h4M4,13h4"/><path stroke="#3c3151" d="M14,10h2M14,11h2M12,12h4M12,13h4"/></svg>
