<svg xmlns="http://www.w3.org/2000/svg" shape-rendering="crispEdges" viewBox="0 -0.5 16 16" width="16" height="16"><metadata>Generated with pixel-perfect-svg https://github.com/kagof/pixel-perfect-svg</metadata><path stroke="#91daa1" opacity="0.24313725490196078" d="M5,0h1"/><path stroke="#91daa1" opacity="0.7568627450980392" d="M6,0h1"/><path stroke="#92dba2" d="M7,0h1"/><path stroke="#94dca3" d="M8,0h1"/><path stroke="#83d299" d="M9,0h1"/><path stroke="#64c086" d="M10,0h1"/><path stroke="#53b67d" opacity="0.7568627450980392" d="M11,0h1"/><path stroke="#52b57c" opacity="0.24313725490196078" d="M12,0h1"/><path stroke="#93dba2" opacity="0.24313725490196078" d="M5,1h1"/><path stroke="#92dba2" opacity="0.7568627450980392" d="M6,1h1"/><path stroke="#8fd9a0" d="M7,1h1"/><path stroke="#88d59c" d="M8,1h1M7,2h1"/><path stroke="#76c890" d="M9,1h1M7,3h1"/><path stroke="#5db47e" d="M10,1h1M9,2h1M8,3h1M7,4h1"/><path stroke="#51aa75" opacity="0.7568627450980392" d="M11,1h1"/><path stroke="#4fa974" opacity="0.24313725490196078" d="M12,1h1"/><path stroke="#95dca3" opacity="0.24313725490196078" d="M5,2h1"/><path stroke="#94dca3" opacity="0.7568627450980392" d="M6,2h1"/><path stroke="#71c88e" d="M8,2h1"/><path stroke="#519e6e" d="M10,2h1M8,4h1"/><path stroke="#4b9366" opacity="0.7568627450980392" d="M11,2h1"/><path stroke="#4b9265" opacity="0.24313725490196078" d="M12,2h1"/><path stroke="#85d39a" opacity="0.24313725490196078" d="M5,3h1"/><path stroke="#83d299" opacity="0.7686274509803922" d="M6,3h1"/><path stroke="#4da06f" d="M9,3h1"/><path stroke="#4a8f64" d="M10,3h1M9,4h1"/><path stroke="#48875f" opacity="0.7686274509803922" d="M11,3h1"/><path stroke="#48865e" opacity="0.24313725490196078" d="M12,3h1"/><path stroke="#65c187" opacity="0.24705882352941178" d="M5,4h1"/><path stroke="#64c086" opacity="0.7764705882352941" d="M6,4h1"/><path stroke="#498a61" d="M10,4h1"/><path stroke="#49885f" opacity="0.7764705882352941" d="M11,4h1"/><path stroke="#49885f" opacity="0.24705882352941178" d="M12,4h1"/><path stroke="#48c181" opacity="0.16862745098039217" d="M5,5h1"/><path stroke="#51b97e" opacity="0.5607843137254902" d="M6,5h1"/><path stroke="#4fac76" opacity="0.7647058823529411" d="M7,5h1"/><path stroke="#4b9367" opacity="0.7647058823529411" d="M8,5h1"/><path stroke="#48875e" opacity="0.7647058823529411" d="M9,5h1"/><path stroke="#48895e" opacity="0.7647058823529411" d="M10,5h1"/><path stroke="#488a5e" opacity="0.5607843137254902" d="M11,5h1"/><path stroke="#458c58" opacity="0.16862745098039217" d="M12,5h1"/><path stroke="#00fb98" opacity="0.03529411764705882" d="M5,6h1"/><path stroke="#41c685" opacity="0.1607843137254902" d="M6,6h1"/><path stroke="#47b179" opacity="0.23137254901960785" d="M7,6h1"/><path stroke="#489467" opacity="0.23921568627450981" d="M8,6h1"/><path stroke="#47875c" opacity="0.23921568627450981" d="M9,6h1"/><path stroke="#458a58" opacity="0.23137254901960785" d="M10,6h1"/><path stroke="#428f52" opacity="0.1607843137254902" d="M11,6h1"/><path stroke="#27a221" opacity="0.03529411764705882" d="M12,6h1"/><path stroke="#e45c5f" opacity="0.058823529411764705" d="M1,7h1"/><path stroke="#e45c5f" opacity="0.1803921568627451" d="M2,7h1M1,8h1"/><path stroke="#e55d60" opacity="0.24705882352941178" d="M3,7h1"/><path stroke="#e75e62" opacity="0.24705882352941178" d="M4,7h1"/><path stroke="#df5456" opacity="0.23921568627450981" d="M5,7h1"/><path stroke="#cd3c3c" opacity="0.22745098039215686" d="M6,7h1"/><path stroke="#c92b28" opacity="0.1568627450980392" d="M7,7h1"/><path stroke="#ff0000" opacity="0.027450980392156862" d="M8,7h1"/><path stroke="#944eff" opacity="0.027450980392156862" d="M9,7h1"/><path stroke="#7f5fcb" opacity="0.1568627450980392" d="M10,7h1"/><path stroke="#7e62c3" opacity="0.22745098039215686" d="M11,7h1"/><path stroke="#7c65c0" opacity="0.23921568627450981" d="M12,7h1"/><path stroke="#735fae" opacity="0.24313725490196078" d="M13,7h1"/><path stroke="#625290" opacity="0.24313725490196078" d="M14,7h1"/><path stroke="#594b80" opacity="0.24313725490196078" d="M15,7h1"/><path stroke="#e45c5f" opacity="0.5686274509803921" d="M2,8h1"/><path stroke="#e55d60" opacity="0.7764705882352941" d="M3,8h1"/><path stroke="#e65e61" opacity="0.7686274509803922" d="M4,8h1"/><path stroke="#db5455" opacity="0.7647058823529411" d="M5,8h1"/><path stroke="#c4433f" opacity="0.7647058823529411" d="M6,8h1"/><path stroke="#ba3830" opacity="0.5490196078431373" d="M7,8h1"/><path stroke="#c62d1e" opacity="0.14901960784313725" d="M8,8h1"/><path stroke="#7665d3" opacity="0.14901960784313725" d="M9,8h1"/><path stroke="#7964bf" opacity="0.5490196078431373" d="M10,8h1"/><path stroke="#7a64bd" opacity="0.7647058823529411" d="M11,8h1"/><path stroke="#7b65bd" opacity="0.7647058823529411" d="M12,8h1"/><path stroke="#725ead" opacity="0.7607843137254902" d="M13,8h1"/><path stroke="#61518e" opacity="0.7607843137254902" d="M14,8h1"/><path stroke="#584a7f" opacity="0.7568627450980392" d="M15,8h1"/><path stroke="#e55d60" opacity="0.24313725490196078" d="M1,9h1"/><path stroke="#e55d60" opacity="0.7647058823529411" d="M2,9h1"/><path stroke="#e35b5e" d="M3,9h1"/><path stroke="#de5759" d="M4,9h1M3,10h1"/><path stroke="#ce4d4c" d="M5,9h1M3,11h1"/><path stroke="#b53d38" d="M6,9h1M5,10h1M4,11h1M3,12h1"/><path stroke="#a9342b" opacity="0.7607843137254902" d="M7,9h1"/><path stroke="#ac2e1e" opacity="0.2235294117647059" d="M8,9h1"/><path stroke="#756acb" opacity="0.2235294117647059" d="M9,9h1"/><path stroke="#7965be" opacity="0.7607843137254902" d="M10,9h1"/><path stroke="#7863b8" d="M11,9h1"/><path stroke="#7460b2" d="M12,9h1M11,10h1"/><path stroke="#69579e" d="M13,9h1M11,11h1"/><path stroke="#594a81" d="M14,9h1M13,10h1M12,11h1M11,12h1"/><path stroke="#504372" d="M15,9h1"/><path stroke="#e75e62" opacity="0.23921568627450981" d="M1,10h1"/><path stroke="#e65d61" opacity="0.7568627450980392" d="M2,10h1"/><path stroke="#cd4b49" d="M4,10h1"/><path stroke="#9b2e29" d="M6,10h1M4,12h1"/><path stroke="#8e261f" opacity="0.7529411764705882" d="M7,10h1"/><path stroke="#8e1f11" opacity="0.2196078431372549" d="M8,10h1"/><path stroke="#796ccf" opacity="0.2196078431372549" d="M9,10h1"/><path stroke="#7a66c0" opacity="0.7529411764705882" d="M10,10h1"/><path stroke="#68579b" d="M12,10h1"/><path stroke="#4a3d68" d="M14,10h1M12,12h1"/><path stroke="#42375b" d="M15,10h1"/><path stroke="#db5657" opacity="0.23921568627450981" d="M1,11h1"/><path stroke="#da5556" opacity="0.7568627450980392" d="M2,11h1"/><path stroke="#9d2f29" d="M5,11h1"/><path stroke="#892520" d="M6,11h1M5,12h1"/><path stroke="#801f19" opacity="0.7529411764705882" d="M7,11h1"/><path stroke="#80180c" opacity="0.2196078431372549" d="M8,11h1"/><path stroke="#7166be" opacity="0.2196078431372549" d="M9,11h1"/><path stroke="#715fb0" opacity="0.7529411764705882" d="M10,11h1"/><path stroke="#4a3e68" d="M13,11h1"/><path stroke="#403457" d="M14,11h1M13,12h1"/><path stroke="#3b304f" d="M15,11h1"/><path stroke="#c44541" opacity="0.24313725490196078" d="M1,12h1"/><path stroke="#c24440" opacity="0.7647058823529411" d="M2,12h1"/><path stroke="#83221e" d="M6,12h1"/><path stroke="#821f1a" opacity="0.7607843137254902" d="M7,12h1"/><path stroke="#841b10" opacity="0.2235294117647059" d="M8,12h1"/><path stroke="#5e579c" opacity="0.2235294117647059" d="M9,12h1"/><path stroke="#605291" opacity="0.7607843137254902" d="M10,12h1"/><path stroke="#3d3252" d="M14,12h1"/><path stroke="#3b3050" d="M15,12h1"/><path stroke="#b83d35" opacity="0.17647058823529413" d="M1,13h1"/><path stroke="#b63c34" opacity="0.5607843137254902" d="M2,13h1"/><path stroke="#a8352e" opacity="0.7647058823529411" d="M3,13h1"/><path stroke="#8e2722" opacity="0.7568627450980392" d="M4,13h1"/><path stroke="#80201c" opacity="0.7568627450980392" d="M5,13h1"/><path stroke="#81201c" opacity="0.7647058823529411" d="M6,13h1"/><path stroke="#83201b" opacity="0.5568627450980392" d="M7,13h1"/><path stroke="#871d13" opacity="0.16470588235294117" d="M8,13h1"/><path stroke="#544f8b" opacity="0.16470588235294117" d="M9,13h1"/><path stroke="#574b81" opacity="0.5568627450980392" d="M10,13h1"/><path stroke="#504372" opacity="0.7647058823529411" d="M11,13h1"/><path stroke="#42375b" opacity="0.7568627450980392" d="M12,13h1"/><path stroke="#3b304f" opacity="0.7490196078431373" d="M13,13h1"/><path stroke="#3b3050" opacity="0.7490196078431373" d="M14,13h1"/><path stroke="#3c3151" opacity="0.7490196078431373" d="M15,13h1"/><path stroke="#b63c34" opacity="0.054901960784313725" d="M1,14h1"/><path stroke="#b53b33" opacity="0.17647058823529413" d="M2,14h1"/><path stroke="#a7342d" opacity="0.24313725490196078" d="M3,14h1"/><path stroke="#8c2621" opacity="0.23921568627450981" d="M4,14h1"/><path stroke="#7e1f1b" opacity="0.23921568627450981" d="M5,14h1"/><path stroke="#80201c" opacity="0.24313725490196078" d="M6,14h1"/><path stroke="#83201b" opacity="0.17647058823529413" d="M7,14h1"/><path stroke="#871d13" opacity="0.050980392156862744" d="M8,14h1"/><path stroke="#534e89" opacity="0.050980392156862744" d="M9,14h1"/><path stroke="#564a7f" opacity="0.17647058823529413" d="M10,14h1"/><path stroke="#4f4371" opacity="0.24313725490196078" d="M11,14h1"/><path stroke="#41365a" opacity="0.23921568627450981" d="M12,14h1"/><path stroke="#3a2f4e" opacity="0.23529411764705882" d="M13,14h1"/><path stroke="#3b3050" opacity="0.23529411764705882" d="M14,14h1"/><path stroke="#3c3151" opacity="0.23529411764705882" d="M15,14h1"/></svg>
