<svg xmlns="http://www.w3.org/2000/svg" shape-rendering="crispEdges" viewBox="0 -0.5 16 16" width="16" height="16"><metadata>Generated with pixel-perfect-svg https://github.com/kagof/pixel-perfect-svg</metadata><path stroke="#ebf0f6" d="M4,0h2M4,1h2M2,2h2M2,3h2M0,4h2M0,5h2"/><path stroke="#cdd2da" d="M6,0h4M6,1h4M0,6h2M0,7h2"/><path stroke="#bac7db" d="M10,0h2M10,1h2M14,4h2M14,5h2M0,8h2M0,9h2M0,10h2M0,11h2M2,12h2M2,13h2M4,14h2M4,15h2"/><path stroke="#3d5083" d="M12,0h2M12,1h2M10,2h2M10,3h2M6,4h2M6,5h2M4,6h2M4,7h2"/><path stroke="#2d3d72" d="M12,2h4M12,3h4M8,4h2M8,5h2M6,6h2M10,6h2M6,7h2M10,7h2M4,8h6M4,9h6"/><path stroke="#28335d" d="M12,4h2M12,5h2M10,8h2M10,9h2M6,10h4M6,11h4"/><path stroke="#abaebe" d="M14,6h2M14,7h2M14,8h2M14,9h2M6,14h2M6,15h2"/><path stroke="#848795" d="M14,10h2M14,11h2M12,12h2M12,13h2M8,14h4M8,15h4"/></svg>
