<svg xmlns="http://www.w3.org/2000/svg" shape-rendering="crispEdges" viewBox="0 -0.5 16 16" width="16" height="16"><metadata>Generated with pixel-perfect-svg https://github.com/kagof/pixel-perfect-svg</metadata><path stroke="#edf2f8" opacity="0.2235294117647059" d="M3,0h1M0,3h1"/><path stroke="#ecf1f7" opacity="0.7725490196078432" d="M4,0h1M0,4h1"/><path stroke="#e4e9ef" d="M5,0h1M0,5h1"/><path stroke="#d5dae1" d="M6,0h1M0,6h1"/><path stroke="#cdd1d9" d="M7,0h1"/><path stroke="#cdd2da" d="M8,0h1"/><path stroke="#cbd2dc" d="M9,0h1"/><path stroke="#c5cfdf" d="M10,0h1"/><path stroke="#9dacc7" d="M11,0h1"/><path stroke="#5b6d99" d="M12,0h1"/><path stroke="#3a4d81" opacity="0.7411764705882353" d="M13,0h1"/><path stroke="#374a7f" opacity="0.21176470588235294" d="M14,0h1"/><path stroke="#ebf0f6" opacity="0.0392156862745098" d="M1,1h1"/><path stroke="#ebf0f6" opacity="0.17254901960784313" d="M2,1h1M1,2h1"/><path stroke="#ecf1f7" opacity="0.3803921568627451" d="M3,1h1M1,3h1"/><path stroke="#ecf1f7" opacity="0.6431372549019608" d="M4,1h1M1,4h1"/><path stroke="#e5eaf0" opacity="0.7725490196078432" d="M5,1h1M1,5h1"/><path stroke="#d7dbe2" opacity="0.7607843137254902" d="M6,1h1"/><path stroke="#d0d5dc" opacity="0.7450980392156863" d="M7,1h1"/><path stroke="#d1d6dc" opacity="0.7450980392156863" d="M8,1h1"/><path stroke="#c2cad6" opacity="0.8156862745098039" d="M9,1h1"/><path stroke="#a8b4cb" opacity="0.9490196078431372" d="M10,1h1"/><path stroke="#8292b4" d="M11,1h1"/><path stroke="#516290" d="M12,1h1"/><path stroke="#35477c" opacity="0.807843137254902" d="M13,1h1"/><path stroke="#2d3e74" opacity="0.41568627450980394" d="M14,1h1"/><path stroke="#213169" opacity="0.21176470588235294" d="M15,1h1"/><path stroke="#ebf0f6" opacity="0.5843137254901961" d="M2,2h1"/><path stroke="#ebf0f6" opacity="0.6627450980392157" d="M3,2h1M2,3h1"/><path stroke="#ebf0f6" opacity="0.38823529411764707" d="M4,2h1M2,4h1"/><path stroke="#e7ecf1" opacity="0.23529411764705882" d="M5,2h1"/><path stroke="#dfe3e7" opacity="0.22745098039215686" d="M6,2h1"/><path stroke="#e4e7e8" opacity="0.21568627450980393" d="M7,2h1"/><path stroke="#ebedec" opacity="0.21176470588235294" d="M8,2h1"/><path stroke="#939fb9" opacity="0.4196078431372549" d="M9,2h1"/><path stroke="#66769f" opacity="0.8313725490196079" d="M10,2h1"/><path stroke="#516390" d="M11,2h1"/><path stroke="#3c4d7f" d="M12,2h1"/><path stroke="#2e3f74" opacity="0.9372549019607843" d="M13,2h1"/><path stroke="#2a3b70" opacity="0.807843137254902" d="M14,2h1"/><path stroke="#28386e" opacity="0.7411764705882353" d="M15,2h1"/><path stroke="#edf2f7" opacity="0.592156862745098" d="M3,3h1"/><path stroke="#fdffff" opacity="0.1607843137254902" d="M4,3h1M3,4h1"/><path stroke="#000000" opacity="0.00392156862745098" d="M5,3h1M3,5h1M3,10h1M12,10h1M5,12h1M10,12h1"/><path stroke="#182f6c" opacity="0.1450980392156863" d="M6,3h1M3,6h1"/><path stroke="#2a3e76" opacity="0.2196078431372549" d="M7,3h1"/><path stroke="#1f316b" opacity="0.2196078431372549" d="M8,3h1"/><path stroke="#2b3e75" opacity="0.35294117647058826" d="M9,3h1"/><path stroke="#374a7f" opacity="0.615686274509804" d="M10,3h1"/><path stroke="#35477a" opacity="0.8196078431372549" d="M11,3h1"/><path stroke="#2d3d70" opacity="0.9568627450980393" d="M12,3h1"/><path stroke="#344374" d="M13,3h1"/><path stroke="#465584" d="M14,3h1"/><path stroke="#505f8c" d="M15,3h1"/><path stroke="#ffffff" opacity="0.00784313725490196" d="M4,4h1M4,11h1M11,11h1"/><path stroke="#263c75" opacity="0.1450980392156863" d="M5,4h1"/><path stroke="#394c81" opacity="0.5490196078431373" d="M6,4h1M4,6h1"/><path stroke="#37497d" opacity="0.7764705882352941" d="M7,4h1"/><path stroke="#2e3f74" opacity="0.7843137254901961" d="M8,4h1"/><path stroke="#2b3b71" opacity="0.6235294117647059" d="M9,4h1"/><path stroke="#304278" opacity="0.3333333333333333" d="M10,4h1"/><path stroke="#2a3a6a" opacity="0.4" d="M11,4h1"/><path stroke="#273361" opacity="0.8196078431372549" d="M12,4h1"/><path stroke="#445079" d="M13,4h1"/><path stroke="#7c89aa" d="M14,4h1"/><path stroke="#9aa8c4" d="M15,4h1"/><path stroke="#e8ecf1" opacity="0.23529411764705882" d="M2,5h1"/><path stroke="#263b75" opacity="0.1450980392156863" d="M4,5h1"/><path stroke="#3c4f82" opacity="0.4392156862745098" d="M5,5h1"/><path stroke="#3a4c80" opacity="0.8431372549019608" d="M6,5h1"/><path stroke="#37497c" opacity="0.9882352941176471" d="M7,5h1"/><path stroke="#314176" opacity="0.8549019607843137" d="M8,5h1"/><path stroke="#2c3d72" opacity="0.6196078431372549" d="M9,5h1"/><path stroke="#2c3c72" opacity="0.3333333333333333" d="M10,5h1"/><path stroke="#233061" opacity="0.3333333333333333" d="M11,5h1"/><path stroke="#232e59" opacity="0.615686274509804" d="M12,5h1"/><path stroke="#545f81" opacity="0.8313725490196079" d="M13,5h1"/><path stroke="#9da8be" opacity="0.9490196078431372" d="M14,5h1"/><path stroke="#bdc8d9" d="M15,5h1"/><path stroke="#d7dce2" opacity="0.7607843137254902" d="M1,6h1"/><path stroke="#e0e3e7" opacity="0.22745098039215686" d="M2,6h1"/><path stroke="#3a4c80" opacity="0.8509803921568627" d="M5,6h1"/><path stroke="#344579" opacity="0.984313725490196" d="M6,6h1"/><path stroke="#314176" opacity="0.8235294117647058" d="M7,6h1"/><path stroke="#2f3f74" opacity="0.4117647058823529" d="M8,6h1"/><path stroke="#2d3d72" opacity="0.34509803921568627" d="M9,6h1"/><path stroke="#2d3d72" opacity="0.6196078431372549" d="M10,6h1"/><path stroke="#29396e" opacity="0.6235294117647059" d="M11,6h1"/><path stroke="#212f61" opacity="0.35294117647058826" d="M12,6h1"/><path stroke="#7a819b" opacity="0.4196078431372549" d="M13,6h1"/><path stroke="#a8aec0" opacity="0.8156862745098039" d="M14,6h1"/><path stroke="#b2b7c7" d="M15,6h1"/><path stroke="#c8cfda" d="M0,7h1"/><path stroke="#cbd1db" opacity="0.7490196078431373" d="M1,7h1"/><path stroke="#d7dce3" opacity="0.22745098039215686" d="M2,7h1"/><path stroke="#2b3f76" opacity="0.22745098039215686" d="M3,7h1"/><path stroke="#37497d" opacity="0.7725490196078432" d="M4,7h1"/><path stroke="#36487c" d="M5,7h1"/><path stroke="#304075" d="M6,7h1"/><path stroke="#2c3c72" opacity="0.8" d="M7,7h1"/><path stroke="#2d3d72" opacity="0.38823529411764707" d="M8,7h1"/><path stroke="#2c3c6f" opacity="0.4117647058823529" d="M9,7h1"/><path stroke="#2c3b6d" opacity="0.8549019607843137" d="M10,7h1"/><path stroke="#29386b" opacity="0.7843137254901961" d="M11,7h1"/><path stroke="#1f2f65" opacity="0.2196078431372549" d="M12,7h1"/><path stroke="#c5c6cf" opacity="0.21176470588235294" d="M13,7h1"/><path stroke="#afb1c0" opacity="0.7450980392156863" d="M14,7h1"/><path stroke="#abaebe" d="M15,7h1"/><path stroke="#bec9da" d="M0,8h1"/><path stroke="#c1ccdc" opacity="0.7490196078431373" d="M1,8h1"/><path stroke="#cdd7e5" opacity="0.22745098039215686" d="M2,8h1"/><path stroke="#23346c" opacity="0.22745098039215686" d="M3,8h1"/><path stroke="#2e3f74" opacity="0.7725490196078432" d="M4,8h1"/><path stroke="#304175" d="M5,8h1"/><path stroke="#2e3e73" d="M6,8h1"/><path stroke="#2d3d72" opacity="0.9333333333333333" d="M7,8h1"/><path stroke="#2d3d73" opacity="0.8" d="M8,8h1"/><path stroke="#2c3b6d" opacity="0.8235294117647058" d="M9,8h1"/><path stroke="#2a3765" opacity="0.9882352941176471" d="M10,8h1"/><path stroke="#273360" opacity="0.7764705882352941" d="M11,8h1"/><path stroke="#1b2858" opacity="0.2196078431372549" d="M12,8h1"/><path stroke="#c1c2ce" opacity="0.21568627450980393" d="M13,8h1"/><path stroke="#afb2c1" opacity="0.7450980392156863" d="M14,8h1"/><path stroke="#acaebe" d="M15,8h1"/><path stroke="#bac7db" d="M0,9h1M0,10h1"/><path stroke="#bcc9dd" opacity="0.7607843137254902" d="M1,9h1"/><path stroke="#c4d1e3" opacity="0.22745098039215686" d="M2,9h1"/><path stroke="#0a1b58" opacity="0.1450980392156863" d="M3,9h1"/><path stroke="#28386e" opacity="0.5490196078431373" d="M4,9h1"/><path stroke="#2c3c70" opacity="0.8392156862745098" d="M5,9h1"/><path stroke="#2c3b6e" opacity="0.9647058823529412" d="M6,9h1"/><path stroke="#2c3b6d" d="M7,9h2"/><path stroke="#2b396a" opacity="0.984313725490196" d="M9,9h1"/><path stroke="#293561" opacity="0.8431372549019608" d="M10,9h1"/><path stroke="#242f59" opacity="0.5490196078431373" d="M11,9h1"/><path stroke="#0c1848" opacity="0.1450980392156863" d="M12,9h1"/><path stroke="#acaebc" opacity="0.22745098039215686" d="M13,9h1"/><path stroke="#a3a6b5" opacity="0.7607843137254902" d="M14,9h1"/><path stroke="#a1a4b4" d="M15,9h1"/><path stroke="#bac7db" opacity="0.7725490196078432" d="M1,10h1M0,11h1"/><path stroke="#bdcade" opacity="0.23529411764705882" d="M2,10h1"/><path stroke="#182864" opacity="0.1450980392156863" d="M4,10h1"/><path stroke="#2b3869" opacity="0.43529411764705883" d="M5,10h1"/><path stroke="#293663" opacity="0.8392156862745098" d="M6,10h1"/><path stroke="#293562" d="M7,10h2"/><path stroke="#293562" opacity="0.8509803921568627" d="M9,10h1"/><path stroke="#29345f" opacity="0.4392156862745098" d="M10,10h1"/><path stroke="#192451" opacity="0.1450980392156863" d="M11,10h1"/><path stroke="#9093a1" opacity="0.23529411764705882" d="M13,10h1"/><path stroke="#8e919f" opacity="0.7725490196078432" d="M14,10h1"/><path stroke="#8d909f" d="M15,10h1"/><path stroke="#bac7db" opacity="0.6431372549019608" d="M1,11h1"/><path stroke="#bac7db" opacity="0.38823529411764707" d="M2,11h1M4,13h1"/><path stroke="#c9d6e8" opacity="0.1607843137254902" d="M3,11h1"/><path stroke="#121c48" opacity="0.1450980392156863" d="M5,11h1"/><path stroke="#232e58" opacity="0.5490196078431373" d="M6,11h1"/><path stroke="#26315b" opacity="0.7725490196078432" d="M7,11h2"/><path stroke="#25305a" opacity="0.5490196078431373" d="M9,11h1"/><path stroke="#1a2654" opacity="0.1450980392156863" d="M10,11h1"/><path stroke="#8e909b" opacity="0.1607843137254902" d="M12,11h1M11,12h1"/><path stroke="#838694" opacity="0.38823529411764707" d="M13,11h1"/><path stroke="#838694" opacity="0.6431372549019608" d="M14,11h1"/><path stroke="#838694" opacity="0.7725490196078432" d="M15,11h1"/><path stroke="#bac7db" opacity="0.2235294117647059" d="M0,12h1"/><path stroke="#bac7db" opacity="0.3803921568627451" d="M1,12h1"/><path stroke="#bac7db" opacity="0.6627450980392157" d="M2,12h1M3,13h1"/><path stroke="#bcc9dc" opacity="0.592156862745098" d="M3,12h1"/><path stroke="#c9d6e7" opacity="0.1607843137254902" d="M4,12h1"/><path stroke="#05113f" opacity="0.1450980392156863" d="M6,12h1"/><path stroke="#1b2753" opacity="0.22745098039215686" d="M7,12h1"/><path stroke="#1d2955" opacity="0.22745098039215686" d="M8,12h1"/><path stroke="#111e4e" opacity="0.1450980392156863" d="M9,12h1"/><path stroke="#858896" opacity="0.592156862745098" d="M12,12h1"/><path stroke="#848795" opacity="0.6627450980392157" d="M13,12h1M12,13h1"/><path stroke="#838694" opacity="0.3803921568627451" d="M14,12h1"/><path stroke="#818492" opacity="0.2235294117647059" d="M15,12h1"/><path stroke="#bac7db" opacity="0.17254901960784313" d="M1,13h1M2,14h1"/><path stroke="#bac7db" opacity="0.5843137254901961" d="M2,13h1"/><path stroke="#bac5d7" opacity="0.23529411764705882" d="M5,13h1"/><path stroke="#babecd" opacity="0.22745098039215686" d="M6,13h1"/><path stroke="#aeb0bd" opacity="0.22745098039215686" d="M7,13h1"/><path stroke="#989aa5" opacity="0.22745098039215686" d="M8,13h1"/><path stroke="#8a8c98" opacity="0.22745098039215686" d="M9,13h1"/><path stroke="#868896" opacity="0.23529411764705882" d="M10,13h1"/><path stroke="#848795" opacity="0.38823529411764707" d="M11,13h1"/><path stroke="#848795" opacity="0.5843137254901961" d="M13,13h1"/><path stroke="#848795" opacity="0.17254901960784313" d="M14,13h1M13,14h1"/><path stroke="#bac7db" opacity="0.0392156862745098" d="M1,14h1"/><path stroke="#bac8dc" opacity="0.3803921568627451" d="M3,14h1"/><path stroke="#bac8dc" opacity="0.6431372549019608" d="M4,14h1"/><path stroke="#b8c2d5" opacity="0.7725490196078432" d="M5,14h1"/><path stroke="#b2b7c8" opacity="0.7607843137254902" d="M6,14h1"/><path stroke="#a4a6b5" opacity="0.7490196078431373" d="M7,14h1"/><path stroke="#8f92a0" opacity="0.7490196078431373" d="M8,14h1"/><path stroke="#848795" opacity="0.7607843137254902" d="M9,14h1"/><path stroke="#848795" opacity="0.7725490196078432" d="M10,14h1M11,15h1"/><path stroke="#848795" opacity="0.6431372549019608" d="M11,14h1"/><path stroke="#848795" opacity="0.3803921568627451" d="M12,14h1"/><path stroke="#848795" opacity="0.0392156862745098" d="M14,14h1"/><path stroke="#bbc9dd" opacity="0.2235294117647059" d="M3,15h1"/><path stroke="#bac8dc" opacity="0.7725490196078432" d="M4,15h1"/><path stroke="#b7c2d5" d="M5,15h1"/><path stroke="#b0b5c6" d="M6,15h1"/><path stroke="#a1a4b3" d="M7,15h1"/><path stroke="#8d909e" d="M8,15h1"/><path stroke="#838694" d="M9,15h2"/><path stroke="#848795" opacity="0.2235294117647059" d="M12,15h1"/></svg>
