<svg xmlns="http://www.w3.org/2000/svg" shape-rendering="crispEdges" viewBox="0 -0.5 16 16" width="16" height="16"><metadata>Generated with pixel-perfect-svg https://github.com/kagof/pixel-perfect-svg</metadata><path stroke="#ecf0f6" opacity="0.21568627450980393" d="M7,0h1"/><path stroke="#ecf0f6" opacity="0.7490196078431373" d="M8,0h1"/><path stroke="#edf1f6" d="M9,0h2"/><path stroke="#e0e6ef" d="M11,0h1"/><path stroke="#c7d0e0" d="M12,0h1"/><path stroke="#bac5d9" opacity="0.7411764705882353" d="M13,0h1"/><path stroke="#b8c4d8" opacity="0.21176470588235294" d="M14,0h1"/><path stroke="#eef0f5" opacity="0.047058823529411764" d="M5,1h1"/><path stroke="#ecf0f6" opacity="0.1607843137254902" d="M6,1h1"/><path stroke="#e6eff7" opacity="0.42745098039215684" d="M7,1h1"/><path stroke="#e3eff8" opacity="0.8196078431372549" d="M8,1h1"/><path stroke="#e3f0f8" d="M9,1h1M7,3h1"/><path stroke="#e4f0f9" d="M10,1h1M7,4h1"/><path stroke="#d6e6f3" d="M11,1h1"/><path stroke="#bbd3e8" d="M12,1h1"/><path stroke="#aec9e2" opacity="0.807843137254902" d="M13,1h1"/><path stroke="#b1c8df" opacity="0.41568627450980394" d="M14,1h1"/><path stroke="#bcc6da" opacity="0.21176470588235294" d="M15,1h1"/><path stroke="#edf0f5" opacity="0.17647058823529413" d="M5,2h1"/><path stroke="#ecf0f6" opacity="0.5607843137254902" d="M6,2h1"/><path stroke="#e3eff8" opacity="0.8274509803921568" d="M7,2h1"/><path stroke="#d5eefb" opacity="0.9490196078431372" d="M8,2h1"/><path stroke="#d0edfd" d="M9,2h1M8,3h1"/><path stroke="#d2eefd" d="M10,2h1M8,4h1"/><path stroke="#c2e7fb" d="M11,2h1"/><path stroke="#a2d9f8" d="M12,2h1"/><path stroke="#9bcff0" opacity="0.9372549019607843" d="M13,2h1"/><path stroke="#aecae3" opacity="0.807843137254902" d="M14,2h1"/><path stroke="#bcc7da" opacity="0.7411764705882353" d="M15,2h1"/><path stroke="#eef1f6" opacity="0.24705882352941178" d="M5,3h1M5,4h1"/><path stroke="#edf1f6" opacity="0.7764705882352941" d="M6,3h1"/><path stroke="#c2ebff" d="M9,3h1"/><path stroke="#bbe8ff" d="M10,3h1M9,4h1"/><path stroke="#aae3ff" d="M11,3h1M9,5h1"/><path stroke="#92dbff" d="M12,3h1"/><path stroke="#94d3f7" d="M13,3h1"/><path stroke="#aecbe4" d="M14,3h1"/><path stroke="#bcc7da" d="M15,3h1"/><path stroke="#edf1f6" opacity="0.7686274509803922" d="M6,4h1"/><path stroke="#a2dfff" d="M10,4h1"/><path stroke="#91daff" d="M11,4h1"/><path stroke="#8bd8ff" d="M12,4h1"/><path stroke="#96d3f7" d="M13,4h1"/><path stroke="#afcbe4" d="M14,4h1"/><path stroke="#bcc7db" d="M15,4h1"/><path stroke="#e1e6ee" opacity="0.23137254901960785" d="M5,5h1"/><path stroke="#e0e6ef" opacity="0.7529411764705882" d="M6,5h1"/><path stroke="#d6e7f3" d="M7,5h1"/><path stroke="#c2e7fc" d="M8,5h1"/><path stroke="#92daff" d="M10,5h1"/><path stroke="#7ed4fe" d="M11,5h1"/><path stroke="#71cff9" d="M12,5h1M11,6h1"/><path stroke="#80c9ed" d="M13,5h1"/><path stroke="#a5c3db" d="M14,5h1"/><path stroke="#b8c0d3" d="M15,5h1"/><path stroke="#c6cede" opacity="0.2235294117647059" d="M5,6h1"/><path stroke="#c7d0e0" opacity="0.7529411764705882" d="M6,6h1"/><path stroke="#bbd4e9" d="M7,6h1"/><path stroke="#a3daf9" d="M8,6h1"/><path stroke="#92dcff" d="M9,6h1"/><path stroke="#8bd9ff" d="M10,6h1"/><path stroke="#49bfe9" d="M12,6h1"/><path stroke="#55b6d9" d="M13,6h1"/><path stroke="#92b4cb" d="M14,6h1"/><path stroke="#b2b4c4" d="M15,6h1"/><path stroke="#ffffff" opacity="0.03529411764705882" d="M3,7h1M1,9h1"/><path stroke="#f6f9fc" opacity="0.1607843137254902" d="M4,7h1"/><path stroke="#d2dae7" opacity="0.43137254901960786" d="M5,7h1"/><path stroke="#becadc" opacity="0.8196078431372549" d="M6,7h1"/><path stroke="#afc7df" d="M7,7h1"/><path stroke="#99caea" d="M8,7h1"/><path stroke="#90ccf0" d="M9,7h1"/><path stroke="#92cdf0" d="M10,7h1"/><path stroke="#7dc4e7" d="M11,7h1"/><path stroke="#54b4d7" d="M12,7h1"/><path stroke="#57accb" opacity="0.9490196078431372" d="M13,7h1"/><path stroke="#8badc2" opacity="0.8196078431372549" d="M14,7h1"/><path stroke="#afadbc" opacity="0.7490196078431373" d="M15,7h1"/><path stroke="#f1f5f9" opacity="0.1607843137254902" d="M3,8h1"/><path stroke="#eff3f8" opacity="0.5647058823529412" d="M4,8h1"/><path stroke="#dee5ef" opacity="0.8352941176470589" d="M5,8h1"/><path stroke="#c5d0e1" opacity="0.9529411764705882" d="M6,8h1"/><path stroke="#b3c2d7" d="M7,8h1"/><path stroke="#a7bad0" d="M8,8h1"/><path stroke="#a2b7cd" d="M9,8h1"/><path stroke="#a3b7cd" d="M10,8h1"/><path stroke="#9cb5cb" d="M11,8h1"/><path stroke="#8fb0c6" d="M12,8h1"/><path stroke="#8badc2" opacity="0.8274509803921568" d="M13,8h1"/><path stroke="#97adc0" opacity="0.42745098039215684" d="M14,8h1"/><path stroke="#afacbb" opacity="0.21568627450980393" d="M15,8h1"/><path stroke="#f1f5f9" opacity="0.1568627450980392" d="M2,9h1"/><path stroke="#e7edf4" opacity="0.43529411764705883" d="M3,9h1"/><path stroke="#e2e9f1" opacity="0.8392156862745098" d="M4,9h1M3,10h1"/><path stroke="#d6deea" d="M5,9h1"/><path stroke="#c1cadb" d="M6,9h1M3,12h1"/><path stroke="#b3bcce" opacity="0.9529411764705882" d="M7,9h1"/><path stroke="#aeb2c3" opacity="0.8196078431372549" d="M8,9h1"/><path stroke="#acacbb" opacity="0.7529411764705882" d="M9,9h2"/><path stroke="#adadbc" opacity="0.7686274509803922" d="M11,9h1"/><path stroke="#aeaebd" opacity="0.7764705882352941" d="M12,9h1"/><path stroke="#afaebd" opacity="0.5607843137254902" d="M13,9h1"/><path stroke="#b0aebd" opacity="0.1607843137254902" d="M14,9h1"/><path stroke="#f6f9fc" opacity="0.1568627450980392" d="M1,10h1"/><path stroke="#eff3f8" opacity="0.5568627450980392" d="M2,10h1"/><path stroke="#cfd9e7" opacity="0.9647058823529412" d="M4,10h1"/><path stroke="#c0cadb" d="M5,10h1M4,11h1"/><path stroke="#b4bbcc" d="M6,10h1M4,12h1"/><path stroke="#aeb2c3" opacity="0.8352941176470589" d="M7,10h1"/><path stroke="#adafbf" opacity="0.43137254901960786" d="M8,10h1"/><path stroke="#adabb9" opacity="0.2235294117647059" d="M9,10h1"/><path stroke="#adabb9" opacity="0.23137254901960785" d="M10,10h1"/><path stroke="#afacbb" opacity="0.24705882352941178" d="M11,10h1"/><path stroke="#b2adbc" opacity="0.24705882352941178" d="M12,10h1"/><path stroke="#b4aebd" opacity="0.17647058823529413" d="M13,10h1"/><path stroke="#b6aebc" opacity="0.047058823529411764" d="M14,10h1"/><path stroke="#b5c2d8" opacity="0.21568627450980393" d="M0,11h1"/><path stroke="#d1dae8" opacity="0.42745098039215684" d="M1,11h1"/><path stroke="#dee5ef" opacity="0.8274509803921568" d="M2,11h1"/><path stroke="#d6dee9" d="M3,11h1"/><path stroke="#b2bbce" opacity="0.9647058823529412" d="M5,11h1"/><path stroke="#adb2c3" opacity="0.8392156862745098" d="M6,11h1M5,12h1"/><path stroke="#aaacbc" opacity="0.5647058823529412" d="M7,11h1"/><path stroke="#aaabbb" opacity="0.1607843137254902" d="M8,11h1M7,12h1"/><path stroke="#b9c7db" opacity="0.7490196078431373" d="M0,12h1"/><path stroke="#becbde" opacity="0.8196078431372549" d="M1,12h1"/><path stroke="#c5d0e2" opacity="0.9490196078431372" d="M2,12h1"/><path stroke="#abafc0" opacity="0.43529411764705883" d="M6,12h1"/><path stroke="#a8a9b8" opacity="0.03529411764705882" d="M8,12h1M6,14h1"/><path stroke="#bac7db" d="M0,13h1"/><path stroke="#b9c5d9" d="M1,13h1"/><path stroke="#b7c2d5" d="M2,13h1"/><path stroke="#b3bcce" opacity="0.9490196078431372" d="M3,13h1"/><path stroke="#aeb2c3" opacity="0.8274509803921568" d="M4,13h1"/><path stroke="#aaacbc" opacity="0.5568627450980392" d="M5,13h1"/><path stroke="#aaabbb" opacity="0.1568627450980392" d="M6,13h1M5,14h1"/><path stroke="#bac8dc" d="M0,14h1M0,15h1"/><path stroke="#b7c2d6" d="M1,14h1"/><path stroke="#b1b8ca" d="M2,14h1"/><path stroke="#adb2c3" opacity="0.8196078431372549" d="M3,14h1"/><path stroke="#acb0c0" opacity="0.42745098039215684" d="M4,14h1"/><path stroke="#b6c1d4" d="M1,15h1"/><path stroke="#aeb4c4" d="M2,15h1"/><path stroke="#aaacbc" opacity="0.7490196078431373" d="M3,15h1"/><path stroke="#a9abbb" opacity="0.21568627450980393" d="M4,15h1"/></svg>
