<svg xmlns="http://www.w3.org/2000/svg" shape-rendering="crispEdges" viewBox="0 -0.5 16 16" width="16" height="16"><metadata>Generated with pixel-perfect-svg https://github.com/kagof/pixel-perfect-svg</metadata><path stroke="#ebf0f6" d="M8,0h4M8,1h4M6,2h2M6,3h2M6,4h2M6,5h2M4,8h2M4,9h2M2,10h2M2,11h2"/><path stroke="#bac7db" d="M12,0h2M12,1h2M14,2h2M14,3h2M14,4h2M14,5h2M6,6h2M6,7h2M6,8h2M6,9h2M4,10h2M4,11h2M0,12h4M0,13h4M0,14h2M0,15h2"/><path stroke="#c6ecff" d="M8,2h4M8,3h4M8,4h2M8,5h2"/><path stroke="#88d6ff" d="M12,2h2M12,3h2M10,4h4M10,5h4M8,6h4M8,7h4"/><path stroke="#24aed6" d="M12,6h2M12,7h2"/><path stroke="#abaebe" d="M14,6h2M14,7h2M8,8h6M8,9h6M6,10h2M6,11h2M4,12h2M4,13h2M2,14h2M2,15h2"/></svg>
