<svg xmlns="http://www.w3.org/2000/svg" shape-rendering="crispEdges" viewBox="0 -0.5 16 16" width="16" height="16"><metadata>Generated with pixel-perfect-svg https://github.com/kagof/pixel-perfect-svg</metadata><path stroke="#c6ecff" d="M0,2h2M0,3h2"/><path stroke="#6dccff" d="M6,2h2M12,2h2M6,3h2M12,3h2M0,4h4M0,5h4"/><path stroke="#41b2e3" d="M4,4h4M12,4h2M4,5h4M12,5h2"/><path stroke="#24aed6" d="M0,6h2M6,6h2M12,6h2M0,7h2M6,7h2M12,7h2M0,8h2M6,8h2M10,8h4M0,9h2M6,9h2M10,9h4"/><path stroke="#318eb8" d="M2,6h4M2,7h4M14,8h2M14,9h2M0,10h2M6,10h2M12,10h2M0,11h2M6,11h2M12,11h2"/><path stroke="#366b8a" d="M10,10h2M14,10h2M10,11h2M14,11h2M0,12h2M6,12h2M12,12h2M0,13h2M6,13h2M12,13h2"/></svg>
