<svg xmlns="http://www.w3.org/2000/svg" shape-rendering="crispEdges" viewBox="0 -0.5 16 16" width="16" height="16"><metadata>Generated with pixel-perfect-svg https://github.com/kagof/pixel-perfect-svg</metadata><path stroke="#cbeeff" opacity="0.24313725490196078" d="M0,1h1"/><path stroke="#cdefff" opacity="0.17647058823529413" d="M1,1h1"/><path stroke="#e0f5ff" opacity="0.047058823529411764" d="M2,1h1"/><path stroke="#7ad4ff" opacity="0.050980392156862744" d="M5,1h1"/><path stroke="#71ceff" opacity="0.1803921568627451" d="M6,1h1"/><path stroke="#70ceff" opacity="0.1843137254901961" d="M7,1h1M12,1h1"/><path stroke="#70cdff" opacity="0.058823529411764705" d="M8,1h1"/><path stroke="#70ceff" opacity="0.058823529411764705" d="M11,1h1M14,1h1"/><path stroke="#70ceff" opacity="0.1803921568627451" d="M13,1h1"/><path stroke="#c9edff" opacity="0.7725490196078432" d="M0,2h1"/><path stroke="#caedff" opacity="0.5647058823529412" d="M1,2h1"/><path stroke="#d2f0ff" opacity="0.17254901960784313" d="M2,2h1"/><path stroke="#73d0ff" opacity="0.17254901960784313" d="M5,2h1"/><path stroke="#6fcdff" opacity="0.5803921568627451" d="M6,2h1"/><path stroke="#6ecdff" opacity="0.5843137254901961" d="M7,2h1M12,2h1"/><path stroke="#6ecdff" opacity="0.19215686274509805" d="M8,2h1M11,2h1"/><path stroke="#6ecdff" opacity="0.5764705882352941" d="M13,2h1"/><path stroke="#6ecdff" opacity="0.18823529411764706" d="M14,2h1"/><path stroke="#b3e5ff" d="M0,3h1"/><path stroke="#aee4ff" opacity="0.8392156862745098" d="M1,3h1"/><path stroke="#98ddff" opacity="0.4392156862745098" d="M2,3h1"/><path stroke="#5dc6fc" opacity="0.21176470588235294" d="M3,3h1"/><path stroke="#44b7ea" opacity="0.21176470588235294" d="M4,3h1"/><path stroke="#55bef0" opacity="0.4470588235294118" d="M5,3h1"/><path stroke="#61c5f7" opacity="0.8588235294117647" d="M6,3h1"/><path stroke="#63c6f9" opacity="0.796078431372549" d="M7,3h1"/><path stroke="#63c6f9" opacity="0.25882352941176473" d="M8,3h1"/><path stroke="#63c6f9" opacity="0.2627450980392157" d="M11,3h1"/><path stroke="#63c6f9" opacity="0.8" d="M12,3h1"/><path stroke="#63c6f9" opacity="0.788235294117647" d="M13,3h1"/><path stroke="#63c6f9" opacity="0.2549019607843137" d="M14,3h1"/><path stroke="#86d5ff" d="M0,4h1"/><path stroke="#81d4ff" opacity="0.9529411764705882" d="M1,4h1"/><path stroke="#77d1ff" opacity="0.8235294117647058" d="M2,4h1"/><path stroke="#63c7fa" opacity="0.7490196078431373" d="M3,4h1"/><path stroke="#4cb9eb" opacity="0.7490196078431373" d="M4,4h1"/><path stroke="#44b4e6" opacity="0.8352941176470589" d="M5,4h1"/><path stroke="#4ab7e9" opacity="0.9764705882352941" d="M6,4h1"/><path stroke="#4db9eb" opacity="0.7764705882352941" d="M7,4h1"/><path stroke="#4db9eb" opacity="0.24705882352941178" d="M8,4h1"/><path stroke="#4db9ea" opacity="0.25882352941176473" d="M11,4h1"/><path stroke="#4db9ea" opacity="0.792156862745098" d="M12,4h1"/><path stroke="#4db9ea" opacity="0.7803921568627451" d="M13,4h1"/><path stroke="#4db9ea" opacity="0.2549019607843137" d="M14,4h1"/><path stroke="#59c4f5" d="M0,5h1"/><path stroke="#5bc3f4" d="M1,5h1"/><path stroke="#5ebff0" d="M2,5h1"/><path stroke="#56b8e8" d="M3,5h1"/><path stroke="#45aedd" d="M4,5h1"/><path stroke="#3baada" d="M5,5h1"/><path stroke="#39aedd" d="M6,5h1"/><path stroke="#39b1df" opacity="0.7568627450980392" d="M7,5h1"/><path stroke="#39b1e0" opacity="0.23921568627450981" d="M8,5h1"/><path stroke="#3ab1e0" opacity="0.24313725490196078" d="M11,5h1"/><path stroke="#39b0df" opacity="0.7803921568627451" d="M12,5h1"/><path stroke="#39b1df" opacity="0.7686274509803922" d="M13,5h1"/><path stroke="#39b2e1" opacity="0.23921568627450981" d="M14,5h1"/><path stroke="#34b6e1" d="M0,6h1"/><path stroke="#37afdb" d="M1,6h1"/><path stroke="#3da3cf" d="M2,6h1"/><path stroke="#3e9bc7" d="M3,6h1"/><path stroke="#3898c3" d="M4,6h1"/><path stroke="#329dc8" d="M5,6h1"/><path stroke="#2da9d3" d="M6,6h1"/><path stroke="#2aafd9" opacity="0.7568627450980392" d="M7,6h1"/><path stroke="#2ab0da" opacity="0.24313725490196078" d="M8,6h1"/><path stroke="#2bafd9" opacity="0.23921568627450981" d="M11,6h1"/><path stroke="#2aafd9" opacity="0.7764705882352941" d="M12,6h1"/><path stroke="#2aafd9" opacity="0.7647058823529411" d="M13,6h1"/><path stroke="#2ab1db" opacity="0.23137254901960785" d="M14,6h1"/><path stroke="#22afd6" d="M0,7h1"/><path stroke="#25a7cf" opacity="0.9411764705882353" d="M1,7h1"/><path stroke="#2b96c0" opacity="0.8196078431372549" d="M2,7h1"/><path stroke="#308bb4" opacity="0.7490196078431373" d="M3,7h1"/><path stroke="#318bb5" opacity="0.7490196078431373" d="M4,7h1"/><path stroke="#2c97c0" opacity="0.8313725490196079" d="M5,7h1"/><path stroke="#26a8d0" opacity="0.9647058823529412" d="M6,7h1"/><path stroke="#23afd7" opacity="0.7607843137254902" d="M7,7h1"/><path stroke="#23b0d8" opacity="0.23921568627450981" d="M8,7h1"/><path stroke="#23b8e2" opacity="0.023529411764705882" d="M9,7h1"/><path stroke="#23b3dc" opacity="0.14901960784313725" d="M10,7h1"/><path stroke="#23b0d8" opacity="0.44313725490196076" d="M11,7h1"/><path stroke="#23afd7" opacity="0.8392156862745098" d="M12,7h1"/><path stroke="#24acd4" opacity="0.8274509803921568" d="M13,7h1"/><path stroke="#29a1ca" opacity="0.43137254901960786" d="M14,7h1"/><path stroke="#338cb7" opacity="0.2196078431372549" d="M15,7h1"/><path stroke="#23afd6" d="M0,8h1"/><path stroke="#23acd4" opacity="0.8196078431372549" d="M1,8h1"/><path stroke="#279fc8" opacity="0.43137254901960786" d="M2,8h1"/><path stroke="#3084ae" opacity="0.21176470588235294" d="M3,8h1"/><path stroke="#3285af" opacity="0.21176470588235294" d="M4,8h1"/><path stroke="#29a0c9" opacity="0.4392156862745098" d="M5,8h1"/><path stroke="#24acd4" opacity="0.8392156862745098" d="M6,8h1"/><path stroke="#23afd7" opacity="0.7647058823529411" d="M7,8h1"/><path stroke="#23afd7" opacity="0.23529411764705882" d="M8,8h1"/><path stroke="#23b0d9" opacity="0.1568627450980392" d="M9,8h1"/><path stroke="#23b0d8" opacity="0.5568627450980392" d="M10,8h1"/><path stroke="#23b0d8" opacity="0.8392156862745098" d="M11,8h1"/><path stroke="#23b0d7" opacity="0.9568627450980393" d="M12,8h1"/><path stroke="#26a8d1" opacity="0.9450980392156862" d="M13,8h1"/><path stroke="#2d98c2" opacity="0.8196078431372549" d="M14,8h1"/><path stroke="#318eb8" opacity="0.7529411764705882" d="M15,8h1"/><path stroke="#27a7cf" d="M0,9h1"/><path stroke="#27a7d0" opacity="0.7568627450980392" d="M1,9h1"/><path stroke="#26a9d1" opacity="0.23529411764705882" d="M2,9h1"/><path stroke="#26a9d1" opacity="0.23921568627450981" d="M5,9h1"/><path stroke="#27a7d0" opacity="0.7764705882352941" d="M6,9h1"/><path stroke="#27a7d0" opacity="0.7686274509803922" d="M7,9h1"/><path stroke="#27a8d1" opacity="0.23137254901960785" d="M8,9h1"/><path stroke="#299cc1" opacity="0.22745098039215686" d="M9,9h1"/><path stroke="#299dc3" opacity="0.7725490196078432" d="M10,9h1"/><path stroke="#28a0c7" d="M11,9h1"/><path stroke="#27a5cd" d="M12,9h1"/><path stroke="#2a9ec7" d="M13,9h1"/><path stroke="#308db5" d="M14,9h1"/><path stroke="#3384ac" d="M15,9h1M0,11h1"/><path stroke="#2e97c0" d="M0,10h1"/><path stroke="#2e97c0" opacity="0.7607843137254902" d="M1,10h1"/><path stroke="#2e97c1" opacity="0.24313725490196078" d="M2,10h1M5,10h1"/><path stroke="#2e97c0" opacity="0.7803921568627451" d="M6,10h1"/><path stroke="#2e97c1" opacity="0.7686274509803922" d="M7,10h1"/><path stroke="#2d99c4" opacity="0.23137254901960785" d="M8,10h1"/><path stroke="#327797" opacity="0.22745098039215686" d="M9,10h1"/><path stroke="#327a9b" opacity="0.7725490196078432" d="M10,10h1"/><path stroke="#3182a6" d="M11,10h1"/><path stroke="#2f90b8" d="M12,10h1"/><path stroke="#2f8eb6" d="M13,10h1"/><path stroke="#337ca0" d="M14,10h1"/><path stroke="#357394" d="M15,10h1M0,12h1"/><path stroke="#3384ac" opacity="0.7764705882352941" d="M1,11h1"/><path stroke="#3384ac" opacity="0.2549019607843137" d="M2,11h1"/><path stroke="#3384ac" opacity="0.25882352941176473" d="M5,11h1"/><path stroke="#3384ac" opacity="0.792156862745098" d="M6,11h1"/><path stroke="#3385ac" opacity="0.7843137254901961" d="M7,11h1"/><path stroke="#3286ae" opacity="0.24313725490196078" d="M8,11h1"/><path stroke="#38627f" opacity="0.1568627450980392" d="M9,11h1"/><path stroke="#376785" opacity="0.5529411764705883" d="M10,11h1"/><path stroke="#357193" opacity="0.8431372549019608" d="M11,11h1"/><path stroke="#337fa5" opacity="0.9686274509803922" d="M12,11h1"/><path stroke="#3380a5" opacity="0.9568627450980393" d="M13,11h1"/><path stroke="#357293" opacity="0.8235294117647058" d="M14,11h1"/><path stroke="#366987" opacity="0.7490196078431373" d="M15,11h1"/><path stroke="#357394" opacity="0.7803921568627451" d="M1,12h1"/><path stroke="#357394" opacity="0.25882352941176473" d="M2,12h1"/><path stroke="#357394" opacity="0.2627450980392157" d="M5,12h1"/><path stroke="#357394" opacity="0.8" d="M6,12h1"/><path stroke="#357394" opacity="0.796078431372549" d="M7,12h1"/><path stroke="#357395" opacity="0.2549019607843137" d="M8,12h1"/><path stroke="#3b526b" opacity="0.023529411764705882" d="M9,12h1"/><path stroke="#386481" opacity="0.14901960784313725" d="M10,12h1"/><path stroke="#366e8e" opacity="0.4470588235294118" d="M11,12h1"/><path stroke="#357293" opacity="0.8549019607843137" d="M12,12h1"/><path stroke="#357294" opacity="0.8431372549019608" d="M13,12h1"/><path stroke="#366f8f" opacity="0.43529411764705883" d="M14,12h1"/><path stroke="#366785" opacity="0.21568627450980393" d="M15,12h1"/><path stroke="#366a89" opacity="0.7725490196078432" d="M0,13h1"/><path stroke="#366a89" opacity="0.5725490196078431" d="M1,13h1M13,13h1"/><path stroke="#366a89" opacity="0.18823529411764706" d="M2,13h1"/><path stroke="#366a89" opacity="0.19215686274509805" d="M5,13h1M8,13h1"/><path stroke="#366a89" opacity="0.5843137254901961" d="M6,13h2"/><path stroke="#366a88" opacity="0.17254901960784313" d="M11,13h1"/><path stroke="#366a89" opacity="0.5803921568627451" d="M12,13h1"/><path stroke="#366a88" opacity="0.16862745098039217" d="M14,13h1"/><path stroke="#366987" opacity="0.24313725490196078" d="M0,14h1"/><path stroke="#366987" opacity="0.1803921568627451" d="M1,14h1M12,14h1"/><path stroke="#366987" opacity="0.058823529411764705" d="M2,14h1M5,14h1M8,14h1"/><path stroke="#366987" opacity="0.1843137254901961" d="M6,14h2"/><path stroke="#366887" opacity="0.050980392156862744" d="M11,14h1"/><path stroke="#366987" opacity="0.17647058823529413" d="M13,14h1"/><path stroke="#366887" opacity="0.047058823529411764" d="M14,14h1"/></svg>
