<svg xmlns="http://www.w3.org/2000/svg" shape-rendering="crispEdges" viewBox="0 -0.5 16 16" width="16" height="16"><metadata>Generated with pixel-perfect-svg https://github.com/kagof/pixel-perfect-svg</metadata><path stroke="#b6c4da" opacity="0.2235294117647059" d="M9,0h1"/><path stroke="#bac7dc" opacity="0.7725490196078432" d="M10,0h1"/><path stroke="#b6c1d4" d="M11,0h1M0,11h1"/><path stroke="#afb4c5" d="M12,0h1M0,12h1"/><path stroke="#abadbd" opacity="0.7647058823529411" d="M13,0h1M0,13h1"/><path stroke="#aaacbc" opacity="0.2196078431372549" d="M14,0h1M0,14h1"/><path stroke="#f8fbfd" opacity="0.043137254901960784" d="M7,1h1M5,3h1"/><path stroke="#f0f4f9" opacity="0.17254901960784313" d="M8,1h1"/><path stroke="#d4ddea" opacity="0.3764705882352941" d="M9,1h1"/><path stroke="#c0ccdf" opacity="0.6313725490196078" d="M10,1h1"/><path stroke="#b6c1d4" opacity="0.7725490196078432" d="M11,1h1M1,11h1"/><path stroke="#aeb4c5" opacity="0.7803921568627451" d="M12,1h1"/><path stroke="#abaebd" opacity="0.6313725490196078" d="M13,1h1"/><path stroke="#acaebe" opacity="0.3607843137254902" d="M14,1h1"/><path stroke="#aeb1c1" opacity="0.2196078431372549" d="M15,1h1"/><path stroke="#ecf1f6" opacity="0.17647058823529413" d="M7,2h1"/><path stroke="#ebf0f6" opacity="0.592156862745098" d="M8,2h1"/><path stroke="#e7edf4" opacity="0.6588235294117647" d="M9,2h1"/><path stroke="#d5deeb" opacity="0.37254901960784315" d="M10,2h1"/><path stroke="#b3bfd4" opacity="0.21568627450980393" d="M11,2h1"/><path stroke="#acb2c3" opacity="0.22745098039215686" d="M12,2h1"/><path stroke="#abaebe" opacity="0.3764705882352941" d="M13,2h1"/><path stroke="#acafbf" opacity="0.6313725490196078" d="M14,2h1"/><path stroke="#acafbf" opacity="0.7647058823529411" d="M15,2h1"/><path stroke="#ecf1f6" opacity="0.1803921568627451" d="M6,3h1"/><path stroke="#ecf1f7" opacity="0.39215686274509803" d="M7,3h1"/><path stroke="#edf2f7" opacity="0.6588235294117647" d="M8,3h1M7,4h1"/><path stroke="#e6ebf2" opacity="0.6549019607843137" d="M9,3h1"/><path stroke="#cccfda" opacity="0.3764705882352941" d="M10,3h1"/><path stroke="#a3a5b5" opacity="0.13725490196078433" d="M11,3h1"/><path stroke="#a4a7b7" opacity="0.2235294117647059" d="M13,3h1"/><path stroke="#a3a6b5" opacity="0.7686274509803922" d="M14,3h1"/><path stroke="#a2a5b5" d="M15,3h1"/><path stroke="#f0f4f9" opacity="0.1803921568627451" d="M5,4h1"/><path stroke="#ebf0f6" opacity="0.6" d="M6,4h1"/><path stroke="#f1f7fc" opacity="0.36470588235294116" d="M8,4h1"/><path stroke="#cbcfda" opacity="0.3607843137254902" d="M9,4h1"/><path stroke="#b0b3c2" opacity="0.6509803921568628" d="M10,4h1"/><path stroke="#abaebe" opacity="0.5686274509803921" d="M11,4h1"/><path stroke="#b5b8c9" opacity="0.1411764705882353" d="M12,4h1"/><path stroke="#8d919f" opacity="0.20784313725490197" d="M13,4h1"/><path stroke="#8e92a0" opacity="0.7529411764705882" d="M14,4h1"/><path stroke="#8f92a0" d="M15,4h1"/><path stroke="#adbcd4" opacity="0.043137254901960784" d="M3,5h1"/><path stroke="#b5c3d8" opacity="0.1803921568627451" d="M4,5h1"/><path stroke="#d3dce9" opacity="0.39215686274509803" d="M5,5h1"/><path stroke="#e8eef5" opacity="0.6588235294117647" d="M6,5h1"/><path stroke="#e7ecf3" opacity="0.6431372549019608" d="M7,5h1"/><path stroke="#cbcfda" opacity="0.3568627450980392" d="M8,5h1"/><path stroke="#a6a8ba" opacity="0.3568627450980392" d="M9,5h1"/><path stroke="#abaebe" opacity="0.6431372549019608" d="M10,5h1M9,6h1M8,7h1M7,8h1"/><path stroke="#a8aaba" opacity="0.6470588235294118" d="M11,5h1"/><path stroke="#9092a0" opacity="0.3686274509803922" d="M12,5h1"/><path stroke="#747682" opacity="0.43137254901960786" d="M13,5h1"/><path stroke="#787a88" opacity="0.8156862745098039" d="M14,5h1"/><path stroke="#797c8a" d="M15,5h1"/><path stroke="#b9c6da" opacity="0.1803921568627451" d="M3,6h1"/><path stroke="#b9c7db" opacity="0.6" d="M4,6h1"/><path stroke="#bfccde" opacity="0.6588235294117647" d="M5,6h1"/><path stroke="#d6e0ed" opacity="0.36470588235294116" d="M6,6h1"/><path stroke="#cdd1db" opacity="0.3568627450980392" d="M7,6h1"/><path stroke="#b0b3c2" opacity="0.6431372549019608" d="M8,6h1"/><path stroke="#afb3c3" opacity="0.3568627450980392" d="M10,6h1"/><path stroke="#9192a0" opacity="0.34901960784313724" d="M11,6h1"/><path stroke="#787985" opacity="0.6352941176470588" d="M12,6h1"/><path stroke="#6e6f7b" opacity="0.8509803921568627" d="M13,6h1"/><path stroke="#676875" opacity="0.9568627450980393" d="M14,6h1"/><path stroke="#646573" d="M15,6h1"/><path stroke="#bac7db" opacity="0.043137254901960784" d="M1,7h1"/><path stroke="#bac7db" opacity="0.17647058823529413" d="M2,7h1"/><path stroke="#bac8dc" opacity="0.39215686274509803" d="M3,7h1"/><path stroke="#bac8dc" opacity="0.6588235294117647" d="M4,7h1M3,8h1"/><path stroke="#b9c5d9" opacity="0.6431372549019608" d="M5,7h1"/><path stroke="#b0b8cb" opacity="0.3568627450980392" d="M6,7h1"/><path stroke="#a8aabb" opacity="0.3568627450980392" d="M7,7h1"/><path stroke="#a7aab9" opacity="0.6431372549019608" d="M9,7h1"/><path stroke="#8f909e" opacity="0.3568627450980392" d="M10,7h1"/><path stroke="#6e6e7a" opacity="0.34509803921568627" d="M11,7h1"/><path stroke="#73737f" opacity="0.6235294117647059" d="M12,7h1"/><path stroke="#6c6c78" opacity="0.8431372549019608" d="M13,7h1"/><path stroke="#5f606d" opacity="0.9647058823529412" d="M14,7h1"/><path stroke="#595a67" d="M15,7h1"/><path stroke="#bac7db" opacity="0.17254901960784313" d="M1,8h1"/><path stroke="#bac7db" opacity="0.592156862745098" d="M2,8h1"/><path stroke="#bccade" opacity="0.36470588235294116" d="M4,8h1"/><path stroke="#b2bacc" opacity="0.3568627450980392" d="M5,8h1"/><path stroke="#abafbf" opacity="0.6431372549019608" d="M6,8h1"/><path stroke="#afb2c2" opacity="0.3568627450980392" d="M8,8h1"/><path stroke="#8e909d" opacity="0.3568627450980392" d="M9,8h1"/><path stroke="#777783" opacity="0.6431372549019608" d="M10,8h1"/><path stroke="#72727e" opacity="0.6392156862745098" d="M11,8h1"/><path stroke="#757580" opacity="0.35294117647058826" d="M12,8h1"/><path stroke="#656672" opacity="0.4196078431372549" d="M13,8h1"/><path stroke="#5c5d6a" opacity="0.8274509803921568" d="M14,8h1"/><path stroke="#5a5b68" d="M15,8h1"/><path stroke="#bbc9dd" opacity="0.2235294117647059" d="M0,9h1"/><path stroke="#bbc8dc" opacity="0.3764705882352941" d="M1,9h1"/><path stroke="#bac7db" opacity="0.6588235294117647" d="M2,9h1"/><path stroke="#b9c5d9" opacity="0.6549019607843137" d="M3,9h1"/><path stroke="#b2bacc" opacity="0.3607843137254902" d="M4,9h1"/><path stroke="#aaacbc" opacity="0.3568627450980392" d="M5,9h1"/><path stroke="#acaebe" opacity="0.6431372549019608" d="M6,9h1M5,10h1"/><path stroke="#a9acbc" opacity="0.6431372549019608" d="M7,9h1"/><path stroke="#989cab" opacity="0.3568627450980392" d="M8,9h1"/><path stroke="#777985" opacity="0.3568627450980392" d="M9,9h1"/><path stroke="#747480" opacity="0.6431372549019608" d="M10,9h1"/><path stroke="#71717d" opacity="0.6431372549019608" d="M11,9h1"/><path stroke="#676774" opacity="0.3568627450980392" d="M12,9h1"/><path stroke="#595a67" opacity="0.35294117647058826" d="M13,9h1"/><path stroke="#5a5b68" opacity="0.6274509803921569" d="M14,9h1"/><path stroke="#5b5c69" opacity="0.7764705882352941" d="M15,9h1"/><path stroke="#bac8dc" opacity="0.7725490196078432" d="M0,10h1"/><path stroke="#bbc8dc" opacity="0.6313725490196078" d="M1,10h1"/><path stroke="#bbc9dd" opacity="0.37254901960784315" d="M2,10h1"/><path stroke="#b2bacc" opacity="0.3764705882352941" d="M3,10h1"/><path stroke="#acb0c0" opacity="0.6509803921568628" d="M4,10h1"/><path stroke="#afb1c2" opacity="0.3568627450980392" d="M6,10h1"/><path stroke="#989baa" opacity="0.3568627450980392" d="M7,10h1"/><path stroke="#878a98" opacity="0.6431372549019608" d="M8,10h1"/><path stroke="#828593" opacity="0.6431372549019608" d="M9,10h1"/><path stroke="#7e7f8c" opacity="0.3568627450980392" d="M10,10h1"/><path stroke="#666773" opacity="0.3568627450980392" d="M11,10h1"/><path stroke="#5c5d6a" opacity="0.6431372549019608" d="M12,10h1"/><path stroke="#5a5b68" opacity="0.6470588235294118" d="M13,10h1"/><path stroke="#5b5c69" opacity="0.37254901960784315" d="M14,10h1"/><path stroke="#5b5c69" opacity="0.2235294117647059" d="M15,10h1"/><path stroke="#b7c3d6" opacity="0.21568627450980393" d="M2,11h1"/><path stroke="#aaaab9" opacity="0.13725490196078433" d="M3,11h1"/><path stroke="#acafbf" opacity="0.5686274509803921" d="M4,11h1"/><path stroke="#a9acbc" opacity="0.6509803921568628" d="M5,11h1"/><path stroke="#989baa" opacity="0.3607843137254902" d="M6,11h1"/><path stroke="#818492" opacity="0.3568627450980392" d="M7,11h1"/><path stroke="#848795" opacity="0.6431372549019608" d="M8,11h1M7,12h1"/><path stroke="#818492" opacity="0.6431372549019608" d="M9,11h1M7,13h1"/><path stroke="#707380" opacity="0.3568627450980392" d="M10,11h1"/><path stroke="#585966" opacity="0.36470588235294116" d="M11,11h1"/><path stroke="#5a5b68" opacity="0.6588235294117647" d="M12,11h1M11,12h1"/><path stroke="#5b5c69" opacity="0.592156862745098" d="M13,11h1M11,13h1"/><path stroke="#5b5c69" opacity="0.17254901960784313" d="M14,11h1M11,14h1"/><path stroke="#afb4c5" opacity="0.7803921568627451" d="M1,12h1"/><path stroke="#aeb4c5" opacity="0.22745098039215686" d="M2,12h1"/><path stroke="#b7baca" opacity="0.13725490196078433" d="M4,12h1"/><path stroke="#999cac" opacity="0.3764705882352941" d="M5,12h1"/><path stroke="#878a99" opacity="0.6549019607843137" d="M6,12h1"/><path stroke="#878b99" opacity="0.3568627450980392" d="M8,12h1"/><path stroke="#70727f" opacity="0.3568627450980392" d="M9,12h1M8,13h1"/><path stroke="#5e5f6c" opacity="0.6431372549019608" d="M10,12h1"/><path stroke="#5a5b68" opacity="0.39215686274509803" d="M12,12h1"/><path stroke="#5b5c69" opacity="0.17647058823529413" d="M13,12h1M12,13h1"/><path stroke="#5b5c69" opacity="0.043137254901960784" d="M14,12h1M12,14h1"/><path stroke="#abaebe" opacity="0.6313725490196078" d="M1,13h1"/><path stroke="#acafbf" opacity="0.3764705882352941" d="M2,13h1"/><path stroke="#9d9fae" opacity="0.22745098039215686" d="M3,13h1"/><path stroke="#7b7b88" opacity="0.21568627450980393" d="M4,13h1"/><path stroke="#797a87" opacity="0.3686274509803922" d="M5,13h1"/><path stroke="#828593" opacity="0.6509803921568628" d="M6,13h1"/><path stroke="#575865" opacity="0.3607843137254902" d="M9,13h1"/><path stroke="#5a5b68" opacity="0.6509803921568628" d="M10,13h1"/><path stroke="#acafbf" opacity="0.3607843137254902" d="M1,14h1"/><path stroke="#acb0c0" opacity="0.6313725490196078" d="M2,14h1"/><path stroke="#9d9fae" opacity="0.7803921568627451" d="M3,14h1"/><path stroke="#80818e" opacity="0.7725490196078432" d="M4,14h1"/><path stroke="#73737f" opacity="0.6196078431372549" d="M5,14h1"/><path stroke="#7b7d89" opacity="0.3607843137254902" d="M6,14h1"/><path stroke="#6f717f" opacity="0.36470588235294116" d="M7,14h1"/><path stroke="#5e5f6c" opacity="0.6352941176470588" d="M8,14h1"/><path stroke="#5a5b68" opacity="0.6431372549019608" d="M9,14h1"/><path stroke="#5a5b68" opacity="0.3843137254901961" d="M10,14h1"/><path stroke="#afb2c2" opacity="0.2196078431372549" d="M1,15h1"/><path stroke="#adb0c0" opacity="0.7647058823529411" d="M2,15h1"/><path stroke="#9d9fae" d="M3,15h1"/><path stroke="#81828f" d="M4,15h1"/><path stroke="#72717d" opacity="0.7607843137254902" d="M5,15h1"/><path stroke="#706f7a" opacity="0.2" d="M6,15h1"/><path stroke="#545562" opacity="0.21568627450980393" d="M7,15h1"/><path stroke="#5a5b68" opacity="0.7843137254901961" d="M8,15h1"/><path stroke="#5b5c69" opacity="0.8" d="M9,15h1"/><path stroke="#5b5c69" opacity="0.23921568627450981" d="M10,15h1"/></svg>
