<svg xmlns="http://www.w3.org/2000/svg" shape-rendering="crispEdges" viewBox="0 -0.5 16 16" width="16" height="16"><metadata>Generated with pixel-perfect-svg https://github.com/kagof/pixel-perfect-svg</metadata><path stroke="#bac7db" d="M10,0h2M10,1h2M4,6h2M4,7h2M2,8h2M2,9h2M0,10h2M0,11h2"/><path stroke="#abaebe" d="M12,0h2M12,1h2M14,2h2M14,3h2M10,4h2M10,5h2M8,6h2M8,7h2M6,8h2M6,9h2M4,10h2M4,11h2M0,12h2M0,13h2M2,14h2M2,15h2"/><path stroke="#ebf0f6" d="M8,2h2M8,3h2M6,4h2M6,5h2"/><path stroke="#848795" d="M14,4h2M14,5h2M8,10h2M8,11h2M6,12h2M6,13h2"/><path stroke="#73737f" d="M12,6h2M12,7h2M10,8h2M10,9h2M4,14h2M4,15h2"/><path stroke="#5b5c69" d="M14,6h2M14,7h2M14,8h2M14,9h2M12,10h2M12,11h2M10,12h2M10,13h2M8,14h2M8,15h2"/></svg>
