<svg xmlns="http://www.w3.org/2000/svg" shape-rendering="crispEdges" viewBox="0 -0.5 16 16" width="16" height="16"><metadata>Generated with pixel-perfect-svg https://github.com/kagof/pixel-perfect-svg</metadata><path stroke="#e34c65" opacity="0.21568627450980393" d="M11,0h1"/><path stroke="#e55a61" opacity="0.7490196078431373" d="M12,0h1"/><path stroke="#d85255" d="M13,0h1"/><path stroke="#c0423f" d="M14,0h1"/><path stroke="#b33933" d="M15,0h1"/><path stroke="#ffff21" opacity="0.03529411764705882" d="M9,1h1"/><path stroke="#fffb44" opacity="0.1568627450980392" d="M10,1h1"/><path stroke="#f4a255" opacity="0.42745098039215684" d="M11,1h1"/><path stroke="#ec755b" opacity="0.8196078431372549" d="M12,1h1"/><path stroke="#df6252" d="M13,1h1"/><path stroke="#cb5240" d="M14,1h1"/><path stroke="#c04a37" d="M15,1h1"/><path stroke="#fff03d" opacity="0.1568627450980392" d="M9,2h1"/><path stroke="#ffed48" opacity="0.5568627450980392" d="M10,2h1"/><path stroke="#fcce4c" opacity="0.8274509803921568" d="M11,2h1"/><path stroke="#f79e51" opacity="0.9490196078431372" d="M12,2h1"/><path stroke="#ec804d" d="M13,2h1"/><path stroke="#de7042" d="M14,2h1"/><path stroke="#d7683d" d="M15,2h1"/><path stroke="#ffffe0" opacity="0.03529411764705882" d="M7,3h1M5,5h1"/><path stroke="#fffec1" opacity="0.1607843137254902" d="M8,3h1M5,6h1"/><path stroke="#fff476" opacity="0.43529411764705883" d="M9,3h1"/><path stroke="#ffed50" opacity="0.8392156862745098" d="M10,3h1"/><path stroke="#feda4a" d="M11,3h1"/><path stroke="#fcb74c" d="M12,3h1"/><path stroke="#f69a4b" opacity="0.9490196078431372" d="M13,3h1"/><path stroke="#eb8544" opacity="0.8196078431372549" d="M14,3h1"/><path stroke="#e37840" opacity="0.7490196078431373" d="M15,3h1"/><path stroke="#fffcb8" opacity="0.1607843137254902" d="M7,4h1M6,5h1"/><path stroke="#fffbb2" opacity="0.5647058823529412" d="M8,4h1M6,6h1"/><path stroke="#fff790" opacity="0.8392156862745098" d="M9,4h1"/><path stroke="#ffef5d" opacity="0.9647058823529412" d="M10,4h1"/><path stroke="#ffdd48" d="M11,4h1"/><path stroke="#fec24c" d="M12,4h1"/><path stroke="#fcaf4d" opacity="0.8274509803921568" d="M13,4h1"/><path stroke="#f39a48" opacity="0.42745098039215684" d="M14,4h1"/><path stroke="#e2733f" opacity="0.21568627450980393" d="M15,4h1"/><path stroke="#fff9a3" opacity="0.43529411764705883" d="M7,5h1"/><path stroke="#fff898" opacity="0.8392156862745098" d="M8,5h1M7,6h1"/><path stroke="#fff182" d="M9,5h1M7,7h1"/><path stroke="#ffe45c" d="M10,5h1M7,8h1"/><path stroke="#ffd649" opacity="0.9647058823529412" d="M11,5h1M7,9h1"/><path stroke="#ffc64c" opacity="0.8392156862745098" d="M12,5h1"/><path stroke="#ffbc4e" opacity="0.5568627450980392" d="M13,5h1"/><path stroke="#ffc250" opacity="0.1568627450980392" d="M14,5h1"/><path stroke="#fff272" opacity="0.9647058823529412" d="M8,6h1"/><path stroke="#ffe45b" d="M9,6h1M8,7h1"/><path stroke="#ffd051" d="M10,6h1M8,8h1"/><path stroke="#ffc54c" opacity="0.8392156862745098" d="M11,6h1"/><path stroke="#ffc14d" opacity="0.43529411764705883" d="M12,6h1"/><path stroke="#ffbe4f" opacity="0.1568627450980392" d="M13,6h1"/><path stroke="#ffd153" opacity="0.03529411764705882" d="M14,6h1"/><path stroke="#ffe329" opacity="0.03529411764705882" d="M3,7h1"/><path stroke="#ffe73e" opacity="0.1607843137254902" d="M4,7h1"/><path stroke="#fff276" opacity="0.43529411764705883" d="M5,7h1"/><path stroke="#fff690" opacity="0.8392156862745098" d="M6,7h1"/><path stroke="#ffd647" opacity="0.9647058823529412" d="M9,7h1"/><path stroke="#ffc44b" opacity="0.8392156862745098" d="M10,7h1M9,8h1"/><path stroke="#ffb94e" opacity="0.5647058823529412" d="M11,7h1M9,9h1M7,11h1"/><path stroke="#ffb74f" opacity="0.1607843137254902" d="M12,7h1M11,8h1M10,9h1M9,10h1M8,11h1M7,12h1"/><path stroke="#ffe947" opacity="0.1607843137254902" d="M3,8h1"/><path stroke="#ffe948" opacity="0.5647058823529412" d="M4,8h1"/><path stroke="#ffeb51" opacity="0.8392156862745098" d="M5,8h1"/><path stroke="#ffee5d" opacity="0.9647058823529412" d="M6,8h1"/><path stroke="#ffbf4c" opacity="0.43529411764705883" d="M10,8h1"/><path stroke="#ffb350" opacity="0.03529411764705882" d="M12,8h1M10,10h1"/><path stroke="#fff031" opacity="0.03529411764705882" d="M1,9h1"/><path stroke="#ffe947" opacity="0.1568627450980392" d="M2,9h1"/><path stroke="#ffea49" opacity="0.43529411764705883" d="M3,9h1"/><path stroke="#ffea49" opacity="0.8392156862745098" d="M4,9h1M3,10h1"/><path stroke="#ffe749" d="M5,9h1"/><path stroke="#ffe148" d="M6,9h1"/><path stroke="#ffc44c" opacity="0.8392156862745098" d="M8,9h1M7,10h1"/><path stroke="#ffeb41" opacity="0.1568627450980392" d="M1,10h1"/><path stroke="#ffe948" opacity="0.5568627450980392" d="M2,10h1"/><path stroke="#ffeb49" opacity="0.9647058823529412" d="M4,10h1"/><path stroke="#ffe14a" d="M5,10h1"/><path stroke="#ffcf4b" d="M6,10h1M4,12h1"/><path stroke="#ffbf4d" opacity="0.43529411764705883" d="M8,10h1"/><path stroke="#ead39f" opacity="0.21568627450980393" d="M0,11h1"/><path stroke="#f7e269" opacity="0.42745098039215684" d="M1,11h1"/><path stroke="#fee94e" opacity="0.8274509803921568" d="M2,11h1"/><path stroke="#ffe748" d="M3,11h1"/><path stroke="#ffe149" d="M4,11h1"/><path stroke="#ffd64b" opacity="0.9647058823529412" d="M5,11h1"/><path stroke="#ffc54d" opacity="0.8392156862745098" d="M6,11h1M5,12h1"/><path stroke="#ecd497" opacity="0.7490196078431373" d="M0,12h1"/><path stroke="#f2dc7d" opacity="0.8196078431372549" d="M1,12h1"/><path stroke="#fce757" opacity="0.9490196078431372" d="M2,12h1"/><path stroke="#ffe248" d="M3,12h1"/><path stroke="#ffc04e" opacity="0.43529411764705883" d="M6,12h1"/><path stroke="#ffb34f" opacity="0.03529411764705882" d="M8,12h1"/><path stroke="#edcc8f" d="M0,13h1"/><path stroke="#f0d180" d="M1,13h1"/><path stroke="#f7d964" d="M2,13h1"/><path stroke="#fcd653" opacity="0.9490196078431372" d="M3,13h1"/><path stroke="#fec54f" opacity="0.8274509803921568" d="M4,13h1"/><path stroke="#ffb94e" opacity="0.5568627450980392" d="M5,13h1"/><path stroke="#ffb74d" opacity="0.1568627450980392" d="M6,13h1"/><path stroke="#edbd82" d="M0,14h1"/><path stroke="#eebf7e" d="M1,14h1"/><path stroke="#f0c175" d="M2,14h1"/><path stroke="#f2c26d" opacity="0.8196078431372549" d="M3,14h1"/><path stroke="#f7be61" opacity="0.42745098039215684" d="M4,14h1"/><path stroke="#ffb849" opacity="0.1568627450980392" d="M5,14h1"/><path stroke="#ffb540" opacity="0.03529411764705882" d="M6,14h1"/><path stroke="#edb57b" d="M0,15h1"/><path stroke="#edb57c" d="M1,15h1"/><path stroke="#edb57d" d="M2,15h1"/><path stroke="#ecb47e" opacity="0.7490196078431373" d="M3,15h1"/><path stroke="#eab483" opacity="0.21568627450980393" d="M4,15h1"/></svg>
