<svg xmlns="http://www.w3.org/2000/svg" shape-rendering="crispEdges" viewBox="0 -0.5 16 16" width="16" height="16"><metadata>Generated with pixel-perfect-svg https://github.com/kagof/pixel-perfect-svg</metadata><path stroke="#e45c5f" d="M12,0h2M12,1h2"/><path stroke="#b63c35" d="M14,0h2M14,1h2"/><path stroke="#ffe949" d="M10,2h2M10,3h2M10,4h2M10,5h2M8,6h2M8,7h2M4,8h4M4,9h4M2,10h4M2,11h4M2,12h2M2,13h2"/><path stroke="#f99b4e" d="M12,2h2M12,3h2"/><path stroke="#e37840" d="M14,2h2M14,3h2"/><path stroke="#fffaab" d="M8,4h2M8,5h2M6,6h2M6,7h2"/><path stroke="#ffbc4e" d="M12,4h2M12,5h2M10,6h2M10,7h2M8,8h2M8,9h2M6,10h2M6,11h2M4,12h2M4,13h2"/><path stroke="#edd493" d="M0,12h2M0,13h2"/><path stroke="#edb67c" d="M0,14h4M0,15h4"/></svg>
