<svg xmlns="http://www.w3.org/2000/svg" shape-rendering="crispEdges" viewBox="0 -0.5 16 16" width="16" height="16"><metadata>Generated with pixel-perfect-svg https://github.com/kagof/pixel-perfect-svg</metadata><path stroke="#6dccff" d="M4,0h2M4,1h2"/><path stroke="#55b1f1" d="M6,0h2M6,1h2M4,2h2M4,3h2M2,4h2M2,5h2"/><path stroke="#4097ea" d="M8,0h2M8,1h2M0,4h2M0,5h2M0,6h2M0,7h2M0,8h2M0,9h2"/><path stroke="#1476c0" d="M10,0h2M10,1h2M6,2h6M6,3h6M4,4h8M4,5h8M2,6h10M2,7h10M2,8h2M2,9h2M0,10h2M0,11h2"/><path stroke="#fff02b" d="M12,4h4M12,5h4M12,6h4M12,7h4M4,8h12M4,9h12M4,10h6M4,11h6M4,12h6M4,13h6"/><path stroke="#105da2" d="M2,10h2M2,11h2"/><path stroke="#ffb108" d="M10,10h4M10,11h4M10,12h2M10,13h2M8,14h4M8,15h4"/><path stroke="#ffcf05" d="M14,10h2M14,11h2M4,14h4M4,15h4"/></svg>
