<svg xmlns="http://www.w3.org/2000/svg" shape-rendering="crispEdges" viewBox="0 -0.5 16 16" width="16" height="16"><metadata>Generated with pixel-perfect-svg https://github.com/kagof/pixel-perfect-svg</metadata><path stroke="#6fceff" opacity="0.24313725490196078" d="M3,0h1"/><path stroke="#6eceff" opacity="0.7568627450980392" d="M4,0h1"/><path stroke="#69c7fc" d="M5,0h1"/><path stroke="#5dbaf6" d="M6,0h1"/><path stroke="#52acf1" d="M7,0h1"/><path stroke="#479fee" d="M8,0h1"/><path stroke="#358fe0" d="M9,0h1"/><path stroke="#1e7eca" d="M10,0h1"/><path stroke="#1375bf" opacity="0.7568627450980392" d="M11,0h1"/><path stroke="#1174bd" opacity="0.24313725490196078" d="M12,0h1"/><path stroke="#6bcafe" opacity="0.23137254901960785" d="M3,1h1"/><path stroke="#69c8fd" opacity="0.7568627450980392" d="M4,1h1"/><path stroke="#60bef7" d="M5,1h1"/><path stroke="#4faceb" d="M6,1h1"/><path stroke="#419ee4" d="M7,1h1"/><path stroke="#3a94e2" d="M8,1h1"/><path stroke="#2d88d8" d="M9,1h1"/><path stroke="#1c7cc7" d="M10,1h1"/><path stroke="#1275c0" opacity="0.7568627450980392" d="M11,1h1"/><path stroke="#076fc5" opacity="0.23137254901960785" d="M12,1h1"/><path stroke="#61bdf9" opacity="0.2235294117647059" d="M3,2h1"/><path stroke="#5ebbf7" opacity="0.7529411764705882" d="M4,2h1"/><path stroke="#4fadec" d="M5,2h1"/><path stroke="#3392d7" d="M6,2h1"/><path stroke="#2282cb" d="M7,2h1"/><path stroke="#207fcb" d="M8,2h1"/><path stroke="#1c7cc8" d="M9,2h1"/><path stroke="#1778c2" d="M10,2h1"/><path stroke="#1275c1" opacity="0.7529411764705882" d="M11,2h1"/><path stroke="#016ccb" opacity="0.2235294117647059" d="M12,2h1"/><path stroke="#3f96ea" opacity="0.24313725490196078" d="M0,3h1"/><path stroke="#469eed" opacity="0.23137254901960785" d="M1,3h1"/><path stroke="#54aef3" opacity="0.2235294117647059" d="M2,3h1"/><path stroke="#50aced" opacity="0.4235294117647059" d="M3,3h1"/><path stroke="#48a5e7" opacity="0.8156862745098039" d="M4,3h1"/><path stroke="#3997dc" d="M5,3h1"/><path stroke="#1f80c8" d="M6,3h1"/><path stroke="#1174be" d="M7,3h1"/><path stroke="#1274be" d="M8,3h1"/><path stroke="#1275c0" d="M9,3h1"/><path stroke="#1275c1" d="M10,3h1"/><path stroke="#257fb5" opacity="0.8156862745098039" d="M11,3h1"/><path stroke="#79ab80" opacity="0.4235294117647059" d="M12,3h1"/><path stroke="#fffd1c" opacity="0.2235294117647059" d="M13,3h1"/><path stroke="#fff822" opacity="0.23137254901960785" d="M14,3h1"/><path stroke="#fff02b" opacity="0.24313725490196078" d="M15,3h1"/><path stroke="#3f96ea" opacity="0.7568627450980392" d="M0,4h1"/><path stroke="#469eed" opacity="0.7568627450980392" d="M1,4h1"/><path stroke="#53adf2" opacity="0.7529411764705882" d="M2,4h1"/><path stroke="#49a6e7" opacity="0.8156862745098039" d="M3,4h1"/><path stroke="#2e8ed4" opacity="0.9411764705882353" d="M4,4h1"/><path stroke="#1f7fc8" d="M5,4h1"/><path stroke="#1678c2" d="M6,4h1"/><path stroke="#1375bf" d="M7,4h2"/><path stroke="#1174c1" d="M9,4h1"/><path stroke="#1074c2" d="M10,4h1"/><path stroke="#428ea3" opacity="0.9411764705882353" d="M11,4h1"/><path stroke="#bacc57" opacity="0.8156862745098039" d="M12,4h1"/><path stroke="#fff426" opacity="0.7529411764705882" d="M13,4h1"/><path stroke="#fff228" opacity="0.7568627450980392" d="M14,4h1"/><path stroke="#fff02b" opacity="0.7568627450980392" d="M15,4h1"/><path stroke="#4097ea" d="M0,5h1"/><path stroke="#429be9" d="M1,5h1"/><path stroke="#45a1e7" d="M2,5h1"/><path stroke="#3998dd" d="M3,5h1"/><path stroke="#1c7fca" d="M4,5h1"/><path stroke="#0e72c0" d="M5,5h1"/><path stroke="#0f73c1" d="M6,5h1"/><path stroke="#1174c2" d="M7,5h2"/><path stroke="#0d72c4" d="M9,5h1"/><path stroke="#0b71c6" d="M10,5h1M9,6h1"/><path stroke="#4b939d" d="M11,5h1"/><path stroke="#c6d34f" d="M12,5h1M7,8h2"/><path stroke="#fff328" d="M13,5h1M13,6h1M7,9h2"/><path stroke="#fff229" d="M14,5h1M14,6h1"/><path stroke="#fff02b" d="M15,5h1M15,6h1"/><path stroke="#4198eb" d="M0,6h1"/><path stroke="#3a93e3" d="M1,6h1"/><path stroke="#2c8ad4" d="M2,6h1"/><path stroke="#1e80c9" d="M3,6h1"/><path stroke="#1377c5" d="M4,6h1"/><path stroke="#0d72c3" d="M5,6h1"/><path stroke="#0e73c3" d="M6,6h1"/><path stroke="#0f73c4" d="M7,6h2"/><path stroke="#0970c7" d="M10,6h1"/><path stroke="#49929e" d="M11,6h1"/><path stroke="#c6d24f" d="M12,6h1"/><path stroke="#4299ec" d="M0,7h1M0,8h1"/><path stroke="#358fe1" d="M1,7h1"/><path stroke="#1d7dcb" d="M2,7h1"/><path stroke="#1f7cb6" d="M3,7h1"/><path stroke="#3e8ca4" d="M4,7h1"/><path stroke="#4e949b" d="M5,7h1"/><path stroke="#4e949c" d="M6,7h1"/><path stroke="#4d939c" d="M7,7h2"/><path stroke="#4a929e" d="M9,7h1"/><path stroke="#49929f" d="M10,7h1"/><path stroke="#78ab81" d="M11,7h1"/><path stroke="#d4db47" d="M12,7h1M11,8h1"/><path stroke="#fff329" d="M13,7h1M7,10h2M5,11h1"/><path stroke="#fff22a" d="M14,7h1M6,11h1"/><path stroke="#fff02c" d="M15,7h1"/><path stroke="#348ee2" d="M1,8h1"/><path stroke="#1b7ccd" d="M2,8h1"/><path stroke="#3d8ba4" d="M3,8h1"/><path stroke="#9abc6a" d="M4,8h1"/><path stroke="#cad54c" d="M5,8h1"/><path stroke="#c9d44d" d="M6,8h1"/><path stroke="#c5d250" d="M9,8h1"/><path stroke="#c5d350" d="M10,8h1"/><path stroke="#f1ea35" d="M12,8h1"/><path stroke="#fff22b" d="M13,8h1M5,12h1"/><path stroke="#fff12b" d="M14,8h1M6,12h1"/><path stroke="#fff12c" d="M15,8h1"/><path stroke="#3690e1" d="M0,9h1"/><path stroke="#2985d8" d="M1,9h1"/><path stroke="#1675c6" d="M2,9h1"/><path stroke="#4c8e95" d="M3,9h1"/><path stroke="#c9d24a" d="M4,9h1"/><path stroke="#fff624" d="M5,9h1"/><path stroke="#fff525" d="M6,9h1"/><path stroke="#ffef25" d="M9,9h1"/><path stroke="#ffe721" d="M10,9h1"/><path stroke="#ffe220" d="M11,9h1"/><path stroke="#ffe121" d="M12,9h1"/><path stroke="#ffe222" d="M13,9h1"/><path stroke="#ffe622" d="M14,9h1M9,10h1"/><path stroke="#ffe821" d="M15,9h1M5,13h2"/><path stroke="#1f7fcb" d="M0,10h1"/><path stroke="#1875c4" d="M1,10h1"/><path stroke="#0f66b4" d="M2,10h1"/><path stroke="#4a848a" d="M3,10h1"/><path stroke="#c7ce48" d="M4,10h1"/><path stroke="#fff526" d="M5,10h1"/><path stroke="#fff427" d="M6,10h1"/><path stroke="#ffce15" d="M10,10h1"/><path stroke="#ffc00e" d="M11,10h1"/><path stroke="#ffbf0f" d="M12,10h1"/><path stroke="#ffc610" d="M13,10h1M8,14h1"/><path stroke="#ffd10f" d="M14,10h1M7,14h1"/><path stroke="#ffd70e" d="M15,10h1M5,14h2"/><path stroke="#1376c0" opacity="0.7568627450980392" d="M0,11h1"/><path stroke="#0d6cba" opacity="0.7568627450980392" d="M1,11h1"/><path stroke="#095eac" opacity="0.7529411764705882" d="M2,11h1"/><path stroke="#56877e" opacity="0.8156862745098039" d="M3,11h1"/><path stroke="#d0d342" opacity="0.9411764705882353" d="M4,11h1"/><path stroke="#fff22c" d="M7,11h2M7,12h1"/><path stroke="#ffe123" d="M9,11h1M9,12h1"/><path stroke="#ffbf10" d="M10,11h1"/><path stroke="#ffad06" opacity="0.9411764705882353" d="M11,11h1"/><path stroke="#ffad06" opacity="0.8156862745098039" d="M12,11h1"/><path stroke="#ffb706" opacity="0.7529411764705882" d="M13,11h1"/><path stroke="#ffc705" opacity="0.7568627450980392" d="M14,11h1"/><path stroke="#ffcf04" opacity="0.7568627450980392" d="M15,11h1"/><path stroke="#1175be" opacity="0.24313725490196078" d="M0,12h1"/><path stroke="#0266bf" opacity="0.23137254901960785" d="M1,12h1"/><path stroke="#0053b4" opacity="0.2235294117647059" d="M2,12h1"/><path stroke="#98b05e" opacity="0.4235294117647059" d="M3,12h1"/><path stroke="#eee634" opacity="0.8156862745098039" d="M4,12h1"/><path stroke="#fff32d" d="M8,12h1"/><path stroke="#ffc010" d="M10,12h1"/><path stroke="#ffae06" opacity="0.8156862745098039" d="M11,12h1"/><path stroke="#ffac06" opacity="0.4235294117647059" d="M12,12h1"/><path stroke="#ffb605" opacity="0.2235294117647059" d="M13,12h1"/><path stroke="#ffc603" opacity="0.23137254901960785" d="M14,12h1"/><path stroke="#ffce03" opacity="0.24313725490196078" d="M15,12h1"/><path stroke="#fff317" opacity="0.2235294117647059" d="M3,13h1"/><path stroke="#ffe920" opacity="0.7529411764705882" d="M4,13h1"/><path stroke="#ffe722" d="M7,13h1"/><path stroke="#ffe323" d="M8,13h1"/><path stroke="#ffd41c" d="M9,13h1"/><path stroke="#ffbc0e" d="M10,13h1M9,14h1"/><path stroke="#ffb007" opacity="0.7529411764705882" d="M11,13h1"/><path stroke="#ffae06" opacity="0.2235294117647059" d="M12,13h1"/><path stroke="#ffdd07" opacity="0.23137254901960785" d="M3,14h1"/><path stroke="#ffd70d" opacity="0.7568627450980392" d="M4,14h1"/><path stroke="#ffb40a" d="M10,14h1"/><path stroke="#ffb108" opacity="0.7568627450980392" d="M11,14h1M11,15h1"/><path stroke="#ffb007" opacity="0.23137254901960785" d="M12,14h1"/><path stroke="#ffce04" opacity="0.24313725490196078" d="M3,15h1"/><path stroke="#ffce04" opacity="0.7568627450980392" d="M4,15h1"/><path stroke="#ffce04" d="M5,15h1"/><path stroke="#ffcf04" d="M6,15h1"/><path stroke="#ffc605" d="M7,15h1"/><path stroke="#ffb606" d="M8,15h1"/><path stroke="#ffaf07" d="M9,15h1"/><path stroke="#ffb008" d="M10,15h1"/><path stroke="#ffb108" opacity="0.24313725490196078" d="M12,15h1"/></svg>
