<svg xmlns="http://www.w3.org/2000/svg" shape-rendering="crispEdges" viewBox="0 -0.5 16 16" width="16" height="16"><metadata>Generated with pixel-perfect-svg https://github.com/kagof/pixel-perfect-svg</metadata><path stroke="#f85d80" d="M2,2h2M6,2h4M2,3h2M6,3h4M0,4h2M6,4h2M0,5h2M6,5h2M4,6h2M4,7h2"/><path stroke="#ff7daf" d="M4,2h2M4,3h2M2,4h2M2,5h2"/><path stroke="#d94a69" d="M10,2h4M10,3h4M8,4h8M8,5h8M0,6h4M6,6h4M0,7h4M6,7h4M2,8h6M2,9h6M4,10h2M4,11h2"/><path stroke="#ffcdff" d="M4,4h2M4,5h2"/><path stroke="#9f3b52" d="M10,6h6M10,7h6M8,8h4M8,9h4M6,10h4M6,11h4M6,12h2M6,13h2"/><path stroke="#712b3b" d="M12,8h2M12,9h2M10,10h2M10,11h2M8,12h2M8,13h2M6,14h2M6,15h2"/></svg>
