<svg xmlns="http://www.w3.org/2000/svg" shape-rendering="crispEdges" viewBox="0 -0.5 16 16" width="16" height="16"><metadata>Generated with pixel-perfect-svg https://github.com/kagof/pixel-perfect-svg</metadata><path stroke="#f75879" opacity="0.043137254901960784" d="M1,1h1"/><path stroke="#f75a7c" opacity="0.17254901960784313" d="M2,1h1"/><path stroke="#f96288" opacity="0.24313725490196078" d="M3,1h1"/><path stroke="#fd71a0" opacity="0.23921568627450981" d="M4,1h1"/><path stroke="#fd72a1" opacity="0.23529411764705882" d="M5,1h1"/><path stroke="#fa648b" opacity="0.23529411764705882" d="M6,1h1"/><path stroke="#f95d80" opacity="0.23529411764705882" d="M7,1h1"/><path stroke="#fa5e81" opacity="0.23529411764705882" d="M8,1h1"/><path stroke="#f2597c" opacity="0.23529411764705882" d="M9,1h1"/><path stroke="#e14f6f" opacity="0.23529411764705882" d="M10,1h1"/><path stroke="#d84a68" opacity="0.23921568627450981" d="M11,1h1"/><path stroke="#d94a69" opacity="0.24313725490196078" d="M12,1h1"/><path stroke="#d94a69" opacity="0.17254901960784313" d="M13,1h1"/><path stroke="#d94a69" opacity="0.043137254901960784" d="M14,1h1"/><path stroke="#f75a7b" opacity="0.1568627450980392" d="M1,2h1"/><path stroke="#f85b7d" opacity="0.5529411764705883" d="M2,2h1"/><path stroke="#fa648a" opacity="0.7647058823529411" d="M3,2h1"/><path stroke="#fd73a2" opacity="0.7607843137254902" d="M4,2h1"/><path stroke="#fd74a3" opacity="0.7490196078431373" d="M5,2h1"/><path stroke="#fa658b" opacity="0.7490196078431373" d="M6,2h1"/><path stroke="#f95d7f" opacity="0.7490196078431373" d="M7,2h1M0,4h1"/><path stroke="#f95d80" opacity="0.7490196078431373" d="M8,2h1"/><path stroke="#f1597b" opacity="0.7490196078431373" d="M9,2h1"/><path stroke="#e14f6f" opacity="0.7490196078431373" d="M10,2h1"/><path stroke="#d84a68" opacity="0.7607843137254902" d="M11,2h1"/><path stroke="#d94a69" opacity="0.7647058823529411" d="M12,2h1"/><path stroke="#d94a69" opacity="0.5529411764705883" d="M13,2h1"/><path stroke="#d94a69" opacity="0.1568627450980392" d="M14,2h1M1,9h1M2,10h1"/><path stroke="#fa5d80" opacity="0.21568627450980393" d="M0,3h1"/><path stroke="#fa6186" opacity="0.42745098039215684" d="M1,3h1"/><path stroke="#fa638a" opacity="0.8274509803921568" d="M2,3h1"/><path stroke="#fb719a" d="M3,3h1"/><path stroke="#fe88b7" d="M4,3h1"/><path stroke="#fe86b5" d="M5,3h1"/><path stroke="#fa6b92" d="M6,3h1"/><path stroke="#f75b7e" d="M7,3h1"/><path stroke="#f3597b" d="M8,3h1"/><path stroke="#eb5576" d="M9,3h1"/><path stroke="#df4e6d" d="M10,3h1"/><path stroke="#d94a69" d="M11,3h2"/><path stroke="#da4a69" opacity="0.8274509803921568" d="M13,3h1"/><path stroke="#db4b6a" opacity="0.42745098039215684" d="M14,3h1"/><path stroke="#dd4b6b" opacity="0.21568627450980393" d="M15,3h1"/><path stroke="#fa648a" opacity="0.8196078431372549" d="M1,4h1"/><path stroke="#fd6f9c" opacity="0.9490196078431372" d="M2,4h1"/><path stroke="#ff89b8" d="M3,4h1"/><path stroke="#ffaddf" d="M4,4h1"/><path stroke="#fea7d5" d="M5,4h1"/><path stroke="#fb759c" d="M6,4h1"/><path stroke="#f3587a" d="M7,4h1"/><path stroke="#e75172" d="M8,4h1"/><path stroke="#df4d6d" d="M9,4h1M6,7h1"/><path stroke="#dc4b6b" d="M10,4h1"/><path stroke="#da4a69" d="M11,4h2M3,8h1"/><path stroke="#da4a6a" opacity="0.9490196078431372" d="M13,4h1"/><path stroke="#db4a6a" opacity="0.8196078431372549" d="M14,4h1"/><path stroke="#db4a6a" opacity="0.7490196078431373" d="M15,4h1"/><path stroke="#f05879" d="M0,5h1"/><path stroke="#f25d82" d="M1,5h1"/><path stroke="#f46994" d="M2,5h1"/><path stroke="#f884b2" d="M3,5h1"/><path stroke="#fca7d5" d="M4,5h1"/><path stroke="#fba0cb" d="M5,5h1"/><path stroke="#f47095" d="M6,5h1"/><path stroke="#eb5374" d="M7,5h1M4,7h1"/><path stroke="#df4c6c" d="M8,5h1M4,8h1"/><path stroke="#d54967" d="M9,5h1"/><path stroke="#ce4764" d="M10,5h1"/><path stroke="#cb4663" d="M11,5h1M14,5h2"/><path stroke="#cb4764" d="M12,5h2"/><path stroke="#e14e6e" d="M0,6h1"/><path stroke="#e15071" d="M1,6h1"/><path stroke="#e15477" d="M2,6h1"/><path stroke="#e96085" d="M3,6h1"/><path stroke="#f57299" d="M4,6h1"/><path stroke="#f57095" d="M5,6h1"/><path stroke="#e75a7b" d="M6,6h1"/><path stroke="#df4d6c" d="M7,6h1"/><path stroke="#dc4b6a" d="M8,6h1"/><path stroke="#cf4765" d="M9,6h1M8,7h1M7,8h1M6,9h1M5,10h1"/><path stroke="#b8415c" d="M10,6h1M8,8h1"/><path stroke="#ac3e57" d="M11,6h1"/><path stroke="#ad3f58" d="M12,6h1M14,6h2"/><path stroke="#ae3f58" d="M13,6h1"/><path stroke="#d84968" opacity="0.7490196078431373" d="M0,7h1"/><path stroke="#d84968" opacity="0.8196078431372549" d="M1,7h1"/><path stroke="#d84967" opacity="0.9490196078431372" d="M2,7h1"/><path stroke="#de4c6b" d="M3,7h1"/><path stroke="#ec5374" d="M5,7h1"/><path stroke="#d64967" d="M7,7h1"/><path stroke="#c0445f" d="M9,7h1M7,9h1"/><path stroke="#a93e56" d="M10,7h1M9,8h1M8,9h1M7,10h1"/><path stroke="#9a3a50" d="M11,7h1"/><path stroke="#94374d" d="M12,7h1"/><path stroke="#94374d" opacity="0.9490196078431372" d="M13,7h1"/><path stroke="#9a3950" opacity="0.8196078431372549" d="M14,7h1"/><path stroke="#9e3b52" opacity="0.7490196078431373" d="M15,7h1"/><path stroke="#d74968" opacity="0.21568627450980393" d="M0,8h1"/><path stroke="#d84968" opacity="0.42745098039215684" d="M1,8h1"/><path stroke="#d84968" opacity="0.8274509803921568" d="M2,8h1"/><path stroke="#e04c6c" d="M5,8h1"/><path stroke="#dd4b6b" d="M6,8h1"/><path stroke="#a33c54" d="M10,8h1M8,10h1"/><path stroke="#96384d" d="M11,8h1"/><path stroke="#833144" d="M12,8h1"/><path stroke="#7c2f41" opacity="0.8274509803921568" d="M13,8h1"/><path stroke="#883347" opacity="0.42745098039215684" d="M14,8h1"/><path stroke="#a03c53" opacity="0.21568627450980393" d="M15,8h1"/><path stroke="#d94a69" opacity="0.5568627450980392" d="M2,9h1"/><path stroke="#d94a69" opacity="0.8392156862745098" d="M3,9h1"/><path stroke="#d94a69" opacity="0.9647058823529412" d="M4,9h1"/><path stroke="#d64968" d="M5,9h1"/><path stroke="#9b3a50" d="M9,9h1M7,11h1"/><path stroke="#96384e" d="M10,9h1M9,10h1M8,11h1M7,12h1"/><path stroke="#8c3448" opacity="0.9647058823529412" d="M11,9h1M9,11h1"/><path stroke="#7a2e3f" opacity="0.8392156862745098" d="M12,9h1M11,10h1M10,11h1M9,12h1"/><path stroke="#6e2a39" opacity="0.5568627450980392" d="M13,9h1"/><path stroke="#672736" opacity="0.1568627450980392" d="M14,9h1"/><path stroke="#d94a69" opacity="0.03529411764705882" d="M1,10h1"/><path stroke="#da4a69" opacity="0.43529411764705883" d="M3,10h1"/><path stroke="#da4a69" opacity="0.8392156862745098" d="M4,10h1"/><path stroke="#b8425c" d="M6,10h1"/><path stroke="#843245" d="M10,10h1M8,12h1"/><path stroke="#752c3d" opacity="0.43529411764705883" d="M12,10h1M10,12h1"/><path stroke="#6b2938" opacity="0.1568627450980392" d="M13,10h1"/><path stroke="#58222f" opacity="0.03529411764705882" d="M14,10h1"/><path stroke="#de4b6b" opacity="0.1607843137254902" d="M3,11h1"/><path stroke="#db4b6a" opacity="0.5647058823529412" d="M4,11h1"/><path stroke="#c84662" opacity="0.8352941176470589" d="M5,11h1"/><path stroke="#ab3e57" opacity="0.9529411764705882" d="M6,11h1"/><path stroke="#6e2a3a" opacity="0.5647058823529412" d="M11,11h1"/><path stroke="#6c2939" opacity="0.1607843137254902" d="M12,11h1M11,12h1"/><path stroke="#f15072" opacity="0.03529411764705882" d="M3,12h1"/><path stroke="#e14c6c" opacity="0.1607843137254902" d="M4,12h1"/><path stroke="#ba425d" opacity="0.43137254901960786" d="M5,12h1"/><path stroke="#a53d54" opacity="0.8196078431372549" d="M6,12h1"/><path stroke="#672836" opacity="0.03529411764705882" d="M12,12h1M10,14h1"/><path stroke="#90364b" opacity="0.22745098039215686" d="M5,13h1"/><path stroke="#94374c" opacity="0.7568627450980392" d="M6,13h1"/><path stroke="#8c3549" opacity="0.9725490196078431" d="M7,13h1"/><path stroke="#7b2e40" opacity="0.8431372549019608" d="M8,13h1M7,14h1"/><path stroke="#6e2a3a" opacity="0.5568627450980392" d="M9,13h1"/><path stroke="#6c2939" opacity="0.1568627450980392" d="M10,13h1M9,14h1"/><path stroke="#782e3f" opacity="0.24313725490196078" d="M5,14h1"/><path stroke="#7b2f40" opacity="0.7725490196078432" d="M6,14h1"/><path stroke="#762d3e" opacity="0.4392156862745098" d="M8,14h1"/><path stroke="#702b3a" opacity="0.2549019607843137" d="M5,15h1"/><path stroke="#702b3a" opacity="0.7843137254901961" d="M6,15h1"/><path stroke="#702b3a" opacity="0.7725490196078432" d="M7,15h1"/><path stroke="#6f2a3a" opacity="0.23137254901960785" d="M8,15h1"/></svg>
