<svg xmlns="http://www.w3.org/2000/svg" shape-rendering="crispEdges" viewBox="0 -0.5 16 16" width="16" height="16"><metadata>Generated with pixel-perfect-svg https://github.com/kagof/pixel-perfect-svg</metadata><path stroke="#434549" d="M4,0h2M4,1h2M2,2h2M2,3h2"/><path stroke="#222323" d="M6,0h2M6,1h2M4,2h2M4,3h2M2,4h2M6,4h2M2,5h2M6,5h2M14,10h2M14,11h2M4,12h2M12,12h4M4,13h2M12,13h4M8,14h4M8,15h4"/><path stroke="#f5f7fa" d="M8,0h2M8,1h2M2,6h2M14,6h2M2,7h2M14,7h2M4,14h2M12,14h2M4,15h2M12,15h2"/><path stroke="#000000" d="M10,0h4M10,1h4M12,2h4M12,3h4M8,4h2M14,4h2M8,5h2M14,5h2M6,6h2M10,6h2M6,7h2M10,7h2M2,8h2M6,8h4M14,8h2M2,9h2M6,9h4M14,9h2M2,10h2M6,10h2M10,10h2M2,11h2M6,11h2M10,11h2M2,12h2M2,13h2M6,14h2M6,15h2"/></svg>
