<svg xmlns="http://www.w3.org/2000/svg" shape-rendering="crispEdges" viewBox="0 -0.5 16 16" width="16" height="16"><metadata>Generated with pixel-perfect-svg https://github.com/kagof/pixel-perfect-svg</metadata><path stroke="#ffbe4e" opacity="0.2235294117647059" d="M3,0h1"/><path stroke="#ffbd4e" opacity="0.7725490196078432" d="M4,0h1"/><path stroke="#feb44e" d="M5,0h1"/><path stroke="#faa34e" d="M6,0h1"/><path stroke="#f99a4e" opacity="0.7686274509803922" d="M7,0h1"/><path stroke="#f9994e" opacity="0.2235294117647059" d="M8,0h1"/><path stroke="#fa9d4f" opacity="0.2235294117647059" d="M9,0h1"/><path stroke="#fa9c4e" opacity="0.7686274509803922" d="M10,0h1"/><path stroke="#f4924b" d="M11,0h1"/><path stroke="#e88143" d="M12,0h1"/><path stroke="#e27740" opacity="0.7647058823529411" d="M13,0h1"/><path stroke="#e2763f" opacity="0.2196078431372549" d="M14,0h1"/><path stroke="#ffbe4e" opacity="0.047058823529411764" d="M1,1h1"/><path stroke="#ffbe4e" opacity="0.16470588235294117" d="M2,1h1"/><path stroke="#ffbe4e" opacity="0.3686274509803922" d="M3,1h1"/><path stroke="#ffbd4e" opacity="0.6392156862745098" d="M4,1h1"/><path stroke="#feb44e" opacity="0.7843137254901961" d="M5,1h1"/><path stroke="#faa34e" opacity="0.7803921568627451" d="M6,1h1"/><path stroke="#f99a4e" opacity="0.5529411764705883" d="M7,1h1"/><path stroke="#fa9c51" opacity="0.15294117647058825" d="M8,1h1"/><path stroke="#fca152" opacity="0.1568627450980392" d="M9,1h1"/><path stroke="#fa9c4f" opacity="0.5647058823529412" d="M10,1h1"/><path stroke="#f4924b" opacity="0.792156862745098" d="M11,1h1"/><path stroke="#e88143" opacity="0.788235294117647" d="M12,1h1"/><path stroke="#e27740" opacity="0.6313725490196078" d="M13,1h1"/><path stroke="#e27740" opacity="0.3607843137254902" d="M14,1h1"/><path stroke="#e37840" opacity="0.2196078431372549" d="M15,1h1"/><path stroke="#ffbd4e" opacity="0.1843137254901961" d="M1,2h1"/><path stroke="#ffbd4e" opacity="0.5686274509803921" d="M2,2h1"/><path stroke="#ffbd4e" opacity="0.6470588235294118" d="M3,2h1"/><path stroke="#ffbd4e" opacity="0.3843137254901961" d="M4,2h1"/><path stroke="#fdb44e" opacity="0.23921568627450981" d="M5,2h1"/><path stroke="#faa24e" opacity="0.23529411764705882" d="M6,2h1M4,4h1"/><path stroke="#fa9b4f" opacity="0.16470588235294117" d="M7,2h1"/><path stroke="#ffb065" opacity="0.03137254901960784" d="M8,2h1"/><path stroke="#ffb363" opacity="0.0392156862745098" d="M9,2h1"/><path stroke="#fb9e50" opacity="0.1803921568627451" d="M10,2h1"/><path stroke="#f4934b" opacity="0.25098039215686274" d="M11,2h1"/><path stroke="#e98144" opacity="0.24313725490196078" d="M12,2h1"/><path stroke="#e37740" opacity="0.3764705882352941" d="M13,2h1"/><path stroke="#e37840" opacity="0.6313725490196078" d="M14,2h1"/><path stroke="#e37840" opacity="0.7647058823529411" d="M15,2h1"/><path stroke="#feb44e" opacity="0.25882352941176473" d="M1,3h1"/><path stroke="#feb44e" opacity="0.8" d="M2,3h1"/><path stroke="#feb44e" opacity="0.803921568627451" d="M3,3h1"/><path stroke="#fdb44e" opacity="0.24313725490196078" d="M4,3h1"/><path stroke="#f63c6e" opacity="0.00784313725490196" d="M5,3h1"/><path stroke="#fb9c53" opacity="0.1411764705882353" d="M6,3h1M5,4h1"/><path stroke="#f39145" opacity="0.23529411764705882" d="M7,3h1"/><path stroke="#e57b2f" opacity="0.25882352941176473" d="M8,3h1"/><path stroke="#dd6e24" opacity="0.1843137254901961" d="M9,3h1"/><path stroke="#ce550c" opacity="0.03137254901960784" d="M10,3h1"/><path stroke="#e37840" opacity="0.24313725490196078" d="M13,3h1"/><path stroke="#e37840" opacity="0.788235294117647" d="M14,3h1M2,9h1M2,12h1"/><path stroke="#e37840" d="M15,3h1M15,4h1"/><path stroke="#faa34e" opacity="0.25882352941176473" d="M1,4h1"/><path stroke="#faa34e" opacity="0.8" d="M2,4h1"/><path stroke="#faa34e" opacity="0.796078431372549" d="M3,4h1"/><path stroke="#fb9d51" opacity="0.5450980392156862" d="M6,4h1"/><path stroke="#f39145" opacity="0.7843137254901961" d="M7,4h1"/><path stroke="#e57b30" opacity="0.803921568627451" d="M8,4h1"/><path stroke="#de6f25" opacity="0.5843137254901961" d="M9,4h1"/><path stroke="#db6b20" opacity="0.1607843137254902" d="M10,4h1"/><path stroke="#e37840" opacity="0.25098039215686274" d="M13,4h1"/><path stroke="#e37840" opacity="0.792156862745098" d="M14,4h1"/><path stroke="#f99b4e" opacity="0.1843137254901961" d="M1,5h1"/><path stroke="#f99b4e" opacity="0.5725490196078431" d="M2,5h1"/><path stroke="#f99b4f" opacity="0.5686274509803921" d="M3,5h1"/><path stroke="#fa9c50" opacity="0.16470588235294117" d="M4,5h1"/><path stroke="#f39245" opacity="0.23137254901960785" d="M5,5h1"/><path stroke="#f39245" opacity="0.7725490196078432" d="M6,5h1"/><path stroke="#ef8b3f" opacity="0.9921568627450981" d="M7,5h1"/><path stroke="#e57b2f" opacity="0.8549019607843137" d="M8,5h1"/><path stroke="#df7024" opacity="0.6431372549019608" d="M9,5h1"/><path stroke="#de7024" opacity="0.3803921568627451" d="M10,5h1"/><path stroke="#df7024" opacity="0.17254901960784313" d="M11,5h1"/><path stroke="#dd6d1a" opacity="0.03529411764705882" d="M12,5h1"/><path stroke="#e47941" opacity="0.1803921568627451" d="M13,5h1"/><path stroke="#e37940" opacity="0.5647058823529412" d="M14,5h1"/><path stroke="#e37940" opacity="0.7686274509803922" d="M15,5h1"/><path stroke="#fb9d50" opacity="0.054901960784313725" d="M1,6h1"/><path stroke="#fb9d50" opacity="0.16862745098039217" d="M2,6h1"/><path stroke="#fda053" opacity="0.1568627450980392" d="M3,6h1"/><path stroke="#ffb567" opacity="0.03137254901960784" d="M4,6h1"/><path stroke="#e57b30" opacity="0.25098039215686274" d="M5,6h1"/><path stroke="#e67c30" opacity="0.7843137254901961" d="M6,6h1"/><path stroke="#e57b2f" opacity="0.8431372549019608" d="M7,6h1"/><path stroke="#e4782b" opacity="0.4235294117647059" d="M8,6h1"/><path stroke="#df7124" opacity="0.3568627450980392" d="M9,6h1"/><path stroke="#df7125" opacity="0.6549019607843137" d="M10,6h1"/><path stroke="#df7126" opacity="0.6039215686274509" d="M11,6h1"/><path stroke="#df7125" opacity="0.19215686274509805" d="M12,6h1"/><path stroke="#e8804c" opacity="0.03529411764705882" d="M13,6h1"/><path stroke="#e67c41" opacity="0.1568627450980392" d="M14,6h1"/><path stroke="#e57b3f" opacity="0.2235294117647059" d="M15,6h1"/><path stroke="#e1743e" opacity="0.054901960784313725" d="M1,7h1"/><path stroke="#e1743e" opacity="0.16862745098039217" d="M2,7h1"/><path stroke="#e17541" opacity="0.1568627450980392" d="M3,7h1"/><path stroke="#e27751" opacity="0.03137254901960784" d="M4,7h1"/><path stroke="#df7024" opacity="0.24705882352941178" d="M5,7h1"/><path stroke="#df7024" opacity="0.7725490196078432" d="M6,7h1"/><path stroke="#dd6f27" opacity="0.8313725490196079" d="M7,7h1"/><path stroke="#d66734" opacity="0.4196078431372549" d="M8,7h1"/><path stroke="#d56738" opacity="0.3568627450980392" d="M9,7h1"/><path stroke="#de7029" opacity="0.6431372549019608" d="M10,7h1"/><path stroke="#e07225" opacity="0.592156862745098" d="M11,7h1"/><path stroke="#e17324" opacity="0.18823529411764706" d="M12,7h1"/><path stroke="#c15156" opacity="0.0392156862745098" d="M13,7h1"/><path stroke="#c95a49" opacity="0.1568627450980392" d="M14,7h1"/><path stroke="#cb5b47" opacity="0.2235294117647059" d="M15,7h1"/><path stroke="#e37740" opacity="0.1843137254901961" d="M1,8h1"/><path stroke="#e37740" opacity="0.5725490196078431" d="M2,8h1"/><path stroke="#e37740" opacity="0.5686274509803921" d="M3,8h1"/><path stroke="#e37844" opacity="0.16862745098039217" d="M4,8h1"/><path stroke="#e07121" opacity="0.22745098039215686" d="M5,8h1"/><path stroke="#df7123" opacity="0.7529411764705882" d="M6,8h1"/><path stroke="#db6d2c" opacity="0.9764705882352941" d="M7,8h1"/><path stroke="#d2633d" opacity="0.8509803921568627" d="M8,8h1"/><path stroke="#ce5f45" opacity="0.6352941176470588" d="M9,8h1"/><path stroke="#d76836" opacity="0.36470588235294116" d="M10,8h1"/><path stroke="#e7791c" opacity="0.15294117647058825" d="M11,8h1"/><path stroke="#f88a02" opacity="0.03137254901960784" d="M12,8h1"/><path stroke="#cc5d47" opacity="0.1843137254901961" d="M13,8h1"/><path stroke="#cc5d46" opacity="0.5647058823529412" d="M14,8h1"/><path stroke="#cd5d46" opacity="0.7686274509803922" d="M15,8h1"/><path stroke="#e37840" opacity="0.2549019607843137" d="M1,9h1M1,10h1M1,11h1M1,12h1"/><path stroke="#e37840" opacity="0.7843137254901961" d="M3,9h1M3,11h1"/><path stroke="#e47942" opacity="0.23921568627450981" d="M4,9h1"/><path stroke="#da6c2b" opacity="0.2235294117647059" d="M5,9h1"/><path stroke="#db6c2d" opacity="0.7607843137254902" d="M6,9h1"/><path stroke="#d86933" opacity="0.9921568627450981" d="M7,9h1"/><path stroke="#d1623f" opacity="0.8666666666666667" d="M8,9h1"/><path stroke="#ca5c47" opacity="0.6470588235294118" d="M9,9h1"/><path stroke="#bf5349" opacity="0.3686274509803922" d="M10,9h1"/><path stroke="#ac454a" opacity="0.14901960784313725" d="M11,9h1"/><path stroke="#892b4e" opacity="0.023529411764705882" d="M12,9h1"/><path stroke="#ce5f46" opacity="0.25098039215686274" d="M13,9h1"/><path stroke="#cd5e46" opacity="0.7803921568627451" d="M14,9h1"/><path stroke="#cd5e46" d="M15,9h1"/><path stroke="#e37840" opacity="0.7803921568627451" d="M2,10h2M2,11h1"/><path stroke="#e57a40" opacity="0.23529411764705882" d="M4,10h1"/><path stroke="#d0603e" opacity="0.23529411764705882" d="M5,10h1"/><path stroke="#d1623e" opacity="0.7803921568627451" d="M6,10h1"/><path stroke="#d1623f" opacity="0.8549019607843137" d="M7,10h1"/><path stroke="#d06142" opacity="0.44313725490196076" d="M8,10h1"/><path stroke="#c05447" opacity="0.37254901960784315" d="M9,10h1"/><path stroke="#b74e47" opacity="0.6509803921568628" d="M10,10h1"/><path stroke="#b44c47" opacity="0.5803921568627451" d="M11,10h1"/><path stroke="#b14947" opacity="0.16862745098039217" d="M12,10h1"/><path stroke="#cf6046" opacity="0.23921568627450981" d="M13,10h1"/><path stroke="#ce5f46" opacity="0.7647058823529411" d="M14,10h1"/><path stroke="#ce5e46" d="M15,10h1"/><path stroke="#e57a3f" opacity="0.24313725490196078" d="M4,11h1"/><path stroke="#c95948" opacity="0.16862745098039217" d="M5,11h1"/><path stroke="#cb5c47" opacity="0.5686274509803921" d="M6,11h1"/><path stroke="#cc5d47" opacity="0.5607843137254902" d="M7,11h1"/><path stroke="#cf5f48" opacity="0.1411764705882353" d="M8,11h1"/><path stroke="#af4846" opacity="0.14901960784313725" d="M9,11h1"/><path stroke="#b54c46" opacity="0.5803921568627451" d="M10,11h1"/><path stroke="#b64d46" opacity="0.5843137254901961" d="M11,11h1"/><path stroke="#b44b46" opacity="0.17254901960784313" d="M12,11h1"/><path stroke="#c85b46" opacity="0.23921568627450981" d="M13,11h1"/><path stroke="#c75a46" opacity="0.7647058823529411" d="M14,11h1"/><path stroke="#c75a46" d="M15,11h1"/><path stroke="#e37840" opacity="0.796078431372549" d="M3,12h1"/><path stroke="#e47940" opacity="0.25882352941176473" d="M4,12h1"/><path stroke="#b7444f" opacity="0.03137254901960784" d="M5,12h1"/><path stroke="#c7574a" opacity="0.1568627450980392" d="M6,12h1"/><path stroke="#ca5a49" opacity="0.1568627450980392" d="M7,12h1"/><path stroke="#c9574e" opacity="0.0196078431372549" d="M8,12h1"/><path stroke="#963645" opacity="0.023529411764705882" d="M9,12h1"/><path stroke="#b44c46" opacity="0.16862745098039217" d="M10,12h1"/><path stroke="#b64d46" opacity="0.16862745098039217" d="M11,12h1"/><path stroke="#b34b46" opacity="0.03529411764705882" d="M12,12h1"/><path stroke="#bc5146" opacity="0.25098039215686274" d="M13,12h1"/><path stroke="#bb5146" opacity="0.7803921568627451" d="M14,12h1"/><path stroke="#bb5146" d="M15,12h1M10,15h1"/><path stroke="#e37840" opacity="0.18823529411764706" d="M1,13h1"/><path stroke="#e37840" opacity="0.5764705882352941" d="M2,13h1"/><path stroke="#e37840" opacity="0.5803921568627451" d="M3,13h1"/><path stroke="#e37840" opacity="0.1843137254901961" d="M4,13h1"/><path stroke="#e97f3e" opacity="0.0392156862745098" d="M5,13h1"/><path stroke="#e67c3f" opacity="0.1607843137254902" d="M6,13h1"/><path stroke="#df7441" opacity="0.23921568627450981" d="M7,13h1"/><path stroke="#d36544" opacity="0.25098039215686274" d="M8,13h1"/><path stroke="#c75946" opacity="0.25098039215686274" d="M9,13h1"/><path stroke="#bc5146" opacity="0.23921568627450981" d="M10,13h1"/><path stroke="#b54c46" opacity="0.1607843137254902" d="M11,13h1"/><path stroke="#b44c46" opacity="0.0392156862745098" d="M12,13h1"/><path stroke="#b54c46" opacity="0.1843137254901961" d="M13,13h1"/><path stroke="#b54c46" opacity="0.5686274509803921" d="M14,13h1"/><path stroke="#b54c46" opacity="0.7725490196078432" d="M15,13h1"/><path stroke="#e37840" opacity="0.058823529411764705" d="M1,14h1"/><path stroke="#e37840" opacity="0.1803921568627451" d="M2,14h1"/><path stroke="#e37840" opacity="0.17254901960784313" d="M3,14h1"/><path stroke="#e37840" opacity="0.043137254901960784" d="M4,14h1"/><path stroke="#e57a3f" opacity="0.17647058823529413" d="M5,14h1"/><path stroke="#e47940" opacity="0.5647058823529412" d="M6,14h1"/><path stroke="#de7241" opacity="0.7725490196078432" d="M7,14h1"/><path stroke="#d36544" opacity="0.7725490196078432" d="M8,14h1"/><path stroke="#c75946" opacity="0.7725490196078432" d="M9,14h1"/><path stroke="#bb5146" opacity="0.7725490196078432" d="M10,14h1"/><path stroke="#b54c46" opacity="0.5647058823529412" d="M11,14h1"/><path stroke="#b54c46" opacity="0.17647058823529413" d="M12,14h1"/><path stroke="#b44c46" opacity="0.043137254901960784" d="M13,14h1"/><path stroke="#b54c46" opacity="0.16862745098039217" d="M14,14h1"/><path stroke="#b54c46" opacity="0.24313725490196078" d="M15,14h1"/><path stroke="#e47a40" opacity="0.25098039215686274" d="M5,15h1"/><path stroke="#e47940" opacity="0.7843137254901961" d="M6,15h1"/><path stroke="#de7241" d="M7,15h1"/><path stroke="#d36544" d="M8,15h1"/><path stroke="#c75946" d="M9,15h1"/><path stroke="#b54c46" opacity="0.7843137254901961" d="M11,15h1"/><path stroke="#b54c46" opacity="0.25098039215686274" d="M12,15h1"/></svg>
