<svg xmlns="http://www.w3.org/2000/svg" shape-rendering="crispEdges" viewBox="0 -0.5 16 16" width="16" height="16"><metadata>Generated with pixel-perfect-svg https://github.com/kagof/pixel-perfect-svg</metadata><path stroke="#ffbc4e" d="M4,0h2M4,1h2M2,2h2M2,3h2"/><path stroke="#f99b4e" d="M6,0h2M10,0h2M6,1h2M10,1h2M2,4h2M6,4h2M2,5h2M6,5h2"/><path stroke="#e37840" d="M12,0h2M12,1h2M14,2h2M14,3h2M14,4h2M14,5h2M2,8h2M2,9h2M2,10h2M2,11h2M2,12h2M2,13h2M6,14h2M6,15h2"/><path stroke="#df7126" d="M8,4h2M8,5h2M6,6h2M10,6h2M6,7h2M10,7h2M6,8h2M6,9h2"/><path stroke="#cd5e46" d="M8,8h2M14,8h2M8,9h2M14,9h2M6,10h2M14,10h2M6,11h2M14,11h2M8,14h2M8,15h2"/><path stroke="#b64d46" d="M10,10h2M10,11h2M14,12h2M14,13h2M10,14h2M10,15h2"/></svg>
