<svg xmlns="http://www.w3.org/2000/svg" shape-rendering="crispEdges" viewBox="0 -0.5 16 16" width="16" height="16"><metadata>Generated with pixel-perfect-svg https://github.com/kagof/pixel-perfect-svg</metadata><path stroke="#47494d" opacity="0.21568627450980393" d="M3,0h1"/><path stroke="#45474b" opacity="0.7490196078431373" d="M4,0h1"/><path stroke="#393a3e" d="M5,0h1"/><path stroke="#252728" d="M6,0h1"/><path stroke="#58595a" d="M7,0h1M11,15h1"/><path stroke="#c7c9cb" d="M8,0h1M12,15h1"/><path stroke="#bfc0c3" d="M9,0h1"/><path stroke="#3e3f3f" d="M10,0h1"/><path stroke="#000000" d="M11,0h2M15,3h1M15,4h1"/><path stroke="#000000" opacity="0.7372549019607844" d="M13,0h1M15,2h1"/><path stroke="#000000" opacity="0.21176470588235294" d="M14,0h1M15,1h1M5,9h1"/><path stroke="#484b4f" opacity="0.043137254901960784" d="M1,1h1"/><path stroke="#47494d" opacity="0.1568627450980392" d="M2,1h1"/><path stroke="#404245" opacity="0.43137254901960786" d="M3,1h1"/><path stroke="#3c3e41" opacity="0.8352941176470589" d="M4,1h1"/><path stroke="#343538" opacity="0.9686274509803922" d="M5,1h1"/><path stroke="#252627" opacity="0.8235294117647058" d="M6,1h1"/><path stroke="#595b5b" opacity="0.7450980392156863" d="M7,1h1"/><path stroke="#ccced0" opacity="0.7450980392156863" d="M8,1h1"/><path stroke="#c3c4c7" opacity="0.7490196078431373" d="M9,1h1"/><path stroke="#3f4040" opacity="0.7529411764705882" d="M10,1h1"/><path stroke="#000000" opacity="0.8352941176470589" d="M11,1h1M14,4h1"/><path stroke="#000000" opacity="0.9725490196078431" d="M12,1h1M13,2h1M14,3h1"/><path stroke="#000000" opacity="0.8235294117647058" d="M13,1h1M14,2h1"/><path stroke="#000000" opacity="0.4235294117647059" d="M14,1h1"/><path stroke="#46484d" opacity="0.17254901960784313" d="M1,2h1"/><path stroke="#45474b" opacity="0.5529411764705883" d="M2,2h1"/><path stroke="#3c3e41" opacity="0.8431372549019608" d="M3,2h1"/><path stroke="#2f3132" opacity="0.984313725490196" d="M4,2h1"/><path stroke="#28292a" opacity="0.8392156862745098" d="M5,2h1"/><path stroke="#232425" opacity="0.4235294117647059" d="M6,2h1"/><path stroke="#636566" opacity="0.21176470588235294" d="M7,2h1"/><path stroke="#e5e7ea" opacity="0.21568627450980393" d="M8,2h1"/><path stroke="#d8d9dc" opacity="0.2235294117647059" d="M9,2h1"/><path stroke="#454546" opacity="0.22745098039215686" d="M10,2h1"/><path stroke="#000000" opacity="0.44313725490196076" d="M11,2h1M13,4h1M8,10h1"/><path stroke="#000000" opacity="0.8431372549019608" d="M12,2h1M13,3h1"/><path stroke="#393b3e" opacity="0.24705882352941178" d="M1,3h1"/><path stroke="#393a3e" opacity="0.7725490196078432" d="M2,3h1"/><path stroke="#343538" opacity="0.9921568627450981" d="M3,3h1"/><path stroke="#28292a" opacity="0.8509803921568627" d="M4,3h1"/><path stroke="#212221" opacity="0.6235294117647059" d="M5,3h1"/><path stroke="#232423" opacity="0.34509803921568627" d="M6,3h1M5,4h1"/><path stroke="#131414" opacity="0.21176470588235294" d="M7,3h1"/><path stroke="#000000" opacity="0.22745098039215686" d="M8,3h1M5,7h1"/><path stroke="#000000" opacity="0.1568627450980392" d="M9,3h1M2,14h1"/><path stroke="#000000" opacity="0.00784313725490196" d="M10,3h1M8,12h1"/><path stroke="#010101" opacity="0.1450980392156863" d="M11,3h1M12,4h1"/><path stroke="#000000" opacity="0.5568627450980392" d="M12,3h1M7,11h1"/><path stroke="#262728" opacity="0.25098039215686274" d="M1,4h1"/><path stroke="#252728" opacity="0.7764705882352941" d="M2,4h1"/><path stroke="#252627" opacity="0.8431372549019608" d="M3,4h1"/><path stroke="#232425" opacity="0.43137254901960786" d="M4,4h1"/><path stroke="#242525" opacity="0.611764705882353" d="M6,4h1"/><path stroke="#191a1a" opacity="0.7725490196078432" d="M7,4h1"/><path stroke="#050505" opacity="0.788235294117647" d="M8,4h1"/><path stroke="#000000" opacity="0.5686274509803921" d="M9,4h1"/><path stroke="#000000" opacity="0.14901960784313725" d="M10,4h1M11,8h1M12,10h1"/><path stroke="#58595a" opacity="0.25098039215686274" d="M1,5h1"/><path stroke="#58595a" opacity="0.7725490196078432" d="M2,5h1"/><path stroke="#595b5b" opacity="0.7607843137254902" d="M3,5h1"/><path stroke="#636565" opacity="0.21568627450980393" d="M4,5h1"/><path stroke="#141414" opacity="0.20784313725490197" d="M5,5h1"/><path stroke="#191a1a" opacity="0.7607843137254902" d="M6,5h1"/><path stroke="#151616" opacity="0.9921568627450981" d="M7,5h1"/><path stroke="#080808" opacity="0.8549019607843137" d="M8,5h1"/><path stroke="#000000" opacity="0.6431372549019608" d="M9,5h1M10,7h1"/><path stroke="#000000" opacity="0.3803921568627451" d="M10,5h1"/><path stroke="#000000" opacity="0.1607843137254902" d="M11,5h1M12,6h1"/><path stroke="#000000" opacity="0.011764705882352941" d="M12,5h1M12,9h1M9,12h1"/><path stroke="#454647" opacity="0.22745098039215686" d="M13,5h1"/><path stroke="#404041" opacity="0.7529411764705882" d="M14,5h1"/><path stroke="#3f3f40" d="M15,5h1"/><path stroke="#c7c9cb" opacity="0.25098039215686274" d="M1,6h1"/><path stroke="#c7c9cb" opacity="0.7725490196078432" d="M2,6h1"/><path stroke="#ccced0" opacity="0.7647058823529411" d="M3,6h1"/><path stroke="#e5e7e9" opacity="0.2196078431372549" d="M4,6h1"/><path stroke="#000000" opacity="0.2196078431372549" d="M5,6h1M5,8h1M4,9h1"/><path stroke="#050505" opacity="0.7686274509803922" d="M6,6h1"/><path stroke="#080808" opacity="0.8431372549019608" d="M7,6h1"/><path stroke="#050505" opacity="0.4235294117647059" d="M8,6h1"/><path stroke="#000000" opacity="0.3568627450980392" d="M9,6h1M9,7h1"/><path stroke="#000000" opacity="0.6549019607843137" d="M10,6h1"/><path stroke="#000000" opacity="0.5882352941176471" d="M11,6h1"/><path stroke="#d9dbdd" opacity="0.2235294117647059" d="M13,6h1"/><path stroke="#c3c5c7" opacity="0.7490196078431373" d="M14,6h1"/><path stroke="#c0c1c3" d="M15,6h1"/><path stroke="#bfc0c3" opacity="0.25098039215686274" d="M1,7h1"/><path stroke="#bfc0c3" opacity="0.7725490196078432" d="M2,7h1"/><path stroke="#c3c4c6" opacity="0.7686274509803922" d="M3,7h1"/><path stroke="#d2d4d6" opacity="0.23137254901960785" d="M4,7h1"/><path stroke="#000000" opacity="0.7607843137254902" d="M6,7h1M3,10h1"/><path stroke="#000000" opacity="0.8313725490196079" d="M7,7h1"/><path stroke="#000000" opacity="0.4196078431372549" d="M8,7h1"/><path stroke="#000000" opacity="0.5803921568627451" d="M11,7h1"/><path stroke="#000000" opacity="0.16862745098039217" d="M12,7h1"/><path stroke="#cecfd2" opacity="0.23529411764705882" d="M13,7h1"/><path stroke="#c2c3c6" opacity="0.7529411764705882" d="M14,7h1"/><path stroke="#bfc1c3" d="M15,7h1"/><path stroke="#3e3f40" opacity="0.25098039215686274" d="M1,8h1"/><path stroke="#3e3f40" opacity="0.7725490196078432" d="M2,8h1"/><path stroke="#3f4041" opacity="0.7686274509803922" d="M3,8h1"/><path stroke="#454546" opacity="0.23137254901960785" d="M4,8h1"/><path stroke="#000000" opacity="0.7490196078431373" d="M6,8h1"/><path stroke="#000000" opacity="0.9764705882352941" d="M7,8h1"/><path stroke="#000000" opacity="0.8509803921568627" d="M8,8h1"/><path stroke="#000000" opacity="0.6352941176470588" d="M9,8h1"/><path stroke="#000000" opacity="0.36470588235294116" d="M10,8h1"/><path stroke="#000000" opacity="0.023529411764705882" d="M12,8h1"/><path stroke="#3f4041" opacity="0.24705882352941178" d="M13,8h1"/><path stroke="#3e3f3f" opacity="0.7607843137254902" d="M14,8h1"/><path stroke="#3e3e3f" d="M15,8h1"/><path stroke="#000000" opacity="0.25098039215686274" d="M1,9h1M1,10h1M1,11h1"/><path stroke="#000000" opacity="0.7725490196078432" d="M2,9h1M2,10h1M6,10h1M2,12h1"/><path stroke="#000000" opacity="0.7647058823529411" d="M3,9h1"/><path stroke="#000000" opacity="0.7568627450980392" d="M6,9h1"/><path stroke="#000000" opacity="0.9921568627450981" d="M7,9h1"/><path stroke="#000000" opacity="0.8666666666666667" d="M8,9h1"/><path stroke="#000000" opacity="0.6470588235294118" d="M9,9h1"/><path stroke="#000000" opacity="0.3686274509803922" d="M10,9h1"/><path stroke="#000000" opacity="0.1450980392156863" d="M11,9h1M9,11h1"/><path stroke="#010101" opacity="0.23529411764705882" d="M13,9h1"/><path stroke="#020302" opacity="0.7568627450980392" d="M14,9h1"/><path stroke="#020303" d="M15,9h1M7,15h1"/><path stroke="#000000" opacity="0.21568627450980393" d="M4,10h2M7,13h1"/><path stroke="#000000" opacity="0.8549019607843137" d="M7,10h1"/><path stroke="#000000" opacity="0.37254901960784315" d="M9,10h1"/><path stroke="#000000" opacity="0.6509803921568628" d="M10,10h1"/><path stroke="#000000" opacity="0.5725490196078431" d="M11,10h1M10,11h1"/><path stroke="#171818" opacity="0.21568627450980393" d="M13,10h1"/><path stroke="#161717" opacity="0.7490196078431373" d="M14,10h1"/><path stroke="#161717" d="M15,10h1M8,15h1"/><path stroke="#000000" opacity="0.7764705882352941" d="M2,11h1"/><path stroke="#020202" opacity="0.8431372549019608" d="M3,11h1"/><path stroke="#090a0a" opacity="0.43137254901960786" d="M4,11h1"/><path stroke="#0b0c0c" opacity="0.3568627450980392" d="M5,11h1"/><path stroke="#020202" opacity="0.6313725490196078" d="M6,11h1"/><path stroke="#000000" opacity="0.13725490196078433" d="M8,11h1"/><path stroke="#010101" opacity="0.6470588235294118" d="M11,11h1"/><path stroke="#080909" opacity="0.3607843137254902" d="M12,11h1"/><path stroke="#1e1f1f" opacity="0.4235294117647059" d="M13,11h1"/><path stroke="#222323" opacity="0.8235294117647058" d="M14,11h1"/><path stroke="#232424" d="M15,11h1M15,12h1"/><path stroke="#000000" opacity="0.24705882352941178" d="M1,12h1"/><path stroke="#050606" opacity="0.9921568627450981" d="M3,12h1"/><path stroke="#131414" opacity="0.8509803921568627" d="M4,12h1"/><path stroke="#1a1b1b" opacity="0.6274509803921569" d="M5,12h1"/><path stroke="#0f1010" opacity="0.34901960784313724" d="M6,12h1"/><path stroke="#000000" opacity="0.1411764705882353" d="M7,12h1"/><path stroke="#000000" opacity="0.15294117647058825" d="M10,12h1"/><path stroke="#0c0c0c" opacity="0.3607843137254902" d="M11,12h1"/><path stroke="#181919" opacity="0.6313725490196078" d="M12,12h1"/><path stroke="#1e1f1f" opacity="0.8392156862745098" d="M13,12h1"/><path stroke="#212222" opacity="0.9686274509803922" d="M14,12h1"/><path stroke="#000000" opacity="0.17254901960784313" d="M1,13h1"/><path stroke="#000000" opacity="0.5529411764705883" d="M2,13h1"/><path stroke="#1b1b1b" opacity="0.8431372549019608" d="M3,13h1"/><path stroke="#464747" opacity="0.984313725490196" d="M4,13h1"/><path stroke="#525354" opacity="0.8392156862745098" d="M5,13h1"/><path stroke="#353536" opacity="0.4235294117647059" d="M6,13h1"/><path stroke="#161717" opacity="0.23529411764705882" d="M8,13h1"/><path stroke="#202121" opacity="0.23529411764705882" d="M9,13h1"/><path stroke="#202121" opacity="0.21568627450980393" d="M10,13h1"/><path stroke="#444545" opacity="0.4235294117647059" d="M11,13h1"/><path stroke="#545556" opacity="0.8392156862745098" d="M12,13h1"/><path stroke="#4c4d4e" opacity="0.9725490196078431" d="M13,13h1"/><path stroke="#323333" opacity="0.8235294117647058" d="M14,13h1"/><path stroke="#202121" opacity="0.7372549019607844" d="M15,13h1"/><path stroke="#000000" opacity="0.043137254901960784" d="M1,14h1"/><path stroke="#747576" opacity="0.43137254901960786" d="M3,14h1"/><path stroke="#b7b9bb" opacity="0.8352941176470589" d="M4,14h1"/><path stroke="#9e9fa1" opacity="0.9686274509803922" d="M5,14h1"/><path stroke="#3c3d3d" opacity="0.8235294117647058" d="M6,14h1"/><path stroke="#020202" opacity="0.7490196078431373" d="M7,14h1"/><path stroke="#161717" opacity="0.7568627450980392" d="M8,14h1"/><path stroke="#202121" opacity="0.7568627450980392" d="M9,14h1"/><path stroke="#1e1f1f" opacity="0.7490196078431373" d="M10,14h1"/><path stroke="#555656" opacity="0.8235294117647058" d="M11,14h1"/><path stroke="#a4a6a8" opacity="0.9686274509803922" d="M12,14h1"/><path stroke="#b9bbbd" opacity="0.8235294117647058" d="M13,14h1"/><path stroke="#818384" opacity="0.4235294117647059" d="M14,14h1"/><path stroke="#0a0b0b" opacity="0.21176470588235294" d="M15,14h1"/><path stroke="#ffffff" opacity="0.21568627450980393" d="M3,15h1"/><path stroke="#ffffff" opacity="0.7490196078431373" d="M4,15h1"/><path stroke="#bec0c2" d="M5,15h1"/><path stroke="#3d3e3e" d="M6,15h1"/><path stroke="#202121" d="M9,15h1"/><path stroke="#1e1f1e" d="M10,15h1"/><path stroke="#ffffff" opacity="0.7372549019607844" d="M13,15h1"/><path stroke="#ffffff" opacity="0.21176470588235294" d="M14,15h1"/></svg>
