<svg xmlns="http://www.w3.org/2000/svg" shape-rendering="crispEdges" viewBox="0 -0.5 16 16" width="16" height="16"><metadata>Generated with pixel-perfect-svg https://github.com/kagof/pixel-perfect-svg</metadata><path stroke="#fbc575" opacity="0.21568627450980393" d="M9,0h1"/><path stroke="#f5c57a" opacity="0.7490196078431373" d="M10,0h1"/><path stroke="#d3c89d" d="M11,0h1"/><path stroke="#91cce0" d="M12,0h1"/><path stroke="#61c7fc" d="M13,0h1"/><path stroke="#4ab9ed" d="M14,0h1"/><path stroke="#40b2e3" d="M15,0h1"/><path stroke="#fac679" opacity="0.047058823529411764" d="M7,1h1"/><path stroke="#f2c67d" opacity="0.1607843137254902" d="M8,1h1"/><path stroke="#d7c28c" opacity="0.42745098039215684" d="M9,1h1"/><path stroke="#c8c195" opacity="0.8196078431372549" d="M10,1h1"/><path stroke="#aac2b0" d="M11,1h1"/><path stroke="#76c5df" d="M12,1h1"/><path stroke="#51bff1" d="M13,1h1"/><path stroke="#41b0e2" d="M14,1h1"/><path stroke="#3aa9d9" d="M15,1h1"/><path stroke="#f7c67b" opacity="0.17647058823529413" d="M7,2h1"/><path stroke="#f1c67e" opacity="0.5607843137254902" d="M8,2h1"/><path stroke="#c7c197" opacity="0.8274509803921568" d="M9,2h1"/><path stroke="#84babd" opacity="0.9490196078431372" d="M10,2h1"/><path stroke="#5ab7d3" d="M11,2h1"/><path stroke="#41b7de" d="M12,2h1"/><path stroke="#34aeda" d="M13,2h1"/><path stroke="#329fcc" d="M14,2h1"/><path stroke="#3196c4" d="M15,2h1"/><path stroke="#f7cb7e" opacity="0.23529411764705882" d="M7,3h1"/><path stroke="#f1c77f" opacity="0.7725490196078432" d="M8,3h1"/><path stroke="#cdc092" d="M9,3h1"/><path stroke="#87b4b8" d="M10,3h1"/><path stroke="#4fabce" d="M11,3h1"/><path stroke="#2fa8d0" d="M12,3h1"/><path stroke="#2f9fc4" d="M13,3h1"/><path stroke="#4a90ae" d="M14,3h1"/><path stroke="#5889a3" d="M15,3h1"/><path stroke="#f4ce83" opacity="0.22745098039215686" d="M7,4h1"/><path stroke="#efc781" opacity="0.7647058823529411" d="M8,4h1"/><path stroke="#e1be84" d="M9,4h1"/><path stroke="#c4ad8c" d="M10,4h1"/><path stroke="#8da09e" d="M11,4h1"/><path stroke="#4699b7" d="M12,4h1"/><path stroke="#4691b0" d="M13,4h1"/><path stroke="#85888e" d="M14,4h1"/><path stroke="#a7847b" d="M15,4h1"/><path stroke="#b06659" opacity="0.03529411764705882" d="M5,5h1"/><path stroke="#bb7660" opacity="0.1607843137254902" d="M6,5h1"/><path stroke="#d7a373" opacity="0.43137254901960786" d="M7,5h1"/><path stroke="#e6b97d" opacity="0.8196078431372549" d="M8,5h1"/><path stroke="#e6b47b" d="M9,5h1"/><path stroke="#dfa173" d="M10,5h1"/><path stroke="#b6937d" d="M11,5h1"/><path stroke="#748d98" d="M12,5h1"/><path stroke="#6b889a" opacity="0.9490196078431372" d="M13,5h1"/><path stroke="#a7847c" opacity="0.8196078431372549" d="M14,5h1"/><path stroke="#d08167" opacity="0.7490196078431373" d="M15,5h1"/><path stroke="#bd7b61" opacity="0.1607843137254902" d="M5,6h1"/><path stroke="#be7d62" opacity="0.5647058823529412" d="M6,6h1"/><path stroke="#c98c6a" opacity="0.8352941176470589" d="M7,6h1"/><path stroke="#d9a275" opacity="0.9529411764705882" d="M8,6h1"/><path stroke="#dba276" d="M9,6h1"/><path stroke="#d3916f" d="M10,6h1"/><path stroke="#c28771" d="M11,6h1"/><path stroke="#ad8579" d="M12,6h1"/><path stroke="#a6847c" opacity="0.8274509803921568" d="M13,6h1"/><path stroke="#b68374" opacity="0.42745098039215684" d="M14,6h1"/><path stroke="#d78164" opacity="0.21568627450980393" d="M15,6h1"/><path stroke="#c38165" opacity="0.03529411764705882" d="M3,7h1"/><path stroke="#c18064" opacity="0.1607843137254902" d="M4,7h1M3,8h1"/><path stroke="#bc7c62" opacity="0.43529411764705883" d="M5,7h1"/><path stroke="#ba7a60" opacity="0.8392156862745098" d="M6,7h1"/><path stroke="#bd7f63" d="M7,7h1"/><path stroke="#c38968" d="M8,7h1"/><path stroke="#c78c6c" opacity="0.9529411764705882" d="M9,7h1"/><path stroke="#c7856c" opacity="0.8196078431372549" d="M10,7h1"/><path stroke="#c8816b" opacity="0.7647058823529411" d="M11,7h1"/><path stroke="#ca816a" opacity="0.7725490196078432" d="M12,7h1"/><path stroke="#cc826a" opacity="0.5607843137254902" d="M13,7h1"/><path stroke="#cd8269" opacity="0.1607843137254902" d="M14,7h1"/><path stroke="#c07f64" opacity="0.5647058823529412" d="M4,8h1"/><path stroke="#bb7b61" opacity="0.8392156862745098" d="M5,8h1M4,9h1M3,10h1"/><path stroke="#b3745d" opacity="0.9647058823529412" d="M6,8h1"/><path stroke="#ac705a" d="M7,8h1"/><path stroke="#a66d58" d="M8,8h1"/><path stroke="#a66d59" opacity="0.8352941176470589" d="M9,8h1"/><path stroke="#b27460" opacity="0.43137254901960786" d="M10,8h1"/><path stroke="#cc836c" opacity="0.22745098039215686" d="M11,8h1"/><path stroke="#d08269" opacity="0.23529411764705882" d="M12,8h1"/><path stroke="#d18167" opacity="0.17647058823529413" d="M13,8h1"/><path stroke="#d38166" opacity="0.047058823529411764" d="M14,8h1"/><path stroke="#cb8769" opacity="0.03529411764705882" d="M1,9h1"/><path stroke="#c28064" opacity="0.1568627450980392" d="M2,9h1"/><path stroke="#be7d62" opacity="0.43529411764705883" d="M3,9h1"/><path stroke="#b5765e" d="M5,9h1M3,11h1"/><path stroke="#a96d58" d="M6,9h1M5,10h1M4,11h1M0,13h1M0,14h1"/><path stroke="#9f6554" opacity="0.9647058823529412" d="M7,9h1"/><path stroke="#975f50" opacity="0.8392156862745098" d="M8,9h1M7,10h1"/><path stroke="#915a4d" opacity="0.5647058823529412" d="M9,9h1"/><path stroke="#8a554a" opacity="0.1607843137254902" d="M10,9h1"/><path stroke="#c48265" opacity="0.1568627450980392" d="M1,10h1"/><path stroke="#c17f64" opacity="0.5568627450980392" d="M2,10h1"/><path stroke="#b3755d" opacity="0.9647058823529412" d="M4,10h1"/><path stroke="#9e6553" d="M6,10h1M4,12h1"/><path stroke="#945d4f" opacity="0.43529411764705883" d="M8,10h1"/><path stroke="#8d574b" opacity="0.1607843137254902" d="M9,10h1"/><path stroke="#7b4941" opacity="0.03529411764705882" d="M10,10h1"/><path stroke="#a76b57" opacity="0.21568627450980393" d="M0,11h1"/><path stroke="#b3755d" opacity="0.42745098039215684" d="M1,11h1"/><path stroke="#ba7a60" opacity="0.8274509803921568" d="M2,11h1"/><path stroke="#9f6654" opacity="0.9647058823529412" d="M5,11h1"/><path stroke="#986050" opacity="0.8392156862745098" d="M6,11h1M5,12h1"/><path stroke="#935c4e" opacity="0.5647058823529412" d="M7,11h1"/><path stroke="#925b4e" opacity="0.1607843137254902" d="M8,11h1M7,12h1"/><path stroke="#a96d58" opacity="0.7490196078431373" d="M0,12h1"/><path stroke="#ab6f59" opacity="0.8196078431372549" d="M1,12h1"/><path stroke="#ae715b" opacity="0.9490196078431372" d="M2,12h1"/><path stroke="#aa6d59" d="M3,12h1"/><path stroke="#955e50" opacity="0.43529411764705883" d="M6,12h1"/><path stroke="#905a4d" opacity="0.03529411764705882" d="M8,12h1M6,14h1"/><path stroke="#a86c57" d="M1,13h1"/><path stroke="#a56a56" d="M2,13h1M1,14h1"/><path stroke="#a06654" opacity="0.9490196078431372" d="M3,13h1"/><path stroke="#986051" opacity="0.8274509803921568" d="M4,13h1"/><path stroke="#935c4e" opacity="0.5568627450980392" d="M5,13h1"/><path stroke="#925b4e" opacity="0.1568627450980392" d="M6,13h1M5,14h1"/><path stroke="#9d6453" d="M2,14h1"/><path stroke="#986051" opacity="0.8196078431372549" d="M3,14h1"/><path stroke="#955e50" opacity="0.42745098039215684" d="M4,14h1"/><path stroke="#aa6e58" d="M0,15h1"/><path stroke="#a46956" d="M1,15h1"/><path stroke="#996151" d="M2,15h1"/><path stroke="#935c4e" opacity="0.7490196078431373" d="M3,15h1"/><path stroke="#925b4e" opacity="0.21568627450980393" d="M4,15h1"/></svg>
