<svg xmlns="http://www.w3.org/2000/svg" shape-rendering="crispEdges" viewBox="0 -0.5 16 16" width="16" height="16"><metadata>Generated with pixel-perfect-svg https://github.com/kagof/pixel-perfect-svg</metadata><path stroke="#ecc581" d="M10,0h2M10,1h2M8,2h2M8,3h2M8,4h2M8,5h2"/><path stroke="#6dccff" d="M12,0h2M12,1h2"/><path stroke="#41b2e3" d="M14,0h2M14,1h2M10,2h2M10,3h2"/><path stroke="#24aed6" d="M12,2h2M12,3h2"/><path stroke="#318eb8" d="M14,2h2M14,3h2M12,4h2M12,5h2"/><path stroke="#d89f75" d="M10,4h2M10,5h2M8,6h2M8,7h2"/><path stroke="#c7826c" d="M14,4h2M14,5h2M10,6h4M10,7h4"/><path stroke="#bf7e63" d="M6,6h2M6,7h2M4,8h2M4,9h2M2,10h2M2,11h2"/><path stroke="#a96d58" d="M6,8h2M6,9h2M4,10h2M4,11h2M0,12h4M0,13h4M0,14h2M0,15h2"/><path stroke="#945d4f" d="M8,8h2M8,9h2M6,10h2M6,11h2M4,12h2M4,13h2M2,14h2M2,15h2"/></svg>
