<svg xmlns="http://www.w3.org/2000/svg" shape-rendering="crispEdges" viewBox="0 -0.5 16 16" width="16" height="16"><metadata>Generated with pixel-perfect-svg https://github.com/kagof/pixel-perfect-svg</metadata><path stroke="#f5f7fa" d="M0,0h3M0,1h1M0,2h1"/><path stroke="#f5f7fa" opacity="0.7372549019607844" d="M3,0h1"/><path stroke="#f7f8fb" opacity="0.19215686274509805" d="M4,0h1"/><path stroke="#f9fafc" opacity="0.19215686274509805" d="M5,0h1"/><path stroke="#f7f8fb" opacity="0.7372549019607844" d="M6,0h1"/><path stroke="#f4f6fa" d="M7,0h1"/><path stroke="#eef3f8" d="M8,0h1"/><path stroke="#ecf1f7" opacity="0.7372549019607844" d="M9,0h1"/><path stroke="#eff4fa" opacity="0.19215686274509805" d="M10,0h1"/><path stroke="#f2f7fd" opacity="0.19215686274509805" d="M11,0h1"/><path stroke="#edf2f8" opacity="0.7372549019607844" d="M12,0h1M0,6h1"/><path stroke="#e4e9f0" d="M13,0h1M0,7h1"/><path stroke="#d5dae1" d="M14,0h1M0,8h1"/><path stroke="#cdd1d9" d="M15,0h1"/><path stroke="#f4f7fa" d="M1,1h1"/><path stroke="#f3f6f9" d="M2,1h1M1,2h1"/><path stroke="#f2f5f9" opacity="0.803921568627451" d="M3,1h1M1,3h1"/><path stroke="#f0f4f9" opacity="0.403921568627451" d="M4,1h1"/><path stroke="#ecf0f5" opacity="0.403921568627451" d="M5,1h1"/><path stroke="#eceff3" opacity="0.803921568627451" d="M6,1h1"/><path stroke="#eaeef2" d="M7,1h1"/><path stroke="#e6ebf1" d="M8,1h1"/><path stroke="#e3e8ee" opacity="0.803921568627451" d="M9,1h1M12,1h1"/><path stroke="#dadfe6" opacity="0.403921568627451" d="M10,1h1"/><path stroke="#dbe0e6" opacity="0.403921568627451" d="M11,1h1"/><path stroke="#dde3ea" d="M13,1h1"/><path stroke="#cfd6df" d="M14,1h1"/><path stroke="#c7cfda" d="M15,1h1"/><path stroke="#eff3f8" d="M2,2h1"/><path stroke="#edf2f7" opacity="0.9333333333333333" d="M3,2h1M2,3h1"/><path stroke="#edf2f7" opacity="0.803921568627451" d="M4,2h1M2,4h1"/><path stroke="#e6ebf1" opacity="0.803921568627451" d="M5,2h1M1,6h1"/><path stroke="#dce0e7" opacity="0.9372549019607843" d="M6,2h1"/><path stroke="#d7dbe2" d="M7,2h1"/><path stroke="#d6dbe2" d="M8,2h1"/><path stroke="#d4d9e0" opacity="0.9372549019607843" d="M9,2h1"/><path stroke="#d0d5dc" opacity="0.803921568627451" d="M10,2h2"/><path stroke="#d4d9e0" opacity="0.9333333333333333" d="M12,2h1"/><path stroke="#cfd6e0" d="M13,2h1"/><path stroke="#c4cedc" d="M14,2h1"/><path stroke="#bec9db" d="M15,2h1"/><path stroke="#f6f7fa" opacity="0.7372549019607844" d="M0,3h1"/><path stroke="#eaeff5" d="M3,3h1"/><path stroke="#e7ecf2" d="M4,3h1M3,4h1"/><path stroke="#dce1e8" d="M5,3h1M4,4h1M3,5h1"/><path stroke="#cad0d9" d="M6,3h1"/><path stroke="#c1c7d0" d="M7,3h1"/><path stroke="#c2c8d1" d="M8,3h1"/><path stroke="#c4cad4" d="M9,3h1"/><path stroke="#c7ced8" d="M10,3h1"/><path stroke="#c9d0db" d="M11,3h1"/><path stroke="#c8cfda" d="M12,3h1"/><path stroke="#c5cdda" opacity="0.9333333333333333" d="M13,3h1"/><path stroke="#bec9db" opacity="0.803921568627451" d="M14,3h1M13,4h1"/><path stroke="#b9c7dc" opacity="0.7372549019607844" d="M15,3h1"/><path stroke="#f8f9fb" opacity="0.19215686274509805" d="M0,4h1"/><path stroke="#f1f4f9" opacity="0.403921568627451" d="M1,4h1"/><path stroke="#ccd1d9" d="M5,4h1"/><path stroke="#b8bec9" d="M6,4h1"/><path stroke="#aeb5c0" d="M7,4h2"/><path stroke="#b3bbc7" d="M9,4h1"/><path stroke="#bbc5d5" d="M10,4h1"/><path stroke="#bfcbdc" d="M11,4h1"/><path stroke="#bfcadb" d="M12,4h1"/><path stroke="#bdc9dc" opacity="0.403921568627451" d="M14,4h1"/><path stroke="#bac9df" opacity="0.19215686274509805" d="M15,4h1M0,11h1"/><path stroke="#edf3f9" opacity="0.19215686274509805" d="M0,5h1"/><path stroke="#e8edf4" opacity="0.403921568627451" d="M1,5h1"/><path stroke="#e5eaf1" opacity="0.803921568627451" d="M2,5h1"/><path stroke="#ccd1da" d="M4,5h1"/><path stroke="#bdc3cd" opacity="0.9411764705882353" d="M5,5h1"/><path stroke="#adb5c0" opacity="0.8156862745098039" d="M6,5h1"/><path stroke="#a3acb8" opacity="0.7490196078431373" d="M7,5h1"/><path stroke="#a4acb8" opacity="0.7490196078431373" d="M8,5h1"/><path stroke="#aab3c1" opacity="0.8156862745098039" d="M9,5h1"/><path stroke="#b3bdcf" opacity="0.9411764705882353" d="M10,5h1"/><path stroke="#b8c3d7" d="M11,5h1M12,6h1"/><path stroke="#b9c6da" d="M12,5h1"/><path stroke="#b8c5d9" opacity="0.803921568627451" d="M13,5h1"/><path stroke="#b1bccc" opacity="0.403921568627451" d="M14,5h1"/><path stroke="#a0a7b1" opacity="0.19215686274509805" d="M15,5h1"/><path stroke="#dadfe6" opacity="0.9372549019607843" d="M2,6h1"/><path stroke="#cbd0d9" d="M3,6h1"/><path stroke="#b8bfc9" d="M4,6h1"/><path stroke="#aeb5c1" opacity="0.8156862745098039" d="M5,6h1"/><path stroke="#a9b1bd" opacity="0.4235294117647059" d="M6,6h1"/><path stroke="#a1aab6" opacity="0.21176470588235294" d="M7,6h2"/><path stroke="#aab0bf" opacity="0.4235294117647059" d="M9,6h1"/><path stroke="#aeb4c4" opacity="0.8156862745098039" d="M10,6h1"/><path stroke="#b2bacc" d="M11,6h1"/><path stroke="#b6c3d5" opacity="0.9372549019607843" d="M13,6h1"/><path stroke="#acb5c4" opacity="0.803921568627451" d="M14,6h1"/><path stroke="#a5acb8" opacity="0.7372549019607844" d="M15,6h1"/><path stroke="#dfe4eb" d="M1,7h1"/><path stroke="#d4d8e0" d="M2,7h1"/><path stroke="#c0c5ce" d="M3,7h1"/><path stroke="#a7aeba" d="M4,7h1"/><path stroke="#9aa3af" opacity="0.7490196078431373" d="M5,7h1"/><path stroke="#99a2ae" opacity="0.21176470588235294" d="M6,7h1"/><path stroke="#a0a3b2" opacity="0.21176470588235294" d="M9,7h1"/><path stroke="#a0a4b3" opacity="0.7490196078431373" d="M10,7h1"/><path stroke="#a5abbb" d="M11,7h1"/><path stroke="#b0bacc" d="M12,7h1"/><path stroke="#b2bdcd" d="M13,7h1"/><path stroke="#aab3c0" d="M14,7h1M1,14h1"/><path stroke="#a6adb9" d="M15,7h1M1,15h1"/><path stroke="#d4d9e0" d="M1,8h1"/><path stroke="#d0d5dd" d="M2,8h1"/><path stroke="#bcc2cb" d="M3,8h1"/><path stroke="#99a1ad" d="M4,8h1"/><path stroke="#87909d" opacity="0.7490196078431373" d="M5,8h1"/><path stroke="#848d9a" opacity="0.21176470588235294" d="M6,8h1"/><path stroke="#888f9d" opacity="0.21176470588235294" d="M9,8h1"/><path stroke="#8a919f" opacity="0.7490196078431373" d="M10,8h1"/><path stroke="#929aa8" d="M11,8h1"/><path stroke="#a3acba" d="M12,8h1"/><path stroke="#aab3c1" d="M13,8h1"/><path stroke="#a8b0bc" d="M14,8h1M4,12h1"/><path stroke="#a6aeba" d="M15,8h1M2,15h1"/><path stroke="#cdd1d9" opacity="0.7372549019607844" d="M0,9h1"/><path stroke="#ccd2db" opacity="0.803921568627451" d="M1,9h1"/><path stroke="#cbd2dc" opacity="0.9372549019607843" d="M2,9h1"/><path stroke="#b9c1cc" d="M3,9h1"/><path stroke="#99a1ae" d="M4,9h1"/><path stroke="#87909d" opacity="0.8156862745098039" d="M5,9h1"/><path stroke="#838c99" opacity="0.4235294117647059" d="M6,9h1"/><path stroke="#7e8794" opacity="0.21176470588235294" d="M7,9h2"/><path stroke="#848d9a" opacity="0.4235294117647059" d="M9,9h1"/><path stroke="#88919e" opacity="0.8156862745098039" d="M10,9h1"/><path stroke="#9099a6" d="M11,9h1"/><path stroke="#9fa7b3" d="M12,9h1M6,12h1"/><path stroke="#a6aeba" opacity="0.9372549019607843" d="M13,9h1"/><path stroke="#a7afbb" opacity="0.803921568627451" d="M14,9h1M6,14h1"/><path stroke="#a7afbb" opacity="0.7372549019607844" d="M15,9h1M6,15h1"/><path stroke="#cfd2d7" opacity="0.19215686274509805" d="M0,10h1"/><path stroke="#c6cedc" opacity="0.403921568627451" d="M1,10h1"/><path stroke="#c1ccdd" opacity="0.803921568627451" d="M2,10h1"/><path stroke="#b7c2d2" d="M3,10h1"/><path stroke="#a6afbc" d="M4,10h1"/><path stroke="#979fab" opacity="0.9411764705882353" d="M5,10h1"/><path stroke="#89919e" opacity="0.8156862745098039" d="M6,10h1"/><path stroke="#7f8996" opacity="0.7490196078431373" d="M7,10h2"/><path stroke="#89929f" opacity="0.8156862745098039" d="M9,10h1"/><path stroke="#97a0ac" opacity="0.9411764705882353" d="M10,10h1"/><path stroke="#9fa8b4" d="M11,10h1"/><path stroke="#a4acb8" d="M12,10h1M5,12h1"/><path stroke="#a6aeba" opacity="0.803921568627451" d="M13,10h1M5,13h1"/><path stroke="#a8b0bc" opacity="0.403921568627451" d="M14,10h1"/><path stroke="#aab3bf" opacity="0.19215686274509805" d="M15,10h1"/><path stroke="#b7c4d8" opacity="0.403921568627451" d="M1,11h1"/><path stroke="#b5c2d4" opacity="0.803921568627451" d="M2,11h1"/><path stroke="#b2bdce" d="M3,11h1"/><path stroke="#abb4c1" d="M4,11h1"/><path stroke="#a0a8b4" d="M5,11h1M10,11h1M9,12h1"/><path stroke="#919aa6" d="M6,11h1"/><path stroke="#8a929f" d="M7,11h1"/><path stroke="#8a939f" d="M8,11h1"/><path stroke="#929aa7" d="M9,11h1"/><path stroke="#a8b0bb" d="M11,11h1"/><path stroke="#a7afbb" d="M12,11h1M11,12h1"/><path stroke="#a4acb8" opacity="0.803921568627451" d="M13,11h1M11,13h1"/><path stroke="#979ca9" opacity="0.403921568627451" d="M14,11h1"/><path stroke="#7a7c8a" opacity="0.19215686274509805" d="M15,11h1"/><path stroke="#bbc8dd" opacity="0.7372549019607844" d="M0,12h1"/><path stroke="#b6c2d5" opacity="0.803921568627451" d="M1,12h1"/><path stroke="#aeb8c7" opacity="0.9333333333333333" d="M2,12h1"/><path stroke="#a9b2c0" d="M3,12h1M2,13h1"/><path stroke="#9da5b1" d="M7,12h1"/><path stroke="#9da6b2" d="M8,12h1"/><path stroke="#a4acb9" d="M10,12h1"/><path stroke="#a7b0bc" d="M12,12h1"/><path stroke="#a0a7b3" opacity="0.9333333333333333" d="M13,12h1M12,13h1"/><path stroke="#8e92a0" opacity="0.803921568627451" d="M14,12h1"/><path stroke="#828593" opacity="0.7372549019607844" d="M15,12h1"/><path stroke="#b6c1d4" d="M0,13h1"/><path stroke="#b1bccd" d="M1,13h1"/><path stroke="#a5adb9" opacity="0.9333333333333333" d="M3,13h1"/><path stroke="#a6adb9" opacity="0.803921568627451" d="M4,13h1M3,14h1"/><path stroke="#a7afbb" opacity="0.9372549019607843" d="M6,13h1"/><path stroke="#a5acb8" d="M7,13h1"/><path stroke="#a0a7b4" d="M8,13h1"/><path stroke="#a0a7b3" opacity="0.9372549019607843" d="M9,13h1"/><path stroke="#a4abb8" opacity="0.803921568627451" d="M10,13h1"/><path stroke="#979da9" d="M13,13h1"/><path stroke="#8a8e9b" d="M14,13h1M13,14h1"/><path stroke="#838694" d="M15,13h1M13,15h1"/><path stroke="#abb4c2" d="M0,14h1"/><path stroke="#a7afbc" d="M2,14h1"/><path stroke="#a6aeb9" opacity="0.403921568627451" d="M4,14h1"/><path stroke="#a7afbb" opacity="0.403921568627451" d="M5,14h1"/><path stroke="#a0a7b3" d="M7,14h1"/><path stroke="#9398a5" d="M8,14h1"/><path stroke="#8e929f" opacity="0.803921568627451" d="M9,14h1"/><path stroke="#979daa" opacity="0.403921568627451" d="M10,14h1"/><path stroke="#989eab" opacity="0.403921568627451" d="M11,14h1"/><path stroke="#8e93a0" opacity="0.803921568627451" d="M12,14h1"/><path stroke="#868997" d="M14,14h1"/><path stroke="#848795" d="M15,14h1M14,15h2"/><path stroke="#a5adb9" d="M0,15h1"/><path stroke="#a6aeba" opacity="0.7372549019607844" d="M3,15h1"/><path stroke="#a6aeba" opacity="0.19215686274509805" d="M4,15h1"/><path stroke="#a9b1bd" opacity="0.19215686274509805" d="M5,15h1"/><path stroke="#9da4b1" d="M7,15h1"/><path stroke="#8c909d" d="M8,15h1"/><path stroke="#818492" opacity="0.7372549019607844" d="M9,15h1"/><path stroke="#7c7e8c" opacity="0.19215686274509805" d="M10,15h1"/><path stroke="#7e818f" opacity="0.19215686274509805" d="M11,15h1"/><path stroke="#838593" opacity="0.7372549019607844" d="M12,15h1"/></svg>
