<svg xmlns="http://www.w3.org/2000/svg" shape-rendering="crispEdges" viewBox="0 -0.5 16 16" width="16" height="16"><metadata>Generated with pixel-perfect-svg https://github.com/kagof/pixel-perfect-svg</metadata><path stroke="#f5f7fa" d="M0,0h4M6,0h2M0,1h4M6,1h2M0,2h2M0,3h2"/><path stroke="#ebf0f6" d="M8,0h2M12,0h2M8,1h2M12,1h2M2,2h4M2,3h4M2,4h2M2,5h2M0,6h2M0,7h2"/><path stroke="#cdd2da" d="M14,0h2M14,1h2M6,2h8M6,3h8M4,4h2M4,5h2M2,6h2M2,7h2M0,8h4M0,9h4"/><path stroke="#bac7db" d="M14,2h2M14,3h2M10,4h4M10,5h4M12,6h2M12,7h2M2,10h2M2,11h2M0,12h2M0,13h2"/><path stroke="#a6aeba" d="M6,4h4M6,5h4M4,6h2M14,6h2M4,7h2M14,7h2M12,8h4M12,9h4M4,10h2M10,10h4M4,11h2M10,11h4M2,12h12M2,13h12M0,14h4M6,14h2M0,15h4M6,15h2"/><path stroke="#abaebe" d="M10,6h2M10,7h2"/><path stroke="#828b98" d="M4,8h2M10,8h2M4,9h2M10,9h2M6,10h4M6,11h4"/><path stroke="#848795" d="M14,12h2M14,13h2M8,14h2M12,14h4M8,15h2M12,15h4"/></svg>
