<svg xmlns="http://www.w3.org/2000/svg" shape-rendering="crispEdges" viewBox="0 -0.5 16 16" width="16" height="16"><metadata>Generated with pixel-perfect-svg https://github.com/kagof/pixel-perfect-svg</metadata><path stroke="#e0faeb" d="M4,0h2M4,1h2M0,4h2M0,5h2"/><path stroke="#a9d1c1" d="M6,0h4M6,1h4M4,2h4M4,3h4M2,4h2M2,5h2M0,6h2M0,7h2"/><path stroke="#91daa1" d="M10,0h2M10,1h2M8,2h2M8,3h2M4,6h2M4,7h2M0,8h4M0,9h4M0,10h2M0,11h2"/><path stroke="#ebf0f6" d="M2,2h2M2,3h2"/><path stroke="#55b67d" d="M10,2h4M10,3h4M12,4h4M12,5h4M6,6h6M6,7h6M4,8h2M10,8h2M4,9h2M10,9h2M2,10h2M6,10h4M2,11h2M6,11h4M2,12h4M2,13h4"/><path stroke="#626871" d="M4,4h2M4,5h2"/><path stroke="#434549" d="M6,4h2M6,5h2"/><path stroke="#2d3136" d="M8,4h4M8,5h4M12,6h2M12,7h2M6,8h4M6,9h4M4,10h2M4,11h2M6,12h2M6,13h2"/><path stroke="#48474d" d="M2,6h2M2,7h2"/><path stroke="#498960" d="M14,6h2M14,7h2M12,8h2M12,9h2M4,14h4M4,15h4"/><path stroke="#417455" d="M14,8h2M14,9h2M12,10h2M12,11h2M10,12h2M10,13h2M8,14h2M8,15h2"/><path stroke="#222323" d="M10,10h2M10,11h2M8,12h2M8,13h2"/><path stroke="#325c40" d="M14,10h2M14,11h2M12,12h2M12,13h2M10,14h2M10,15h2"/></svg>
