<svg xmlns="http://www.w3.org/2000/svg" shape-rendering="crispEdges" viewBox="0 -0.5 16 16" width="16" height="16"><metadata>Generated with pixel-perfect-svg https://github.com/kagof/pixel-perfect-svg</metadata><path stroke="#e5ffee" opacity="0.21568627450980393" d="M3,0h1"/><path stroke="#e3fdee" opacity="0.7490196078431373" d="M4,0h1"/><path stroke="#d4f1e2" d="M5,0h1"/><path stroke="#b7dccc" d="M6,0h1"/><path stroke="#a8d0c1" d="M7,0h1"/><path stroke="#a9d0c2" d="M8,0h1"/><path stroke="#a4d3ba" d="M9,0h1"/><path stroke="#98d9aa" d="M10,0h1"/><path stroke="#93dca2" opacity="0.7490196078431373" d="M11,0h1"/><path stroke="#98e0a4" opacity="0.21568627450980393" d="M12,0h1"/><path stroke="#ffefff" opacity="0.03529411764705882" d="M1,1h1"/><path stroke="#f3f2fd" opacity="0.1568627450980392" d="M2,1h1M1,2h1"/><path stroke="#e1f3ed" opacity="0.42745098039215684" d="M3,1h1"/><path stroke="#d7f3e5" opacity="0.8196078431372549" d="M4,1h1"/><path stroke="#caebdb" d="M5,1h1"/><path stroke="#b5dbcb" d="M6,1h1M5,2h1"/><path stroke="#a9d3c1" d="M7,1h1"/><path stroke="#a6d5bd" d="M8,1h1"/><path stroke="#9cd5b3" d="M9,1h1"/><path stroke="#8cd4a2" d="M10,1h1"/><path stroke="#7fd196" opacity="0.8196078431372549" d="M11,1h1"/><path stroke="#6ec78c" opacity="0.42745098039215684" d="M12,1h1"/><path stroke="#4eb279" opacity="0.1568627450980392" d="M13,1h1"/><path stroke="#41a971" opacity="0.03529411764705882" d="M14,1h1"/><path stroke="#eff2fa" opacity="0.5490196078431373" d="M2,2h1"/><path stroke="#deeceb" opacity="0.8274509803921568" d="M3,2h1"/><path stroke="#c3e2d6" opacity="0.9490196078431372" d="M4,2h1"/><path stroke="#aed6c6" d="M6,2h1"/><path stroke="#a7d6be" d="M7,2h1"/><path stroke="#9fdab2" d="M8,2h1"/><path stroke="#8cd6a2" d="M9,2h1"/><path stroke="#72c990" d="M10,2h1"/><path stroke="#61bf85" opacity="0.9490196078431372" d="M11,2h1M2,11h1"/><path stroke="#59b97f" opacity="0.8274509803921568" d="M12,2h1"/><path stroke="#54b57d" opacity="0.5490196078431373" d="M13,2h1"/><path stroke="#54b57c" opacity="0.1568627450980392" d="M14,2h1"/><path stroke="#e4ffee" opacity="0.21568627450980393" d="M0,3h1"/><path stroke="#e2f4ee" opacity="0.42745098039215684" d="M1,3h1"/><path stroke="#dfeded" opacity="0.8274509803921568" d="M2,3h1"/><path stroke="#ccdedd" d="M3,3h1"/><path stroke="#a8c3bc" d="M4,3h1"/><path stroke="#93b2a9" d="M5,3h1"/><path stroke="#91aea5" d="M6,3h1"/><path stroke="#8bae9c" d="M7,3h1"/><path stroke="#7fb08d" d="M8,3h1"/><path stroke="#6ca87e" d="M9,3h1"/><path stroke="#549970" d="M10,3h1"/><path stroke="#4b9c6e" d="M11,3h1"/><path stroke="#52af79" d="M12,3h1M3,12h1"/><path stroke="#56b97f" opacity="0.8274509803921568" d="M13,3h1"/><path stroke="#56ba7f" opacity="0.42745098039215684" d="M14,3h1"/><path stroke="#56b97f" opacity="0.21568627450980393" d="M15,3h1"/><path stroke="#e3fded" opacity="0.7490196078431373" d="M0,4h1"/><path stroke="#d8f4e6" opacity="0.8196078431372549" d="M1,4h1"/><path stroke="#c5e5d8" opacity="0.9490196078431372" d="M2,4h1"/><path stroke="#aac6be" d="M3,4h1"/><path stroke="#849696" d="M4,4h1"/><path stroke="#6a767a" d="M5,4h1"/><path stroke="#60696b" d="M6,4h1"/><path stroke="#55605f" d="M7,4h1"/><path stroke="#4a5a53" d="M8,4h1"/><path stroke="#3f534a" d="M9,4h1"/><path stroke="#374d45" d="M10,4h1"/><path stroke="#3d6853" d="M11,4h1"/><path stroke="#4e9f71" d="M12,4h1M4,12h1"/><path stroke="#57bb80" opacity="0.9490196078431372" d="M13,4h1"/><path stroke="#56ba7f" opacity="0.8196078431372549" d="M14,4h1"/><path stroke="#55b77e" opacity="0.7490196078431373" d="M15,4h1"/><path stroke="#d5f2e3" d="M0,5h1"/><path stroke="#c4e1d4" d="M1,5h1"/><path stroke="#a1bfb4" d="M2,5h1"/><path stroke="#86a198" d="M3,5h1"/><path stroke="#758c85" d="M4,5h1"/><path stroke="#637871" d="M5,5h1"/><path stroke="#4f675d" d="M6,5h1"/><path stroke="#415a4f" d="M7,5h1"/><path stroke="#385249" d="M8,5h1"/><path stroke="#344d45" d="M9,5h1"/><path stroke="#354c44" d="M10,5h1M8,8h1"/><path stroke="#3b5f4e" d="M11,5h1M13,6h1M12,7h1"/><path stroke="#468362" d="M12,5h1"/><path stroke="#4d9c6f" d="M13,5h1"/><path stroke="#51a774" d="M14,5h1"/><path stroke="#53ac77" d="M15,5h1"/><path stroke="#badfcf" d="M0,6h1"/><path stroke="#a2beb4" d="M1,6h1"/><path stroke="#73817f" d="M2,6h1"/><path stroke="#657870" d="M3,6h1"/><path stroke="#7ca789" d="M4,6h1"/><path stroke="#7ab88d" d="M5,6h1"/><path stroke="#5ea57a" d="M6,6h1"/><path stroke="#4e9a6e" d="M7,6h1"/><path stroke="#4b976c" d="M8,6h2"/><path stroke="#4b966c" d="M10,6h1"/><path stroke="#458261" d="M11,6h1"/><path stroke="#3a5e4e" d="M12,6h1"/><path stroke="#47845f" d="M14,6h1"/><path stroke="#4d9769" d="M15,6h1"/><path stroke="#a4d5bb" d="M0,7h1"/><path stroke="#90b8a2" d="M1,7h1"/><path stroke="#6a8074" d="M2,7h1"/><path stroke="#62816c" d="M3,7h1"/><path stroke="#7abb8c" d="M4,7h1"/><path stroke="#77c991" d="M5,7h1"/><path stroke="#5aa778" d="M6,7h1"/><path stroke="#4a956b" d="M7,7h2"/><path stroke="#4fa272" d="M9,7h1"/><path stroke="#55b57d" d="M10,7h1"/><path stroke="#4e9e70" d="M11,7h1"/><path stroke="#375145" d="M13,7h1"/><path stroke="#427255" d="M14,7h1M13,8h1"/><path stroke="#48855e" d="M15,7h1"/><path stroke="#97d8a9" d="M0,8h1"/><path stroke="#91cfa1" d="M1,8h1"/><path stroke="#86be93" d="M2,8h1"/><path stroke="#79ba8b" d="M3,8h1"/><path stroke="#6cc28a" d="M4,8h1"/><path stroke="#59a878" d="M5,8h1"/><path stroke="#416c56" d="M6,8h1"/><path stroke="#344b44" d="M7,8h1"/><path stroke="#3e6b55" d="M9,8h1"/><path stroke="#4fa373" d="M10,8h1"/><path stroke="#52ac77" d="M11,8h1"/><path stroke="#478560" d="M12,8h1"/><path stroke="#437656" d="M14,8h1"/><path stroke="#437958" d="M15,8h1"/><path stroke="#91daa0" d="M0,9h1"/><path stroke="#8edaa0" d="M1,9h1"/><path stroke="#89d89d" d="M2,9h1"/><path stroke="#76c68f" d="M3,9h1"/><path stroke="#58a476" d="M4,9h1"/><path stroke="#438160" d="M5,9h1"/><path stroke="#3a5f4e" d="M6,9h1"/><path stroke="#364d45" d="M7,9h1"/><path stroke="#364e45" d="M8,9h1"/><path stroke="#3b604f" d="M9,9h1"/><path stroke="#44825f" d="M10,9h1"/><path stroke="#499166" d="M11,9h1"/><path stroke="#498b61" d="M12,9h1"/><path stroke="#45805b" d="M13,9h1"/><path stroke="#407353" d="M14,9h1"/><path stroke="#3d6d4f" d="M15,9h1"/><path stroke="#92dba1" d="M0,10h1"/><path stroke="#87d69c" d="M1,10h1"/><path stroke="#71ca8f" d="M2,10h1"/><path stroke="#58a376" d="M3,10h1"/><path stroke="#3f6754" d="M4,10h1"/><path stroke="#395d4d" d="M5,10h1"/><path stroke="#458462" d="M6,10h1"/><path stroke="#4d9a6e" d="M7,10h1"/><path stroke="#4d9a6f" d="M8,10h1"/><path stroke="#448360" d="M9,10h1"/><path stroke="#345744" d="M10,10h1"/><path stroke="#32503f" d="M11,10h1"/><path stroke="#3e6d50" d="M12,10h1"/><path stroke="#417654" d="M13,10h1"/><path stroke="#39684a" d="M14,10h1"/><path stroke="#356144" d="M15,10h1"/><path stroke="#94dca3" opacity="0.7490196078431373" d="M0,11h1"/><path stroke="#80d197" opacity="0.8196078431372549" d="M1,11h1"/><path stroke="#4b9b6e" d="M3,11h1"/><path stroke="#3c6652" d="M4,11h1"/><path stroke="#3b5e4e" d="M5,11h1"/><path stroke="#468563" d="M6,11h1"/><path stroke="#4c9a6e" d="M7,11h1"/><path stroke="#4b996b" d="M8,11h1"/><path stroke="#417c59" d="M9,11h1"/><path stroke="#30493b" d="M10,11h1"/><path stroke="#2d4035" d="M11,11h1"/><path stroke="#385f47" d="M12,11h1M9,14h1"/><path stroke="#3b6b4d" opacity="0.9490196078431372" d="M13,11h1"/><path stroke="#356245" opacity="0.8196078431372549" d="M14,11h1"/><path stroke="#315a3f" opacity="0.7490196078431373" d="M15,11h1M11,15h1"/><path stroke="#9adfa6" opacity="0.21568627450980393" d="M0,12h1"/><path stroke="#6fc68d" opacity="0.42745098039215684" d="M1,12h1"/><path stroke="#59b980" opacity="0.8274509803921568" d="M2,12h1"/><path stroke="#468463" d="M5,12h1"/><path stroke="#3c6150" d="M6,12h1"/><path stroke="#344d43" d="M7,12h1"/><path stroke="#30473b" d="M8,12h1"/><path stroke="#314c3c" d="M9,12h1"/><path stroke="#365944" d="M10,12h1"/><path stroke="#386048" d="M11,12h1"/><path stroke="#366146" d="M12,12h1"/><path stroke="#356144" opacity="0.8274509803921568" d="M13,12h1"/><path stroke="#335e42" opacity="0.42745098039215684" d="M14,12h1"/><path stroke="#305a3e" opacity="0.21568627450980393" d="M15,12h1"/><path stroke="#4eb379" opacity="0.1568627450980392" d="M1,13h1"/><path stroke="#54b67d" opacity="0.5490196078431373" d="M2,13h1"/><path stroke="#55b57c" opacity="0.8274509803921568" d="M3,13h1"/><path stroke="#54b27a" opacity="0.9490196078431372" d="M4,13h1"/><path stroke="#4b946a" d="M5,13h1"/><path stroke="#3b5e4d" d="M6,13h1"/><path stroke="#303d39" d="M7,13h1"/><path stroke="#2a3530" d="M8,13h1"/><path stroke="#2e4236" d="M9,13h1"/><path stroke="#396248" d="M10,13h1"/><path stroke="#3c6d4e" opacity="0.9490196078431372" d="M11,13h1"/><path stroke="#366245" opacity="0.8274509803921568" d="M12,13h1"/><path stroke="#315a3f" opacity="0.5490196078431373" d="M13,13h1"/><path stroke="#30593e" opacity="0.1568627450980392" d="M14,13h1M13,14h1"/><path stroke="#45b87a" opacity="0.03529411764705882" d="M1,14h1"/><path stroke="#55ba7f" opacity="0.1568627450980392" d="M2,14h1"/><path stroke="#51a572" opacity="0.42745098039215684" d="M3,14h1"/><path stroke="#4d996a" opacity="0.8196078431372549" d="M4,14h1"/><path stroke="#4a8d63" d="M5,14h1"/><path stroke="#457b5a" d="M6,14h1"/><path stroke="#3f6d51" d="M7,14h1"/><path stroke="#3b634b" d="M8,14h1"/><path stroke="#376246" d="M10,14h1"/><path stroke="#366245" opacity="0.8196078431372549" d="M11,14h1"/><path stroke="#345f43" opacity="0.42745098039215684" d="M12,14h1"/><path stroke="#2f563b" opacity="0.03529411764705882" d="M14,14h1"/><path stroke="#47825c" opacity="0.21568627450980393" d="M3,15h1"/><path stroke="#48875f" opacity="0.7490196078431373" d="M4,15h1"/><path stroke="#498960" d="M5,15h1"/><path stroke="#4a8b61" d="M6,15h1"/><path stroke="#48875f" d="M7,15h1"/><path stroke="#447c5a" d="M8,15h1"/><path stroke="#3e6f50" d="M9,15h1"/><path stroke="#356145" d="M10,15h1"/><path stroke="#30593e" opacity="0.21568627450980393" d="M12,15h1"/></svg>
