<svg xmlns="http://www.w3.org/2000/svg" shape-rendering="crispEdges" viewBox="0 -0.5 16 16" width="16" height="16"><metadata>Generated with pixel-perfect-svg https://github.com/kagof/pixel-perfect-svg</metadata><path stroke="#57b4f2" opacity="0.21176470588235294" d="M1,0h1M0,1h1"/><path stroke="#56b3f1" opacity="0.7411764705882353" d="M2,0h1M0,2h1"/><path stroke="#51abef" d="M3,0h1M0,3h1"/><path stroke="#459eec" d="M4,0h1M0,4h1"/><path stroke="#4097ea" d="M5,0h1"/><path stroke="#4197eb" d="M6,0h1"/><path stroke="#4198eb" d="M7,0h2"/><path stroke="#4299ec" d="M9,0h2"/><path stroke="#368fe0" d="M11,0h1"/><path stroke="#1f7eca" d="M12,0h1M8,2h1"/><path stroke="#1375bf" opacity="0.7411764705882353" d="M13,0h1"/><path stroke="#1174bd" opacity="0.21176470588235294" d="M14,0h1"/><path stroke="#53aff0" opacity="0.41568627450980394" d="M1,1h1"/><path stroke="#51acf0" opacity="0.807843137254902" d="M2,1h1M1,2h1"/><path stroke="#4da6ee" d="M3,1h1M1,3h1"/><path stroke="#459cec" d="M4,1h1M1,4h1"/><path stroke="#3e95e8" d="M5,1h1M3,3h1"/><path stroke="#3891e3" d="M6,1h1"/><path stroke="#358fe0" d="M7,1h2"/><path stroke="#3690e1" d="M9,1h2"/><path stroke="#2d89d8" d="M11,1h1M5,3h1"/><path stroke="#1c7cc8" d="M12,1h1M11,2h1"/><path stroke="#1375bf" opacity="0.807843137254902" d="M13,1h1"/><path stroke="#1375bf" opacity="0.41568627450980394" d="M14,1h1"/><path stroke="#1476c0" opacity="0.21176470588235294" d="M15,1h1"/><path stroke="#49a2ed" opacity="0.9372549019607843" d="M2,2h1"/><path stroke="#449cec" d="M3,2h1M2,3h1"/><path stroke="#439aec" d="M4,2h1M2,4h1"/><path stroke="#3991e3" d="M5,2h1M4,3h1M3,4h1"/><path stroke="#2784d2" d="M6,2h1M4,4h1"/><path stroke="#1e7eca" d="M7,2h1"/><path stroke="#1f7ecb" d="M9,2h1"/><path stroke="#1f7fcb" d="M10,2h1"/><path stroke="#1778c3" d="M12,2h1"/><path stroke="#1476c0" opacity="0.9372549019607843" d="M13,2h1"/><path stroke="#1476c0" opacity="0.807843137254902" d="M14,2h1"/><path stroke="#1476c0" opacity="0.7411764705882353" d="M15,2h1M0,13h1"/><path stroke="#1b7bc7" d="M6,3h1M5,4h1"/><path stroke="#1275be" d="M7,3h1"/><path stroke="#1275bf" d="M8,3h1"/><path stroke="#1375bf" d="M9,3h3M7,4h2"/><path stroke="#1476c0" d="M12,3h4M11,4h3M8,5h2M0,11h1M0,12h1"/><path stroke="#1677c1" d="M6,4h1"/><path stroke="#1376bf" d="M9,4h2"/><path stroke="#1476c1" d="M14,4h1M8,6h2"/><path stroke="#1477c1" d="M15,4h1M7,5h1M10,5h1"/><path stroke="#4097eb" d="M0,5h1"/><path stroke="#3e96e9" d="M1,5h1"/><path stroke="#3992e5" d="M2,5h1"/><path stroke="#2d8ad9" d="M3,5h1"/><path stroke="#1b7cc8" d="M4,5h1"/><path stroke="#1276c0" d="M5,5h1"/><path stroke="#1376c1" d="M6,5h1"/><path stroke="#1477c2" d="M11,5h2M7,6h1M10,6h1"/><path stroke="#1475c0" d="M13,5h1"/><path stroke="#1372bb" d="M14,5h1"/><path stroke="#1370b8" d="M15,5h1"/><path stroke="#4298ec" d="M0,6h1"/><path stroke="#3992e4" d="M1,6h1"/><path stroke="#2786d5" d="M2,6h1"/><path stroke="#1b7dca" d="M3,6h1"/><path stroke="#1579c4" d="M4,6h1"/><path stroke="#1377c2" d="M5,6h2M0,9h1"/><path stroke="#1478c3" d="M11,6h1"/><path stroke="#1479c4" d="M12,6h1"/><path stroke="#1473bd" d="M13,6h1"/><path stroke="#1268af" d="M14,6h1"/><path stroke="#1162a8" d="M15,6h1"/><path stroke="#3690e2" d="M0,7h1"/><path stroke="#2e85d1" d="M1,7h1"/><path stroke="#1f6fb1" d="M2,7h1"/><path stroke="#1663a1" d="M3,7h1"/><path stroke="#1765a3" d="M4,7h1"/><path stroke="#1865a3" d="M5,7h1"/><path stroke="#1864a2" d="M6,7h1"/><path stroke="#1769aa" d="M7,7h1"/><path stroke="#1572ba" d="M8,7h1"/><path stroke="#1573ba" d="M9,7h1"/><path stroke="#176aac" d="M10,7h1"/><path stroke="#1664a3" d="M11,7h1"/><path stroke="#1161a0" d="M12,7h1"/><path stroke="#0f5ea0" d="M13,7h1M3,13h1"/><path stroke="#105da1" d="M14,7h1"/><path stroke="#105da2" d="M15,7h1"/><path stroke="#1f80cd" d="M0,8h1"/><path stroke="#1f6fb2" d="M1,8h1"/><path stroke="#1f507f" d="M2,8h1"/><path stroke="#1f3f64" d="M3,8h1"/><path stroke="#1f4167" d="M4,8h1"/><path stroke="#204167" d="M5,8h1"/><path stroke="#204065" d="M6,8h1"/><path stroke="#1d4f7d" d="M7,8h1"/><path stroke="#176bad" d="M8,8h1"/><path stroke="#176cae" d="M9,8h1"/><path stroke="#1e5180" d="M10,8h1"/><path stroke="#1a3c63" d="M11,8h1"/><path stroke="#0b325d" d="M12,8h1"/><path stroke="#073a6e" d="M13,8h1"/><path stroke="#0d5292" d="M14,8h1M4,14h1"/><path stroke="#115fa5" d="M15,8h1M4,15h1"/><path stroke="#1669aa" d="M1,9h1"/><path stroke="#1c4e7d" d="M2,9h1"/><path stroke="#213b5d" d="M3,9h1"/><path stroke="#23334f" d="M4,9h1"/><path stroke="#23344f" d="M5,9h1"/><path stroke="#213c5d" d="M6,9h1"/><path stroke="#1d4e7d" d="M7,9h1"/><path stroke="#1667a9" d="M8,9h1M7,10h1"/><path stroke="#1561a0" d="M9,9h1M6,11h1"/><path stroke="#193c64" d="M10,9h1"/><path stroke="#152847" d="M11,9h1"/><path stroke="#09274f" d="M12,9h1"/><path stroke="#063567" d="M13,9h1M5,13h1"/><path stroke="#0b4d89" d="M14,9h1M6,13h1M5,14h1"/><path stroke="#0e599b" d="M15,9h1M5,15h1"/><path stroke="#1376c0" d="M0,10h1"/><path stroke="#1472ba" d="M1,10h1"/><path stroke="#166aac" d="M2,10h1"/><path stroke="#1b578c" d="M3,10h1"/><path stroke="#213c5e" d="M4,10h1"/><path stroke="#223d5f" d="M5,10h1"/><path stroke="#1b588d" d="M6,10h1"/><path stroke="#1367ad" d="M8,10h1"/><path stroke="#0f5391" d="M9,10h1"/><path stroke="#0a2f5a" d="M10,10h1"/><path stroke="#092951" d="M11,10h1"/><path stroke="#0b4077" d="M12,10h1"/><path stroke="#0b4d8a" d="M13,10h1"/><path stroke="#0a4e87" d="M14,10h1"/><path stroke="#094d85" d="M15,10h1M6,15h1"/><path stroke="#1478c2" d="M1,11h1M1,12h1"/><path stroke="#1479c5" d="M2,11h1M2,12h1"/><path stroke="#1565a4" d="M3,11h1"/><path stroke="#193c63" d="M4,11h1"/><path stroke="#193b62" d="M5,11h1"/><path stroke="#116bb4" d="M7,11h1"/><path stroke="#0e5799" d="M8,11h1"/><path stroke="#0a3e73" d="M9,11h1"/><path stroke="#07254a" d="M10,11h1"/><path stroke="#072950" d="M11,11h1"/><path stroke="#0c4a83" d="M12,11h1"/><path stroke="#0d5695" d="M13,11h1"/><path stroke="#094d84" d="M14,11h1"/><path stroke="#07477a" d="M15,11h1"/><path stroke="#1161a2" d="M3,12h1"/><path stroke="#0b335e" d="M4,12h1"/><path stroke="#0a2f59" d="M5,12h1"/><path stroke="#0f5492" d="M6,12h1"/><path stroke="#0e589a" d="M7,12h1"/><path stroke="#07396d" d="M8,12h1"/><path stroke="#07244a" d="M9,12h1"/><path stroke="#0f1e37" d="M10,12h1"/><path stroke="#102845" d="M11,12h1"/><path stroke="#0c4272" d="M12,12h1"/><path stroke="#094e86" d="M13,12h1"/><path stroke="#074a7f" d="M14,12h1"/><path stroke="#07487b" d="M15,12h1"/><path stroke="#1475c0" opacity="0.807843137254902" d="M1,13h1"/><path stroke="#1473bc" opacity="0.9372549019607843" d="M2,13h1"/><path stroke="#073b6e" d="M4,13h1"/><path stroke="#0b4c87" d="M7,13h1"/><path stroke="#043260" d="M8,13h1"/><path stroke="#062448" d="M9,13h1"/><path stroke="#102742" d="M10,13h1"/><path stroke="#113150" d="M11,13h1"/><path stroke="#0a406d" d="M12,13h1"/><path stroke="#07487d" opacity="0.9372549019607843" d="M13,13h1"/><path stroke="#07487d" opacity="0.807843137254902" d="M14,13h1"/><path stroke="#07487c" opacity="0.7411764705882353" d="M15,13h1M13,15h1"/><path stroke="#1479c3" opacity="0.21176470588235294" d="M0,14h1"/><path stroke="#126cb4" opacity="0.41568627450980394" d="M1,14h1"/><path stroke="#1165ac" opacity="0.807843137254902" d="M2,14h1"/><path stroke="#105ea2" d="M3,14h1"/><path stroke="#0a4d86" d="M6,14h1"/><path stroke="#08497f" d="M7,14h1"/><path stroke="#064072" d="M8,14h1"/><path stroke="#073c6b" d="M9,14h1"/><path stroke="#0a3d6a" d="M10,14h1"/><path stroke="#0a416e" d="M11,14h1"/><path stroke="#084677" d="M12,14h1"/><path stroke="#07487c" opacity="0.807843137254902" d="M13,14h1"/><path stroke="#07487c" opacity="0.41568627450980394" d="M14,14h1"/><path stroke="#07487c" opacity="0.21176470588235294" d="M15,14h1M14,15h1"/><path stroke="#0f599d" opacity="0.21176470588235294" d="M1,15h1"/><path stroke="#105ca1" opacity="0.7411764705882353" d="M2,15h1"/><path stroke="#105da3" d="M3,15h1"/><path stroke="#07477b" d="M7,15h1"/><path stroke="#07497c" d="M8,15h1"/><path stroke="#07497e" d="M9,15h3"/><path stroke="#07487d" d="M12,15h1"/></svg>
