<svg xmlns="http://www.w3.org/2000/svg" shape-rendering="crispEdges" viewBox="0 -0.5 16 16" width="16" height="16"><metadata>Generated with pixel-perfect-svg https://github.com/kagof/pixel-perfect-svg</metadata><path stroke="#c6ecff" d="M0,0h1"/><path stroke="#c7ecff" d="M1,0h1M0,1h1"/><path stroke="#c9edff" d="M2,0h1M0,2h1"/><path stroke="#b8e7ff" d="M3,0h1M0,3h1"/><path stroke="#97dbff" d="M4,0h1M0,4h1"/><path stroke="#86d5ff" opacity="0.7568627450980392" d="M5,0h1"/><path stroke="#84d5ff" opacity="0.24313725490196078" d="M6,0h1"/><path stroke="#91daa1" opacity="0.24313725490196078" d="M9,0h1"/><path stroke="#91daa1" opacity="0.7568627450980392" d="M10,0h1"/><path stroke="#94dba1" d="M11,0h1"/><path stroke="#98dba1" d="M12,0h1"/><path stroke="#70d4a1" d="M13,0h1"/><path stroke="#23c6a3" d="M14,0h1"/><path stroke="#00bea3" d="M15,0h1"/><path stroke="#c4ebff" d="M1,1h1"/><path stroke="#bce9ff" d="M2,1h1M1,2h1"/><path stroke="#abe3ff" d="M3,1h1"/><path stroke="#94daff" d="M4,1h1"/><path stroke="#88d6ff" opacity="0.7568627450980392" d="M5,1h1"/><path stroke="#87d6ff" opacity="0.24313725490196078" d="M6,1h1"/><path stroke="#95dba1" opacity="0.24313725490196078" d="M9,1h1"/><path stroke="#94dba1" opacity="0.7568627450980392" d="M10,1h1"/><path stroke="#8cd9a1" d="M11,1h1"/><path stroke="#7bd6a1" d="M12,1h1M11,2h1"/><path stroke="#52cea2" d="M13,1h1"/><path stroke="#1ac4a3" d="M14,1h1"/><path stroke="#00bfa3" d="M15,1h1"/><path stroke="#a4e0ff" d="M2,2h1"/><path stroke="#93daff" d="M3,2h1"/><path stroke="#8dd8ff" d="M4,2h1"/><path stroke="#8ad7ff" opacity="0.7568627450980392" d="M5,2h1"/><path stroke="#89d7ff" opacity="0.24313725490196078" d="M6,2h1"/><path stroke="#9bdca1" opacity="0.24313725490196078" d="M9,2h1"/><path stroke="#98dba1" opacity="0.7568627450980392" d="M10,2h1"/><path stroke="#42cba2" d="M12,2h1"/><path stroke="#19c4a3" d="M13,2h1"/><path stroke="#07c1a3" d="M14,2h1"/><path stroke="#00c0a4" d="M15,2h1"/><path stroke="#ace3ff" d="M1,3h1"/><path stroke="#94dcff" d="M2,3h1"/><path stroke="#80d4fe" d="M3,3h1"/><path stroke="#74cef8" d="M4,3h1"/><path stroke="#6eccf4" opacity="0.7686274509803922" d="M5,3h1"/><path stroke="#6dcbf4" opacity="0.24705882352941178" d="M6,3h1"/><path stroke="#73d4a1" opacity="0.24705882352941178" d="M9,3h1"/><path stroke="#70d4a1" opacity="0.7686274509803922" d="M10,3h1"/><path stroke="#52cfa2" d="M11,3h1"/><path stroke="#18c5a4" d="M12,3h1"/><path stroke="#00bda2" d="M13,3h1"/><path stroke="#00b99e" d="M14,3h1"/><path stroke="#00b79c" d="M15,3h1"/><path stroke="#94dbff" d="M1,4h1"/><path stroke="#8edaff" d="M2,4h1"/><path stroke="#74d0fa" d="M3,4h1"/><path stroke="#4dbfe8" d="M4,4h1"/><path stroke="#39b6df" opacity="0.7764705882352941" d="M5,4h1"/><path stroke="#37b5de" opacity="0.24705882352941178" d="M6,4h1"/><path stroke="#24c6a2" opacity="0.24705882352941178" d="M9,4h1"/><path stroke="#23c5a2" opacity="0.7764705882352941" d="M10,4h1"/><path stroke="#19c5a3" d="M11,4h1"/><path stroke="#06c3a5" d="M12,4h1"/><path stroke="#00bb9f" d="M13,4h1"/><path stroke="#00ad93" d="M14,4h1"/><path stroke="#00a78d" d="M15,4h1"/><path stroke="#87d7ff" opacity="0.7529411764705882" d="M0,5h1"/><path stroke="#83ccf3" opacity="0.8196078431372549" d="M1,5h1"/><path stroke="#7dbbdd" opacity="0.9450980392156862" d="M2,5h1"/><path stroke="#67b2d4" opacity="0.9568627450980393" d="M3,5h1"/><path stroke="#3baed4" opacity="0.8392156862745098" d="M4,5h1"/><path stroke="#1dacd5" opacity="0.5686274509803921" d="M5,5h1"/><path stroke="#1aacd5" opacity="0.1803921568627451" d="M6,5h1"/><path stroke="#00c0a5" opacity="0.1803921568627451" d="M9,5h1"/><path stroke="#00bfa4" opacity="0.5686274509803921" d="M10,5h1"/><path stroke="#02b69d" opacity="0.8392156862745098" d="M11,5h1"/><path stroke="#0da893" opacity="0.9568627450980393" d="M12,5h1"/><path stroke="#0ea18c" opacity="0.9450980392156862" d="M13,5h1"/><path stroke="#05a088" opacity="0.8196078431372549" d="M14,5h1"/><path stroke="#009f86" opacity="0.7529411764705882" d="M15,5h1"/><path stroke="#8ae4ff" opacity="0.2196078431372549" d="M0,6h1"/><path stroke="#6c97b2" opacity="0.43137254901960786" d="M1,6h1"/><path stroke="#5c7282" opacity="0.8274509803921568" d="M2,6h1"/><path stroke="#546e7f" opacity="0.8392156862745098" d="M3,6h1"/><path stroke="#3f859f" opacity="0.44313725490196076" d="M4,6h1"/><path stroke="#16b5e0" opacity="0.16470588235294117" d="M5,6h1"/><path stroke="#0cc0f0" opacity="0.047058823529411764" d="M6,6h1"/><path stroke="#00d9b8" opacity="0.047058823529411764" d="M9,6h1"/><path stroke="#00caac" opacity="0.16470588235294117" d="M10,6h1"/><path stroke="#1c8a7d" opacity="0.44313725490196076" d="M11,6h1"/><path stroke="#326a66" opacity="0.8392156862745098" d="M12,6h1"/><path stroke="#336864" opacity="0.8274509803921568" d="M13,6h1"/><path stroke="#207c70" opacity="0.43137254901960786" d="M14,6h1"/><path stroke="#00a68a" opacity="0.2196078431372549" d="M15,6h1"/><path stroke="#2a2726" opacity="0.2235294117647059" d="M1,7h1"/><path stroke="#39373a" opacity="0.7607843137254902" d="M2,7h1"/><path stroke="#3a383b" opacity="0.7725490196078432" d="M3,7h1"/><path stroke="#342e2f" opacity="0.22745098039215686" d="M4,7h1"/><path stroke="#533e48" opacity="0.23137254901960785" d="M11,7h1"/><path stroke="#4b444b" opacity="0.7843137254901961" d="M12,7h1"/><path stroke="#4a444b" opacity="0.7764705882352941" d="M13,7h1"/><path stroke="#4f3d47" opacity="0.23529411764705882" d="M14,7h1"/><path stroke="#0f130f" opacity="0.2235294117647059" d="M1,8h1"/><path stroke="#232525" opacity="0.7607843137254902" d="M2,8h1"/><path stroke="#242626" opacity="0.7725490196078432" d="M3,8h1"/><path stroke="#161c1a" opacity="0.22745098039215686" d="M4,8h1"/><path stroke="#52454d" opacity="0.23137254901960785" d="M11,8h1"/><path stroke="#4a454c" opacity="0.792156862745098" d="M12,8h1"/><path stroke="#49454b" opacity="0.7843137254901961" d="M13,8h1"/><path stroke="#4c4149" opacity="0.24705882352941178" d="M14,8h1"/><path stroke="#ffb4d6" opacity="0.2196078431372549" d="M0,9h1"/><path stroke="#9e6d7f" opacity="0.43137254901960786" d="M1,9h1"/><path stroke="#624a53" opacity="0.8274509803921568" d="M2,9h1"/><path stroke="#60444b" opacity="0.8392156862745098" d="M3,9h1"/><path stroke="#924d52" opacity="0.44313725490196076" d="M4,9h1"/><path stroke="#fd6163" opacity="0.1607843137254902" d="M5,9h1"/><path stroke="#ff787a" opacity="0.03529411764705882" d="M6,9h1"/><path stroke="#000000" opacity="0.043137254901960784" d="M9,9h1M12,12h1"/><path stroke="#000000" opacity="0.1803921568627451" d="M10,9h1M9,10h1"/><path stroke="#232326" opacity="0.396078431372549" d="M11,9h1"/><path stroke="#414045" opacity="0.6588235294117647" d="M12,9h1"/><path stroke="#49484e" opacity="0.5803921568627451" d="M13,9h1"/><path stroke="#49484f" opacity="0.1843137254901961" d="M14,9h1"/><path stroke="#ffa7c7" opacity="0.7529411764705882" d="M0,10h1"/><path stroke="#ef9ebb" opacity="0.8196078431372549" d="M1,10h1"/><path stroke="#d48fa8" opacity="0.9450980392156862" d="M2,10h1"/><path stroke="#ce7e92" opacity="0.9607843137254902" d="M3,10h1"/><path stroke="#db6871" opacity="0.8392156862745098" d="M4,10h1"/><path stroke="#e75b5d" opacity="0.5647058823529412" d="M5,10h1"/><path stroke="#fc5e60" opacity="0.1607843137254902" d="M6,10h1"/><path stroke="#000000" opacity="0.6" d="M10,10h1M11,11h1"/><path stroke="#070707" opacity="0.6745098039215687" d="M11,10h1"/><path stroke="#232225" opacity="0.38823529411764707" d="M12,10h1"/><path stroke="#504f55" opacity="0.16862745098039217" d="M13,10h1"/><path stroke="#59575f" opacity="0.050980392156862744" d="M14,10h1"/><path stroke="#ffa8c7" d="M0,11h1"/><path stroke="#ffa4c2" d="M1,11h1"/><path stroke="#ff9db8" d="M2,11h1"/><path stroke="#f8889b" d="M3,11h1"/><path stroke="#ec6a72" d="M4,11h1"/><path stroke="#d65759" opacity="0.8392156862745098" d="M5,11h1"/><path stroke="#8f4243" opacity="0.44313725490196076" d="M6,11h1"/><path stroke="#061514" opacity="0.23137254901960785" d="M7,11h1"/><path stroke="#000404" opacity="0.23137254901960785" d="M8,11h1"/><path stroke="#000000" opacity="0.396078431372549" d="M9,11h1"/><path stroke="#000000" opacity="0.6745098039215687" d="M10,11h1"/><path stroke="#000000" opacity="0.17647058823529413" d="M12,11h1M11,12h1"/><path stroke="#ffa9ca" d="M0,12h1"/><path stroke="#fc9bb6" d="M1,12h1"/><path stroke="#f37f8e" d="M2,12h1"/><path stroke="#ed6a72" d="M3,12h1"/><path stroke="#ea6166" d="M4,12h1"/><path stroke="#bf5154" opacity="0.9607843137254902" d="M5,12h1"/><path stroke="#5c3435" opacity="0.8392156862745098" d="M6,12h1"/><path stroke="#141818" opacity="0.7843137254901961" d="M7,12h1"/><path stroke="#040707" opacity="0.792156862745098" d="M8,12h1"/><path stroke="#000000" opacity="0.6588235294117647" d="M9,12h1"/><path stroke="#000000" opacity="0.38823529411764707" d="M10,12h1"/><path stroke="#f995ae" d="M0,13h1"/><path stroke="#f38699" d="M1,13h1"/><path stroke="#e96971" d="M2,13h1M1,14h1"/><path stroke="#e25859" d="M3,13h1"/><path stroke="#de5556" d="M4,13h1"/><path stroke="#b54b4b" opacity="0.9450980392156862" d="M5,13h1"/><path stroke="#583232" opacity="0.8274509803921568" d="M6,13h1"/><path stroke="#141919" opacity="0.7764705882352941" d="M7,13h1"/><path stroke="#040707" opacity="0.7843137254901961" d="M8,13h1"/><path stroke="#000000" opacity="0.5803921568627451" d="M9,13h1"/><path stroke="#000000" opacity="0.16862745098039217" d="M10,13h1"/><path stroke="#eb6e78" d="M0,14h1"/><path stroke="#e66065" d="M2,14h1"/><path stroke="#db5555" d="M3,14h1"/><path stroke="#ca4946" d="M4,14h1"/><path stroke="#b4413c" opacity="0.8196078431372549" d="M5,14h1"/><path stroke="#7a3532" opacity="0.43137254901960786" d="M6,14h1"/><path stroke="#091617" opacity="0.23529411764705882" d="M7,14h1"/><path stroke="#000505" opacity="0.24705882352941178" d="M8,14h1"/><path stroke="#000000" opacity="0.1843137254901961" d="M9,14h1"/><path stroke="#000000" opacity="0.050980392156862744" d="M10,14h1"/><path stroke="#e35a5c" d="M0,15h1"/><path stroke="#e45b5d" d="M1,15h1"/><path stroke="#e55c5f" d="M2,15h1"/><path stroke="#d85454" d="M3,15h1"/><path stroke="#c0433e" d="M4,15h1"/><path stroke="#b53a32" opacity="0.7529411764705882" d="M5,15h1"/><path stroke="#c13b32" opacity="0.2196078431372549" d="M6,15h1"/></svg>
