<svg xmlns="http://www.w3.org/2000/svg" shape-rendering="crispEdges" viewBox="0 -0.5 16 16" width="16" height="16"><metadata>Generated with pixel-perfect-svg https://github.com/kagof/pixel-perfect-svg</metadata><path stroke="#c6ecff" d="M0,0h4M0,1h4M0,2h2M0,3h2"/><path stroke="#88d6ff" d="M4,0h2M4,1h2M2,2h4M2,3h4M0,4h4M0,5h4"/><path stroke="#91daa1" d="M10,0h4M10,1h4M10,2h2M10,3h2"/><path stroke="#00bfa3" d="M14,0h2M14,1h2M12,2h4M12,3h4M10,4h4M10,5h4"/><path stroke="#24aed6" d="M4,4h2M4,5h2"/><path stroke="#00a087" d="M14,4h2M14,5h2"/><path stroke="#48474d" d="M2,6h2M12,6h2M2,7h2M12,7h2M12,8h2M12,9h2"/><path stroke="#222323" d="M2,8h2M2,9h2M6,12h2M6,13h2"/><path stroke="#ffa6c5" d="M0,10h4M0,11h4M0,12h2M0,13h2"/><path stroke="#e45c5f" d="M4,10h2M4,11h2M2,12h4M2,13h4M0,14h4M0,15h4"/><path stroke="#000000" d="M10,10h2M10,11h2M8,12h2M8,13h2"/><path stroke="#b63c35" d="M4,14h2M4,15h2"/></svg>
