<svg xmlns="http://www.w3.org/2000/svg" shape-rendering="crispEdges" viewBox="0 -0.5 16 16" width="16" height="16"><metadata>Generated with pixel-perfect-svg https://github.com/kagof/pixel-perfect-svg</metadata><path stroke="#f5f7fa" d="M8,0h2M8,1h2"/><path stroke="#bac7db" d="M10,0h2M10,1h2M8,4h2M14,4h2M8,5h2M14,5h2M6,6h8M6,7h8M6,8h2M6,9h2M4,10h2M4,11h2M0,12h4M0,13h4M0,14h2M0,15h2"/><path stroke="#ebf0f6" d="M6,2h2M6,3h2M6,4h2M6,5h2M4,8h2M4,9h2M2,10h2M2,11h2"/><path stroke="#cdd2da" d="M8,2h2M8,3h2"/><path stroke="#abaebe" d="M14,6h2M14,7h2M8,8h6M8,9h6M6,10h2M6,11h2M4,12h2M4,13h2M2,14h2M2,15h2"/></svg>
