<svg xmlns="http://www.w3.org/2000/svg" shape-rendering="crispEdges" viewBox="0 -0.5 16 16" width="16" height="16"><metadata>Generated with pixel-perfect-svg https://github.com/kagof/pixel-perfect-svg</metadata><path stroke="#fcfdfe" opacity="0.21568627450980393" d="M7,0h1"/><path stroke="#f8fafc" opacity="0.7490196078431373" d="M8,0h1"/><path stroke="#e7ecf3" d="M9,0h1"/><path stroke="#c9d3e3" d="M10,0h1"/><path stroke="#b8c6da" opacity="0.7843137254901961" d="M11,0h1"/><path stroke="#b6c4d9" opacity="0.25098039215686274" d="M12,0h1"/><path stroke="#ebf1f7" opacity="0.047058823529411764" d="M5,1h1"/><path stroke="#ebf0f7" opacity="0.1607843137254902" d="M6,1h1"/><path stroke="#edf0f5" opacity="0.42745098039215684" d="M7,1h1"/><path stroke="#edeff3" opacity="0.8235294117647058" d="M8,1h1"/><path stroke="#e2e6ee" opacity="0.9725490196078431" d="M9,1h1"/><path stroke="#c9d3e2" opacity="0.8509803921568627" d="M10,1h1"/><path stroke="#b8c5da" opacity="0.5725490196078431" d="M11,1h1"/><path stroke="#b6c4d9" opacity="0.1803921568627451" d="M12,1h1"/><path stroke="#edf2f8" opacity="0.17647058823529413" d="M5,2h1"/><path stroke="#ecf1f7" opacity="0.5607843137254902" d="M6,2h1"/><path stroke="#e5eaf0" opacity="0.8352941176470589" d="M7,2h1"/><path stroke="#dce0e6" opacity="0.9686274509803922" d="M8,2h1"/><path stroke="#d5dae1" opacity="0.8274509803921568" d="M9,2h1"/><path stroke="#cad2de" opacity="0.44313725490196076" d="M10,2h1"/><path stroke="#b6c4da" opacity="0.17254901960784313" d="M11,2h1"/><path stroke="#b1c1d9" opacity="0.050980392156862744" d="M12,2h1"/><path stroke="#eef3f8" opacity="0.24705882352941178" d="M5,3h1"/><path stroke="#edf2f7" opacity="0.7764705882352941" d="M6,3h1"/><path stroke="#e3e8ef" d="M7,3h1"/><path stroke="#d1d7e1" d="M8,3h1"/><path stroke="#c6cdd9" opacity="0.7490196078431373" d="M9,3h1"/><path stroke="#c7cdd7" opacity="0.21176470588235294" d="M10,3h1"/><path stroke="#bbc9dd" opacity="0.050980392156862744" d="M13,3h1"/><path stroke="#bbc9dd" opacity="0.1803921568627451" d="M14,3h1"/><path stroke="#bbc9dd" opacity="0.25098039215686274" d="M15,3h1"/><path stroke="#eff3f8" opacity="0.24705882352941178" d="M5,4h1"/><path stroke="#eef2f7" opacity="0.7686274509803922" d="M6,4h1"/><path stroke="#e1e7f0" d="M7,4h1"/><path stroke="#c9d3e1" d="M8,4h1"/><path stroke="#bdc8d9" opacity="0.7490196078431373" d="M9,4h1"/><path stroke="#bbc7d8" opacity="0.21176470588235294" d="M10,4h1"/><path stroke="#bbc8dc" opacity="0.17254901960784313" d="M13,4h1"/><path stroke="#bac8dc" opacity="0.5725490196078431" d="M14,4h1"/><path stroke="#bac8dc" opacity="0.7843137254901961" d="M15,4h1"/><path stroke="#e1e8f0" opacity="0.23137254901960785" d="M5,5h1"/><path stroke="#e0e7f0" opacity="0.7529411764705882" d="M6,5h1"/><path stroke="#d6dfeb" d="M7,5h1"/><path stroke="#c3cfe0" d="M8,5h1M7,6h1"/><path stroke="#b9c6db" opacity="0.8156862745098039" d="M9,5h1"/><path stroke="#b9c7db" opacity="0.4235294117647059" d="M10,5h1"/><path stroke="#bbc9de" opacity="0.21176470588235294" d="M11,5h1"/><path stroke="#bccade" opacity="0.21176470588235294" d="M12,5h1"/><path stroke="#b8c4d7" opacity="0.44313725490196076" d="M13,5h1"/><path stroke="#b7c1d4" opacity="0.8509803921568627" d="M14,5h1"/><path stroke="#b6c1d4" d="M15,5h1M9,7h3M1,15h1"/><path stroke="#c4cfe0" opacity="0.2235294117647059" d="M5,6h1"/><path stroke="#c6d1e2" opacity="0.7529411764705882" d="M6,6h1"/><path stroke="#bdcadd" d="M8,6h1"/><path stroke="#bac7dc" opacity="0.9411764705882353" d="M9,6h1"/><path stroke="#bac7dc" opacity="0.8156862745098039" d="M10,6h1"/><path stroke="#bbc8dc" opacity="0.7490196078431373" d="M11,6h1"/><path stroke="#bbc8dd" opacity="0.7490196078431373" d="M12,6h1"/><path stroke="#b7c2d5" opacity="0.8274509803921568" d="M13,6h1"/><path stroke="#b1b8c9" opacity="0.9725490196078431" d="M14,6h1"/><path stroke="#aeb4c5" d="M15,6h1"/><path stroke="#ffffff" opacity="0.03529411764705882" d="M3,7h1M1,9h1"/><path stroke="#f6f9fc" opacity="0.1607843137254902" d="M4,7h1"/><path stroke="#d0dae8" opacity="0.43137254901960786" d="M5,7h1"/><path stroke="#bdcadd" opacity="0.8196078431372549" d="M6,7h1"/><path stroke="#b8c5d9" d="M7,7h1"/><path stroke="#b7c2d5" d="M8,7h1M2,13h1"/><path stroke="#b7c1d4" d="M12,7h1"/><path stroke="#b4bdcf" opacity="0.9686274509803922" d="M13,7h1"/><path stroke="#aeb3c4" opacity="0.8235294117647058" d="M14,7h1"/><path stroke="#aaacbc" opacity="0.7490196078431373" d="M15,7h1M3,15h1"/><path stroke="#f1f5f9" opacity="0.1607843137254902" d="M3,8h1"/><path stroke="#eff3f8" opacity="0.5647058823529412" d="M4,8h1"/><path stroke="#dee5ef" opacity="0.8352941176470589" d="M5,8h1"/><path stroke="#c4d0e1" opacity="0.9529411764705882" d="M6,8h1"/><path stroke="#b6c2d5" d="M7,8h1"/><path stroke="#b1b8ca" d="M8,8h1M2,14h1"/><path stroke="#aeb4c4" d="M9,8h1M2,15h1"/><path stroke="#afb4c5" d="M10,8h3"/><path stroke="#aeb4c5" opacity="0.8352941176470589" d="M13,8h1"/><path stroke="#adb1c1" opacity="0.42745098039215684" d="M14,8h1"/><path stroke="#a9abbb" opacity="0.21568627450980393" d="M15,8h1M4,15h1"/><path stroke="#f1f5f9" opacity="0.1568627450980392" d="M2,9h1"/><path stroke="#e7edf4" opacity="0.43529411764705883" d="M3,9h1"/><path stroke="#e2e9f1" opacity="0.8392156862745098" d="M4,9h1M3,10h1"/><path stroke="#d6dee9" d="M5,9h1M3,11h1"/><path stroke="#c1cadb" d="M6,9h1M3,12h1"/><path stroke="#b3bccf" opacity="0.9529411764705882" d="M7,9h1"/><path stroke="#adb2c3" opacity="0.8196078431372549" d="M8,9h1M3,14h1"/><path stroke="#aaadbc" opacity="0.7529411764705882" d="M9,9h1"/><path stroke="#aaadbd" opacity="0.7529411764705882" d="M10,9h1"/><path stroke="#abadbd" opacity="0.7686274509803922" d="M11,9h1"/><path stroke="#abadbd" opacity="0.7764705882352941" d="M12,9h1"/><path stroke="#abadbd" opacity="0.5607843137254902" d="M13,9h1"/><path stroke="#aaadbd" opacity="0.1607843137254902" d="M14,9h1"/><path stroke="#f6f9fc" opacity="0.1568627450980392" d="M1,10h1"/><path stroke="#eff3f8" opacity="0.5568627450980392" d="M2,10h1"/><path stroke="#cfd9e7" opacity="0.9647058823529412" d="M4,10h1"/><path stroke="#c0cadb" d="M5,10h1M4,11h1"/><path stroke="#b4bbcc" d="M6,10h1M4,12h1"/><path stroke="#aeb3c3" opacity="0.8352941176470589" d="M7,10h1"/><path stroke="#acb0c0" opacity="0.43137254901960786" d="M8,10h1"/><path stroke="#aaacbb" opacity="0.2235294117647059" d="M9,10h1"/><path stroke="#aaacbc" opacity="0.23137254901960785" d="M10,10h1"/><path stroke="#aaacbc" opacity="0.24705882352941178" d="M11,10h2"/><path stroke="#aaacbc" opacity="0.17647058823529413" d="M13,10h1"/><path stroke="#aaacbc" opacity="0.047058823529411764" d="M14,10h1"/><path stroke="#b5c2d8" opacity="0.21568627450980393" d="M0,11h1"/><path stroke="#d1dae8" opacity="0.42745098039215684" d="M1,11h1"/><path stroke="#dee5ef" opacity="0.8274509803921568" d="M2,11h1"/><path stroke="#b2bbce" opacity="0.9647058823529412" d="M5,11h1"/><path stroke="#adb2c3" opacity="0.8392156862745098" d="M6,11h1M5,12h1"/><path stroke="#aaacbc" opacity="0.5647058823529412" d="M7,11h1"/><path stroke="#aaabbb" opacity="0.1607843137254902" d="M8,11h1M7,12h1"/><path stroke="#b9c7db" opacity="0.7490196078431373" d="M0,12h1"/><path stroke="#becbde" opacity="0.8196078431372549" d="M1,12h1"/><path stroke="#c5d0e2" opacity="0.9490196078431372" d="M2,12h1"/><path stroke="#abafc0" opacity="0.43529411764705883" d="M6,12h1"/><path stroke="#a8a9b8" opacity="0.03529411764705882" d="M8,12h1M6,14h1"/><path stroke="#bac7db" d="M0,13h1"/><path stroke="#b9c5d9" d="M1,13h1"/><path stroke="#b3bcce" opacity="0.9490196078431372" d="M3,13h1"/><path stroke="#aeb2c3" opacity="0.8274509803921568" d="M4,13h1"/><path stroke="#aaacbc" opacity="0.5568627450980392" d="M5,13h1"/><path stroke="#aaabbb" opacity="0.1568627450980392" d="M6,13h1M5,14h1"/><path stroke="#bac8dc" d="M0,14h1M0,15h1"/><path stroke="#b7c2d6" d="M1,14h1"/><path stroke="#acb0c0" opacity="0.42745098039215684" d="M4,14h1"/></svg>
