<svg xmlns="http://www.w3.org/2000/svg" shape-rendering="crispEdges" viewBox="0 -0.5 16 16" width="16" height="16"><metadata>Generated with pixel-perfect-svg https://github.com/kagof/pixel-perfect-svg</metadata><path stroke="#fffaab" d="M0,0h2M0,1h2"/><path stroke="#fff64f" d="M4,0h2M4,1h2M2,2h2M2,3h2M2,8h2M2,9h2"/><path stroke="#ff7676" d="M10,0h2M10,1h2M8,2h2M8,3h2"/><path stroke="#e45c5f" d="M10,2h4M10,3h4M8,4h2M8,5h2"/><path stroke="#fff02b" d="M2,4h2M2,5h2M4,8h2M10,8h2M4,9h2M10,9h2M2,10h2M2,11h2"/><path stroke="#b63c35" d="M12,4h2M12,5h2"/><path stroke="#ffe949" d="M6,8h2M6,9h2M4,10h2M4,11h2"/><path stroke="#e8d24b" d="M6,10h2M10,10h2M6,11h2M10,11h2M2,12h2M10,12h2M2,13h2M10,13h2"/><path stroke="#d1aa39" d="M6,12h2M12,12h4M6,13h2M12,13h4"/></svg>
