<svg xmlns="http://www.w3.org/2000/svg" shape-rendering="crispEdges" viewBox="0 -0.5 16 16" width="16" height="16"><metadata>Generated with pixel-perfect-svg https://github.com/kagof/pixel-perfect-svg</metadata><path stroke="#fffaab" d="M0,0h1"/><path stroke="#fffaae" opacity="0.7647058823529411" d="M1,0h1"/><path stroke="#fffbc0" opacity="0.21176470588235294" d="M2,0h1"/><path stroke="#fff645" opacity="0.21568627450980393" d="M3,0h1"/><path stroke="#fff64d" opacity="0.7843137254901961" d="M4,0h1"/><path stroke="#fff64f" opacity="0.807843137254902" d="M5,0h1"/><path stroke="#fff64f" opacity="0.26666666666666666" d="M6,0h1"/><path stroke="#ff7777" opacity="0.23137254901960785" d="M9,0h1"/><path stroke="#ff7777" opacity="0.7764705882352941" d="M10,0h2"/><path stroke="#ff7a79" opacity="0.23137254901960785" d="M12,0h1"/><path stroke="#fffaac" opacity="0.7803921568627451" d="M0,1h1"/><path stroke="#fffaa4" opacity="0.6313725490196078" d="M1,1h1"/><path stroke="#fff882" opacity="0.3568627450980392" d="M2,1h1"/><path stroke="#fff64c" opacity="0.3607843137254902" d="M3,1h1"/><path stroke="#fff64e" opacity="0.6470588235294118" d="M4,1h1"/><path stroke="#fff74f" opacity="0.5882352941176471" d="M5,1h1"/><path stroke="#fffa4e" opacity="0.18823529411764706" d="M6,1h1"/><path stroke="#ff2a96" opacity="0.027450980392156862" d="M7,1h1"/><path stroke="#ff6f7c" opacity="0.14901960784313725" d="M8,1h1"/><path stroke="#fc7373" opacity="0.4392156862745098" d="M9,1h1"/><path stroke="#f97071" opacity="0.8470588235294118" d="M10,1h1"/><path stroke="#f76e6f" opacity="0.8470588235294118" d="M11,1h1"/><path stroke="#f1686a" opacity="0.4392156862745098" d="M12,1h1"/><path stroke="#e45b5f" opacity="0.1568627450980392" d="M13,1h1"/><path stroke="#e1585d" opacity="0.043137254901960784" d="M14,1h1"/><path stroke="#fffab4" opacity="0.23529411764705882" d="M0,2h1"/><path stroke="#fff87f" opacity="0.3764705882352941" d="M1,2h1"/><path stroke="#fff759" opacity="0.6352941176470588" d="M2,2h1"/><path stroke="#fff64f" opacity="0.6431372549019608" d="M3,2h1"/><path stroke="#fff64f" opacity="0.3843137254901961" d="M4,2h1"/><path stroke="#fffe4c" opacity="0.16862745098039217" d="M5,2h1"/><path stroke="#ffff3b" opacity="0.03529411764705882" d="M6,2h1"/><path stroke="#ff747a" opacity="0.16862745098039217" d="M7,2h1"/><path stroke="#ff7778" opacity="0.5568627450980392" d="M8,2h1"/><path stroke="#fa7171" opacity="0.8352941176470589" d="M9,2h1"/><path stroke="#ef6768" opacity="0.9725490196078431" d="M10,2h1"/><path stroke="#e96163" opacity="0.9725490196078431" d="M11,2h1"/><path stroke="#e75e61" opacity="0.8352941176470589" d="M12,2h1"/><path stroke="#e55d60" opacity="0.5529411764705883" d="M13,2h1"/><path stroke="#e55d60" opacity="0.17254901960784313" d="M14,2h1"/><path stroke="#fff43f" opacity="0.24313725490196078" d="M1,3h1"/><path stroke="#fff445" opacity="0.796078431372549" d="M2,3h1"/><path stroke="#fff546" opacity="0.807843137254902" d="M3,3h1"/><path stroke="#fff446" opacity="0.24705882352941178" d="M4,3h1"/><path stroke="#f97171" opacity="0.2549019607843137" d="M7,3h1"/><path stroke="#f97071" opacity="0.796078431372549" d="M8,3h1"/><path stroke="#f56c6d" opacity="0.9921568627450981" d="M9,3h1"/><path stroke="#ea6264" opacity="0.8352941176470589" d="M10,3h1"/><path stroke="#df585b" opacity="0.8352941176470589" d="M11,3h1"/><path stroke="#da5556" opacity="0.9921568627450981" d="M12,3h1"/><path stroke="#d85454" opacity="0.7843137254901961" d="M13,3h1"/><path stroke="#d85454" opacity="0.24705882352941178" d="M14,3h1"/><path stroke="#fff12f" opacity="0.24705882352941178" d="M1,4h1"/><path stroke="#fff133" opacity="0.796078431372549" d="M2,4h1"/><path stroke="#fff134" opacity="0.807843137254902" d="M3,4h1"/><path stroke="#fff133" opacity="0.2549019607843137" d="M4,4h1"/><path stroke="#eb6365" opacity="0.2627450980392157" d="M7,4h1"/><path stroke="#eb6365" opacity="0.807843137254902" d="M8,4h1"/><path stroke="#eb6265" opacity="0.8588235294117647" d="M9,4h1"/><path stroke="#e96164" opacity="0.43137254901960786" d="M10,4h1"/><path stroke="#cd4c4b" opacity="0.43137254901960786" d="M11,4h1"/><path stroke="#c34541" opacity="0.8588235294117647" d="M12,4h1"/><path stroke="#c1443f" opacity="0.796078431372549" d="M13,4h1"/><path stroke="#c1443f" opacity="0.2549019607843137" d="M14,4h1"/><path stroke="#fff029" opacity="0.18823529411764706" d="M1,5h1"/><path stroke="#fff029" opacity="0.5725490196078431" d="M2,5h1"/><path stroke="#fff029" opacity="0.5764705882352941" d="M3,5h1"/><path stroke="#fff029" opacity="0.1803921568627451" d="M4,5h1"/><path stroke="#e2535f" opacity="0.1843137254901961" d="M7,5h1"/><path stroke="#e35a5e" opacity="0.592156862745098" d="M8,5h1"/><path stroke="#e45b5f" opacity="0.5725490196078431" d="M9,5h1"/><path stroke="#e75467" opacity="0.1450980392156863" d="M10,5h1"/><path stroke="#a3252a" opacity="0.1450980392156863" d="M11,5h1"/><path stroke="#b33932" opacity="0.5725490196078431" d="M12,5h1"/><path stroke="#b53b34" opacity="0.5843137254901961" d="M13,5h1"/><path stroke="#b53b34" opacity="0.19215686274509805" d="M14,5h1"/><path stroke="#ffef25" opacity="0.054901960784313725" d="M1,6h1"/><path stroke="#ffef25" opacity="0.16862745098039217" d="M2,6h1"/><path stroke="#ffef25" opacity="0.16470588235294117" d="M3,6h1"/><path stroke="#ffee22" opacity="0.0392156862745098" d="M4,6h1"/><path stroke="#d72365" opacity="0.043137254901960784" d="M7,6h1"/><path stroke="#e2565e" opacity="0.1843137254901961" d="M8,6h1"/><path stroke="#e25660" opacity="0.17647058823529413" d="M9,6h1"/><path stroke="#d80089" opacity="0.027450980392156862" d="M10,6h1"/><path stroke="#5f001b" opacity="0.027450980392156862" d="M11,6h1"/><path stroke="#af3231" opacity="0.17647058823529413" d="M12,6h1"/><path stroke="#b33b32" opacity="0.18823529411764706" d="M13,6h1"/><path stroke="#b43b33" opacity="0.06274509803921569" d="M14,6h1"/><path stroke="#fff858" opacity="0.050980392156862744" d="M1,7h1"/><path stroke="#fff757" opacity="0.1607843137254902" d="M2,7h1"/><path stroke="#fff54a" opacity="0.22745098039215686" d="M3,7h1"/><path stroke="#fff233" opacity="0.23921568627450981" d="M4,7h1"/><path stroke="#ffef30" opacity="0.24705882352941178" d="M5,7h1"/><path stroke="#ffeb41" opacity="0.24705882352941178" d="M6,7h1"/><path stroke="#ffef4a" opacity="0.17254901960784313" d="M7,7h1"/><path stroke="#ffff46" opacity="0.03529411764705882" d="M8,7h1"/><path stroke="#ffff0b" opacity="0.0392156862745098" d="M9,7h1"/><path stroke="#fff627" opacity="0.1803921568627451" d="M10,7h1"/><path stroke="#fff729" opacity="0.1843137254901961" d="M11,7h1"/><path stroke="#ffff24" opacity="0.043137254901960784" d="M12,7h1"/><path stroke="#fff753" opacity="0.17647058823529413" d="M1,8h1"/><path stroke="#fff752" opacity="0.5568627450980392" d="M2,8h1"/><path stroke="#fff547" opacity="0.7647058823529411" d="M3,8h1M2,9h1"/><path stroke="#fff233" opacity="0.7647058823529411" d="M4,8h1"/><path stroke="#ffee31" opacity="0.7686274509803922" d="M5,8h1"/><path stroke="#ffeb41" opacity="0.7764705882352941" d="M6,8h1"/><path stroke="#ffea4a" opacity="0.5607843137254902" d="M7,8h1"/><path stroke="#fff34d" opacity="0.15294117647058825" d="M8,8h1"/><path stroke="#fffc23" opacity="0.16470588235294117" d="M9,8h1"/><path stroke="#fff229" opacity="0.5803921568627451" d="M10,8h1"/><path stroke="#fff22a" opacity="0.5882352941176471" d="M11,8h1"/><path stroke="#fffc29" opacity="0.1843137254901961" d="M12,8h1"/><path stroke="#fff547" opacity="0.23921568627450981" d="M1,9h1"/><path stroke="#fff441" d="M3,9h1"/><path stroke="#fff037" d="M4,9h1"/><path stroke="#feec38" d="M5,9h1"/><path stroke="#fbe644" d="M6,9h1M5,10h1"/><path stroke="#fae44b" opacity="0.7607843137254902" d="M7,9h1"/><path stroke="#fae34e" opacity="0.2235294117647059" d="M8,9h1"/><path stroke="#fae930" opacity="0.23921568627450981" d="M9,9h1"/><path stroke="#fae932" opacity="0.7843137254901961" d="M10,9h1"/><path stroke="#fae933" opacity="0.796078431372549" d="M11,9h1"/><path stroke="#fbec32" opacity="0.25098039215686274" d="M12,9h1"/><path stroke="#fff332" opacity="0.23921568627450981" d="M1,10h1"/><path stroke="#fff233" opacity="0.7568627450980392" d="M2,10h1"/><path stroke="#fff137" d="M3,10h1"/><path stroke="#ffed3e" d="M4,10h1"/><path stroke="#f2dd49" d="M6,10h1"/><path stroke="#eed84b" opacity="0.7529411764705882" d="M7,10h1"/><path stroke="#edd74c" opacity="0.2196078431372549" d="M8,10h1"/><path stroke="#eeda42" opacity="0.23529411764705882" d="M9,10h1"/><path stroke="#eeda43" opacity="0.7803921568627451" d="M10,10h1"/><path stroke="#eeda43" opacity="0.788235294117647" d="M11,10h1"/><path stroke="#f0dd44" opacity="0.24313725490196078" d="M12,10h1"/><path stroke="#f9e831" opacity="0.24313725490196078" d="M1,11h1"/><path stroke="#f9e832" opacity="0.7647058823529411" d="M2,11h1"/><path stroke="#fbe937" opacity="0.9725490196078431" d="M3,11h1"/><path stroke="#feea43" opacity="0.8313725490196079" d="M4,11h1"/><path stroke="#f6de4a" opacity="0.8313725490196079" d="M5,11h1"/><path stroke="#e7ce47" opacity="0.9725490196078431" d="M6,11h1"/><path stroke="#e1c646" opacity="0.7607843137254902" d="M7,11h1"/><path stroke="#e0c546" opacity="0.2235294117647059" d="M8,11h1"/><path stroke="#e8d34d" opacity="0.23137254901960785" d="M9,11h1"/><path stroke="#e8d24c" opacity="0.7725490196078432" d="M10,11h1"/><path stroke="#e6ce4a" opacity="0.8549019607843137" d="M11,11h1"/><path stroke="#dec044" opacity="0.4549019607843137" d="M12,11h1"/><path stroke="#cfa637" opacity="0.23921568627450981" d="M13,11h1"/><path stroke="#d0a838" opacity="0.24705882352941178" d="M14,11h1"/><path stroke="#d1aa39" opacity="0.2549019607843137" d="M15,11h1"/><path stroke="#edd943" opacity="0.25098039215686274" d="M1,12h1"/><path stroke="#edd943" opacity="0.7843137254901961" d="M2,12h1"/><path stroke="#efdb44" opacity="0.8470588235294118" d="M3,12h1"/><path stroke="#f7e247" opacity="0.42745098039215684" d="M4,12h1"/><path stroke="#e7c943" opacity="0.42745098039215684" d="M5,12h1"/><path stroke="#d9b63e" opacity="0.8470588235294118" d="M6,12h1"/><path stroke="#d5b23d" opacity="0.7803921568627451" d="M7,12h1"/><path stroke="#d4af3c" opacity="0.23529411764705882" d="M8,12h1"/><path stroke="#ebd74e" opacity="0.22745098039215686" d="M9,12h1"/><path stroke="#e9d34c" opacity="0.7686274509803922" d="M10,12h1"/><path stroke="#e3ca48" opacity="0.9882352941176471" d="M11,12h1"/><path stroke="#d8b63f" opacity="0.8549019607843137" d="M12,12h1"/><path stroke="#d0a938" opacity="0.7764705882352941" d="M13,12h1"/><path stroke="#d1a939" opacity="0.7803921568627451" d="M14,12h1"/><path stroke="#d1aa39" opacity="0.7803921568627451" d="M15,12h1"/><path stroke="#e7d14c" opacity="0.18823529411764706" d="M1,13h1"/><path stroke="#e7d14c" opacity="0.5764705882352941" d="M2,13h1"/><path stroke="#e7d24c" opacity="0.5686274509803921" d="M3,13h1"/><path stroke="#e7d34f" opacity="0.1568627450980392" d="M4,13h1"/><path stroke="#c89d34" opacity="0.1568627450980392" d="M5,13h1"/><path stroke="#cfa738" opacity="0.5686274509803921" d="M6,13h1"/><path stroke="#d0a838" opacity="0.5725490196078431" d="M7,13h1"/><path stroke="#cea537" opacity="0.17254901960784313" d="M8,13h1"/><path stroke="#ecd94e" opacity="0.1607843137254902" d="M9,13h1"/><path stroke="#e9d44c" opacity="0.5568627450980392" d="M10,13h1"/><path stroke="#e2c847" opacity="0.7725490196078432" d="M11,13h1"/><path stroke="#d7b43d" opacity="0.7764705882352941" d="M12,13h1"/><path stroke="#d0a939" opacity="0.7725490196078432" d="M13,13h1"/><path stroke="#d1a939" opacity="0.7725490196078432" d="M14,13h1"/><path stroke="#d1aa39" opacity="0.7725490196078432" d="M15,13h1"/><path stroke="#e7d04d" opacity="0.058823529411764705" d="M1,14h1"/><path stroke="#e7d04d" opacity="0.1803921568627451" d="M2,14h1"/><path stroke="#e7d04d" opacity="0.17647058823529413" d="M3,14h1"/><path stroke="#e3cf51" opacity="0.043137254901960784" d="M4,14h1"/><path stroke="#c09131" opacity="0.043137254901960784" d="M5,14h1"/><path stroke="#cea537" opacity="0.17647058823529413" d="M6,14h1"/><path stroke="#cfa738" opacity="0.1803921568627451" d="M7,14h1"/><path stroke="#cda436" opacity="0.054901960784313725" d="M8,14h1"/><path stroke="#ecd94e" opacity="0.050980392156862744" d="M9,14h1"/><path stroke="#e9d44c" opacity="0.17647058823529413" d="M10,14h1"/><path stroke="#e2c847" opacity="0.24313725490196078" d="M11,14h1"/><path stroke="#d7b43d" opacity="0.25098039215686274" d="M12,14h1"/><path stroke="#d1a939" opacity="0.25098039215686274" d="M13,14h2"/><path stroke="#d1aa39" opacity="0.25098039215686274" d="M15,14h1"/></svg>
