<svg xmlns="http://www.w3.org/2000/svg" shape-rendering="crispEdges" viewBox="0 -0.5 16 16" width="16" height="16"><metadata>Generated with pixel-perfect-svg https://github.com/kagof/pixel-perfect-svg</metadata><path stroke="#ffbbc7" d="M2,0h2M2,1h2M0,2h2M0,3h2"/><path stroke="#ff9ba8" d="M4,0h4M4,1h4M2,2h4M2,3h4M0,4h4M0,5h4M0,6h2M0,7h2"/><path stroke="#ff7676" d="M8,0h6M8,1h6M6,2h4M6,3h4M4,4h2M4,5h2M2,6h4M2,7h4M0,8h4M0,9h4M0,10h2M0,11h2"/><path stroke="#e45c5f" d="M10,2h6M10,3h6M8,4h6M8,5h6M4,8h2M4,9h2M2,10h4M2,11h4M0,12h6M0,13h6"/><path stroke="#f5f7fa" d="M6,4h2M6,5h2M6,6h6M6,7h6M6,8h2M6,9h2"/><path stroke="#b63c35" d="M14,4h2M14,5h2M12,6h4M12,7h4M12,8h2M12,9h2M10,10h4M10,11h4M6,12h6M6,13h6M2,14h6M2,15h6"/><path stroke="#ebf0f6" d="M8,8h2M8,9h2M6,10h2M6,11h2"/><path stroke="#b64d46" d="M10,8h2M10,9h2M8,10h2M8,11h2"/><path stroke="#9c3327" d="M14,8h2M14,9h2M14,10h2M14,11h2M12,12h2M12,13h2M8,14h4M8,15h4"/><path stroke="#82211d" d="M14,12h2M14,13h2"/><path stroke="#721c03" d="M12,14h2M12,15h2"/></svg>
