<svg xmlns="http://www.w3.org/2000/svg" shape-rendering="crispEdges" viewBox="0 -0.5 16 16" width="16" height="16"><metadata>Generated with pixel-perfect-svg https://github.com/kagof/pixel-perfect-svg</metadata><path stroke="#ffbeca" opacity="0.21568627450980393" d="M3,0h1M0,3h1"/><path stroke="#ffbdc9" opacity="0.7490196078431373" d="M4,0h1M0,4h1"/><path stroke="#ffb5c2" d="M5,0h1M0,5h1"/><path stroke="#ffa5b2" d="M6,0h1M0,6h1"/><path stroke="#ff929c" d="M7,0h1M0,7h1"/><path stroke="#ff7f82" d="M8,0h1M0,8h1"/><path stroke="#ff7575" d="M9,0h1M0,9h1"/><path stroke="#ff7676" d="M10,0h1M0,10h1"/><path stroke="#ff7777" opacity="0.7490196078431373" d="M11,0h1M0,11h1"/><path stroke="#ff7a79" opacity="0.21568627450980393" d="M12,0h1M0,12h1"/><path stroke="#ffc1cd" opacity="0.03529411764705882" d="M1,1h1"/><path stroke="#ffbeca" opacity="0.1568627450980392" d="M2,1h1M1,2h1"/><path stroke="#ffb9c5" opacity="0.42745098039215684" d="M3,1h1M1,3h1"/><path stroke="#ffb6c2" opacity="0.8196078431372549" d="M4,1h1M1,4h1"/><path stroke="#ffacb8" d="M5,1h1M3,3h1M1,5h1"/><path stroke="#ff9aa5" d="M6,1h1M5,2h1M4,3h1"/><path stroke="#ff8991" d="M7,1h1"/><path stroke="#ff7c7f" d="M8,1h1"/><path stroke="#fe7474" d="M9,1h1M1,9h1"/><path stroke="#fa7172" d="M10,1h1"/><path stroke="#f76e6f" opacity="0.8196078431372549" d="M11,1h1M1,11h1"/><path stroke="#ef6769" opacity="0.42745098039215684" d="M12,1h1M1,12h1"/><path stroke="#e1595c" opacity="0.1568627450980392" d="M13,1h1"/><path stroke="#db5357" opacity="0.03529411764705882" d="M14,1h1"/><path stroke="#ffbdc9" opacity="0.5490196078431373" d="M2,2h1"/><path stroke="#ffb6c2" opacity="0.8274509803921568" d="M3,2h1M2,3h1"/><path stroke="#ffaab7" opacity="0.9490196078431372" d="M4,2h1M2,4h1"/><path stroke="#ff868c" d="M6,2h1"/><path stroke="#ff7a7c" d="M7,2h1M3,6h1"/><path stroke="#ff7878" d="M8,2h1"/><path stroke="#fb7272" d="M9,2h1M2,9h1"/><path stroke="#f06769" d="M10,2h1M2,10h1"/><path stroke="#e96163" opacity="0.9490196078431372" d="M11,2h1M2,11h1"/><path stroke="#e65e60" opacity="0.8274509803921568" d="M12,2h1M2,12h1"/><path stroke="#e45c5f" opacity="0.5490196078431373" d="M13,2h1M2,13h1"/><path stroke="#e35b5e" opacity="0.1568627450980392" d="M14,2h1"/><path stroke="#fe9299" d="M5,3h1"/><path stroke="#fd9497" d="M6,3h1"/><path stroke="#fc8b8b" d="M7,3h1"/><path stroke="#fa7778" d="M8,3h1"/><path stroke="#f36869" d="M9,3h1"/><path stroke="#e85d60" d="M10,3h1"/><path stroke="#e3595c" d="M11,3h1M11,4h1"/><path stroke="#e35b5e" d="M12,3h1"/><path stroke="#e45c5f" opacity="0.8274509803921568" d="M13,3h1"/><path stroke="#e55d60" opacity="0.42745098039215684" d="M14,3h1"/><path stroke="#e75e62" opacity="0.21568627450980393" d="M15,3h1"/><path stroke="#ff99a4" d="M3,4h1"/><path stroke="#ff858b" d="M4,4h1"/><path stroke="#fd9597" d="M5,4h1"/><path stroke="#fac4c6" d="M6,4h1"/><path stroke="#f4bcbe" d="M7,4h1"/><path stroke="#ed7d7f" d="M8,4h1"/><path stroke="#e85a5d" d="M9,4h1"/><path stroke="#e5585b" d="M10,4h1"/><path stroke="#e45b5e" d="M12,4h1"/><path stroke="#e45c5f" opacity="0.9490196078431372" d="M13,4h1"/><path stroke="#e55d60" opacity="0.8196078431372549" d="M14,4h1"/><path stroke="#e55d60" opacity="0.7490196078431373" d="M15,4h1"/><path stroke="#ff9ba6" d="M2,5h1M1,6h1"/><path stroke="#ff888f" d="M3,5h1"/><path stroke="#ff797b" d="M4,5h1"/><path stroke="#fd9797" d="M5,5h1"/><path stroke="#f8dcdf" d="M6,5h1"/><path stroke="#f1e0e3" d="M7,5h1"/><path stroke="#eba0a3" d="M8,5h1"/><path stroke="#e87f82" d="M9,5h1"/><path stroke="#e88285" d="M10,5h1"/><path stroke="#e87a7d" d="M11,5h1"/><path stroke="#e66669" d="M12,5h1"/><path stroke="#e25a5c" d="M13,5h1"/><path stroke="#dc5657" d="M14,5h1"/><path stroke="#da5555" d="M15,5h1"/><path stroke="#ff888e" d="M2,6h1"/><path stroke="#ff7475" d="M4,6h1"/><path stroke="#fd9696" d="M5,6h1"/><path stroke="#f8dadc" d="M6,6h1"/><path stroke="#f4f2f5" d="M7,6h1"/><path stroke="#f2dde0" d="M8,6h1"/><path stroke="#f1d3d6" d="M9,6h1"/><path stroke="#f1d7da" d="M10,6h1"/><path stroke="#efb9bc" d="M11,6h1"/><path stroke="#e97a7e" d="M12,6h1"/><path stroke="#dc5455" d="M13,6h1"/><path stroke="#cb4946" d="M14,6h1"/><path stroke="#c2443f" d="M15,6h1"/><path stroke="#ff8b92" d="M1,7h1"/><path stroke="#ff7d7f" d="M2,7h1M1,8h1"/><path stroke="#fe7171" d="M3,7h1"/><path stroke="#fa6e6e" d="M4,7h1"/><path stroke="#f89091" d="M5,7h1"/><path stroke="#f6d6d9" d="M6,7h1"/><path stroke="#f5fcff" d="M7,7h1"/><path stroke="#f4fdff" d="M8,7h1"/><path stroke="#f3f4f8" d="M9,7h1"/><path stroke="#f3e2e5" d="M10,7h1"/><path stroke="#edb6b9" d="M11,7h1"/><path stroke="#e07475" d="M12,7h1"/><path stroke="#cc4948" d="M13,7h1"/><path stroke="#b33a35" d="M14,7h1"/><path stroke="#a7342d" d="M15,7h1"/><path stroke="#ff7979" d="M2,8h1"/><path stroke="#fa6f6f" d="M3,8h1"/><path stroke="#ef6365" d="M4,8h1"/><path stroke="#ed8688" d="M5,8h1"/><path stroke="#f3d3d6" d="M6,8h1"/><path stroke="#f4fcff" d="M7,8h1"/><path stroke="#f0fcff" d="M8,8h1"/><path stroke="#eddde2" d="M9,8h1"/><path stroke="#eba2a6" d="M10,8h1"/><path stroke="#e07374" d="M11,8h1"/><path stroke="#cc5250" d="M12,8h1"/><path stroke="#b33b36" d="M13,8h1"/><path stroke="#992d28" d="M14,8h1"/><path stroke="#8c2621" d="M15,8h1"/><path stroke="#f3686a" d="M3,9h1"/><path stroke="#e85d5f" d="M4,9h1"/><path stroke="#e78185" d="M5,9h1"/><path stroke="#efd3d7" d="M6,9h1"/><path stroke="#f2f3f7" d="M7,9h1"/><path stroke="#eddce2" d="M8,9h1"/><path stroke="#e6aeb2" d="M9,9h1"/><path stroke="#dd6e70" d="M10,9h1M9,10h1"/><path stroke="#d04948" d="M11,9h1M9,11h1"/><path stroke="#bf403a" d="M12,9h1M9,12h1"/><path stroke="#a7342e" d="M13,9h1"/><path stroke="#8d2622" d="M14,9h1"/><path stroke="#7f201c" d="M15,9h1"/><path stroke="#fa7171" d="M1,10h1"/><path stroke="#e85e60" d="M3,10h1"/><path stroke="#e5595c" d="M4,10h1"/><path stroke="#e68286" d="M5,10h1"/><path stroke="#ecd3d8" d="M6,10h1"/><path stroke="#eedee3" d="M7,10h1"/><path stroke="#eaa0a5" d="M8,10h1"/><path stroke="#ca4f4d" d="M10,10h1"/><path stroke="#be3f3a" d="M11,10h1M10,11h1"/><path stroke="#ba3d36" d="M12,10h1"/><path stroke="#a9352f" d="M13,10h1"/><path stroke="#8d2722" d="M14,10h1M10,15h1"/><path stroke="#80201c" d="M15,10h1"/><path stroke="#e35a5d" d="M3,11h1"/><path stroke="#e4595d" d="M4,11h1"/><path stroke="#e3777a" d="M5,11h1"/><path stroke="#e0aeb1" d="M6,11h1"/><path stroke="#ddabae" d="M7,11h1"/><path stroke="#db6f70" d="M8,11h1"/><path stroke="#b23a33" d="M11,11h1M9,13h1"/><path stroke="#ac3730" d="M12,11h1M11,12h1M9,14h1"/><path stroke="#a1312b" opacity="0.9490196078431372" d="M13,11h1"/><path stroke="#8d2722" opacity="0.8196078431372549" d="M14,11h1"/><path stroke="#80201c" opacity="0.7490196078431373" d="M15,11h1"/><path stroke="#e45c5f" d="M3,12h1"/><path stroke="#e55c5f" d="M4,12h1"/><path stroke="#dd6061" d="M5,12h1"/><path stroke="#cb6664" d="M6,12h1"/><path stroke="#c25f5a" d="M7,12h1"/><path stroke="#c14b46" d="M8,12h1"/><path stroke="#ba3d37" d="M10,12h1"/><path stroke="#982c27" d="M12,12h1M10,14h1"/><path stroke="#8c2622" opacity="0.8274509803921568" d="M13,12h1M12,13h1"/><path stroke="#882420" opacity="0.42745098039215684" d="M14,12h1"/><path stroke="#80201c" opacity="0.21568627450980393" d="M15,12h1"/><path stroke="#e25a5d" opacity="0.1568627450980392" d="M1,13h1"/><path stroke="#e15a5d" opacity="0.8274509803921568" d="M3,13h1"/><path stroke="#dc5657" opacity="0.9490196078431372" d="M4,13h1"/><path stroke="#d04d4c" d="M5,13h1"/><path stroke="#bd3f39" d="M6,13h1"/><path stroke="#b43831" d="M7,13h1"/><path stroke="#b53a33" d="M8,13h1"/><path stroke="#ac3731" d="M10,13h1"/><path stroke="#a0312b" opacity="0.9490196078431372" d="M11,13h1"/><path stroke="#7f1f1b" opacity="0.5490196078431373" d="M13,13h1"/><path stroke="#7c1e1a" opacity="0.1568627450980392" d="M14,13h1M13,14h1"/><path stroke="#ea5e65" opacity="0.03529411764705882" d="M1,14h1"/><path stroke="#e95f63" opacity="0.1568627450980392" d="M2,14h1"/><path stroke="#d14f4d" opacity="0.42745098039215684" d="M3,14h1"/><path stroke="#c44642" opacity="0.8196078431372549" d="M4,14h1"/><path stroke="#be413c" d="M5,14h1"/><path stroke="#b83c35" d="M6,14h1"/><path stroke="#b63a33" d="M7,14h1"/><path stroke="#b63b34" d="M8,14h1"/><path stroke="#8c2622" opacity="0.8196078431372549" d="M11,14h1"/><path stroke="#86231f" opacity="0.42745098039215684" d="M12,14h1"/><path stroke="#771b18" opacity="0.03529411764705882" d="M14,14h1"/><path stroke="#af372f" opacity="0.21568627450980393" d="M3,15h1"/><path stroke="#b43b33" opacity="0.7490196078431373" d="M4,15h1"/><path stroke="#b53b34" d="M5,15h1"/><path stroke="#b63c35" d="M6,15h1"/><path stroke="#b73c35" d="M7,15h1"/><path stroke="#b73d36" d="M8,15h1"/><path stroke="#a8352f" d="M9,15h1"/><path stroke="#7f1f1b" opacity="0.7490196078431373" d="M11,15h1"/><path stroke="#7d1e1a" opacity="0.21568627450980393" d="M12,15h1"/></svg>
