<svg xmlns="http://www.w3.org/2000/svg" shape-rendering="crispEdges" viewBox="0 -0.5 16 16" width="16" height="16"><metadata>Generated with pixel-perfect-svg https://github.com/kagof/pixel-perfect-svg</metadata><path stroke="#ffbeca" opacity="0.21176470588235294" d="M1,0h1M0,1h1"/><path stroke="#ffbdc9" opacity="0.7411764705882353" d="M2,0h1M0,2h1"/><path stroke="#ffb4c0" d="M3,0h1M0,3h1"/><path stroke="#ffa3b0" d="M4,0h1M0,4h1"/><path stroke="#ff9ba8" d="M5,0h1M0,5h1"/><path stroke="#ff9caa" d="M6,0h1M0,6h1"/><path stroke="#ff939d" d="M7,0h1M0,7h1"/><path stroke="#ff7f82" d="M8,0h1M0,8h1"/><path stroke="#ff7575" d="M9,0h1M4,6h1"/><path stroke="#ff7676" d="M10,0h1"/><path stroke="#ff7777" d="M11,0h2"/><path stroke="#ff7777" opacity="0.7411764705882353" d="M13,0h1"/><path stroke="#ff7a79" opacity="0.21176470588235294" d="M14,0h1"/><path stroke="#ffb8c4" opacity="0.41568627450980394" d="M1,1h1"/><path stroke="#ffb5c1" opacity="0.807843137254902" d="M2,1h1M1,2h1"/><path stroke="#ffaeba" d="M3,1h1M1,3h1"/><path stroke="#ffa2af" d="M4,1h1M1,4h1"/><path stroke="#ff99a5" d="M5,1h1"/><path stroke="#ff939e" d="M6,1h1M3,4h1"/><path stroke="#ff8a91" d="M7,1h1"/><path stroke="#ff7d7f" d="M8,1h1M2,7h1M1,8h1"/><path stroke="#fe7474" d="M9,1h1M1,9h1"/><path stroke="#fa7171" d="M10,1h1"/><path stroke="#f97070" d="M11,1h1"/><path stroke="#f97071" d="M12,1h1M0,11h1"/><path stroke="#f76f6f" opacity="0.807843137254902" d="M13,1h1"/><path stroke="#f1686a" opacity="0.41568627450980394" d="M14,1h1"/><path stroke="#e45b5f" opacity="0.21176470588235294" d="M15,1h1"/><path stroke="#ffa8b5" opacity="0.9372549019607843" d="M2,2h1"/><path stroke="#ffa1ae" d="M3,2h1M2,3h1"/><path stroke="#ff9eab" d="M4,2h1M2,4h1"/><path stroke="#ff949f" d="M5,2h1M4,3h1"/><path stroke="#ff848a" d="M6,2h1"/><path stroke="#ff7b7d" d="M7,2h1"/><path stroke="#ff7879" d="M8,2h1"/><path stroke="#fb7272" d="M9,2h1M2,9h1"/><path stroke="#f06769" d="M10,2h1M2,10h1"/><path stroke="#ea6264" d="M11,2h1"/><path stroke="#eb6265" d="M12,2h1M0,12h1"/><path stroke="#ea6164" opacity="0.9372549019607843" d="M13,2h1"/><path stroke="#e75f62" opacity="0.807843137254902" d="M14,2h1"/><path stroke="#e55d60" opacity="0.7411764705882353" d="M15,2h1"/><path stroke="#ff98a5" d="M3,3h1"/><path stroke="#fe939a" d="M5,3h1"/><path stroke="#fd9597" d="M6,3h1"/><path stroke="#fc8b8b" d="M7,3h1"/><path stroke="#fa7778" d="M8,3h1"/><path stroke="#f36869" d="M9,3h1"/><path stroke="#e85d60" d="M10,3h1"/><path stroke="#e3595d" d="M11,3h1"/><path stroke="#e45b5e" d="M12,3h1"/><path stroke="#e15a5d" d="M13,3h1"/><path stroke="#dc5657" d="M14,3h1"/><path stroke="#d95455" d="M15,3h1M3,13h1"/><path stroke="#ff8489" d="M4,4h1"/><path stroke="#fd9598" d="M5,4h1"/><path stroke="#fac4c7" d="M6,4h1"/><path stroke="#f4bcbe" d="M7,4h1"/><path stroke="#ed7d7f" d="M8,4h1"/><path stroke="#e85a5d" d="M9,4h1"/><path stroke="#e5585b" d="M10,4h1"/><path stroke="#e4595c" d="M11,4h1"/><path stroke="#e55c5f" d="M12,4h1"/><path stroke="#dc5658" d="M13,4h1"/><path stroke="#ca4a47" d="M14,4h1"/><path stroke="#c1433f" d="M15,4h1"/><path stroke="#ff99a6" d="M1,5h1"/><path stroke="#ff95a0" d="M2,5h1M1,6h1"/><path stroke="#ff8990" d="M3,5h1"/><path stroke="#ff797b" d="M4,5h1"/><path stroke="#fd9797" d="M5,5h1"/><path stroke="#f8dcdf" d="M6,5h1"/><path stroke="#f1e0e3" d="M7,5h1"/><path stroke="#eba0a3" d="M8,5h1"/><path stroke="#e87f83" d="M9,5h1"/><path stroke="#e98386" d="M10,5h1"/><path stroke="#e6797c" d="M11,5h1"/><path stroke="#de6062" d="M12,5h1"/><path stroke="#d04d4b" d="M13,5h1"/><path stroke="#bd413b" d="M14,5h1"/><path stroke="#b43b33" d="M15,5h1"/><path stroke="#ff868c" d="M2,6h1"/><path stroke="#ff7a7c" d="M3,6h1"/><path stroke="#fd9696" d="M5,6h1"/><path stroke="#f8dadc" d="M6,6h1"/><path stroke="#f4f2f5" d="M7,6h1"/><path stroke="#f2dde0" d="M8,6h1"/><path stroke="#f2d4d7" d="M9,6h1"/><path stroke="#f3d7db" d="M10,6h1"/><path stroke="#e7b3b4" d="M11,6h1"/><path stroke="#cd6765" d="M12,6h1"/><path stroke="#bd3e39" d="M13,6h1"/><path stroke="#b83c35" d="M14,6h1M6,14h1"/><path stroke="#b63b34" d="M15,6h1"/><path stroke="#ff8b93" d="M1,7h1"/><path stroke="#fe7171" d="M3,7h1"/><path stroke="#fa6e6e" d="M4,7h1"/><path stroke="#f89091" d="M5,7h1"/><path stroke="#f6d6d9" d="M6,7h1"/><path stroke="#f5fcff" d="M7,7h1"/><path stroke="#f4fdff" d="M8,7h1"/><path stroke="#f1f4f7" d="M9,7h1"/><path stroke="#ebdfe1" d="M10,7h1"/><path stroke="#daadab" d="M11,7h1"/><path stroke="#c15f5a" d="M12,7h1"/><path stroke="#b23730" d="M13,7h1"/><path stroke="#b03830" d="M14,7h1M7,14h1"/><path stroke="#b03a32" d="M15,7h1M13,10h1M10,13h1M7,15h1"/><path stroke="#ff7979" d="M2,8h1"/><path stroke="#fa6f6f" d="M3,8h1"/><path stroke="#ef6365" d="M4,8h1"/><path stroke="#ed8688" d="M5,8h1"/><path stroke="#f2d3d6" d="M6,8h1"/><path stroke="#f5fdff" d="M7,8h1"/><path stroke="#f2fdff" d="M8,8h1"/><path stroke="#e5dadd" d="M9,8h1"/><path stroke="#d09997" d="M10,8h1"/><path stroke="#c16762" d="M11,8h1"/><path stroke="#b94942" d="M12,8h1"/><path stroke="#b03930" d="M13,8h1M8,13h1"/><path stroke="#a7362c" d="M14,8h1M8,14h1"/><path stroke="#a2352a" d="M15,8h1M14,9h1M14,10h1M9,14h1M8,15h1"/><path stroke="#ff7675" d="M0,9h1"/><path stroke="#f3686a" d="M3,9h1"/><path stroke="#e85d5f" d="M4,9h1"/><path stroke="#e78185" d="M5,9h1"/><path stroke="#f0d3d7" d="M6,9h1"/><path stroke="#eff2f6" d="M7,9h1"/><path stroke="#e4dadd" d="M8,9h1"/><path stroke="#d3a8a8" d="M9,9h1"/><path stroke="#be645f" d="M10,9h1M9,10h1"/><path stroke="#b44039" d="M11,9h1"/><path stroke="#b63d35" d="M12,9h1"/><path stroke="#b03a31" d="M13,9h1M9,13h1"/><path stroke="#9b3326" d="M15,9h1"/><path stroke="#ff7776" d="M0,10h1"/><path stroke="#fb7172" d="M1,10h1"/><path stroke="#e85e60" d="M3,10h1"/><path stroke="#e5595c" d="M4,10h1"/><path stroke="#e78386" d="M5,10h1"/><path stroke="#edd4d9" d="M6,10h1"/><path stroke="#e4dbdf" d="M7,10h1"/><path stroke="#ce9796" d="M8,10h1"/><path stroke="#b84943" d="M10,10h1"/><path stroke="#b63c35" d="M11,10h1M10,11h1M6,15h1"/><path stroke="#b73c35" d="M12,10h1M10,12h1"/><path stroke="#9b3327" d="M15,10h1M9,15h1"/><path stroke="#f36b6c" d="M1,11h1"/><path stroke="#e96163" d="M2,11h1M1,12h1"/><path stroke="#e45a5d" d="M3,11h2"/><path stroke="#e4777b" d="M5,11h1"/><path stroke="#e1aeb2" d="M6,11h1"/><path stroke="#d4a8a9" d="M7,11h1"/><path stroke="#bf6661" d="M8,11h1"/><path stroke="#b54039" d="M9,11h1"/><path stroke="#b53b34" d="M11,11h1M3,15h3"/><path stroke="#b23b33" d="M12,11h1M11,12h1"/><path stroke="#a9372f" d="M13,11h1"/><path stroke="#9c3128" d="M14,11h1M13,12h1"/><path stroke="#952e24" d="M15,11h1"/><path stroke="#e65e61" d="M2,12h1"/><path stroke="#e55c60" d="M3,12h1"/><path stroke="#e65c60" d="M4,12h1"/><path stroke="#dd6062" d="M5,12h1"/><path stroke="#cb6664" d="M6,12h1"/><path stroke="#bf5e59" d="M7,12h1"/><path stroke="#b84842" d="M8,12h1"/><path stroke="#b63d36" d="M9,12h1"/><path stroke="#a9382e" d="M12,12h1"/><path stroke="#8e2922" d="M14,12h1"/><path stroke="#87251f" d="M15,12h1"/><path stroke="#e45c5f" opacity="0.7411764705882353" d="M0,13h1"/><path stroke="#e0595b" opacity="0.807843137254902" d="M1,13h1"/><path stroke="#db5556" opacity="0.9372549019607843" d="M2,13h1"/><path stroke="#d95555" d="M4,13h1"/><path stroke="#d04d4c" d="M5,13h1"/><path stroke="#bd3f39" d="M6,13h1"/><path stroke="#b33830" d="M7,13h1"/><path stroke="#a8372d" d="M11,13h1"/><path stroke="#983022" d="M12,13h1"/><path stroke="#8d2a1d" opacity="0.9372549019607843" d="M13,13h1"/><path stroke="#85241d" opacity="0.807843137254902" d="M14,13h1"/><path stroke="#81201d" opacity="0.7411764705882353" d="M15,13h1"/><path stroke="#e75e62" opacity="0.21176470588235294" d="M0,14h1"/><path stroke="#cf4d4c" opacity="0.41568627450980394" d="M1,14h1"/><path stroke="#c34541" opacity="0.807843137254902" d="M2,14h1"/><path stroke="#c1443f" d="M3,14h2"/><path stroke="#be413c" d="M5,14h1"/><path stroke="#a3352b" d="M10,14h1"/><path stroke="#983023" d="M11,14h1"/><path stroke="#852613" d="M12,14h1"/><path stroke="#7b210c" opacity="0.807843137254902" d="M13,14h1"/><path stroke="#7c2012" opacity="0.41568627450980394" d="M14,14h1"/><path stroke="#81201f" opacity="0.21176470588235294" d="M15,14h1"/><path stroke="#af372f" opacity="0.21176470588235294" d="M1,15h1"/><path stroke="#b43b33" opacity="0.7411764705882353" d="M2,15h1"/><path stroke="#9c3327" d="M10,15h1"/><path stroke="#902d1d" d="M11,15h1"/><path stroke="#7b210b" d="M12,15h1"/><path stroke="#6f1a00" opacity="0.7411764705882353" d="M13,15h1"/><path stroke="#6c1900" opacity="0.21176470588235294" d="M14,15h1"/></svg>
