<svg xmlns="http://www.w3.org/2000/svg" shape-rendering="crispEdges" viewBox="0 -0.5 16 16" width="16" height="16"><metadata>Generated with pixel-perfect-svg https://github.com/kagof/pixel-perfect-svg</metadata><path stroke="#ffbbc7" d="M4,0h2M4,1h2M2,2h2M2,3h2M0,4h2M0,5h2"/><path stroke="#ff9ba8" d="M6,0h2M6,1h2M4,2h2M4,3h2M2,4h2M2,5h2M0,6h2M0,7h2"/><path stroke="#ff7676" d="M8,0h4M8,1h4M6,2h4M6,3h4M4,4h2M4,5h2M2,6h4M2,7h4M0,8h4M0,9h4M0,10h2M0,11h2"/><path stroke="#e45c5f" d="M10,2h4M10,3h4M8,4h8M8,5h8M12,6h2M12,7h2M4,8h2M10,8h2M4,9h2M10,9h2M2,10h4M8,10h2M2,11h4M8,11h2M2,12h4M2,13h4"/><path stroke="#f5f7fa" d="M6,4h2M6,5h2M6,6h6M6,7h6M6,8h2M6,9h2"/><path stroke="#b63c35" d="M14,6h2M14,7h2M12,8h2M12,9h2M10,10h4M10,11h4M6,12h6M6,13h6M4,14h6M4,15h6"/><path stroke="#ebf0f6" d="M8,8h2M8,9h2M6,10h2M6,11h2"/><path stroke="#82211d" d="M14,8h2M14,9h2M14,10h2M14,11h2M12,12h2M12,13h2M10,14h2M10,15h2"/></svg>
