<svg xmlns="http://www.w3.org/2000/svg" shape-rendering="crispEdges" viewBox="0 -0.5 8 8" width="8" height="8"><metadata>Generated with pixel-perfect-svg https://github.com/kagof/pixel-perfect-svg</metadata><path stroke="#87ae8e" d="M0,0h1"/><path stroke="#498960" d="M1,0h1M0,1h2M3,6h2M3,7h1"/><path stroke="#e0faeb" d="M3,0h1M0,3h1"/><path stroke="#91daa1" d="M4,0h1M3,1h2M1,3h1M0,4h2M6,6h2M6,7h1"/><path stroke="#8ac196" d="M6,0h1M3,3h1M7,7h1"/><path stroke="#55b67d" d="M7,0h1M6,1h1M4,3h1M3,4h1"/><path stroke="#71957d" d="M7,1h1M4,4h1"/><path stroke="#325c40" d="M6,3h2M6,4h1M1,6h1M0,7h1"/><path stroke="#2d4b47" d="M7,4h1M1,7h1"/><path stroke="#5b7b69" d="M0,6h1"/><path stroke="#47655a" d="M4,7h1"/></svg>
