<svg xmlns="http://www.w3.org/2000/svg" shape-rendering="crispEdges" viewBox="0 -0.5 8 8" width="8" height="8"><metadata>Generated with pixel-perfect-svg https://github.com/kagof/pixel-perfect-svg</metadata><path stroke="#434549" d="M1,0h2M0,1h1"/><path stroke="#222323" d="M3,0h2M1,1h1M3,1h1M0,2h1M0,3h1"/><path stroke="#000000" d="M5,0h2M4,1h1M6,1h2M2,2h2M5,2h3M1,3h1M5,3h1M7,3h1M0,4h2M7,4h1M0,5h1M3,5h1M5,5h3M0,6h2M3,6h2M6,6h2M1,7h6"/><path stroke="#f5f7fa" d="M2,1h1M5,1h1M1,2h1M4,2h1M2,3h2M2,4h1M1,5h1"/><path stroke="#ebf0f6" d="M4,3h1M6,3h1M3,4h2M2,5h1"/><path stroke="#cdd2da" d="M5,4h2M4,5h1M2,6h1M5,6h1"/></svg>
