<svg xmlns="http://www.w3.org/2000/svg" shape-rendering="crispEdges" viewBox="0 -0.5 8 8" width="8" height="8"><metadata>Generated with pixel-perfect-svg https://github.com/kagof/pixel-perfect-svg</metadata><path stroke="#ff9ba8" d="M2,0h1M1,1h1"/><path stroke="#ff7676" d="M3,0h1M2,1h1"/><path stroke="#f85d80" d="M4,0h1"/><path stroke="#e45c5f" d="M5,0h1M3,1h1"/><path stroke="#d94a69" d="M4,1h1"/><path stroke="#b63c35" d="M5,1h2"/><path stroke="#ffcf05" d="M0,2h1"/><path stroke="#ffbc4e" d="M1,2h1M0,3h1"/><path stroke="#e37840" d="M2,2h1"/><path stroke="#ffb108" d="M1,3h1M0,4h1"/><path stroke="#41b2e3" d="M4,3h2"/><path stroke="#4097ea" d="M6,3h1"/><path stroke="#f99b4e" d="M1,4h1M0,5h1"/><path stroke="#318eb8" d="M4,4h1M7,4h1M7,5h1"/><path stroke="#1476c0" d="M5,4h2"/><path stroke="#e98627" d="M1,5h1"/><path stroke="#969a26" d="M2,5h1"/><path stroke="#498960" d="M5,5h1M4,6h1"/><path stroke="#366b8a" d="M6,5h1"/><path stroke="#91daa1" d="M1,6h1"/><path stroke="#8ac196" d="M2,6h1M2,7h1"/><path stroke="#87ae8e" d="M3,6h1"/><path stroke="#417455" d="M5,6h1"/><path stroke="#006b6d" d="M6,6h1M5,7h1"/><path stroke="#55b67d" d="M3,7h1"/><path stroke="#008279" d="M4,7h1"/></svg>
