<svg xmlns="http://www.w3.org/2000/svg" shape-rendering="crispEdges" viewBox="0 -0.5 8 8" width="8" height="8"><metadata>Generated with pixel-perfect-svg https://github.com/kagof/pixel-perfect-svg</metadata><path stroke="#ffbbc7" d="M2,0h1M1,1h1M0,2h1"/><path stroke="#ff9ba8" d="M3,0h1M2,1h1M1,2h1M0,3h1"/><path stroke="#ff7676" d="M4,0h2M3,1h2M2,2h1M1,3h2M0,4h2M0,5h1"/><path stroke="#e45c5f" d="M5,1h2M4,2h4M6,3h1M2,4h1M5,4h1M1,5h2M4,5h1M1,6h2"/><path stroke="#f5f7fa" d="M3,2h1M3,3h3M3,4h1"/><path stroke="#b63c35" d="M7,3h1M6,4h1M5,5h2M3,6h3M2,7h3"/><path stroke="#ebf0f6" d="M4,4h1M3,5h1"/><path stroke="#82211d" d="M7,4h1M7,5h1M6,6h1M5,7h1"/></svg>
