<svg xmlns="http://www.w3.org/2000/svg" shape-rendering="crispEdges" viewBox="0 -0.5 8 8" width="8" height="8"><metadata>Generated with pixel-perfect-svg https://github.com/kagof/pixel-perfect-svg</metadata><path stroke="#52d2ff" d="M3,0h1M1,3h1"/><path stroke="#55b1f1" d="M4,0h1M3,1h1M2,3h1M1,4h1M0,5h1"/><path stroke="#74f5fd" d="M2,1h1"/><path stroke="#41b2e3" d="M4,1h1M3,2h1M2,4h1M1,5h1M0,6h1"/><path stroke="#4097ea" d="M5,1h1M4,2h2M5,3h2M2,5h1M1,6h1M0,7h1"/><path stroke="#6dccff" d="M2,2h1"/><path stroke="#1476c0" d="M5,4h1M3,5h1"/><path stroke="#366b8a" d="M6,4h1M4,5h2M3,6h2"/><path stroke="#105da2" d="M6,5h2M5,6h2"/><path stroke="#318eb8" d="M2,6h1M1,7h1"/><path stroke="#07487c" d="M7,6h1M6,7h1"/><path stroke="#25466b" d="M7,7h1"/></svg>
