<svg xmlns="http://www.w3.org/2000/svg" shape-rendering="crispEdges" viewBox="0 -0.5 8 8" width="8" height="8"><metadata>Generated with pixel-perfect-svg https://github.com/kagof/pixel-perfect-svg</metadata><path stroke="#ff9ba8" d="M2,0h1M1,1h1"/><path stroke="#ff7676" d="M3,0h2M2,1h2M1,2h1M1,3h1"/><path stroke="#f85d80" d="M5,0h1M4,1h2M2,2h1"/><path stroke="#e45c5f" d="M6,1h1M5,2h2"/><path stroke="#ff7daf" d="M0,2h1"/><path stroke="#ffdbff" d="M3,2h1M2,3h1"/><path stroke="#ffcdff" d="M4,2h1"/><path stroke="#d94a69" d="M7,2h1"/><path stroke="#a9d1c1" d="M0,3h1M3,5h1"/><path stroke="#41b2e3" d="M3,3h1"/><path stroke="#4097ea" d="M4,3h1M3,4h1"/><path stroke="#fedfb1" d="M5,3h1"/><path stroke="#ffbc4e" d="M6,3h1M6,4h1M5,5h1"/><path stroke="#ffb108" d="M7,3h1M4,6h1"/><path stroke="#91daa1" d="M0,4h1"/><path stroke="#55b67d" d="M1,4h1M0,5h2"/><path stroke="#e0faeb" d="M2,4h1"/><path stroke="#318eb8" d="M4,4h1"/><path stroke="#ffd59b" d="M5,4h1"/><path stroke="#f99b4e" d="M7,4h1M6,5h1M5,6h1"/><path stroke="#00a087" d="M2,5h1M1,6h2"/><path stroke="#ffce7f" d="M4,5h1"/><path stroke="#e98627" d="M7,5h1M6,6h1M3,7h3"/><path stroke="#498960" d="M3,6h1"/><path stroke="#008279" d="M2,7h1"/></svg>
