<svg xmlns="http://www.w3.org/2000/svg" shape-rendering="crispEdges" viewBox="0 -0.5 8 8" width="8" height="8"><metadata>Generated with pixel-perfect-svg https://github.com/kagof/pixel-perfect-svg</metadata><path stroke="#d1bdfe" d="M2,0h1"/><path stroke="#9c9bef" d="M3,0h1M1,2h1M0,3h1"/><path stroke="#8393c3" d="M4,0h1M3,1h1M2,3h1"/><path stroke="#6c82c4" d="M5,0h1M4,1h1M0,4h1M0,5h1"/><path stroke="#dcd4ff" d="M1,1h1"/><path stroke="#f5f7fa" d="M2,1h1M5,1h1M2,2h3M1,3h1"/><path stroke="#5274c5" d="M6,1h1M6,2h2M5,3h1M1,5h1M3,5h1M1,6h2"/><path stroke="#baabf7" d="M0,2h1"/><path stroke="#ebf0f6" d="M5,2h1M3,3h2M6,3h1M2,4h4"/><path stroke="#5165ae" d="M7,3h1M4,5h1M6,5h1M3,6h2M2,7h1"/><path stroke="#cdd2da" d="M1,4h1M6,4h1M2,5h1M5,5h1"/><path stroke="#3d5083" d="M7,4h1M5,6h1M3,7h2"/><path stroke="#3c3151" d="M7,5h1M6,6h1M5,7h1"/></svg>
