<svg xmlns="http://www.w3.org/2000/svg" shape-rendering="crispEdges" viewBox="0 -0.5 8 8" width="8" height="8"><metadata>Generated with pixel-perfect-svg https://github.com/kagof/pixel-perfect-svg</metadata><path stroke="#fff02b" d="M4,0h1"/><path stroke="#ffe949" d="M5,0h1M5,1h1"/><path stroke="#ffce7f" d="M1,1h1M0,2h1"/><path stroke="#ffbc4e" d="M2,1h1M1,2h1M6,2h2M0,3h1M6,3h1"/><path stroke="#ffcf05" d="M6,1h1M5,2h1"/><path stroke="#dcd4ff" d="M2,2h1"/><path stroke="#d1bdfe" d="M3,2h1"/><path stroke="#a996ec" d="M4,2h1M5,3h1"/><path stroke="#f99b4e" d="M1,3h1M7,3h1M0,4h2M6,4h1M0,5h1"/><path stroke="#baabf7" d="M2,3h1"/><path stroke="#9c9bef" d="M3,3h1"/><path stroke="#9585f1" d="M4,3h1M3,4h1"/><path stroke="#5274c5" d="M2,4h1M3,5h1"/><path stroke="#7877c1" d="M4,4h1"/><path stroke="#5165ae" d="M5,4h1M4,5h1"/><path stroke="#cd5e46" d="M7,4h1M6,5h1M1,6h1M5,6h1M2,7h1"/><path stroke="#e37840" d="M1,5h1M2,6h1"/><path stroke="#e98627" d="M2,5h1M5,5h1M3,6h2"/><path stroke="#bf5a3e" d="M7,5h1M3,7h2"/><path stroke="#b64d46" d="M6,6h1M5,7h1"/></svg>
