<svg xmlns="http://www.w3.org/2000/svg" shape-rendering="crispEdges" viewBox="0 -0.5 8 8" width="8" height="8"><metadata>Generated with pixel-perfect-svg https://github.com/kagof/pixel-perfect-svg</metadata><path stroke="#ff9ba8" d="M0,0h8M0,1h2M3,1h2M6,1h2"/><path stroke="#b63c35" d="M2,1h1M5,1h1M0,2h2M3,2h2M6,2h2M7,6h1M4,7h3"/><path stroke="#e45c5f" d="M2,2h1M5,2h1M0,3h2M3,3h2M6,3h2M0,4h1M7,4h1M0,5h2M6,5h2M0,6h2M3,6h2M6,6h1M1,7h3"/><path stroke="#ebf0f6" d="M2,3h1M5,3h1M1,4h6M2,5h4M2,6h1"/><path stroke="#bac7db" d="M5,6h1"/></svg>
