<svg xmlns="http://www.w3.org/2000/svg" shape-rendering="crispEdges" viewBox="0 -0.5 8 8" width="8" height="8"><metadata>Generated with pixel-perfect-svg https://github.com/kagof/pixel-perfect-svg</metadata><path stroke="#e0faeb" d="M2,0h1M0,2h1"/><path stroke="#a9d1c1" d="M3,0h2M2,1h2M1,2h1M0,3h1"/><path stroke="#91daa1" d="M5,0h1M4,1h1M2,3h1M0,4h2M0,5h1"/><path stroke="#ebf0f6" d="M1,1h1"/><path stroke="#55b67d" d="M5,1h2M6,2h2M3,3h3M2,4h1M5,4h1M1,5h1M3,5h2M1,6h2"/><path stroke="#626871" d="M2,2h1"/><path stroke="#434549" d="M3,2h1"/><path stroke="#2d3136" d="M4,2h2M6,3h1M3,4h2M2,5h1M3,6h1"/><path stroke="#48474d" d="M1,3h1"/><path stroke="#498960" d="M7,3h1M6,4h1M2,7h2"/><path stroke="#417455" d="M7,4h1M6,5h1M5,6h1M4,7h1"/><path stroke="#222323" d="M5,5h1M4,6h1"/><path stroke="#325c40" d="M7,5h1M6,6h1M5,7h1"/></svg>
