<svg xmlns="http://www.w3.org/2000/svg" shape-rendering="crispEdges" viewBox="0 -0.5 8 8" width="8" height="8"><metadata>Generated with pixel-perfect-svg https://github.com/kagof/pixel-perfect-svg</metadata><path stroke="#8393c3" d="M2,0h2M1,1h1M0,2h1"/><path stroke="#6c82c4" d="M4,0h1M3,1h1M1,2h1M0,3h1"/><path stroke="#5274c5" d="M5,0h1M4,1h1M6,1h1M6,2h2M2,3h1M5,3h1M7,3h1M0,4h1M0,5h2M3,5h2M1,6h3M2,7h1"/><path stroke="#f5f7fa" d="M2,1h1M5,1h1M2,2h4M1,3h1M3,3h2M6,3h1M2,4h4"/><path stroke="#cdd2da" d="M1,4h1M6,4h1M2,5h1M5,5h1"/><path stroke="#3d5083" d="M7,4h1M7,5h1M5,6h2M3,7h3"/><path stroke="#5165ae" d="M6,5h1M4,6h1"/></svg>
