<svg xmlns="http://www.w3.org/2000/svg" shape-rendering="crispEdges" viewBox="0 -0.5 8 8" width="8" height="8"><metadata>Generated with pixel-perfect-svg https://github.com/kagof/pixel-perfect-svg</metadata><path stroke="#ffbc4e" d="M2,0h2M1,1h2M3,2h1"/><path stroke="#f99b4e" d="M4,0h1M1,2h1M1,3h1"/><path stroke="#e37840" d="M5,0h2M6,1h2M7,2h1M7,3h1M1,4h1M1,5h1M1,6h2M2,7h2"/><path stroke="#df7126" d="M4,2h1M3,3h1M5,3h1M3,4h1"/><path stroke="#cd5e46" d="M4,4h1M7,4h1M3,5h1M7,5h1M4,7h1"/><path stroke="#b64d46" d="M5,5h1M6,6h2M5,7h2"/></svg>
