<svg xmlns="http://www.w3.org/2000/svg" shape-rendering="crispEdges" viewBox="0 -0.5 8 8" width="8" height="8"><metadata>Generated with pixel-perfect-svg https://github.com/kagof/pixel-perfect-svg</metadata><path stroke="#434549" d="M2,0h1M1,1h1"/><path stroke="#222323" d="M3,0h1M2,1h1M1,2h1M3,2h1M7,5h1M2,6h1M6,6h2M4,7h2"/><path stroke="#f5f7fa" d="M4,0h1M1,3h1M7,3h1M2,7h1M6,7h1"/><path stroke="#000000" d="M5,0h2M6,1h2M4,2h1M7,2h1M3,3h1M5,3h1M1,4h1M3,4h2M7,4h1M1,5h1M3,5h1M5,5h1M1,6h1M3,7h1"/></svg>
