<svg xmlns="http://www.w3.org/2000/svg" shape-rendering="crispEdges" viewBox="0 -0.5 8 8" width="8" height="8"><metadata>Generated with pixel-perfect-svg https://github.com/kagof/pixel-perfect-svg</metadata><path stroke="#91daa1" d="M2,0h4M2,1h3M0,2h2M0,3h1"/><path stroke="#ebf0f6" d="M1,1h1"/><path stroke="#55b67d" d="M5,1h2M6,2h2M2,3h4M7,3h1M0,4h3M5,4h3M0,5h2M3,5h2M1,6h2M2,7h1"/><path stroke="#48474d" d="M2,2h2M1,3h1"/><path stroke="#2d3136" d="M4,2h2M6,3h1M3,4h2M2,5h1M3,6h1"/><path stroke="#222323" d="M5,5h1M4,6h1"/><path stroke="#498960" d="M6,5h1M5,6h1M3,7h2"/><path stroke="#417455" d="M7,5h1M6,6h1M5,7h1"/></svg>
