<svg xmlns="http://www.w3.org/2000/svg" shape-rendering="crispEdges" viewBox="0 -0.5 8 8" width="8" height="8"><metadata>Generated with pixel-perfect-svg https://github.com/kagof/pixel-perfect-svg</metadata><path stroke="#88d6ff" d="M1,0h1M0,1h1"/><path stroke="#55b1f1" d="M2,0h4M1,1h1M0,2h1"/><path stroke="#4097ea" d="M6,0h2M2,1h1M1,2h1M0,3h1"/><path stroke="#1476c0" d="M3,1h5M2,2h6M1,3h7M0,4h7M0,5h2M5,5h1M0,6h3M4,6h1M0,7h1"/><path stroke="#105da2" d="M7,4h1M5,6h1M1,7h2M4,7h1"/><path stroke="#434549" d="M2,5h2M6,5h1M3,6h1"/><path stroke="#222323" d="M4,5h1M7,5h1M6,6h1M3,7h1M5,7h1"/><path stroke="#07487c" d="M7,6h1M6,7h2"/></svg>
