<svg xmlns="http://www.w3.org/2000/svg" shape-rendering="crispEdges" viewBox="0 -0.5 8 8" width="8" height="8"><metadata>Generated with pixel-perfect-svg https://github.com/kagof/pixel-perfect-svg</metadata><path stroke="#ff9ba8" d="M1,0h1M0,1h1"/><path stroke="#ff7676" d="M2,0h4M1,1h2M0,2h2M0,3h1"/><path stroke="#e45c5f" d="M6,0h1M3,1h5M2,2h1M4,2h4M1,3h2M6,3h1M0,4h3M5,4h2M0,5h3M4,5h2M0,6h5M1,7h1"/><path stroke="#f5f7fa" d="M3,2h1M3,3h3M3,4h1"/><path stroke="#b63c35" d="M7,3h1M7,4h1M6,5h2M5,6h2M2,7h3"/><path stroke="#ebf0f6" d="M4,4h1M3,5h1"/><path stroke="#82211d" d="M7,6h1M5,7h2"/></svg>
